<?xml version="1.0" encoding="UTF-8"?><svg id="Layer_1" xmlns="http://www.w3.org/2000/svg" xmlns:xlink="http://www.w3.org/1999/xlink" viewBox="0 0 257.95 595.28"><defs><style>.cls-1{opacity:.2;}.cls-1,.cls-2,.cls-3,.cls-4,.cls-5,.cls-6,.cls-7{fill:#fff;}.cls-8{stroke-width:.21px;}.cls-8,.cls-9,.cls-10,.cls-11,.cls-12,.cls-13{fill:none;}.cls-8,.cls-9,.cls-10,.cls-12,.cls-13{stroke:#0e0f0e;}.cls-8,.cls-11,.cls-13{stroke-linecap:round;stroke-linejoin:round;}.cls-14{fill:#fff7db;}.cls-15{fill:#137d7a;}.cls-16{fill:#1d1d1b;}.cls-17{fill:#d9dbda;}.cls-3{opacity:.5;}.cls-18{fill:#5dc5ea;}.cls-19{fill:#3c3c3b;}.cls-20{fill:#676662;}.cls-9{stroke-width:1.07px;}.cls-9,.cls-10,.cls-12{stroke-miterlimit:10;}.cls-4{opacity:.28;}.cls-21{fill:#0e0f0e;}.cls-22{fill:#33bad0;}.cls-23{fill:#f7f6f7;}.cls-5{opacity:.15;}.cls-10,.cls-11,.cls-13{stroke-width:.28px;}.cls-24{fill:#575756;}.cls-6{opacity:.23;}.cls-25{fill:#009a96;}.cls-7{opacity:.21;}.cls-11{stroke:#1d1d1b;}.cls-26{fill:#5b0218;}.cls-12{stroke-width:.28px;}.cls-27{fill:#841717;}.cls-28{fill:#0e5474;}.cls-29{fill:url(#linear-gradient);}.cls-30{fill:#a9a6a3;}.cls-31{fill:#bddced;}</style><linearGradient id="linear-gradient" x1="129.7" y1="-.24" x2="129.7" y2="598.34" gradientUnits="userSpaceOnUse"><stop offset="0" stop-color="#96d5f4"/><stop offset=".03" stop-color="#86c5e4"/><stop offset=".08" stop-color="#66a7c6"/><stop offset=".15" stop-color="#4b8dac"/><stop offset=".23" stop-color="#357797"/><stop offset=".31" stop-color="#246787"/><stop offset=".42" stop-color="#185c7c"/><stop offset=".58" stop-color="#115575"/><stop offset="1" stop-color="#105474"/></linearGradient></defs><polygon class="cls-29" points="259.19 -.24 .2 -.24 .2 598.34 259.19 596.99 259.19 -.24"/><path class="cls-21" d="M258.76,595.73L0,598.1v-13.57s4.41-8.21,6.03-8.67c2.64-.75,7.3-2.95,10.18-1.51,2.26,1.13,6.87,8.63,7.92,9.05,1.88.75,4.15-5.65,4.9-7.54s3.77-2.26,7.16-3.02c3.39-.75,7.54.38,8.67,1.88,1.95,2.59,1.88,12.44,4.15,12.82,2.26.38,1.36-2.62,2.87-4.5s2.66-4.24,5.29-4.24,4.92-.14,5.29,2.12-1.39,5.49,2.38,4.74,2.87-.93,4.7-2.02c1.54-.92,4.99-.94,6.45-1.23,1.83-.36,5.22,4.3,6.76,4.92,3.79,1.51,6.45,2.15,8.3-.61,2.46-3.69,9.06-3.31,10.14-3.07,2.77.61,4.61,3.07,6.76,3.38,1.92.27,7.5-1.98,10.14-1.23s7.34,3.69,10.45,3.69c2.15,0,3.41-5.49,4.92-7.37s3.81-1.54,6.45-1.54,4.94.27,6.45,2.15,5.19,5.96,7.45,5.58,3.02-3.02,5.28-3.39c2.26-.38,6.03,3.02,9.05,3.39,3.02.38,5.65-1.88,8.67-2.64s20.73,2.26,22.99,0c2.26-2.26,2.64-4.9,4.52-5.65s4.15,1.51,6.79,1.13c2.64-.38,3.39-1.88,5.65-1.88s7.54,3.39,9.42,3.02c1.88-.38,3.91-6.33,5.8-7.46,1.88-1.13,7.42-1.74,9.3-1.74s14.3,9.2,16.94,8.07c2.64-1.13,5.86,14.59.54,14.59"/><ellipse class="cls-3" cx="116.4" cy="315.79" rx="1.18" ry="1.34" transform="translate(-161.32 125.66) rotate(-35.37)"/><ellipse class="cls-3" cx="37.37" cy="274.87" rx="1.18" ry="1.34" transform="translate(-152.22 72.37) rotate(-35.37)"/><ellipse class="cls-3" cx="171.1" cy="263.96" rx="1.18" ry="1.34" transform="translate(-121.21 147.76) rotate(-35.37)"/><ellipse class="cls-3" cx="157.71" cy="356.81" rx=".7" ry=".68" transform="translate(-177.43 157.15) rotate(-35.37)"/><ellipse class="cls-3" cx="80.04" cy="247.56" rx=".7" ry=".68" transform="translate(-128.53 92.03) rotate(-35.37)"/><ellipse class="cls-3" cx="35.95" cy="398.06" rx=".7" ry=".68" transform="translate(-223.79 94.28) rotate(-35.37)"/><ellipse class="cls-3" cx="51.28" cy="420.33" rx=".7" ry=".68" transform="translate(-233.85 107.27) rotate(-35.37)"/><ellipse class="cls-3" cx="25.64" cy="432.33" rx=".7" ry=".68" transform="translate(-245.53 94.64) rotate(-35.37)"/><ellipse class="cls-3" cx="197.3" cy="389.31" rx=".7" ry=".68" transform="translate(-188.94 186.07) rotate(-35.37)"/><ellipse class="cls-3" cx="96.12" cy="462.53" rx=".7" ry=".68" transform="translate(-250 141.01) rotate(-35.37)"/><ellipse class="cls-3" cx="72.23" cy="491.83" rx=".83" ry=".8" transform="translate(-271.37 132.59) rotate(-35.37)"/><ellipse class="cls-3" cx="81.09" cy="499.44" rx=".54" ry=".52" transform="translate(-274.14 139.12) rotate(-35.37)"/><ellipse class="cls-3" cx="19.02" cy="564.87" rx=".54" ry=".52" transform="translate(-323.47 115.27) rotate(-35.37)"/><ellipse class="cls-3" cx="44.41" cy="484.38" rx=".54" ry=".52" transform="translate(-272.19 115.11) rotate(-35.37)"/><ellipse class="cls-3" cx="65.79" cy="537.91" rx=".55" ry=".53" transform="translate(-299.23 137.37) rotate(-35.37)"/><ellipse class="cls-3" cx="81.89" cy="524.16" rx=".7" ry=".68" transform="translate(-288.3 144.15) rotate(-35.37)"/><ellipse class="cls-3" cx="71.73" cy="549.97" rx=".89" ry=".86" transform="translate(-305.12 143.03) rotate(-35.37)"/><ellipse class="cls-3" cx="168.51" cy="465.84" rx=".7" ry=".68" transform="translate(-238.56 183.52) rotate(-35.37)"/><ellipse class="cls-3" cx="253.99" cy="446.25" rx=".7" ry=".68" transform="translate(-211.44 229.39) rotate(-35.37)"/><ellipse class="cls-3" cx="123.97" cy="312.52" rx=".7" ry=".68" transform="translate(-158.02 129.45) rotate(-35.37)"/><ellipse class="cls-3" cx="106.86" cy="334.19" rx=".7" ry=".68" transform="translate(-173.72 123.54) rotate(-35.37)"/><ellipse class="cls-3" cx="138.21" cy="292.5" rx=".7" ry=".68" transform="translate(-143.81 133.99) rotate(-35.37)"/><ellipse class="cls-3" cx="167.04" cy="330.78" rx=".7" ry=".68" transform="translate(-160.64 157.75) rotate(-35.37)"/><path class="cls-3" d="M173.64,309.3c-.16-.23-.1-.56.14-.73s.57-.12.73.11"/><ellipse class="cls-3" cx="145.92" cy="348.27" rx=".7" ry=".68" transform="translate(-174.67 148.75) rotate(-35.37)"/><ellipse class="cls-3" cx="103.01" cy="302.98" rx=".7" ry=".68" transform="translate(-156.37 115.55) rotate(-35.37)"/><ellipse class="cls-3" cx="106.73" cy="290.09" rx=".7" ry=".68" transform="translate(-148.22 115.32) rotate(-35.37)"/><ellipse class="cls-3" cx="63.54" cy="292.51" rx=".7" ry=".68" transform="translate(-157.6 90.77) rotate(-35.37)"/><ellipse class="cls-3" cx="174.46" cy="79.89" rx="1.18" ry="1.34" transform="translate(-14.04 115.74) rotate(-35.37)"/><ellipse class="cls-3" cx="95.44" cy="38.97" rx="1.18" ry="1.34" transform="translate(-4.94 62.44) rotate(-35.37)"/><ellipse class="cls-3" cx="229.16" cy="28.06" rx="1.18" ry="1.34" transform="translate(26.06 137.83) rotate(-35.37)"/><ellipse class="cls-3" cx="215.78" cy="120.91" rx=".7" ry=".68" transform="translate(-30.16 147.22) rotate(-35.37)"/><ellipse class="cls-3" cx="138.11" cy="11.66" rx=".7" ry=".68" transform="translate(18.74 82.1) rotate(-35.37)"/><ellipse class="cls-3" cx="94.02" cy="162.16" rx=".7" ry=".68" transform="translate(-76.52 84.35) rotate(-35.37)"/><ellipse class="cls-3" cx="109.35" cy="184.43" rx=".7" ry=".68" transform="translate(-86.58 97.34) rotate(-35.37)"/><ellipse class="cls-3" cx="83.71" cy="196.43" rx=".7" ry=".68" transform="translate(-98.26 84.71) rotate(-35.37)"/><ellipse class="cls-3" cx="255.37" cy="153.41" rx=".7" ry=".68" transform="translate(-41.67 176.14) rotate(-35.37)"/><ellipse class="cls-3" cx="154.19" cy="226.63" rx=".7" ry=".68" transform="translate(-102.73 131.08) rotate(-35.37)"/><ellipse class="cls-3" cx="130.3" cy="255.93" rx=".83" ry=".8" transform="translate(-124.1 122.66) rotate(-35.37)"/><ellipse class="cls-3" cx="139.16" cy="263.55" rx=".54" ry=".52" transform="translate(-126.87 129.2) rotate(-35.37)"/><ellipse class="cls-3" cx="77.09" cy="328.97" rx=".54" ry=".52" transform="translate(-176.2 105.34) rotate(-35.37)"/><ellipse class="cls-3" cx="102.48" cy="248.48" rx=".54" ry=".52" transform="translate(-124.92 105.18) rotate(-35.37)"/><ellipse class="cls-3" cx="123.86" cy="302.01" rx=".55" ry=".53" transform="translate(-151.96 127.44) rotate(-35.37)"/><ellipse class="cls-3" cx="139.96" cy="288.26" rx=".7" ry=".68" transform="translate(-141.03 134.22) rotate(-35.37)"/><ellipse class="cls-3" cx="129.8" cy="314.07" rx=".89" ry=".86" transform="translate(-157.85 133.1) rotate(-35.37)"/><ellipse class="cls-3" cx="226.58" cy="229.94" rx=".7" ry=".68" transform="translate(-91.29 173.6) rotate(-35.37)"/><ellipse class="cls-3" cx="182.04" cy="76.62" rx=".7" ry=".68" transform="translate(-10.75 119.52) rotate(-35.37)"/><ellipse class="cls-3" cx="164.92" cy="98.29" rx=".7" ry=".68" transform="translate(-26.45 113.61) rotate(-35.37)"/><ellipse class="cls-3" cx="196.28" cy="56.6" rx=".7" ry=".68" transform="translate(3.46 124.06) rotate(-35.37)"/><ellipse class="cls-3" cx="225.11" cy="94.88" rx=".7" ry=".68" transform="translate(-13.37 147.82) rotate(-35.37)"/><path class="cls-3" d="M231.71,73.4c-.16-.23-.1-.56.14-.73s.57-.12.73.11"/><ellipse class="cls-3" cx="203.99" cy="112.37" rx=".7" ry=".68" transform="translate(-27.4 138.82) rotate(-35.37)"/><ellipse class="cls-3" cx="161.07" cy="67.08" rx=".7" ry=".68" transform="translate(-9.1 105.62) rotate(-35.37)"/><ellipse class="cls-3" cx="164.79" cy="54.19" rx=".7" ry=".68" transform="translate(-.95 105.39) rotate(-35.37)"/><ellipse class="cls-3" cx="121.61" cy="56.61" rx=".7" ry=".68" transform="translate(-10.32 80.85) rotate(-35.37)"/><path class="cls-6" d="M10.81,483.16c-.84,0-2.47,3.53-2.47,9.41,0,3.25,1.85,8.04,1.53,10.35-.59,4.24-3.38,4.94-3.29,7.29.12,3.18,1.5,3.69,1.88,6.71s-.71,3.8-.71,6.82c0,.87,2.12,3.29,2.47,7.65.17,2.13-2.15,5.17-1.65,6.82,1.25,4.09,3.41,4.96,3.41,6.71,0,3.45-2.58,4.13-2.19,7.58s2.31,3.45,2.31,7.34.35,11.73,1.06,11.67c.76-.06,1.88-9.18,2.02-11.24.2-3.01-3.06-5.03-1.9-8.05s3.41-4.12,3.41-8-1.53-5.18-2.24-7.88c-.65-2.49-.28-4.81.12-6.59.25-1.13,1.46-3.78,1.53-5.65.12-3.18-.35-4.71-2.71-8.24-2.19-3.29-1.09-4.16-.59-7.76.59-4.24,2.12-4.72,1.65-8.47-.35-2.82-1.65-1.76-2.82-7.29-.74-3.49.09-9.18-.82-9.18Z"/><path class="cls-6" d="M37.17,512.1c1.18,0,.59,8.12,1.41,11.29.54,2.08,1.64,1.82,1.88,4.12s-.82,3.41-1.06,6c-.19,2.04,2.35,2.94,1.18,6.71-1.04,3.33.71,4.09.82,6.35s-1.15,4.98-1.88,6.8c-1.42,3.56.11,4.07.23,6.62.12,2.55-1.43,11.33-2.35,11.41-1.03.09-.14-7.78-.24-9.76-.1-1.98-1.53-5.38-1.76-6.82-.32-1.91,1.44-3.21,1.72-4.92.29-1.69-1.14-3.2-1.37-5.55-.19-1.92,1.5-3.05.35-6.12-1.15-3.07-2.23-4.61-1.88-6.71s1.57-3.03,1.65-4.35c.12-2-1.61-3.87-1.29-5.88.35-2.24,1.52-9.18,2.59-9.18Z"/><path class="cls-6" d="M58.34,572.22c0-.82-.12-2.47.71-5.76s1.65-1.29,2.12-5.18-2.24-5.29-2.35-9.06,1.65-4,1.88-7.18-1.06-4.82-1.53-7.65,1.06-6.35.24-7.65-2,1.53-2.59,3.53-.71,4.94-.24,7.76,1.06,3.29.24,5.65c-.82,2.35-1.29,1.29-1.41,4.71s.82,4.94,1.29,7.06.47,2.71,0,4.71-1.29,3.88-.94,6,1.53,5.65,2.35,5.76.24-1.88.24-2.71Z"/><path class="cls-20" d="M.2,583.88c1.57-2.95,2.95-6.42,5.67-8.5,1.26-.65,2.57-1.17,3.92-1.61,1.92-.55,4.21-1.16,6.24-.31,2.48,1.49,4.11,3.96,5.85,6.16,1.91,2.51,3.34,5.35,5.95,7.25-1.38-.76-2.66-1.77-3.72-2.99l-2.94-3.71c-4.98-5.88-5.46-7.18-13.25-4.54-.68.26-1.41.49-2.02.89-2.25,1.99-3.95,4.86-5.7,7.36H.2Z"/><path class="cls-20" d="M24.76,583.53c1.31-1.44,2.14-3.24,2.68-5.07.51-2.01,1.99-3.79,3.76-4.81,3.63-2.14,8.01-1.86,11.96-.92,2.14.72,2.68,3.22,3.28,5.11,2.47,8.24-1.32,10.18,9.28,12.19,0,0-.03.23-.03.23-2.43-.38-5.11-.69-7.08-2.29-1.34-.92-1.55-2.76-1.64-4.19-.35-2.87-1.1-5.8-2.28-8.44-.79-1.98-2.77-2.06-4.64-2.2-2.83-.35-5.85-.14-8.32,1.33-1.67,1-2.85,2.41-3.46,4.26-.69,1.9-1.75,3.74-3.39,4.97,0,0-.13-.17-.13-.17h0Z"/><path class="cls-20" d="M48.44,587.31c1.89.64,2.26-1.93,2.51-3.3.46-1.76,1.53-3.25,2.87-4.46.66-.62,1.64-1.04,2.51-1.17,1.83-.31,3.59-.6,5.43.14,2.24,1.25.76,4.56.98,6.56.04.22.01.2.16.28.93.32,2.01.09,2.99-.09.81-.19,1.6-.45,2.2-.96.67-.54,1.22-1.47,2.14-1.66,2.44-.52,4.84-1.3,7.34-.75,1.97.86,2.79,2.9,4.28,4.22,1.15,1.15,2.74,1.88,4.38,2.12,1.71.29,3.17-.08,4.16-1.63,2.39-2.63,6.05-4.8,9.76-4.05,1.76.4,3.45,1.15,4.95,2.13,2.83,1.92,5.97,3.39,8.88,5.15-3.27-1.11-6.56-2.27-9.57-3.99-1.09-.63-2.22-1.05-3.41-1.43-3.42-1.13-7.24.65-9.87,2.89-.58.58-1.31,1.32-2.29,1.55-3.59.63-7.16-1.21-9.53-3.83-.6-.6-1.18-1.27-1.75-1.67-.45-.36-1.28-.39-2.08-.37-1.6.09-3.42.34-4.98.61-.85.15-1.22.93-1.94,1.36-.78.55-1.67.79-2.53.98-1.1.18-2.27.36-3.38-.01-.12-.06-.27-.14-.38-.31-.28-.58-.19-1.19-.24-1.76-.09-1.36.11-2.85-.48-4.06-.62-.56-1.63-.58-2.56-.61-1.18,0-2.5.13-3.6.51-1.78.88-3.18,2.66-3.86,4.51-.3,1.45-1.14,4.39-3.22,3.37,0,0,.14-.23.14-.23h0Z"/><path class="cls-20" d="M108.62,586.88c3.05-.94,6.51-2.22,9.73-1.6,2.47,1.2,4.87,2.63,7.47,3.51.96.25,2.13.68,3.05.3.41-.19.75-.61,1.02-1.03.97-1.83,1.16-4.29,2.83-6.2,3.33-3.35,9.84-3.14,13.44-.34,1.82,1.43,2.9,3.37,4.76,4.64,3.62,2.3,8.12,3.63,12.01,5.59,0,0-.05.12-.05.12-3.06-.98-6.47-2.13-9.51-3.21-2.16-.73-4.26-2.02-5.8-3.72-.78-.82-1.49-1.61-2.33-2.2-1.65-1.24-3.71-1.69-5.81-1.63-1.94.1-4.25.42-5.71,1.7-.72.67-1.27,1.59-1.74,2.57-.77,1.43-1.16,3.49-2.84,4.31-.62.27-1.26.22-1.83.13-3.35-.56-6.49-2.01-9.48-3.54-2.46-.34-6.28.49-9.13.85,0,0-.07-.26-.07-.26h0Z"/><path class="cls-20" d="M154.36,588.49c1.17-1.51,2.45-3.21,4.41-3.74.78-.07,1.45.08,2.07.29,3.46,1.3,6.27,4.43,9.9,2.4,1.08-.47,2.09-1.14,3.26-1.68,2.37-1.1,5-.52,7.48-.45,4.29.27,10.32.91,14.53.85.97-.09,2.29.07,3.02-.62,1.8-1.71,2.29-4.28,4.47-5.92,2.43-1.73,4.65,1.75,7.08.79,1.65-.5,3.33-1.96,5.29-2,3.25.22,5.6,2.79,8.68,3.47,3.88,1.07,4.31-5.49,6.9-7.41,3.13-1.81,6.71-2.64,10.28-2.18,5.93,2.32,10.04,9,17.02,8.31,0,0,0,1,0,1-5.04-.6-9.3-3.28-13.61-5.67-1.58-.75-2.84-1.91-4.57-2.06-1.72-.1-3.5.14-5.21.45-1.14.22-2.36.53-3.26,1.03-2.74,1.79-3.44,7.99-7.64,7.01-2.12-.37-4.98-1.49-7.03-2.19-.57-.18-1.05-.31-1.52-.29-1.76.15-3.02,1.46-4.86,1.97-1.26.53-2.96.1-4.07-.56-.94-.45-1.8-1.09-2.73-.52-2.32,1.63-2.91,6.26-6.3,6.61-5.57.54-11.13-.26-16.59-.78-2.32-.18-4.77-.88-6.99.01-2.11.87-4.32,2.57-7.08,2.24-2.59-.39-4.78-1.78-6.9-2.56-.52-.18-1.07-.32-1.51-.32-1.49.33-3.1,1.84-4.52,2.47h0Z"/><path class="cls-20" d="M199.63,586.79c-5.45,3.72-11.11,7.44-17.53,9.19,6.22-2.13,11.62-6.18,16.75-10.19,0,0,.77,1,.77,1h0Z"/><path class="cls-20" d="M91.23,586.88c-3.28,3.72-7.98,6.06-12.8,6.94-4.76,1.05-9.59,1.71-14.43,2.16,6.77-1.59,14.67-2.44,20.92-5.5,2.11-1.09,4.12-2.42,5.96-3.94l.36.35h0Z"/><path class="cls-5" d="M192.8,554.37s-17.11,7.3-27.36,8.53c-8.88,1.07-9.6-3.91-4.26-8.53,5.33-4.62,16.57-2.62,19.9-7.46,3.91-5.69,1.07-12.44-7.11-16.35-7.04-3.37-15.64-3.55-25.59-3.55s-22.74-1.42-33.05-6.04c-8.31-3.72-15.28-17.77-15.28-17.77v21.32s5.22,5,14.93,8.88c12.44,4.98,23.46,3.55,33.41.71,9.93-2.84,23.46-2.13,24.88,4.26,1.12,5.05-9.66,8.38-15.28,10.66-11.37,4.62-15.99,12.79-10.66,18.84,5.33,6.04,17.77,9.6,25.59,8.17,7.82-1.42,16.04-3.14,16.04-3.14l3.86-18.53Z"/><ellipse class="cls-19" cx="204.31" cy="559.5" rx="4.78" ry="2.16" transform="translate(-390.53 528.81) rotate(-66.99)"/><path class="cls-19" d="M206.03,555.08c-.15-.2-1.85.14-2.36,1.49-.94,2.48-.87,7-1.05,7.28,0,0-2.08-.64-2.94-1.01-1.1-.47-1.39-2.97-.37-5.37,1.02-2.4,2.96-3.79,4.06-3.32s2.72,1,2.67.93Z"/><ellipse class="cls-19" cx="204.47" cy="559.48" rx="4.26" ry="1.69" transform="translate(-390.42 528.95) rotate(-66.99)"/><path class="cls-19" d="M208.46,580.83s-15.04-6.04-18.53-7.43c-3.08-1.23-4.2-6.06-1.84-11.61,2.36-5.56,6.6-8.02,9.33-7.33,2.49.63,18.88,5.89,18.88,5.89,0,0-7.1,18.75-7.83,20.48Z"/><polygon class="cls-19" points="195.12 564.41 192.64 570.28 199.69 573.26 201.83 567.01 195.12 564.41"/><polygon class="cls-19" points="201.83 567.01 200.76 570.14 207.87 572.87 208.27 569.31 201.83 567.01"/><polygon class="cls-19" points="200.76 570.14 199.69 573.26 207.45 576.53 207.87 572.87 200.76 570.14"/><polygon class="cls-19" points="200.84 569.87 199.64 573.25 202.08 574.21 203.18 570.86 200.84 569.87"/><path class="cls-10" d="M196.88,569.37l-1.45-.58c-.17-.06-.26-.25-.2-.42l.81-2.24c.06-.17.25-.26.42-.2l1.42.51c.17.06.26.25.2.42l-.79,2.31c-.06.17-.25.26-.42.2Z"/><path class="cls-12" d="M199.79,570.52l-1.49-.6c-.18-.06-.27-.25-.21-.43l.82-2.28c.06-.17.25-.27.43-.21l1.47.52c.18.06.27.25.21.43l-.8,2.35c-.06.17-.25.27-.43.21Z"/><path class="cls-28" d="M199.79,570.52l-1.44-.56c-.17-.06-.26-.25-.2-.42l.81-2.35c.06-.17.25-.26.42-.2l1.48.51c.17.06.26.25.2.42l-.85,2.4c-.06.17-.25.26-.42.2Z"/><path class="cls-24" d="M195.07,567.68c-1.4,3.34-3.02,4.45-4.22,3.94s-1.49-3.15-.36-5.8c1.12-2.65,3.23-4.3,4.45-3.86,1.34.49,1.24,3.06.13,5.71Z"/><path class="cls-24" d="M194.91,561.97c-.36,1.05-3.56,9.3-3.86,9.77,0,0-2.22-.95-3.12-1.41-1.07-.55-1.87-3.09-.76-5.7,1.11-2.61,3.65-3.94,4.78-3.62,1.25.36,3,.86,2.97.95Z"/><path class="cls-19" d="M194.84,567.48c-1.08,2.32-2.64,3.93-3.58,3.54s-.88-2.63.12-4.98c1-2.36,2.57-3.94,3.5-3.55s1.12,2.47-.05,5Z"/><path class="cls-24" d="M201.52,570.8c-.92-.15-1.93.53-2.21,1.8s.31,2.45,1.23,2.65c.91.2,1.86-.53,2.09-1.81s-.13-2.49-1.11-2.65ZM200.63,574.58c-.46-.1-.8-.81-.61-1.68s.83-1.59,1.29-1.49.69.89.5,1.77c-.19.87-.72,1.5-1.18,1.4Z"/><path class="cls-24" d="M202.05,571.32c-.15.47-.58.76-.96.64s-.7-.57-.55-1.04.71-.77,1.09-.66.57.59.42,1.06Z"/><path class="cls-19" d="M192.25,564.42s.07.74-.24,1.94-1.34,1.86-1.34,1.86c0,0,.4-1.27.72-2.2.35-1.01.87-1.61.87-1.61Z"/><polygon class="cls-19" points="191.45 565.74 195.58 565.56 194.84 567.56 190.68 568.06 191.45 565.74"/><ellipse class="cls-24" cx="212.38" cy="570.57" rx="10.93" ry="6.01" transform="translate(-395.81 542.99) rotate(-66.99)"/><path class="cls-14" d="M221.39,573.1c-1.6,6.13-9.78,6.62-11.57,5.71-2.65-1.35-3.16-5.52-1.44-9.56,1.72-4.05,4.05-6.91,7.61-7.25,1.88.69,7.38,3.57,5.41,11.1Z"/><path class="cls-19" d="M191.5,565.7s-.28.67-.42,1.16c-.11.38-.25,1.04-.25,1.04l3.93-.32.28-.75-3.38.35s-.15-.46-.12-.86-.04-.63-.04-.63Z"/><path class="cls-19" d="M193.28,566.63s-.24-.66.04-1.14c.36-.64.85-.7.93-.64s.29.7.12,1.15c-.15.39-.41.56-.66.84,0,0,.35.06.59.51.19.34.03.89-.03.94-.1.08-.74.18-.99-.32-.21-.42,0-.88,0-.88,0,0-.41.47-.95.59-.57.13-1.17-.1-1.25-.28s.32-.55.94-.81,1.27.05,1.27.05Z"/><polygon class="cls-19" points="207.31 580.31 204.06 580.75 190.4 575.22 190.78 573.62 207.31 580.31"/><path class="cls-19" d="M194.24,564.85s-.17.45-.32.84c-.21.54-.45,1.1-.45,1.1,0,0,.41.14.89-.8.24-.48-.12-1.15-.12-1.15Z"/><path class="cls-19" d="M193.46,566.76s.21.37.36.69c.21.45.41.9.41.9,0,0,.4-.24.09-1.1-.15-.44-.87-.49-.87-.49Z"/><path class="cls-19" d="M193.5,566.79s-1.1.3-1.44.37c-.48.1-.99.2-.99.2,0,0,.18.45,1.08.33,1.01-.14,1.35-.9,1.35-.9Z"/><path class="cls-14" d="M196.9,569.35l-1.45-.58c-.17-.06-.26-.25-.2-.42l.81-2.24c.06-.17.25-.26.42-.2l1.42.51c.17.06.26.25.2.42l-.79,2.31c-.06.17-.25.26-.42.2Z"/><path class="cls-14" d="M199.79,570.52l-1.44-.56c-.17-.06-.26-.25-.2-.42l.81-2.35c.06-.17.25-.26.42-.2l1.48.51c.17.06.26.25.2.42l-.85,2.4c-.06.17-.25.26-.42.2Z"/><path class="cls-24" d="M193.8,580.19s-1.2-1.4-.35-2.98c.85-1.58,2.24-1.53,2.24-1.53l6.68,2.66s1.22,1.55.59,2.8-2.18,1.95-2.95,1.68-6.21-2.63-6.21-2.63Z"/><path class="cls-24" d="M194.63,580.37s-.86-1.41-.53-2.38c.33-.97.93-1.34,1.3-1.48s1.17-.45,1.17-.45l-.88-.38s-1.76.2-2.24,1.53-.26,1.95-.03,2.39.69.65.69.65l.52.12Z"/><path class="cls-24" d="M197.07,581.56s-.82-1.54-.49-2.51.99-1.43,1.37-1.58,1.11-.36,1.11-.36l-.95-.4s-1.76.2-2.24,1.53c-.48,1.33-.07,2.3.16,2.74s.57.32.57.32l.48.26Z"/><path class="cls-24" d="M203,580.96c-.2,1.15-1.15,1.69-2.04,1.74-.55.03-1.22-1.14-1-2.16.24-1.14,1.07-1.96,1.94-1.81.88.15,1.29,1.12,1.1,2.23Z"/><path class="cls-24" d="M202.08,571.24c-.06.23-.35.42-.65.44-.19.01-.5-.21-.43-.55.08-.39.36-.66.66-.61s.52.36.42.72Z"/><path class="cls-24" d="M201.96,571.3s.13-.1.29.71-.02,1.73-.06,1.91-.28.59-.23.63.46-.19.61-.69.22-1.31.07-1.83-.56-1.09-.56-1.09l-.12.35Z"/><path class="cls-19" d="M192.75,571.29s-.95.65-1.77.43-3.28-1.45-3.28-1.45l-.68-.66.48,1.51,1.43,1.8,17.33,6.89s-9.95-4.34-13.52-8.51Z"/><path class="cls-19" d="M196.3,554.21c-.83-.11-5.79,3.45-6.45,4.32-1.69,2.23-2.78,5.8-2.78,5.8,0,0,.92-1.45,1.77-2.15,1-.83,2.88-1.25,2.88-1.25l2.46.72.3.13c.25,0,.18.01.42.03.11,0,.35.23.46.24.38-1.12,1.73-2.94,3.24-3.68,5.12-2.5,13.04.62,13.04.62,0,0-14.51-4.68-15.34-4.78Z"/><path class="cls-19" d="M189.16,562.11s-2.21,2.38-1.56,5.01c.45,1.8,2.22,2.86,2.22,2.86l.83,1.65-2.94-1.35s-1.52-1.7-1-4.3c.58-2.91,2.45-3.86,2.45-3.86"/><path class="cls-19" d="M190.77,555.62s-1.45.93-2.05.93-1.2-.82-.9-1.68.44-1.21.99-1.39,2.46.36,2.46.36l-.51,1.78Z"/><path class="cls-19" d="M191.9,552.97s-.86-2.03-.7-2.44.35-.67.67-.68,2.05-.12,2.33,0,.44.52.32.91-.42,1.14-.42,1.14l-.94-.04-1.25,1.1Z"/><path class="cls-19" d="M190.8,557.61s-.45-1.76.4-3.4,1.95-2.33,1.95-2.33l1.8.12s-1.48.36-2.01,2.31c-.53,1.96-.36,1.76-.36,1.76l-1.77,1.54"/><path class="cls-19" d="M192.53,556.11s.2-3.54,2.36-4.06c1.69-.4,1.72,2.22,1.72,2.22,0,0-.66-.16-2.08.53-1.55.75-2,1.3-2,1.3Z"/><path class="cls-14" d="M216.29,562.34l42.66,7.24s.31,6.46.37,8c-2.62.47-3.37,3.15-4.23,5.5-.74,2.03-4.72,1.71-4.72,1.71l-1.82-2.89-.96-1.5-3-1.18-6.32.43s-2.04,4.07-5.47,6.75c-2.68,3.43-4.39,4.39-4.39,4.39l-18.84-12.46,6.72-16Z"/><path class="cls-24" d="M219.49,576.4l1.04-1.34,1.11.6s-.22,0-.3.61.05,1.16.05,1.16l-1.9-1.02Z"/><path class="cls-24" d="M221.55,577.51s-.31-.91-.21-1.24.61-.77.61-.77l1.81.73.41-1.35,2.13,1.13-.36,1.77-.54.8-1.74.13-2.11-1.2Z"/><polygon class="cls-24" points="227.85 570.68 228.1 571.6 229.89 570.89 231.99 570.32 231.87 569.34 229.64 569.81 227.85 570.68"/><path class="cls-24" d="M223.47,570.13l.42,1.54s-.28.23-.33.58.17.63.17.63l-.34,1.62,5.04,2.69,2.19-1.17.83-2.05-2.42-1.52-2.69-.98,3.28-1.67,2.24-.47-.44-2.33h-2.57s-5.4,3.12-5.4,3.12Z"/><polygon class="cls-24" points="227.68 573.98 228.07 573.05 230.58 572.04 231.9 572.7 231.46 573.98 229.38 574.61 227.68 573.98"/><polygon class="cls-24" points="224.73 572.51 227.68 573.98 228.07 573.05 229.3 572.57 226.35 571.48 224.73 572.51"/><path class="cls-20" d="M228.49,590.79s5.28,2.77,9.9.99c4.62-1.78,4.79-8.68,6.08-9.61,3.11-2.26,5.8,3.53,5.8,3.53,0,0,3.31,2.9,5.09,1.84s3.82-5.51,3.82-5.51l.02-4.45s-1.95.81-3.07,2.84-.56,3.1-2.37,3.88c-1.93.84-3.35.41-3.35.41,0,0-2-5.52-5.81-5.49s-5.64-.87-6.32.43c-1.09,2.06-1.68,3.93-2.99,4.78-2.15,1.4-2.31,1.67-3.82,3.68-1.27,1.7-3.23,2.54-3.23,2.54"/><path class="cls-6" d="M243.53,493.28c1.79.6-1.2,10.91-.47,15.05s3.2,4.11,3.53,7.29-1.16,5.33-1.49,8.92c-.26,2.83,3.37,3.78,1.02,11.78-1.37,4.64,2.59,5.65,2.35,9.41-.2,3.14-2.14,6.19-3.14,8.71-1.97,4.93.15,5.63.32,9.17.17,3.54-2.05,13.32-3.32,13.43-1.44.12-.14-8.4-.27-11.15-.13-2.75-2.53-5.11-2.45-9.46.05-2.69,2.27-3.88,2.51-7.41.16-2.37-1.32-5.21-1.65-8.47-.27-2.66,2.53-7.04.94-11.29-1.59-4.25-3.31-4.39-2.83-7.29s1.51-4.41,1.62-6.24c.16-2.77-1.83-6.73-1.39-9.52.49-3.1,3.31-13.41,4.71-12.94Z"/><path class="cls-7" d="M113.38,522.99s13.16,7.06,35.92,6.62c14.65-.28,26.2-.14,31.28,8.31,1.63,2.71-.56,7.47-5.64,9.16-3.99,1.33-17.6,2.19-20.43,9.72-2.82,7.53,7.32,11.42,13.81,9.58,14.95-4.24,17.19-2.68,17.19-2.68,0,0-6.93.73-16.76,4.23-8.31,2.96-19.45-2.8-16.62-9.86,2.82-7.06,10.84-9.12,19.72-11.69,11.69-3.38,6.62-10,3.1-12.68-3.35-2.55-8.49-2.86-25.92-2.68-27.05.28-35.64-8.03-35.64-8.03Z"/><path class="cls-30" d="M250.39,584.44c1.77.36,4.18-.24,4.59-2.24.44-2.07,1.54-4.57,3.87-5.24,0,0,.41,1.49.41,1.49-.74.27-1.61.76-2.12,1.43-.97,1.07-1.05,2.98-2.2,4.07-.45.4-.95.62-1.47.82-1.04.37-2.15.41-3.21.12l.13-.45h0Z"/><path class="cls-21" d="M193.2,566.53c-.05.14,0,.09-.02.09v-.02c-.15-.38-.16-.84.09-1.17.16-.23.85-.74,1.07-.66.48.72.26,1.92-.69,2.13-.02.02-.04-.2-.04-.2.96-.04,1.02.97.77,1.65-.21.22-.91.07-1.12-.16-.25-.33-.22-.72-.08-1.08,0,0,.19.09.19.09-.43.9-1.63.7-2.34.26-.04-.02-.05-.07-.04-.11.36-.92,1.43-1.09,2.29-.87,0,0,.02,0,.03,0-.02-.01-.08,0-.1.04h0ZM193.36,566.66c-.06.08-.22,0-.41-.03-.71-.15-1.52.06-1.81.79,0,0-.05-.11-.05-.11.71.2,1.55.47,2.08-.22.07-.09.22,0,.18.11-.06.25-.06.62.09.81.16.18.52.21.82.21l-.09.08c.05-.31.11-.65.05-.93-.05-.27-.33-.42-.62-.46-.1-.01-.12-.16-.03-.2.71-.41.85-1.12.67-1.89,0,0,.07.03.07.03-.7.29-1.33.87-.95,1.67,0,.04.04-.02,0,.14h0Z"/><path class="cls-21" d="M194.75,562.4c3.45,1.56-3.48,13.33-4.29,6.73.03-2.54,1.48-5.19,3.59-6.6.07-.04.12.07.05.11-1.38.96-2.23,2.53-2.89,4.05-1.17,2.59-.24,6.34,2.46,2.64,1.01-1.61,3.12-5.43,1.04-6.84-.06-.01-.03-.11.03-.08h0Z"/><path class="cls-21" d="M191.74,560.76c1.16.42,2.31.82,3.46,1.19,1.11.91.77,2.54.59,3.78-.49,2.07-1.98,6.1-4.46,6.25-.73-.1-1.32-.38-1.94-.63-.63-.29-1.29-.54-1.89-.89-2.82-3.43-.07-9.27,4.24-9.7h0ZM191.69,561.13c-3.81.5-6.35,5.88-3.77,8.94,0,0-.08-.06-.08-.06.57.31,1.16.61,1.75.89.58.27,1.2.56,1.77.67,1.23.02,2.16-1.29,2.77-2.27,1.07-1.7,2.74-5.61,1.01-7.23-1.12-.33-2.32-.66-3.46-.94h0Z"/><line class="cls-8" x1="194.47" y1="565.64" x2="195.35" y2="565.6"/><line class="cls-8" x1="191.53" y1="565.75" x2="193.23" y2="565.69"/><line class="cls-13" x1="190.66" y1="568.13" x2="193.1" y2="567.85"/><path class="cls-21" d="M192.31,564.43c.05.38-.03.88-.06,1.26,0,.03-.03.06-.07.06-.12.02.02-.47.03-.69.02-.21.05-.43.02-.62,0-.05.07-.06.08,0h0Z"/><path class="cls-21" d="M200.42,555.39c.59-.92,1.66-1.37,2.71-1.5,1.09.24,2.16.6,3.23.89,1.01.44.92,1.75.86,2.68-.02.18-.3.14-.27-.03-.06-.73.03-1.9-.75-2.25-.78-.24-2.42-.66-3.03-.92-.98.09-1.95.45-2.53,1.28-.1.16-.34,0-.23-.15h0Z"/><path class="cls-21" d="M204.13,556.51c1.49-1.6,2.56-1.47,2.69.85.02.18-.26.2-.28.02.03-.35.02-.71-.06-1.05-.28-1.53-1.64-.42-2.13.35-.1.17-.36-.03-.22-.17h0Z"/><path class="cls-21" d="M205.21,555.18c-.62.23-1.06.82-1.44,1.35-.04.06-.13.08-.19.04-.06-.04-.08-.13-.04-.19.23-.27.47-.53.74-.75.27-.19.62-.53.95-.48,0,.02-.01.04-.03.04h0Z"/><path class="cls-21" d="M193.85,562.1c-2.61.74-5.5,7.46-2.97,9.43.11.04.03.21-.07.14-2.41-2.1-.69-5.79.77-7.96.56-.75,1.24-1.58,2.27-1.73.09,0,.09.13,0,.12h0Z"/><path class="cls-21" d="M202.06,571.1c0-.86-1.24-.9-1.4-.1-.24.8.57,1.15,1.21.58.06-.06.16.03.12.1-.23.38-.75.68-1.18.43-.97-.45-.42-2.06.61-1.91.45.03.81.46.73.91,0,.05-.08.04-.08,0h0Z"/><path class="cls-21" d="M200.57,570.93c-1.5.88-1.79,3.76.14,4.21.92.17,1.6-.68,1.78-1.52.29-1.05.06-1.76-.42-2.64.73.56.86,1.81.63,2.69-.55,2.65-3.69,2.08-3.6-.48.02-.97.57-1.89,1.41-2.35.06-.03.11.06.05.09h0Z"/><path class="cls-21" d="M200.7,571.81c-.61.62-1.07,2.29-.02,2.63,1-.03,1.24-1.8.96-2.59-.02-.05,0-.11.06-.12.05-.01.1.01.12.06.17.55.19,1.15,0,1.7-.41,1.69-2.14,1.49-2-.28.02-.59.3-1.14.67-1.58.05-.06.13-.06.18-.02.06.05.06.14.01.19h0Z"/><path class="cls-21" d="M195.99,564.74l10.7,3.84c.07.03.11.11.08.18-.03.07-.11.11-.18.08,0,0-10.65-3.99-10.65-3.99-.07-.03-.03-.14.04-.11h0Z"/><path class="cls-21" d="M202.41,574.26l2.95,1.18c.07.03.11.11.08.18-.03.07-.11.11-.18.08,0,0-2.93-1.22-2.93-1.22-.14-.05-.05-.27.09-.21h0Z"/><line class="cls-13" x1="200.02" y1="573.36" x2="201.43" y2="573.96"/><path class="cls-21" d="M193.51,570.57l5.75,2.33c.07.03.11.11.08.18-.03.07-.11.11-.18.08,0,0-5.69-2.47-5.69-2.47-.08-.03-.03-.15.05-.12h0Z"/><path class="cls-21" d="M187.08,569.01c.21,1.43,1.15,2.63,2.18,3.57,0,0-.15-.1-.15-.1l19.4,8.16c.16.06.07.33-.1.26,0,0-19.63-7.58-19.63-7.58-1.15-1.1-1.95-2.7-1.97-4.3,0-.17.26-.19.28-.01h0Z"/><path class="cls-21" d="M186.83,564.9c.71-3.82,2.87-7.36,6.11-9.56,1.16-.76,2.28-1.49,3.78-1.47.04,0,19.27,6.02,19.3,6.02.2.06.31.27.24.47-.06.2-.27.31-.46.24l-19.29-5.98c-4.59.8-8.15,5.85-9.41,10.34-.03.17-.31.12-.27-.06h0Z"/><path class="cls-21" d="M212.65,560.99c-4.24,3.01-6.58,8.16-6.95,13.21-.03,2.25.29,5.52,2.75,6.32,2.51.71,5.07-1.44,6.66-2.85-1.7,2.58-6.05,5.17-8.59,2.28-3.89-5.6.5-16,6.12-18.96h0Z"/><path class="cls-21" d="M214,560.25c2.62-.88,4.58.37,5.16,3.02.19.71.3,1.43.34,2.15-.17-.7-.42-1.37-.7-2.02-.78-1.88-2.63-3.32-4.73-2.92-.14.03-.2-.19-.06-.23h0Z"/><path class="cls-21" d="M216.04,562.07c-4.76.21-8.29,7.14-8.25,11.41,0,1.75.29,4.19,2.09,4.91,3.72.7,8.4-.31,10.45-3.77,2.76-4.73.78-10.5-4.29-12.55h0ZM216.03,561.93c5.44,1.92,7.59,8.01,4.91,13.04-2.13,3.9-7.18,5.34-11.33,4.29-2.32-.98-2.56-3.67-2.52-5.79.15-4.58,3.92-11.3,8.94-11.55h0Z"/><path class="cls-21" d="M201.75,567.44l-.91,2.7s-.06.06-.1.05c-.04-.01-.06-.06-.05-.1,0,0,.99-2.68.99-2.68.01-.04.08-.02.07.02h0Z"/><path class="cls-21" d="M202.62,572.19l.42-1.17c.02-.07.1-.11.17-.08,0,0,1.95.81,1.96.81.05.02.02.1-.03.09,0,0-2.01-.63-2.01-.63l.18-.08-.52,1.13c-.04.1-.19.03-.16-.06h0Z"/><path class="cls-16" d="M203.21,580.27l.86.32h-.1s3.34-.37,3.34-.37c.17-.02.21.25.04.27,0,0-3.32.5-3.32.5-.03,0-.07,0-.1-.01l-.86-.33c-.24-.09-.1-.47.14-.38h0Z"/><path class="cls-21" d="M190.91,573.77l-.49,1.54-.06-.13,3.43,1.34c.17.06.07.33-.1.26,0,0-3.41-1.41-3.41-1.41-.05-.02-.08-.08-.06-.13l.43-1.56c.05-.18.32-.1.27.08h0Z"/><polygon class="cls-16" points="193.55 555.48 193.65 554.77 194.41 554.73 194.55 553.61 195.23 553.66 195.17 554.47 193.55 555.48"/><path class="cls-21" d="M196.49,554.24c.14-3.11-2.44-2.19-3.29-.06-.28.6-.48,1.25-.66,1.91-.11-.65.04-1.41.23-2.08.9-2.75,3.71-3.21,4.01.23,0,0-.28,0-.28,0h0Z"/><path class="cls-21" d="M190.68,557.52c-.36-2.19.44-4.89,2.56-5.89,0,0,2.19.24,2.19.24l-.02.32-2.2-.09.12-.02c-1.87,1.03-2.67,3.35-2.47,5.42,0,0-.18.03-.18.03h0Z"/><polygon class="cls-21" points="192.77 552.7 193.69 552.69 193.65 552.96 192.77 552.7 192.77 552.7"/><path class="cls-21" d="M191.92,553.79l1.03.04-.04.27s-1.07-.26-.99-.31h0Z"/><path class="cls-21" d="M191.49,554.99l1.14.07-.05.27s-1.15-.29-1.1-.34h0Z"/><polygon class="cls-21" points="191.18 556.31 192.22 556.22 192.2 556.5 191.18 556.31 191.18 556.31"/><path class="cls-21" d="M190.81,555.76c-.77.87-2.74,2.29-3.29.46-.23-1.09.07-2.21,1.03-2.8.94-.36,1.9.3,2.82.35,0,0-.06.27-.06.27-.7-.2-1.45-.41-2.14-.46-1.11.1-1.21,1.92-.63,2.57.61-.13,1.34-.55,2.13-.64,0,0,.13.24.13.24h0Z"/><path class="cls-21" d="M191.79,553.19c-.52.13-.52-.61-.66-1,0,0-.26-.98-.26-.98-.25-.58.05-1.62.87-1.67.87-.02,2-.33,2.75.21.58.76.11,1.52-.25,2.18,0,0-.25-.11-.25-.11.12-.48.44-1.27.1-1.64-.52-.19-1.59.03-2.21.11-.32.08-.33.32-.21.71,0,0,.25.98.25.98.03.13.15.59.18.71-.08-.06-.25.43-.3.5h0Z"/><path class="cls-21" d="M195.93,575.86c-2.19-.19-3.44,2.73-1.93,4.13-.27-.13,6.24,2.51,6.18,2.48,1.38.12,2.84-.73,2.71-2.74-.1-1.19-1.3-1.6-2.28-1.98-1.51-.62-3.17-1.32-4.69-1.89h0ZM195.99,575.59c2.05.93,4.3,1.58,6.3,2.6,1.64,1.05,1.15,3.82-.49,4.63-.59.28-1.27.48-1.94.37,0,0-6.1-2.81-6.1-2.81l-.03-.02-.02-.02c-1.71-1.7-.28-5.07,2.28-4.75h0Z"/><path class="cls-21" d="M197.22,577.06c-1.65.53-1.81,2.87-.84,4.06,0,0-.33.26-.33.26-.99-1.4-.7-3.91,1.15-4.39,0,0,.02.07.02.07h0Z"/><path class="cls-21" d="M195.93,576.37c-1.97.44-2.22,2.75-.99,4.1,0,0-.28.23-.28.23-.54-.76-.91-1.71-.68-2.64.25-.9,1.01-1.65,1.94-1.77v.08h0Z"/><path class="cls-21" d="M198.69,577.27c-2.01.34-2.64,2.81-1.34,4.24,0,0-.27.23-.27.23-.59-.8-.87-1.85-.52-2.79.27-.88,1.29-1.76,2.13-1.68h0Z"/><path class="cls-21" d="M202.56,580.79c-.09.88-1.2,1.59-1.45.39-.21-1.59,1.58-2.5,1.45-.39h0ZM202.27,580.73c.38-1.26-.68-1.48-.93-.21-.17,1.15.62,1.34.93.21h0Z"/><path class="cls-21" d="M215.85,563.25c-4.02-.94-8.07,9.08-7.02,12.25.65,3.75,3.55,2.07,5.25.08,1.62-2.01,2.64-4.55,3.16-7.08-.51,3.79-2.13,8.38-6.11,9.7-1.6.53-2.62-1.27-2.79-2.6-1.08-3.42,3.27-13.48,7.52-12.34h0Z"/><path class="cls-16" d="M224.78,572.43l4.52,2.14h-.11s2.25-.87,2.25-.87c.11-.05.22.07.18.18,0,0-.88,2.24-.88,2.24-.01.03-.04.06-.07.07,0,0-2.18,1.37-2.18,1.37-.11.07-.24.06-.34,0,0,0-4.96-2.98-4.96-2.98-.06-.04-.09-.11-.07-.17l.41-1.37c.02-.07.1-.11.17-.09.07.02.11.1.09.17,0,0-.38,1.37-.38,1.37,0,0-.07-.18-.07-.18l5.16,2.62h-.34s2.38-.98,2.38-.98l-.07.07.88-2.24.18.18-2.25.86s-.08.01-.11,0l-4.52-2.14c-.16-.07-.04-.33.12-.25h0Z"/><path class="cls-16" d="M224.62,572.05l4.97-2.4-.07.17-.96-2.58.43.18-5.55,2.75.05-.11.48,1.52c.06.17-.21.26-.26.08-.08-.41-.5-1.68-.35-1.66,0,0,5.36-3.12,5.36-3.12.14-.08.32-.04.4.1.01.02.02.05.03.08,0,0,.65,2.67.65,2.68.02.06-.02.13-.07.16l-4.97,2.4c-.16.08-.28-.17-.12-.25h0Z"/><path class="cls-16" d="M229.66,569.64c.59-.08,1.57-.32,2.17-.45,0,0-.1.16-.1.16l-.42-2.28s.09.07.09.07c0,0-2.51.14-2.51.14-.12,0-.22-.08-.23-.2,0-.13.1-.23.22-.23,0,0,2.51.11,2.51.11.04,0,.09.02.09.07,0,.04.52,2.25.52,2.28.02.07-.04.14-.11.14,0,0-1.1.24-1.1.24-.36.07-.76.18-1.15.21-.08,0-.14-.05-.15-.13,0-.09.07-.15.16-.15h0Z"/><path class="cls-16" d="M229.67,573.84c-.19,1.09-.68,2.09-1.09,3.11-.04.1-.21.04-.17-.06.34-1.05.6-2.13,1.16-3.09.03-.05.12-.02.11.04h0Z"/><path class="cls-16" d="M227.84,570.63l.3.87-.18-.1,1.9-.67-.09.16-.14-1.06s.03-.03.04,0c0,0,.37,1,.37,1,.02.06,0,.13-.07.16-.02.01-1.9.66-1.92.67-.08.03-.17-.01-.18-.1,0,0-.17-.9-.17-.9-.02-.08.11-.12.14-.04h0Z"/><path class="cls-16" d="M229.85,570.73l2.17-.69-.09.16-.13-.93c-.02-.11.15-.14.18-.03.09.48.35,1.04.13,1.07,0,0-2.17.69-2.17.69-.17.06-.26-.21-.08-.26h0Z"/><path class="cls-16" d="M231.38,573.77l.48-1,.05.13-1.33-.76h.06s-2.49,1.04-2.49,1.04v-.26s1.19.58,1.19.58c.05.02.02.11-.04.09,0,0-1.25-.41-1.25-.41-.07-.02-.11-.1-.09-.17.01-.04.05-.07.09-.09,0,0,2.53-.91,2.53-.91.02,0,.04,0,.06,0l1.36.7s.07.08.05.13c0,0-.42,1.03-.42,1.03-.07.17-.33.05-.25-.11h0Z"/><path class="cls-16" d="M229.58,573.72c.5-.28,1.31-.49,1.85-.71.03-.01.06,0,.07.03.11.07-.9.41-.94.45-.23.05-.84.46-1,.29,0-.03,0-.05.03-.06h0Z"/><path class="cls-16" d="M228.09,573.04c-.16.38-.23.98-.43.88-.23-.06.12-.51.29-.94.04-.08.17-.03.14.06h0Z"/><path class="cls-16" d="M224.54,572.3l1.75-.98s.08-.02.12,0l2.91,1.19c.07.03.03.14-.04.11,0,0-2.96-1.04-2.96-1.04h.12s-1.75.97-1.75.97c-.15.09-.29-.16-.14-.24h0Z"/><path class="cls-16" d="M224.73,572.37c-.02,1.13-1.49,1.04-1.41-.08.09-1.06,1.45-.98,1.41.08h0ZM224.48,572.35c.05-.75-.84-.8-.86-.05-.01.69.78.73.86.05h0Z"/><path class="cls-16" d="M224.26,575.1l-.39,1.23c-.02.08-.12.12-.19.08,0,0-1.76-.82-1.76-.82,0,0,.11,0,.11,0-.71.36-.6,1.27-.24,1.85,0,0-.11-.11-.11-.11l2.08,1.15s-.12-.03-.11-.02c0,0,1.71-.02,1.72-.02-.3.17.17-.2.26-.39.2-.3.37-1.4.48-1.77.02-.08.09-.13.17-.11.07.02.12.09.1.16l-.25,1.25c-.04.2-.09.48-.21.65-.16.21-.29.51-.55.58,0,0-1.71.11-1.71.11-.04,0-.08,0-.11-.02-.03,0-2.11-1.09-2.14-1.09-.33-.36-.37-.95-.33-1.44.08-.46.45-1.02.95-1.04,0,0,1.76.82,1.76.82l-.19.08.39-1.23c.05-.17.32-.09.26.08h0Z"/><ellipse class="cls-11" cx="224.05" cy="577.58" rx=".95" ry=".63" transform="translate(-375.18 734.8) rotate(-83.5)"/><path class="cls-16" d="M221.58,575.77c-1.31-.59-2.55-1.33-3.82-2,1.31.58,2.66,1.1,3.94,1.75.16.08.04.32-.12.25h0Z"/><path class="cls-16" d="M221.26,577.4c-1.44-.67-2.82-1.45-4.18-2.27,1.45.63,2.9,1.29,4.3,2.02.16.08.03.32-.12.25h0Z"/><path class="cls-30" d="M221.5,595.79c1.84-2.3,4.14-4.4,6.97-5.39.84-.42,1.33-1.14,1.95-1.96,1.19-1.58,2.54-3.16,4.16-4.31,1.09-.9,1.73-2.08,2.25-3.38.2-.44.32-.92.77-1.5.42-.54,1.14-.79,1.76-.88,3.02-.34,6.67-.41,8.87,2.05,1.3,2.16,2.3,4.37,3.81,6.38,1.14,1.49,2.44,3.22,4.32,3.69,0,0-.05.29-.05.29-2-.54-3.29-2.26-4.54-3.78-1.21-1.57-2.3-3.23-3.32-4.92-.81-1.91-2.79-2.12-4.63-2.26-1.37-.05-4.09-.31-5.06.4-.44.6-.82,1.76-1.28,2.49-.75,1.38-2.06,2.41-3.33,3.24-1.53,1.19-2.7,2.76-4.04,4.19-1.09,1.11-2.79,1.31-4.06,1.98-1.68.89-3.14,2.57-4.55,3.67h0Z"/><path class="cls-3" d="M187.09,576.3c.1-.15-1.76-1.84-2.67-5.3-.91-3.47.09-5.53-.16-5.54s-1.54,2.64-.68,5.74c1.04,3.74,3.41,5.26,3.51,5.11Z"/><path class="cls-3" d="M182.49,574.41c.22-.08-.95-1.42-1.46-3.39s-.05-3.53-.24-3.64-1.08,1.59-.73,3.6c.32,1.83,2.2,3.52,2.42,3.43Z"/><path class="cls-22" d="M45.02,245.91s3.13,5.37,6.63,5.64c4.2.32,6.88-3.84,6.44-7.67-.52-4.59-8.48-4.92-11.21-9.84-2.73-4.92-1.59-8.12-1.11-10.35.32-1.46,1.12-3.45.63-3.58-.37-.1-2.43,5.58-2.36,8.1.07,2.48.77,5.07,2.44,7.34,1.96,2.66,9.36,5.35,9.8,8.39s-.86,5.48-3.16,5.93c-3.23.64-5.77-2.88-5.91-3.04-.92-.78-2.2-.93-2.2-.93Z"/><path class="cls-22" d="M45.72,243.32c-3.16-1.55-1.32-7.24-4.14-10.43s-5.42-3.22-7.14-3.46c-1.13-.15-2.77-.11-2.74-.48.03-.29,4.64-.26,6.43.44s3.44,1.85,4.63,3.62c1.4,2.07,1.4,7.97,3.46,9.06,2.07,1.09,2.12,2.55-.51,1.25Z"/><path class="cls-25" d="M39.85,262.87s-7.39-14.66,6.03-21.42c13.42-6.76,25.71,4.59,25.71,4.59,0,0-15.91,4.32-21.86,7.79-5.95,3.47-9.89,9.03-9.89,9.03Z"/><path class="cls-22" d="M47.38,249.15c1.41,1.17,5.15-.06,6.46-1.99,1.4-2.07-4.29-6.19-6.17-5.45s-1.7,6.28-.3,7.44Z"/><path class="cls-22" d="M39.21,256.07c.92,1.52,3.94-.49,4.85-2.75.82-2.02-.1-7.83-1.51-7.5-1.77.41-5.12,7.33-3.34,10.25Z"/><path class="cls-22" d="M64.72,243.34c.93,1.56-2.59,2.32-4.56,2.2-2.11-.14-6.83-3.9-5.94-4.93,1.11-1.29,8.72-.27,10.51,2.73Z"/><path class="cls-15" d="M39.99,262.91c1.72,1.42,4.48-.32,9.39-2.63,4.46-2.1,9.58-4.93,15.11-7.91,5.53-2.98,7.83-4.19,7.02-6.18s-11.66-1.14-21.25,4.59c-9.59,5.73-11.99,10.7-10.27,12.12Z"/><path class="cls-1" d="M29.68,258.23c-.51,2.55-.34,5.78,1.53,8.15,1.88,2.39,6.29,4.89,9.85,5.1,2.89.17,6.07-.83,7.98-1.87,1.87-1.02,3-3.76,3.91-3.91,1.02-.17,2.58,1.16,3.91.85,2.89-.68,1.95-2.74,2.89-3.06,1.02-.34,4.59,1.02,6.96.17,3.51-1.25,2.51-4.61,3.06-5.44.34-.51,2.27-1.97,3.23-2.55,1.7-1.02,4.08-3.72,4.25-6.29.51-7.64-7.81-9.51-9.17-11.72-1.89-3.07-3.5-4.98-3.23-7.81.34-3.57,3.23-6.96.85-8.32-2.25-1.29-4.25-.17-4.93,2.72-.4,1.69-.85,6.39-1.53,6.46-1.06.1-3.79-1.83-4.25-4.59-.68-4.08,3.57-9.51-1.02-9.17-1.44.11-2.83,3.53-3.57,6.12-.68,2.38-1.19,5.27,1.53,8.32,1.91,2.14,4.93,4.93,3.74,6.29-1.1,1.26-6.33-3.96-6.96-5.61-1.7-4.42-1.19-7.47-.68-9.51.71-2.82.36-4.76-1.53-4.93-1.89-.17-2.55,1.36-2.89,3.4-.36,2.15-1.03,5.21-2.21,5.95-.87.54-9.39-2.02-11.38-.17-2.38,2.21.03,4.7.68,5.61,2.21,3.06,3.27,2.37,5.61,5.78.84,1.23,3.23,6.12,1.19,8.32-.73.79-4.49-4.59-4.93-7.64-.51-3.57-1.8-3.71-3.23-3.57-1.7.17-2.56,2.13-2.04,4.93s3.08,5.55,3.74,7.64c1.02,3.23-.95,8.3-1.36,10.36Z"/><path class="cls-1" d="M228.33,394.68c-3.45.95-1.9,4.76-7.37,6.89-1.36.53-.95-5.35.12-7.85,1.2-2.79,6.78-4.64,7.37-7.37.49-2.26-.98-2.97-3.09-2.38-3.8,1.07-7.85,7.61-9.51,8.08-1.61.46-.58-4.29.83-5.35,1.41-1.06,4.41-1.91,5.47-2.62,1.06-.71,3.92-2.99,3.21-4.76-.71-1.76-3.52-1.85-4.75.36-1.07,1.9-6.54,3.69-7.73,2.97-.88-.53-.83-10.1-3.21-11.41-1.96-1.08-2.98.61-3.33,1.66-.35,1.06,2.69,5.65.71,9.27-.71,1.31-11.29,3.45-11.41,2.73-.06-.37,3.18-1.27,5.47-3.33,2.03-1.82,2.26-5.23,2.14-6.66-.21-2.49-.59-5.11-2.14-5.35-.68-.1-2.71.1-3.09,2.26-.36,2.02.56,4.29.24,4.99-.8,1.72-2.23,2.12-2.62,1.55-.48-.71.85-2.52,1.19-6.18.28-2.95.48-6.06-1.07-7.25-1.43-1.1-3.04-.64-3.69,1.19-.71,2.02.55,6.4-1.43,9.03-1.07,1.43-2.73,3.8-5.47,4.64-4.11,1.25-9.16,2.15-10.94,4.28-3.04,3.63-1.94,10.08,1.26,12.04,4.8,2.94,8.25.8,9.2,1.4.95.59-1.38,5.97,2.85,8.44,4.24,2.47,7.85-.09,9.39.24,1.66.36,2.62,3.59,3.33,5.71.71,2.12,3.57,3.7,3.92,4.76.35,1.06,1.47,5.72,5.71,6.78,4.24,1.06,7.99-.87,10.46-4.04,2.47-3.18,1.44-9.3,2.85-11.77,1.41-2.47,7.42-7.91,7.96-9.75.59-2.02-.96-3.73-2.85-3.21ZM186.86,389.51c-.63,1.16-4.44,3.49-6.23,3.17-1.8-.32-2.43-2.32-1.48-4.54.95-2.22,6.76-2.75,7.4-2.32.63.42.82,2.78.32,3.7Z"/><path class="cls-22" d="M207.73,387.22c3-4.84,1.9-8.08,1.44-10.31-.3-1.47-1.08-3.48-.57-3.6.4-.09,2.41,5.64,2.27,8.16s-.95,5.05-2.77,7.27c-2.14,2.61-3.38,3.32-.37-1.52Z"/><path class="cls-22" d="M208.71,396.53c3.37-1.47,1.58-7.21,4.64-10.32,3.05-3.12,5.97-2.95,7.59-3.81,2.15-1.15,2.4-1.22,2.18-2.54-.05-.29-.85,1.57-6.05,2.94-1.92.51-3.68,1.77-4.98,3.5-1.53,2.03-1.68,7.93-3.89,8.97-2.21,1.04-2.3,2.49.51,1.26Z"/><ellipse class="cls-14" cx="223.12" cy="380.24" rx="1.08" ry="1.03"/><ellipse class="cls-14" cx="208.72" cy="373.36" rx="1.08" ry="1.03"/><ellipse class="cls-14" cx="213.32" cy="387.47" rx="1.08" ry="1.03"/><ellipse class="cls-14" cx="218.52" cy="383.84" rx="1.08" ry="1.03"/><ellipse class="cls-14" cx="207.88" cy="386.28" rx="1.08" ry="1.03"/><ellipse class="cls-14" cx="209.3" cy="379.73" rx="1.08" ry="1.03"/><path class="cls-25" d="M184.7,393.54s14.32-13.63,25.46-5.11c11.09,8.48.04,22.99.04,22.99,0,0-8.9-10.68-13.96-13.88-5.06-3.2-11.55-3.99-11.55-3.99Z"/><path class="cls-15" d="M185.05,393.39c-.72,1.96,6.34,2.8,9.54,6.21,3.2,3.41,3.28,5.85,7.76,8.93s6.29,4.37,7.82,2.88c1.53-1.49-2.74-9.66-11.02-14.76-8.28-5.1-13.39-5.22-14.11-3.26Z"/><path class="cls-22" d="M188.4,392.25s-4.84,4.35-8.59,3.68c-4.51-.8-6.12-5.53-4.55-9.1,1.87-4.28,10.31-3.08,14.59-7.1,4.28-4.02,4.05-6.82,4.18-9.1.09-1.49-.18-3.62.37-3.62.42,0,.94,6.02.13,8.43-.79,2.37-2.28,4.69-4.69,6.43-2.83,2.04-11.38,2.68-12.72,5.49-1.34,2.81-.68,5.51,1.61,6.56,3.21,1.47,6.9-1.25,7.09-1.36.96-.52,2.57-.31,2.57-.31Z"/><path class="cls-22" d="M199.17,396.65s-1.18-.72-1.93-1.13c-.01.08-.67,6.59-3.21,7.93-2.54,1.34-5.76.12-5.65-2.04.13-2.68,2.65-4.32,3.01-6.96.42-3.15-1.38-5.56-.62-7.85,1.07-3.21,6.54-3.37,8.86-5.8,2.81-2.95,1.63-9.09,1.07-8.97s1.76,3.6-1.99,8.15c-1.63,1.99-8.51,3.05-9.18,6.26s1,4.72.53,7.68c-.39,2.44-3.34,5.14-3.15,7.89.27,4.02,5.62,4.42,8.17,2.68,2.67-1.83,4.1-7.85,4.1-7.85Z"/><path class="cls-22" d="M206.84,403.32s-3.1,2.43-3.19,5.34c-.07,2.33.55,3.93,2.91,5.01,2.45,1.12,6.46-.46,8.05-3.16,3.51-5.99-.07-11.13,2.45-16.49,1.72-3.65,3.79-4.5,5.12-5.65,1.89-1.64,3.18-3,3.43-2.84,1.54.95-5.38,4.52-7.41,8.93-1.74,3.78.62,11.94-2.38,16.94-2.12,3.53-6.21,5.44-10.14,3.6-2.92-1.37-3.98-4.04-4.01-6.78s3.25-5.69,3.78-6.41c.85.85,1.38,1.52,1.38,1.52Z"/><path class="cls-22" d="M210.21,411.42s-1.62,1.39-2.06,3.5c-.47,2.28-.43,3.95,1.93,5.03,2.45,1.12,5.74-.71,7.26-3.45,2.98-5.37.79-7.66,2.72-11.2,1.59-2.91,3.79-3.44,5.12-4.59,1.89-1.64,2.13-4.09,2.82-3.79.62.26-.71,3.35-2.12,4.5-1.75,1.42-3.59,2.4-4.68,4.76-1.5,3.26.18,6.71-2.38,10.94-2.13,3.52-5.69,5.99-9.62,4.15-2.92-1.37-3.39-3.87-2.76-6.54.64-2.73,3.29-4.88,3.82-5.6.59,1.59-.05,2.28-.05,2.28Z"/><path class="cls-22" d="M192.13,391.38c.94,1.74,4.81-.09,6.96-.8,2.02-.67,6.29-1.87,5.89-2.95-.24-.63-4.95-.94-8.84.27-1.93.6-4.69,2.23-4.02,3.48Z"/><path class="cls-22" d="M211.14,405.17c-1.61-.54-1.87-3.46-1.47-5.62.8-4.42.87-6.86,1.87-7.36.8-.4,2.11,2.92,1.95,7.4-.14,3.65-1.32,5.93-2.35,5.59Z"/><path class="cls-22" d="M209.71,389.77c-.58-.69-4.19.54-6.2,1.88-1.44.96-2.79,2.01-2.68,3.21.13,1.47,1.71,3.23,4.49,1.49,2.94-1.84,4.96-5.9,4.39-6.59Z"/><circle class="cls-14" cx="184.55" cy="382.13" r="1.03"/><circle class="cls-14" cx="219.43" cy="417.02" r="1.03"/><circle class="cls-14" cx="221.67" cy="406.01" r="1.03"/><circle class="cls-14" cx="228.57" cy="397.24" r="1.03"/><circle class="cls-14" cx="217.56" cy="406.38" r="1.03"/><circle class="cls-14" cx="217.93" cy="396.5" r="1.03"/><circle class="cls-14" cx="225.96" cy="386.24" r="1.03"/><circle class="cls-14" cx="189.77" cy="384.75" r="1.03"/><circle class="cls-14" cx="197.79" cy="380.27" r="1.03"/><path class="cls-14" d="M202.54,387.97c0,.57-5.62,2.37-6.96,2.82-1.49.5-1.87-.18-1.66-.83.17-.5,1.96-.96,2.49-1.16,1.33-.5,6.13-1.4,6.13-.83Z"/><path class="cls-14" d="M211.7,394.33c-.58.18-.97,5.53-1.08,6.82-.12,1.43.68,1.54,1.28,1.15.47-.3.48-1.97.54-2.48.17-1.29-.17-5.67-.75-5.49Z"/><path class="cls-14" d="M208.62,390.56c.22.52-3.13,4.03-4.26,4.88-1.33.99-1.99.33-1.99-.66,0-.57.75-1.27,1.16-1.66,1.02-.98,4.86-3.08,5.09-2.56Z"/><circle class="cls-14" cx="200.4" cy="372.06" r="1.03"/><circle class="cls-14" cx="192.01" cy="376.54" r="1.03"/><circle class="cls-14" cx="194.25" cy="366.84" r="1.03"/><path class="cls-14" d="M46.2,258.24c.36-1.43,2.59-3.75,7.02-6.04,4.43-2.29,8.12-3.24,9.25-3.09s8.61,4.35,7.51,5.85-7.47-2.51-7.47-2.51c0,0,4.16,5.52,2.68,6.29s-6-4.01-6-4.01c0,0,3.05,5.91,1.57,6.67s-5.63-4.39-5.63-4.39c0,0,3.06,6.65.84,7.43s-4.91-6.26-4.91-6.26c0,0,.11,8.55-2.11,8.95-2.23.4-3.11-7.46-2.75-8.89Z"/><path class="cls-22" d="M51.51,255.09s3.13,5.37,6.63,5.64c4.2.32,6.88-3.84,6.44-7.67-.52-4.59-8.31-5.48-11.03-10.39-2.73-4.92-1.77-7.56-1.29-9.79.32-1.46,1.12-3.45.63-3.58-.37-.1-2.43,5.58-2.36,8.1s.77,5.07,2.44,7.34c1.96,2.66,9.36,5.35,9.8,8.39s-.86,5.48-3.16,5.93c-3.23.64-5.77-2.88-5.91-3.04-.92-.78-2.2-.93-2.2-.93Z"/><path class="cls-22" d="M55.23,251.22s.96-.47,1.76-.73c-.01.08,1.55,5.41,3.17,7.55,1.91,2.54,5.24,3.76,5.54,1.62.54-3.77-9.34-8.08-8.44-15.98.36-3.16,1.83-4.98,1.76-7.38-.1-3.36-4.89-4.84-6.3-7.75-1.71-3.52.97-9.16,1.43-8.91s-2.51,3.04-.4,8.34c.92,2.31,6.72,5.01,6.46,8.27s-1.49,4.24-1.63,7.23c-.41,8.45,8.92,10.6,8.64,16.75-.18,4.02-5.64,2.65-8.25-1.46-1.64-2.58-3.74-7.58-3.74-7.58Z"/><path class="cls-22" d="M48.94,254.87s2.04,3.02,1.34,5.85c-.55,2.26-1.86,4.01-4.32,3.97-2.52-.04-3.92-2.96-4.61-5.95-1.52-6.63,1.75-9.63.94-15.41-.55-3.94-2.31-6.22-3.18-7.65-1.24-2.04-4.44-4.01-4.59-3.76-.59.94,5.41,3.06,6.63,11.56.58,4.06-2.46,10.27-1.13,15.83.94,3.92,2.41,6.85,6.46,6.82,2.76-.02,4.89-2.73,5.64-5.37.75-2.64-1.3-6.22-1.58-7.04-.98.62-1.63,1.15-1.63,1.15Z"/><path class="cls-22" d="M46.16,259.4s1.07,1.73.9,3.88c-.18,2.31-.86,4.01-3.21,4.58-3.79.92-9.43-1.75-10.05-4.76-1.22-5.91,1.96-11.15,1.19-15.03-.63-3.19-2.45-4.24-3.31-5.67-1.24-2.04-.8-4.46-1.49-4.35-.62.1-.26,3.4.68,4.85,1.17,1.79,2.54,3.18,2.88,5.73.46,3.51-2.56,9.99-1.42,14.7.95,3.91,6.1,7.33,12.12,5.8,2.92-.74,4.03-2.9,4.18-5.63.15-2.79-1.62-5.51-1.89-6.33-.94,1.38-.56,2.21-.56,2.21Z"/><circle class="cls-14" cx="52.9" cy="229.69" r="1.03"/><circle class="cls-14" cx="54.06" cy="219.21" r="1.03"/><circle class="cls-14" cx="31.94" cy="229.1" r="1.03"/><circle class="cls-14" cx="46.29" cy="220.15" r="1.03"/><circle class="cls-14" cx="51.96" cy="237.45" r="1.03"/><circle class="cls-14" cx="55.94" cy="232.39" r="1.03"/><circle class="cls-14" cx="51.94" cy="226.74" r="1.03"/><circle class="cls-14" cx="42.53" cy="235.21" r="1.03"/><circle class="cls-14" cx="39" cy="229.1" r="1.03"/><circle class="cls-14" cx="46.76" cy="233.1" r="1.03"/><circle class="cls-14" cx="34.29" cy="232.62" r="1.03"/><circle class="cls-14" cx="38.76" cy="237.8" r="1.03"/><circle class="cls-14" cx="40.88" cy="245.57" r="1.03"/><circle class="cls-14" cx="32.88" cy="245.8" r="1.03"/><circle class="cls-14" cx="32.64" cy="253.8" r="1.03"/><circle class="cls-14" cx="45.59" cy="226.51" r="1.03"/><circle class="cls-14" cx="54.78" cy="243.57" r="1.03"/><path class="cls-27" d="M102.74,334.17c2.19-1.06.94-18.5.41-24.26-.53-5.75-.98-13.46,6.08-20.43,7.06-6.96,23.19-10.71,25.67-12.27,2.47-1.56,17.55-16.81,26.38-15.11,8.83,1.7,8.78,18.44,7.92,25.2-.87,6.75-5.78,35.73-14.23,43.71-7.36,6.96-14.37,8.82-21.47,12-4.8,2.15-4.95,4.05-2.41,6.88,7.84,8.73,13.73,19.69,16.11,35.13,2.9,18.79,1.6,28.92-1.45,38.77-2.64,8.54-9.47,19.7-11.12,22.51-4.86,8.23-3.06,14.89-4.98,14.5-4.68-.97-5.1-10.39-5.1-10.39,0,0-.85-2.15-2.81-5.81-.58-1.08-.79-3.03-4.19-5.3-4.26-2.84-12.4,6.53-12.83,7.46-2.41,5.25-.28,11.9-1.23,12.66-.53.42-5.61-.44-7.9-7.47-.84-2.58-.84-6.57-1.41-10.97-.72-5.53-2.18-9.78-6.29-12.03-2.84-1.56-8.32-3.38-12.9,2.02-4.59,5.4-6.21,15.81-7.79,15.54-1.13-.19-5.36-9.06-2.8-17.08,1.36-4.27,3.21-6.04,2.95-6.84-.05-.16-8.01,1.4-13.32,4.85-6.35,4.13-11.72,12.3-11.89,8.82-.17-3.48,0-13.62-.08-17.97-.19-9.77-3.24-12.45-3.24-12.45,0,0-4.97-2.36-12.42.23-9.06,3.16-10.52,16.66-12.87,16.03-1.74-.47,1.5-15.79,3.61-22.04,1.25-3.71,6.46-19.05,11.4-26.26,4.13-6.03,2.97-6.01,16.49-17.44,13.31-11.25,30.08-17.52,39.18-19.02,10.48-1.73,14.39-1.18,18.55-3.19Z"/><path class="cls-26" d="M108.52,312.26c2.58.89,10.53-.19,15.95-7.67,5.42-7.48,4.2-15.2-.1-17.67s-10.93-.75-15.48,4.42c-5.25,5.96-5.93,12.91-5.17,15.17,1.03,3.03,2.21,4.86,4.79,5.75Z"/><path class="cls-26" d="M155.52,329.05c1.76-3.12,3.47-4.95,3.66-6.82,1.19-12.03-13.46-10.86-16.94-2.34-2.6,8.07-.07,12.42,1.94,14.21,2.43,2.18,5.25,1.26,5.25,1.26-.31-.29,4.34-3.22,6.09-6.32Z"/><path class="cls-27" d="M125.23,283.16s3.79-.61,8.07,1.82c4.28,2.43,7.57,10.85,9.57,13.65s5.05,9.7,7.48,5.42c2.43-4.28,2.78-9.39-.18-10.87s-4.67-.03-7.44-2.7c-2.76-2.67-4.01-5.59-6.96-7.06-2.96-1.47-6.24-2.51-6.24-2.51l-4.31,2.25"/><path class="cls-26" d="M183.31,337.4c.88-2.24-.79-18.64-2.88-25.42-2.45-7.93-4.8-13.17-6.89-14.59-.34-.23-6.59-2.72-8.61,2.67-1.26,3.37-2.62,11.17-.69,16.81,4.05,11.82,11.15,18.5,13.44,20.13,1.94,1.38,4.71,2.76,5.64.4Z"/><path class="cls-27" d="M180.65,334.77c-1.14-.25-8.07-14.52-9.1-19.19-.68-3.13-4.55-21.87-4.55-21.87l2.35.27s10.62,13.47,12.45,23.32c1.83,9.84,2.84,13.78,2,16.73s-3.16.74-3.16.74Z"/><path class="cls-26" d="M68.95,444.18s-3.13-12.17,5.59-23.46c9.3-12.05,16.59-15.49,21.09-26.33,4.5-10.84,5.78-16.29,9.16-24.37,3.66-8.76,8.27-18.46,9.5-18.25s4.47,13.2,5.84,20.1c1.32,6.65,1.54,18.62-1.02,28.18-2.97,11.08-8.73,21.81-13.66,29.1-9.34,13.81-12.56,22.54-10.44,21.61,0,0,.12-27.07-14.48-23.01-11.1,3.08-11.58,16.43-11.58,16.43Z"/><path class="cls-26" d="M108.33,347.22c-1.32-.96-17.48,7.75-21.9,11.1-14.52,10.99-17.07,17.62-20.74,32.3-3.21,12.84-6.89,22.17-10.89,28.32-3.98,6.12-12.11,18.34-12.11,18.34,0,0,14.59-15.02,25.16-15,3.41-9.07,16-20.83,20.42-29.71,4.9-9.84,5.76-16.97,11.23-26.36,2.75-4.72,10.15-18.03,8.83-18.99Z"/><path class="cls-26" d="M121.78,354.03c-1.43-.56,11.05,26.97,5.83,46.98-4.05,15.51-22.25,43.8-18.78,40.91,3.61-3,7.91-3.14,8.71-2.68,3.16,1.85,6.72,9.7,7.31,11.01,1.9-8.56,11.66-20.35,14.27-37.95,4.46-30.07-6.82-54.16-17.33-58.28Z"/><path class="cls-26" d="M37.73,405.6c5.32.19,3.32,24.25,4,24.8,2.86-8.56,10.02-18.95,13.38-27.57,3.6-9.22,5.34-23.81,12.46-34.58,6.94-10.5,18.08-16.71,22.94-19.64,6.94-4.17,14.73-6.15,13.57-6.79-1.54-.85-16.07,1.77-23.89,4.08-11.28,3.34-20.87,6.62-30.59,14.2-16.83,13.13-18.85,22.01-22.05,29.29-4.62,10.53-8.49,22.46-8.24,22.87,3.92-7.57,14.21-8.12,18.41-6.67Z"/><path class="cls-26" d="M124.68,284.24s6.5.65,11.76,3.3c5.26,2.64,9.42,12.84,11.91,16.14,2.49,3.3,6.33,11.63,9.21,6.08,2.88-5.55,3.22-11.95-.41-13.52-3.63-1.57-5.7.38-9.11-2.7-3.41-3.08-4.98-6.6-8.61-8.17-3.63-1.57-9.72-4.38-9.72-4.38l-5.38,2.71"/><path class="cls-26" d="M87.87,287.99c1.27-2.07,17.9-12.32,24.63-14.58,7.87-2.64,16.37-2.69,24.73-.98,6.29,1.29-5.51,6.84-5.79,6.95-3.35,1.32-7.44,8.82-13.15,10.54-11.97,3.6-21.64,1.6-24.33.63-2.28-.81-7.44-.39-6.1-2.57Z"/><path class="cls-27" d="M93.98,286.74c.88.81,11.26-.74,20.49-4.26,2.99-1.14,19.97-10.01,19.97-10.01l-6.43-.83s-11.58-.52-20.62,3.78c-9.04,4.29-12.83,5.78-14.71,8.24s1.3,3.09,1.3,3.09Z"/><path class="cls-21" d="M154.59,326.5s.11.03.13,0h-.01c-.08.12-.24.29-.33.39-6.19,5.94-11.46.07-10.02-6.94.04-.2.34-.19.37,0,1.41,6.36,2.66,9.51,9.62,6.43.05-.02.17-.06.22-.09.26-.16.32.3.04.2h0Z"/><path class="cls-21" d="M119.67,302.01s.14.04.16.01v.02c-.12.14-.32.35-.44.48-7.87,7.56-14.58.09-12.75-8.83.05-.25.43-.24.47.01,1.84,8.13,3.33,12.07,12.23,8.17.06-.03.21-.08.28-.11.33-.21.41.38.05.25h0Z"/><path class="cls-21" d="M166.38,301.24c-.17,4-.55,8.04-.77,11.98.02,5.78,2.61,11.54,5.9,16.21,2.34,2.85,5.28,6.01,8.36,8.02.8.47,1.61.74,2.04.53.75-1.9.57-4.95.45-7.35-.83-13.5-4.61-27.86-15.18-37.01-.4-.32-.46-.91-.13-1.3.31-.37.85-.43,1.23-.15,3.39,2.47,6.09,5.66,8.35,9.09,4.63,6.83,6.78,15.06,7.71,23.15.26,3.12,1.93,14.83-1.88,15.76-1.42.36-2.61-.22-3.71-.88-1.86-1.2-3.29-2.68-4.7-4.14-2.89-2.91-5.4-6.27-7.01-10.06-1.6-3.8-3.1-7.72-2.94-11.95.19-2.07.51-4,.77-6.01.26-1.99.54-3.98.85-5.96.06-.4.69-.35.67.07h0Z"/><path class="cls-21" d="M131.7,461.28c-.77-5.35.99-10.65,3.96-15.14,2.9-4.7,6.21-9.65,8.67-14.62,5.12-10.45,5.95-22.41,5.67-33.8-.34-15.2-4.08-30.88-13.73-43-1.81-2.17-3.82-4.07-5.32-6.41-.46-.69-.82-1.6-.7-1.92.25-.6.97-1.16,1.55-1.51,2.39-1.35,5.15-1.89,7.79-2.78,11.41-3.03,20.43-12.76,24.06-23.8,1.43-3.5,2.45-7.43,2.65-11.24.03-.45-.27-.86-.73-.96-.5-.11-.99.21-1.1.71-1.51,7.05-4.19,14.37-8.3,20.17-4.3,5.9-9.84,9.55-16.24,12.81-2.75,1.78-12.91,3.66-11.19,8.03,1.79,3.98,5.55,6.12,7.64,9.86,3.39,5.47,6.9,13.08,8.38,19.34,3.62,17.08,4.78,37.38-2.42,53.63-4.22,9.73-13.36,20.01-12.86,29.58-1.78-.59-2.42-2.47-3.14-4.42-1-2.7-1.42-5.8-2.55-8.76-1.32-3.43-3.21-6.59-6.4-8.69-2-.55-3.72.19-5.77.87-5.66,1.89-9.63,7.9-9.7,13.69-.09,1.9.32,3.84.56,5.66-3.39-1.41-6.07-5.08-6.72-8.72-.37-4.12-.54-8.33-1.71-12.33-.83-2.64-1.42-5.85-3.77-7.58-12.33-9.44-19.89,3.96-22.72,14.83-1.98-3.6-3.11-8.17-2.86-12.1.2-3.34,1.92-6.4,3.3-9.58.02-.13.05-.31-.06-.58-.15-.29-.48-.39-.62-.39-.33-.01-.4.02-.61.02-9.66.82-17.1,7.85-23.73,14.25-.09.08-.2.17-.31.24-.64-4.26-.58-11.83-.74-16.48-.24-4.14.21-8.5-1.39-12.44-.54-1.37-1.64-2.76-3.21-2.96-6.62-1.77-14.6.34-18.83,5.94-2.2,3.57-2.24,8.29-4.89,11.46-.94-2.11.14-5.34.6-7.7,2.04-7.95,4.05-15.89,7.5-23.38,8.24-20.28,24.2-36.85,43.82-46.44,4.89-2.33,9.92-4.64,15.18-5.92,5.28-1.31,10.75-1.61,16.28-2.09,2.22-.34,4.64-.16,6.51-1.9,2.01-3.24,1.51-7.22,1.65-10.73.2-10.49-3.59-22.2,3.16-31.35,4.67-6.6,13.04-8.85,20.58-11.1,2.7-.87,5.53-2.19,7.71-4.03,6.44-5.24,11.89-11.51,19.73-14.32,2.01-.67,5.34-1.59,7.05-.57.55.43.89,1.72,1.23,3.01,2.43,9.15,3.82,18.8,2.91,28.25-.11.76,1.05.98,1.22.21,1.75-8.29.95-16.82-.56-25.06-1.09-4.98-1.76-10.48-8.29-8.72-9.91,1.75-17.31,9.37-24.85,15.16-4.08,3.25-9.63,3.75-15.01,5.65-2.7.9-5.36,2.09-7.82,3.67-7.65,4.72-11.31,14.03-10.5,22.76.51,5.61,1.36,10.91,1.47,16.48.05,2.71.08,5.5-.46,8-.32,1.3-.56,1.86-1.96,2.18-6.72,1.19-13.71.9-20.51,2.53-21.62,5.72-41.2,19.53-53.47,38.28-8.63,13.6-13.95,29.35-14.62,45.45-.07,2.29,1.49,3.97,3.04,1.48,1.72-2.76,3.47-6.27,4.92-9.17.31-.58.51-.95.96-1.44,4.27-4.45,11.72-7.6,17.64-4.83,1.46,1.32,1.87,3.49,2.04,5.41.14,2.72.19,5.49.21,8.25l.02,8.28.05,4.16c.08,1.58.03,3.23.51,4.84.12.2.07.27.33.48.31.25.67.2.83.16,1.21-.51,1.78-1.37,2.65-2.16,2.91-2.9,5.85-5.8,9.24-8.13,3.63-2.53,7.84-4.4,12.29-4.66-.18.42-.52.95-.81,1.41-1.47,2.33-3.08,4.82-3.55,7.82-.52,4.4.92,8.67,2.72,12.61.58.98,1.02,2.3,2.25,2.81.33.17,1.08-.04,1.28-.34.25-.3.29-.51.34-.67l.06-.26s.12-.5.12-.5c1.77-6.89,4.57-17.55,13.07-18.05,3.15,0,6.5,1.72,8.55,4.14,2.7,5.57,3.13,11.89,3.32,17.97.73,4.68,4.04,9.54,8.81,10.81.21,0,.49,0,.81-.17.63-.29.78-1.17.77-1.6-.58-4.57-1.03-9.41,1.97-13.21,2.35-2.92,5.63-5.65,9.38-6.53.59-.08,1.4.07,1.85.54,3.17,3.47,4.89,7.88,5.9,12.34.96,4.25.8,10.1,6.87,10.28.7.07,1.25-.62,1.08-1.28ZM67.2,446.29s0,.04,0,.04c0,0,0,0,0-.04Z"/><path class="cls-21" d="M121.68,354.21c4.61,12.02,8.89,24.78,7.95,37.84-.64,8.7-3.47,17.03-6.49,25.13-3.36,8.07-8.31,15.18-12.99,22.47-2.22,3.6-4.86,7.08-6.37,11.04,0,0-.87-.23-.87-.23,1.36-4.24,3.85-7.77,6.07-11.54,4.4-7.31,9.35-14.47,12.59-22.35,4.65-11.83,8.62-24.55,6.36-37.37-1.31-8.46-3.63-16.79-6.59-24.85,0,0,.34-.14.34-.14h0Z"/><path class="cls-21" d="M130.09,360.68c6.63,10.19,10.89,22.18,10.97,34.42-.27,8.17-.58,16.24-2.29,24.26-1.63,8.04-6.58,14.95-10.27,22.04-1.8,3.56-2.97,7.37-3.6,11.32,0,0-.89-.11-.89-.11.43-8.29,5.06-15.53,8.9-22.55,1.84-3.55,3.41-7.2,4.31-11.08,1.38-5.59,1.8-12.11,2.27-17.89,1.62-14.03-2.38-28.25-9.71-40.22,0,0,.3-.21.3-.21h0Z"/><path class="cls-21" d="M99.58,341.77c-17.94,3.88-39.52,8.87-53.1,21.81-5.39,4.8-10.48,10.04-13.81,16.48-2.17,4.38-6.69,15.38-8.78,19.98-1.84,4.43-3.92,8.91-5.08,13.54,0,0-.89-.14-.89-.14.84-4.9,2.79-9.39,4.54-13.99,1.82-4.53,3.78-8.99,5.7-13.45,1.87-4.5,4.06-9.06,7.13-12.9,4.6-5.82,10.14-10.7,16.01-15.16,6.04-4.24,12.93-7.06,19.85-9.47,9.25-3.12,18.75-5.4,28.37-7.05,0,0,.06.36.06.36h0Z"/><path class="cls-21" d="M113.31,352.72c-4.57,8.46-8.54,17.26-11.74,26.32-1.1,3.04-1.91,6.06-2.82,9.19-1.28,4.16-3.25,8.08-5.57,11.74-2.32,3.66-5.01,7.06-7.86,10.3-2.83,3.24-5.95,6.27-8.75,9.39-5.39,6.22-9.49,14.56-7.34,22.91,0,0-.86.25-.86.25-.69-2.08-1-4.3-.94-6.51.23-6.66,3.66-12.79,7.87-17.74,2.86-3.26,5.99-6.12,8.84-9.35,5.65-6.28,10.71-13.31,13.39-21.37,2.38-8.22,5.58-16.29,9.4-23.95,1.9-3.85,3.91-7.64,6.07-11.35,0,0,.32.18.32.18h0Z"/><path class="cls-21" d="M108.11,291.42c-5.12.54-10.2,1.15-15.33.36-1.91-.29-4.03-.5-5.9-1.55-.24-.17-.53-.35-.8-.79-.13-.24-.26-.46-.24-.97.07-.67.42-1.05.74-1.45,1.84-1.98,3.99-3.37,6.14-4.88,8.5-5.72,17.72-10.14,27.72-12.66,6.7-1.74,14.26-1.13,20.28,2.44.45.25.6.82.35,1.27-.24.43-.78.59-1.21.38-2.93-1.41-6.04-2.36-9.24-2.57-6.57-.54-12.82,1.88-18.94,4.16-6.15,2.3-12.01,5.58-17.58,9.07-2.07,1.39-4.42,2.74-6.03,4.59-.02.02,0,.01.02-.14,0-.3-.05-.31-.07-.37-.06-.07,0,.01.1.07.1.07.24.15.39.22,4.43,1.64,9.66,1.77,14.4,1.68,1.65,0,3.31-.19,4.89-.68.49-.15,1.02.12,1.17.62.19.57-.25,1.19-.85,1.21h0Z"/><ellipse class="cls-2" cx="114.28" cy="298.87" rx="1" ry="1.01" transform="translate(-173.13 158.24) rotate(-43)"/><path class="cls-26" d="M105.02,309.91c-1.76-2.53-3.23-11.17,2.71-18.52,5.94-7.36,14.29-7.76,18.24-3.75,3.94,4.01,4.33,11.38.48,17.31-4.44,6.85-11.37,9.09-13.94,8.77-3.46-.43-5.73-1.27-7.49-3.81Z"/><path class="cls-18" d="M120.29,305.88c-4.92,4.15-11.03,4.06-13.64-.2s-.74-11.08,4.18-15.23c4.92-4.15,11.03-4.06,13.64.2,2.61,4.26.74,11.08-4.18,15.23Z"/><path class="cls-2" d="M105.74,296.75c-1.34,3.26-1.43,6.57.03,8.95,2.6,4.24,9.39,5.57,14.88.94,3.13-2.64,5.16-9.29,5.28-11.13.17-2.7-5.42,11.39-15.4,10-7.12-1-3.73-11.31-4.78-8.76Z"/><path class="cls-21" d="M120.21,307.19c-3.35,3.15-8.71,5.26-12.98,2.52-7.04-4.99-2.98-15.4,2.53-19.83,4.47-4.04,12.57-5.62,15.52,1.06,2.28,5.87-.73,12.26-5.07,16.25h0ZM118.79,305.55c2-1.71,3.62-3.91,4.58-6.37,3.84-10-5.09-15.01-12.73-8.28-1.98,1.84-3.54,4.13-4.4,6.65-1.79,4.61-.19,11.24,5.62,10.81,2.39-.14,4.89-1.14,6.92-2.81h0Z"/><path class="cls-26" d="M138.07,324.11c.73-3.62,1.21-5.12,2.38-6.86,7.54-11.16,22.1-3.83,18.98,5.39-2.59,4.71-7.28,11.65-10.25,12.23-3.6.7-7.61.14-9.45-1.88-1.84-2.03-2.38-5.28-1.66-8.88Z"/><path class="cls-18" d="M153.71,331.49c-3.76,2.85-8.18,2.59-9.87-.59-1.69-3.18-.01-8.06,3.75-10.92s8.18-2.59,9.87.59c1.69,3.18.01,8.06-3.75,10.92Z"/><path class="cls-2" d="M143.61,324.4c-1.12,2.33-1.35,4.72-.41,6.5,1.68,3.16,6.54,4.34,10.73,1.16,2.39-1.82,4.18-6.57,4.35-7.9.25-1.95-4.47,8.09-11.64,6.76-5.11-.95-2.17-8.33-3.04-6.52Z"/><path class="cls-21" d="M153.53,332.34c-2.43,2.06-6.43,3.5-9.38,1.38-4.83-3.87-1.37-11.18,2.73-14.13,3.25-2.74,9.38-3.64,11.08,1.29,1.32,4.33-1.16,8.76-4.43,11.45h0ZM152.71,331.29c1.53-1.19,2.82-2.73,3.64-4.5,3.31-7.27-3.01-11.24-8.96-6.55-2.86,2.37-5.16,6.55-3.95,10.21,1.45,3.95,6.51,2.96,9.27.83h0Z"/><path class="cls-22" d="M198.36,187.53s-4.41-.17-5.62,1.24c-1.21,1.41,1.11,2.63-.36,4-1.82,1.7-3.98-.69-5.64.31-1.92,1.15-2.66,5.11-2.13,5.26s1.11-3.88,2.58-4.39c1.34-.47,3.37,1.3,5.6-.01,2.92-1.73.42-3.47,1.59-4.3s4.46-.57,4.46-.57l-.47-1.51Z"/><path class="cls-22" d="M219.08,195.06s2.53,2.88,1.73,4.12c-.86,1.33-4.08-.09-5.18,1.86-1.13,1.99.8,4.18.07,5.78-.66,1.44-4.09-.27-5.45,1.59-1.59,2.19,1.26,7.68,2.06,7.3.34-.16-2.36-5.38-.86-6.64,1.5-1.26,4.27.61,5.38-1.39,1-1.79-.91-4.76-.07-5.91,1.26-1.73,4.49-.32,5.38-1.66,1.22-1.83-1.57-5.16-1.57-5.16l-1.48.11Z"/><path class="cls-22" d="M201.87,187.53s.87,3.22-.23,3.88c-1.18.71-3.16-1.63-4.76-.53-1.65,1.13-.98,3.58-2.16,4.55-1.07.87-2.86-.26-4.63.68-2.09,1.1-2.1,6.14-1.33,6.16.32,0,.36-4.77,2.01-5.18,1.65-.41,2.86.59,4.5-.55,1.47-1.02,1.11-4.07,2.21-4.65,1.65-.87,3.63,1.47,4.84.76,1.65-.96.75-4.64.75-4.64l-1.2-.48Z"/><path class="cls-22" d="M214.9,193.6s1.3,3.74.29,4.77c-1.08,1.11-3.35-1.32-4.8.35s-.5,4.55-1.55,5.97c-.95,1.28-2.87.28-4.51,1.79-1.93,1.78-1.27,7.9-.51,7.76.32-.06-.27-5.87,1.32-6.71,1.59-.84,2.92.12,4.4-1.61,1.32-1.55.57-5.18,1.58-6.11,1.52-1.4,3.8,1.03,4.91-.08,1.51-1.52.13-5.8.13-5.8l-1.26-.33Z"/><path class="cls-22" d="M204.22,190.17s1.89,4.06-.23,5.76c-.88.7-5.59-.77-6.47.29-1.31,1.56.27,4.18-1,5.78s-4.92-.51-6.04.33c-1.86,1.39-2.21,5.84-1.96,5.96.29.14.84-3.86,2.56-4.77,1.37-.72,4.45,1.46,6.18-.27,1.86-1.86.66-5.38,1.26-6.11.68-.84,5.18,1,6.71-.13,2.2-1.63.73-6.18.73-6.18l-1.73-.66Z"/><path class="cls-22" d="M207.53,190.58s3.37,2.99,1.46,6.18c-1,1.66-4.09.87-5.05,1.86-1.91,1.97-.02,4.81-1.79,6.84-1.3,1.49-5.15.72-6.77,1.79-2.09,1.38-2.06,6.51-1.12,6.75.32.08-.4-4.42,1.86-5.75,1.67-.98,5.64-.47,6.91-1.79,1.84-1.91.7-5.55,1.86-6.77s4-.49,5.11-1.79c2.39-2.79.13-6.38.13-6.38l-2.59-.93Z"/><path class="cls-25" d="M196.1,185.82c.93-3.05,3.26-1.56,6.94-3.06,3.18-1.3,5.78-4.61,11.23-3.43,6.23,1.35,5.99,4.77,6.88,8.26s3.63,4.51,2.66,6.97c-.98,2.46-9.23.95-17.79-1.88-8.56-2.83-9.92-6.85-9.92-6.85Z"/><path class="cls-22" d="M200.02,185.89c-.11-1.23,3.05-.47,4.8-1.65,1.9-1.28,4.86-3.3,6.12-2.99s-2.71,4.35-5.71,5.43c-2.16.78-5.11.44-5.21-.79Z"/><path class="cls-22" d="M220.95,193.33c.96-.77-1.53-2.22-1.74-4.12-.23-2.06-.58-5.29-1.57-5.86-.99-.58-1.5,4.67-.45,7.27.76,1.88,2.81,3.48,3.77,2.71Z"/><path class="cls-22" d="M213.91,182.24c1.04.12-.25,4.34-.11,5.98s.72,3.64-.45,4.36-2.73-.59-2.75-3.26c-.03-3.29,2.26-7.19,3.3-7.07Z"/><ellipse class="cls-31" cx="115.69" cy="117.08" rx="2.6" ry="2.67" transform="translate(-2.36 231.78) rotate(-89.52)"/><ellipse class="cls-31" cx="117.03" cy="109.26" rx="1.82" ry="1.86" transform="translate(6.78 225.37) rotate(-89.52)"/><ellipse class="cls-31" cx="121.46" cy="159.6" rx="1.48" ry="1.51" transform="translate(-39.16 279.72) rotate(-89.52)"/><ellipse class="cls-31" cx="73.35" cy="156.18" rx="1.82" ry="1.86" transform="translate(-83.44 228.21) rotate(-89.52)"/><ellipse class="cls-31" cx="117.56" cy="164.59" rx="1.95" ry="1.79" transform="translate(-48.01 280.76) rotate(-89.52)"/><ellipse class="cls-31" cx="78.22" cy="150.85" rx="1.36" ry="1.39" transform="translate(-73.28 227.81) rotate(-89.52)"/><ellipse class="cls-31" cx="71.95" cy="88.83" rx="1.82" ry="1.86" transform="translate(-17.48 160.03) rotate(-89.52)"/><ellipse class="cls-31" cx="76.72" cy="86.75" rx="1.52" ry="1.56" transform="translate(-10.68 162.74) rotate(-89.52)"/><ellipse class="cls-31" cx="198.9" cy="121.5" rx="1.46" ry="1.5" transform="translate(23.2 274.64) rotate(-72.5)"/><ellipse class="cls-31" cx="207.51" cy="119.53" rx="1.89" ry="1.95" transform="translate(31.1 281.47) rotate(-72.5)"/><path class="cls-20" d="M116.13,94.08s-2.57,5.21-2.3,5.78,3.12.57,3.48.07.47-6.5.47-6.5l-1.65.65Z"/><path class="cls-20" d="M87.2,87.75c-.41.95,2.38,4.27,2.5,5.34s-2.52,5.07-1.61,5.83,2.06-.96,4.36-2.45c1.39-.9,2.83-2.28,3.33-2.3s8.41,5.4,19.92,4.21c7.66-.79,13.92-5.3,13.56-6.67-.4-1.52-7.5-3.93-14.49-3.9-12.57.06-18.38,5.38-19.18,5.16-.57-.16-7.99-6.16-8.4-5.22Z"/><path class="cls-20" d="M101.65,96.82s-2.08,1.89-1.42,2.4,8.17-.66,7.47-.84-6.05-1.55-6.05-1.55Z"/><path class="cls-20" d="M121.32,88.51s-11.46-3.51-16.77-1.85c-1.11.35,1.39,2.73,1.39,2.73l15.38-.88Z"/><path class="cls-30" d="M96.67,94.59s8.55,1.79,15.1,1.82c6.55.03,16.76-3.29,16.76-3.29,0,0-4.76,4.94-15.22,5.52-9.42.53-16.64-4.05-16.64-4.05Z"/><path class="cls-20" d="M112.83,95.4s-4.65,3.21-4.69,3.87,3.45,1.78,4.03,1.51,2.98-5.21,2.98-5.21l-2.32-.16Z"/><circle class="cls-21" cx="121.48" cy="93.2" r="1.33"/><path class="cls-21" d="M98.59,91.5c5.34-2.74,11.42-4.3,17.46-4.02,3.62.29,11.83.9,13.78,4.26.08.2.05.52-.01.67-.52,1.2-1.66,1.91-2.6,2.55-3.47,2.16-7.51,3.07-11.51,3.44,3.91-.76,7.79-1.98,11.04-4.15.78-.55,1.57-1.2,2.02-1.91.48-.3-.55-1.02-1.33-1.4-5.36-2.23-11.56-3.03-17.35-2.53-3.94.43-7.82,1.52-11.49,3.09h0Z"/><ellipse class="cls-31" cx="119.61" cy="84.29" rx="1.78" ry="1.83" transform="translate(-6.72 158.12) rotate(-65.48)"/><ellipse class="cls-31" cx="115.55" cy="79.9" rx="1.06" ry="1.09" transform="translate(-5.1 151.86) rotate(-65.48)"/><ellipse class="cls-31" cx="105.41" cy="80.41" rx="1.06" ry="1.09" transform="translate(-11.5 142.93) rotate(-65.48)"/><path class="cls-20" d="M52.77,126.31s-11.91-7.46-13.82-6.61c-1.95.87-3.59,5-3.17,10.79s4.68,9.6,5.99,9.99c.93.28,11-8.85,11-8.85v-5.32Z"/><path class="cls-20" d="M55.76,121.04s-7.65.97-7.72-1c-.21-5.75,8.58-19.03,20.77-26.74,3.21-2.03,5.6-.82,10.04,3.83,1.51,1.58,6.05,8.17,6.05,8.17l-29.13,15.74Z"/><path class="cls-20" d="M54.5,135.6s-1.2,2.61-.03,4.07c3.84,4.81,19.51,10.39,25.23,7.6,4.53-2.21,5.62-9.03,6.19-10.68.49-1.43-2.99-7.3-2.99-7.3l-28.4,6.31Z"/><path class="cls-30" d="M98.26,103.28c-5.98-3.06-9.55-6.05-17.27-5.3-7.51,13.71,7.09,35.8,11.08,38.33,2.06-1.31,4.44-2.84,6.34-4.49,1.7-1.48,3.82-2.93,3.85-4.19.14-.47-2.13,0-4.46-.69-2.37-.7-5.87-2.57-6.42-4.36-.3-.98,2.06-.52,6.63-.78,6.23-.36,8.22-1.04,9.41-1.65,2.62-1.82,6.36-10.87,4.68-13.7-1.41-2.37-8.78-.59-13.82-3.18Z"/><path class="cls-30" d="M80.99,97.98c-8.84.86-18.02,6.85-24.1,13.94-6.43,7.49-7.73,14.87-6.92,17.95.95,3.63,7.36,8.4,19.95,9.63,10.04.98,20.87-1.99,24.33-4.56.23-.17-6.64-6.12-11.1-17.92-4.37-11.57-1.89-19.07-2.16-19.04Z"/><circle class="cls-21" cx="95.52" cy="110.37" r="2.04"/><path class="cls-17" d="M53.19,130.21c3.32.9,6.76,1.41,10.2,1.34,2.75-.05,5.49-.51,8.16-1.19,5.63-1.44,11.03-3.77,16.2-6.38,5.56-2.81,10.93-6.03,16-9.66,2.99-2.14,5.97-4.42,8.62-7,.55,3.67-3.96,12.56-5.26,13.12-1.19.6-3.04,1.68-7.3,2.01-4.56.35-8.85-.63-8.4.3.45.93,4.04,3.37,6.44,3.99,2.09.54,4.78.42,4.82.81-.03,1.25-2.55,2.8-4.25,4.28-1.26,1.09-2.72,2.12-4.17,3.08,0,0,.02.03.01.04-.33.24-.74.49-1.18.73-.33.22-.67.43-1,.64-.04-.02-.08-.06-.12-.09-4.73,2.16-13.65,4.09-22.03,3.27-12.59-1.23-19-6-19.95-9.63-.06-.22-.1-.46-.13-.72,1.11.39,2.23.76,3.36,1.06Z"/><path class="cls-20" d="M67.79,128.88c.55-1.89,10.83-5.66,11.57-4.95s2.25,1.71,2.24,2.66c-.01.84-5.21,9.86-6.88,10.32s-3.43-1.48-5.05-3.34c-1.15-1.32-2.11-3.9-1.88-4.69Z"/><path class="cls-20" d="M82.93,104.91s-.7,9.89.86,13.36c1.55,3.47,10.28,12.59,10.28,12.59,0,0-9.27-6.48-11.9-11.6-2.63-5.12.77-14.35.77-14.35Z"/><path class="cls-21" d="M55.33,135.34c-2.77,3.85.94,5.58,3.96,7.29,4.62,2.41,9.58,4.38,14.81,4.54,6.76.21,8.59-2.05,10.58-8.17,0,0,1.13.27,1.13.27-.36,1.8-.93,3.52-1.84,5.17-1.73,3.66-6.33,4.32-9.93,4.1-5.43-.24-10.58-2.43-15.23-5.05-1.81-1.19-4.3-2.26-5.09-4.52-.36-1.44.24-2.92,1.14-4.01,0,0,.46.39.46.39h0Z"/><path class="cls-20" d="M65.14,162.13c-.19,1.4,4.72,4.74,5.27,6.11s-1.45,7.61.04,8.28c1.49.67,2.36-2.02,4.84-4.84,1.5-1.7,2.88-4.06,3.54-4.27s13.08,3.99,27.8-1.84c9.79-3.88,16.36-12.14,15.39-13.81-1.08-1.86-11.33-2.4-20.53.23-16.54,4.73-22.22,13.89-23.35,13.9-.81,0-12.81-5.16-13-3.76Z"/><path class="cls-20" d="M85.97,168.35s-2.03,3.26-.98,3.68,10.52-3.89,9.52-3.88-8.54.19-8.54.19Z"/><path class="cls-20" d="M107.87,151.19s-16.4-.37-22.77,3.77c-1.33.87,2.84,3.09,2.84,3.09l19.93-6.86Z"/><path class="cls-30" d="M80.15,167.63s11.39-.47,20.02-2.86c8.64-2.39,21.39-10.88,21.39-10.88,0,0-4.44,8.26-18,12.91-12.21,4.18-23.41.83-23.41.83Z"/><path class="cls-20" d="M101.64,163.4s-4.35,4.58-4.16,5.45,4.05,1.34,4.71.76,1.63-6.41,1.63-6.41l-2.18.19Z"/><circle class="cls-21" cx="113.04" cy="156.15" r="1.62"/><path class="cls-21" d="M79.83,164.44c6.08-6.06,13.56-11.11,22-13.25,4.85-1.11,16.87-3.67,20.68,0,.19.22.3.68.28.94-.24,1.85-1.54,3.28-2.58,4.54-3.93,4.33-9.09,7.25-14.44,9.38,5.06-2.65,9.91-5.88,13.52-10.17.91-1.18,1.89-2.44,2.09-3.78-.04-.17-.31-.32-.61-.46-3.21-1.16-6.81-.75-10.24-.53-5.64.58-11.28,1.55-16.43,3.97-5.17,2.35-9.94,5.59-14.26,9.36h0Z"/><path class="cls-20" d="M17.92,154.09c-.23,1.43,4.72,4.98,5.25,6.39s-1.67,7.76-.16,8.48c1.51.72,2.47-2.01,5.08-4.84,1.57-1.7,3.05-4.08,3.73-4.28s13.3,4.41,28.52-1.19c10.12-3.73,17.06-12.03,16.1-13.76-1.07-1.93-11.55-2.74-21.04-.28-17.05,4.44-23.1,13.68-24.25,13.66-.83-.01-12.99-5.6-13.22-4.17Z"/><path class="cls-20" d="M39.69,160.17s-2.16,3.29-1.09,3.75c1.07.46,10.87-3.72,9.85-3.73s-8.75-.02-8.75-.02Z"/><path class="cls-20" d="M64.52,143.29s-16.78-.79-23.41,3.3c-1.39.86,2.83,3.23,2.83,3.23l20.58-6.53Z"/><path class="cls-30" d="M33.16,160.1s9.72-.6,18.69-2.59c10.2-2.26,24.07-10.46,24.07-10.46,0,0-4.75,8.35-18.76,12.78-12.61,3.98-24,.27-24,.27Z"/><path class="cls-20" d="M53.31,156.29s-4.96,5.08-4.78,5.98,4.2,1.91,4.89,1.34,3.25-8.19,3.25-8.19l-3.36.87Z"/><circle class="cls-21" cx="65.78" cy="149.87" r="1.64"/><path class="cls-21" d="M33.35,156.42c8.76-8.45,20.56-13.34,32.7-14.12,2.72-.35,13.2-.3,10.91,4.56-.91,1.77-2.35,3.21-3.77,4.5-4.59,4.03-10.2,6.65-15.96,8.45,5.51-2.36,10.83-5.32,15.11-9.37,1.36-1.4,3.03-3,3.46-4.88-.16-.33-.68-.69-1.14-.88-2.58-1.03-5.71-.89-8.51-.78-11.97.46-23.57,4.82-32.8,12.53h0Z"/><path class="cls-21" d="M77.74,165.85c-2.43-.73-5.13-1.56-7.56-2.35-1.25-.42-2.43-.97-3.7-1.22-.38-.09-.83-.04-.83.07.96,1.57,2.83,2.99,4.17,4.45.32.38.85.81.98,1.44.04.72-.11,1.83-.18,2.56-.39,3.92-1.09,8.09,2.95,2.56,1.02-1.33,3.84-4.85,4.92-6.21,0,0,.1-.13.1-.13,5.29,1.06,10.62,2.13,16.05,1.75-5.22,1.01-10.79-.16-16-1.21,0,0,.26-.1.26-.09-2.11,2.85-4.07,5.66-6.36,8.48-.33.33-.68.67-1.22.88-2.98.75-1.6-4.54-1.59-6.12.06-.65.2-1.73.17-2.37-1.28-1.93-3.49-3.37-4.79-5.37-.17-.25-.32-.72-.11-1,.21-.35.6-.44.86-.46,1.62.02,3.06.89,4.53,1.39,2.4.89,5.02,1.9,7.39,2.83,0,0-.05.14-.05.14h0Z"/><path class="cls-21" d="M103.9,163.86c.02,1.75-.06,3.59-.83,5.24-.19.35-.43.72-.9.97-.8.37-1.54.4-2.29.36-.93-.1-2.13-.31-2.69-1.28-.13-.22-.12-.65,0-.88.82-1.62,2.22-2.76,3.54-3.91.12-.1.29.07.19.19-.82,1.09-1.69,2.16-2.39,3.26-.19.31-.4.61-.45.9,0-.06.07.09.21.17.88.52,2.45.66,3.39.23,1.23-1.17,1.26-3.58,1.54-5.27.02-.43.69-.41.69.01h0Z"/><path class="cls-21" d="M86.06,168.82c-.37.69-.94,1.59-.88,2.33-.09.56,1.07.24,1.88,0,1.72-.57,3.43-1.31,5.14-2.04.09-.04.19,0,.23.09.04.08,0,.17-.07.22-1.61.97-3.27,1.83-5.06,2.45-.77.21-1.49.57-2.34.25-1.33-1.02.03-2.7.87-3.5.12-.12.32.05.22.19h0Z"/><path class="cls-21" d="M87.64,158.19c-2.05-.24-5.72-2.36-2.22-3.89,5.16-2.18,10.78-3.58,16.4-3.04,0,0-.08.8-.08.8-5.37-.12-10.87,1.27-15.81,3.3-.2.09-.39.19-.56.29-.17.08-.33.27-.21.11-.09-.09.13.31.44.54.62.53,1.42,1.01,2.19,1.51l-.14.37h0Z"/><path class="cls-21" d="M30.85,158.52c-3.29-1.4-6.62-2.72-10.02-3.81-.71-.21-1.72-.57-2.38-.44-.05,0-.02.05.01-.07,0-.03,0,.04.05.12,1.27,2.07,3.21,3.58,4.76,5.5.25.34.52.59.62,1.08,0,2.33-.74,4.72-.53,7.01.09.95.78.33,1.26-.03,2.44-2.6,4.63-5.59,7.1-8.19,5.28,1.11,10.75,2.05,16.09,1.78-5.37.88-10.79-.16-16.05-1.25,0,0,.25-.09.25-.08-1.18,1.46-3.91,4.86-5.02,6.29-.88,1.08-1.65,2.5-3.21,2.85-.74.11-1.27-.64-1.29-1.24-.23-2.42.46-4.68.51-7.04-1.43-2.26-3.87-3.96-5.2-6.39-.52-1.33,1.26-1.17,1.93-.96,3.92,1.08,7.61,2.84,11.18,4.75,0,0-.06.13-.06.13h0Z"/><path class="cls-21" d="M43.27,149.45c-1.17-.3-3.89-1.63-2.82-3.27.58-.52,1.25-.66,1.89-.9,5.62-1.62,11.48-2.64,17.33-2.08,0,0-.08.8-.08.8-6.07-.07-12.41.86-18.13,2.89-.17.08-.17.15-.08-.01-.04.07.02.19.12.37.44.63,1.23,1.25,1.95,1.86l-.18.35h0Z"/><path class="cls-20" d="M26.01,81.92c-.28,1.35,4.29,4.97,4.73,6.34.44,1.37-1.95,7.34-.54,8.1,1.41.75,2.45-1.81,5.07-4.4,1.58-1.56,3.1-3.77,3.76-3.93s12.51,4.82,27.32.15c9.85-3.11,16.85-10.73,16.01-12.43-.93-1.89-10.92-3.14-20.1-1.21-16.5,3.47-22.7,12.04-23.8,11.97-.8-.05-12.17-5.94-12.45-4.58Z"/><path class="cls-20" d="M45.95,89.45s-2.22,3.05-1.22,3.53c1,.49,10.56-3.07,9.58-3.13s-8.37-.41-8.37-.41Z"/><path class="cls-20" d="M68.56,74.21s-16.01-1.51-22.53,2.1c-1.37.76,2.56,3.22,2.56,3.22l19.97-5.32Z"/><path class="cls-30" d="M40.3,88.35s11.17.34,19.78-1.4c8.61-1.73,21.68-9.15,21.68-9.15,0,0-4.92,7.77-18.51,11.37-12.23,3.24-22.96-.82-22.96-.82Z"/><path class="cls-20" d="M61.62,85.71s-4.58,4.17-4.45,5.04,3.86,1.59,4.55,1.08,2.04-6.15,2.04-6.15l-2.15.04Z"/><circle class="cls-21" cx="73.55" cy="80.16" r="1.5"/><path class="cls-21" d="M40.22,85.2c6.37-5.51,14.04-9.92,22.44-11.42,4.82-.74,16.75-2.41,20.23,1.44.17.23.25.68.21.94-.37,1.8-1.73,3.1-2.84,4.26-4.14,3.96-9.4,6.46-14.78,8.17,5.13-2.24,10.1-5.06,13.93-9,.98-1.09,2.02-2.25,2.3-3.55-.02-.17-.28-.33-.56-.49-3.06-1.35-6.6-1.2-9.97-1.23-5.56.17-11.14.73-16.35,2.74-5.22,1.94-10.12,4.77-14.6,8.16h0Z"/><path class="cls-21" d="M38.17,86.64c-3.72-1.24-7.18-3.24-10.9-4.41-.28-.07-.57-.14-.84-.12-.07,0-.05.04,0-.05.02-.08,0-.02.04.05,1.18,2.18,3.43,3.75,4.68,5.91.15.64-.03.96-.08,1.52,0,0-.24,1.3-.24,1.3-.27,1.59-.79,3.47-.61,5.01.01.08.05.12.05.14-.04-.03.04.01.09.04,1.31,0,2.21-1.59,3.04-2.51,1.7-2.05,3.61-3.85,5.5-5.7,0,0,.11-.1.11-.11,0,0,.14.05.14.05,5.01,1.82,10.27,2.36,15.47,2.74-5.3.15-10.62-.47-15.63-2.29,0,0,.25-.06.25-.06-1.77,1.91-3.61,3.81-5.23,5.83-.85,1.06-1.65,2.31-3.02,2.83-2.23.57-1.61-2.34-1.46-3.53.2-1.26.48-2.63.71-3.88.03-.2.16-.97.12-1.08-.25-.53-1.1-1.46-1.51-1.96-7.27-7.81-.05-4.61,4.65-2.17,0,0,4.71,2.32,4.71,2.32l-.05.13h0Z"/><path class="cls-16" d="M64.23,85.62c-.48,2.21-.79,4.34-1.9,6.39-.78.84-1.64.6-2.54.53-1-.23-2.67-.51-2.95-1.74,0-.23.05-.34.09-.46.91-1.68,2.39-2.86,3.79-4.07.11-.09.27.06.18.18-1.01,1.36-2.55,2.93-3.11,4.27.81.62,2.09.89,3.13.87.3-.01.59-.12.59-.18.95-1.76,1.45-4,2.1-5.94.1-.38.7-.24.63.15h0Z"/><path class="cls-21" d="M46.01,89.97c-.38.75-1.28,1.9-.93,2.68.2.1.49.05.77.02,2.45-.44,4.81-1.38,7.2-2.15.08-.03.18.01.21.1.03.08-.01.17-.08.2-1.84.87-3.72,1.66-5.69,2.23-.86.17-2.17.77-2.94.1-.84-1.19.49-2.58,1.26-3.36.12-.11.3.05.21.18h0Z"/><path class="cls-21" d="M48.29,79.63c-1.1-.36-4.07-2.27-2.33-3.52,2.15-1,4.45-1.3,6.72-1.75,3.6-.55,7.25-.95,10.9-.52,0,0-.07.75-.07.75-1.76-.1-3.55,0-5.33.17-3.77.36-8.49,1.13-11.65,2.23.29.85,1.26,1.56,1.95,2.33,0,0-.2.31-.2.31h0Z"/><path class="cls-20" d="M176.04,105.77c-.22,1.23,4,4.37,4.43,5.6.43,1.23-1.57,6.68-.27,7.32,1.29.64,2.16-1.7,4.46-4.1,1.39-1.45,2.7-3.48,3.29-3.64s11.42,4.02,24.65-.58c8.8-3.06,14.92-10.12,14.12-11.64-.89-1.68-9.93-2.55-18.16-.57-14.8,3.56-20.17,11.45-21.16,11.42-.72-.03-11.13-5.04-11.35-3.81Z"/><path class="cls-20" d="M194.23,112.05s-1.92,2.81-1,3.22,9.45-3.05,8.56-3.07-7.56-.15-7.56-.15Z"/><path class="cls-20" d="M214.23,97.7s-14.48-.94-20.27,2.48c-1.21.72,2.39,2.84,2.39,2.84l17.88-5.32Z"/><path class="cls-30" d="M189.1,111.2s10.08.01,17.81-1.78c7.73-1.79,19.32-8.82,19.32-8.82,0,0-4.23,7.14-16.4,10.74-10.95,3.24-20.73-.14-20.73-.14Z"/><path class="cls-20" d="M208.26,108.26s-4.02,3.88-3.88,4.66,3.53,1.33,4.13.85,1.68-5.61,1.68-5.61l-1.94.09Z"/><circle class="cls-21" cx="218.78" cy="102.09" r="1.46"/><path class="cls-21" d="M188.94,108.36c7.46-7.07,17.22-11.49,27.55-11.95,2.22-.19,12.02-.58,10.75,3.28-.55,1.38-1.42,2.34-2.32,3.3-3.63,3.68-8.31,6.07-13.12,7.75,4.57-2.16,8.98-4.83,12.34-8.48.8-.91,1.59-1.94,1.93-2.95.04-.15.09-.29.04-.37-.48-.51-1.4-.72-2.14-.89-2.37-.46-4.9-.43-7.39-.33-5.01.31-10.03.94-14.69,2.88-4.66,1.89-8.99,4.6-12.95,7.76h0Z"/><path class="cls-20" d="M156.23,73.15c-.49,1.01,2.35,5.4,2.42,6.57s-2.54,3.59-1.61,4.46c.94.87,1.66-.33,4.21-1.85,1.54-.91,3.16-2.35,3.7-2.34s9.58,5.97,21.75,3.44c8.1-1.69,15.8-11.46,14.11-13.1-1.21-1.17-4.8,1.52-16.32,2.61-15.61,1.48-18.83,6-19.67,5.73-.6-.2-8.1-6.52-8.59-5.52Z"/><path class="cls-20" d="M172.08,82.03s-2.87,3-2.11,3.46c.76.46,9.82-1.44,9.05-1.55s-6.94-1.92-6.94-1.92Z"/><path class="cls-20" d="M192,72.19s-8.1-3.08-18.31-.23c-1.2.34,2.22,3.15,2.22,3.15l16.09-2.92Z"/><path class="cls-30" d="M165.87,80.48s7.97,1.07,15.73-.42c8.53-1.64,19.44-8.24,19.44-8.24,0,0-2.99,9.89-16.88,12.15-10,1.62-18.29-3.48-18.29-3.48Z"/><path class="cls-20" d="M182.34,78.47s-3.97,2.83-3.88,3.54,3.11,1.65,3.66,1.24,1.93-4.79,1.93-4.79l-1.71.02Z"/><ellipse class="cls-21" cx="194.16" cy="74.77" rx="1.55" ry="1.52" transform="translate(56.25 230.56) rotate(-69.55)"/><path class="cls-21" d="M166.76,77.73c3.68-2.18,7.75-3.65,11.91-4.63,3.65-.82,8.94-1.17,12.68-1.67,1.35-.51,9.14-3.66,10.11-.79.12.58.01.99-.09,1.39-.68,2.26-2.17,4.13-3.78,5.77-4.29,4.3-10.39,6.47-16.38,6.45,5.87-.44,11.66-2.81,15.7-7.11,1.51-1.72,3.34-3.86,3.4-6.2-.51-.47-1.6-.23-2.38-.14-2.19.38-4.34,1.16-6.44,1.88-3.7.39-9.05.71-12.65,1.25-4.15.73-8.25,2-12.07,3.79h0Z"/><path class="cls-20" d="M155.96,104.27s-4.3,3.27-4.31,3.86,2.36,1.76,2.87,1.5,3.08-5.22,3.08-5.22l-1.64-.14Z"/><path class="cls-20" d="M128.29,103.44c-.04.92,3.37,2.8,3.81,3.65s-.47,5.04.54,5.39c1.01.34,1.41-1.46,2.85-3.45.87-1.2,1.63-2.82,2.04-3s5.23,3.21,17.71,1.77c7.97-.92,12.29-3.9,11.92-5.12-.4-1.35-6.76-4.53-13.02-4.28-11.24.44-16.43,6.61-17.16,6.68-.53.05-8.66-2.56-8.69-1.64Z"/><path class="cls-20" d="M142.4,106.98s-1.8,1.76-1.19,2.19,7.67-1.46,7.04-1.6-5.84-.59-5.84-.59Z"/><path class="cls-20" d="M159.84,98.95s-10.36-2.78-15.05-1.14c-.98.34,1.32,2.4,1.32,2.4l13.73-1.26Z"/><path class="cls-30" d="M138.19,106.22s6.26,1.01,12.06.16c8.1-1.2,16.3-2.41,16.3-2.41,0,0-3.93,3.41-13.46,4.3-9.16.86-14.89-2.05-14.89-2.05Z"/><path class="cls-20" d="M152.53,105.13s-4.3,3.27-4.31,3.86,2.36,1.76,2.87,1.5,3.08-5.22,3.08-5.22l-1.64-.14Z"/><circle class="cls-21" cx="160.37" cy="103.28" r="1.27"/><path class="cls-21" d="M139.93,102.96c6.45-4.54,13.44-6.18,21.16-4.12,1.66.37,8.47,2.32,6.25,4.88-3.45,3.29-8.47,4.14-13.05,4.42,3.63-.55,7.24-1.51,10.33-3.36.85-.56,1.84-1.18,2.25-2.05-.11-.35-.64-.76-1.05-1.02-3.07-1.78-6.82-2.42-10.34-2.91-5.48-.69-10.85,1.44-15.56,4.15h0Z"/><path class="cls-21" d="M137.06,105.15c-2.32-.41-4.69-.87-6.92-1.55-.58-.09-1.25-.24-1.71-.02-.02,0,0,0,0,0-.01.02.01-.02,0-.08-.01-.05,0-.02,0-.04,1.2,1.28,2.84,2.09,4,3.47.14.2.15.41.17.56.06.64-.02,2.05-.03,2.7,0,.66-.08,1.41.1,2-.05-.04.01,0,.03,0,.21.05.41-.14.64-.35,1.5-1.72,2.66-3.88,3.86-5.85,0,0,.07-.13.08-.13,0,0,.14.04.14.04,3.33,1.04,6.79,2.05,10.22,2.42-3.55.13-6.98-1.06-10.34-2.07,0,0,.22-.09.22-.09-1.12,2.1-2.16,4.21-3.75,6.11-.25.28-.78.69-1.28.51-.11-.05-.2-.06-.34-.23-.38-.78-.2-1.6-.23-2.39,0,0,.05-1.77.05-1.77-.02-.52.11-1.08-.33-1.42-1.12-1.16-2.65-2.01-3.71-3.29-.02-.05-.03-.05-.04-.14,0-.2.06-.25.15-.36.67-.48,1.53-.19,2.18-.09,2.28.75,4.54,1.32,6.84,1.92l-.02.1h0Z"/><path class="cls-21" d="M154.08,105.68c-.74,1.73-1.3,3.58-2.61,4.99-.45.28-.78.16-1.2.1-.92-.28-2.12-.67-2.41-1.7.02-.5.43-.81.66-1.1.85-.8,2.73-2.58,3.68-2.9.03.04.02.09-.01.12-1.07,1.06-2.18,2.1-3.18,3.22-.18.21-.4.48-.45.63,0-.08,0-.01.08.07.59.53,1.59,1.03,2.37.94,1.08-1.24,1.82-3.08,2.62-4.56.13-.27.56-.09.45.19h0Z"/><path class="cls-21" d="M142.03,107.7c-.2.3-.71.93-.62,1.21,0,.03.27.12.53.1,1.41-.08,2.78-.52,4.17-.85.07-.02.14.02.16.09.02.06-.02.13-.07.16-1.07.46-2.17.85-3.34,1.08-.64.06-1.49.36-1.95-.3-.29-.76.44-1.31.98-1.66.1-.06.22.08.14.17h0Z"/><path class="cls-21" d="M145.77,99.95c-.76-.35-2.51-1.7-1.37-2.55,1.52-.57,3.09-.43,4.64-.47,2.41.08,4.82.36,7.14,1.09l-.15.55c-2.29-.52-4.65-.74-7-.78-1.39,0-2.92-.07-4.21.34,0,0-.03.02.01-.01.04-.05.03-.06.03-.06.13.58.7,1.11,1.09,1.68,0,0-.17.22-.17.22h0Z"/><path class="cls-21" d="M95.33,92.95c-2.62-1.63-5.05-4.04-7.91-5.1.02,0,.03,0,.07-.06.01-.02.01-.05.02-.07.02.11.09.26.15.4.73,1.6,1.81,3,2.39,4.7.04.27-.02.43-.06.6-.17.66-.74,2.05-.99,2.7-.22.58-.45,1.18-.56,1.74-.27.33.47.37.99.18,2-.82,4.24-2.94,6.37-4.08,3.23,1.77,6.69,3.22,10.19,4.21-3.64-.57-7.05-2.08-10.27-3.84,0,0,.19,0,.19,0-1.54,1.08-3.08,2.17-4.55,3.35-.82.61-1.73,1.16-2.81,1.1-1.49-.25-.34-2.05-.14-2.87.23-.61.8-2.03.96-2.63.04-.14.06-.29.05-.33-.56-1.57-1.58-3.03-2.27-4.58-1.17-3.02,4.73,1.62,5.29,2.13.99.78,1.95,1.6,2.93,2.4l-.06.08h0Z"/><path class="cls-21" d="M101.7,97.05c-.41.55-1.12,1.17-1.23,1.83.06.02.17.06.28.08,2.27.14,4.55-.36,6.82-.61.07-.01.14.04.15.11,0,.07-.03.13-.1.15-1.64.41-3.3.73-5,.91-.77.05-1.58.19-2.34-.07-.13-.04-.34-.22-.37-.42-.02-1.04.94-1.6,1.66-2.14.11-.07.23.08.14.17h0Z"/><path class="cls-21" d="M105.44,89.01c-.7-.45-2.27-1.79-1.19-2.63.62-.27,1.28-.3,1.93-.37,4.48-.32,9.04.2,13.24,1.81,0,0-.2.54-.2.54-2.78-.91-5.69-1.36-8.61-1.53-1.87-.13-4.44-.08-5.92.23.04.41.7,1.33.94,1.75,0,0-.2.2-.2.2h0Z"/><path class="cls-21" d="M164.76,79c-2.17-1.49-4.33-3.02-6.45-4.58-.6-.39-1.25-.96-1.89-1.04.01,0-.01.01.03-.03.04-.08.03-.05.03-.05,0,.04,0,.11.02.18.59,2.01,1.7,3.91,2.52,5.85.29.91-.56,1.83-.88,2.55-.33.65-1.71,2.66-.05,2.11,2.28-1.26,4.41-2.98,6.75-4.2,2.28,1.06,4.57,2.12,6.93,2.99,2.32.9,4.8,1.16,7.27,1.37-2.4.11-5.07-.18-7.39-1.03-2.35-.84-4.64-1.83-6.89-2.93h.19c-2.31,1.36-4.27,3.13-6.62,4.43-.5.27-1.59.18-1.73-.58-.09-.96.56-1.75.93-2.51.33-.63.76-1.22.87-1.84,0-.04,0-.01-.03-.11-.7-1.67-1.52-3.29-2.15-5-1.15-2.9,1.14-1.64,2.42-.62,2.12,1.58,4.15,3.26,6.19,4.94,0,0-.07.09-.07.09h0Z"/><path class="cls-21" d="M183.93,79.04c-.23,1.27-.54,2.55-1.09,3.74-.16.31-.42.82-.9.92-1.33.18-4.78-.25-3.47-2.25.56-.92,1.23-1.68,1.98-2.4.04-.04.11-.04.15,0-.33,1.08-1.43,2.15-1.64,3.26.64.47,2.04.68,2.81.56.81-1.02,1.18-2.68,1.64-3.95.09-.31.59-.19.52.13h0Z"/><path class="cls-21" d="M171.48,83c-.37.65-1.04,1.41-1.1,2.14.24.08.61.09.92.07,2.23-.18,4.43-.72,6.65-1.14.08-.02.16.03.17.11.02.07-.03.15-.1.17-1.74.56-3.49,1.04-5.31,1.34-.83.1-1.69.32-2.53.07-.14-.03-.39-.24-.42-.45-.07-1.12.82-1.8,1.53-2.48.11-.09.26.05.18.17h0Z"/><path class="cls-21" d="M175.14,74.47c-1.04-.38-2.86-2.25-1.03-2.84,5.48-1.15,11.38-1.56,16.82,0,0,0-.2.6-.2.6-3.13-.83-6.48-.73-9.71-.57-2.28.17-4.65.25-6.83.94,0,0-.04.05.05-.07.01-.02,0-.02,0-.02.03.46.82,1.32,1.08,1.73,0,0-.19.24-.19.24h0Z"/><path class="cls-21" d="M187.2,109.62c-2.52-.98-6.11-2.73-8.65-3.45-.73-.15-1.63-.29-2.15.01-.01,0-.01.03.04-.08.03-.15,0-.11.02-.1.09.17.23.34.37.51.48.58,1.85,1.98,2.39,2.55.55.64,1.25,1.22,1.63,2.13.08.41,0,.78-.04,1.18-.39,2.94-1.97,9.12,2.32,3.58.95-1.15,3.68-4.09,4.73-5.22,0,0,.1-.11.1-.11,4.95,1.21,10.1,2.18,15.16,1.99-5.08.78-10.2-.29-15.13-1.48,0,0,.24-.07.24-.07h0c-1,1.19-3.56,4.22-4.51,5.38-.87.97-1.9,3.02-3.56,2.46-1.16-.69-.74-2.11-.69-3.15.15-1.41.51-2.87.58-4.29-.23-.64-.89-1.24-1.4-1.86-.8-.94-2.23-2.24-2.83-3.32-.02-.08-.09-.14-.04-.38.11-.26.21-.28.4-.4,2.39-.71,4.78,1.05,6.9,1.9,0,0,4.2,2.09,4.2,2.09l-.06.13h0Z"/><path class="cls-21" d="M210.32,108.58c.01,1.32-.08,2.62-.45,3.94-.22.63-.39,1.38-1.24,1.9-1.28.7-5.31.33-4.68-1.76.79-1.52,2.13-2.58,3.39-3.64.05-.04.13-.03.18.02-.42,1.03-2.23,2.68-2.7,3.95-.02.05-.02.09-.02.1,0-.03,0-.02.01,0,.39.42,1.11.56,1.76.63,1.27.09,2.01-.11,2.4-1.49.38-1.15.57-2.43.73-3.68.04-.39.65-.36.65.04h0Z"/><path class="cls-21" d="M194.17,112.24c-.38.68-.96,1.58-.91,2.32-.09.56,1.07.25,1.88.02,1.73-.55,3.45-1.27,5.16-1.97.09-.04.19,0,.23.09.03.08,0,.17-.07.22-1.63.95-3.29,1.79-5.09,2.39-.77.2-1.49.55-2.34.22-1.32-1.04.06-2.7.92-3.49.13-.11.32.06.22.19h0Z"/><path class="cls-21" d="M196.21,103.36c-1.21-.51-4.16-2.52-2.04-3.73,4.83-1.95,10.18-2.67,15.34-2.09,0,0-.08.76-.08.76-3.2-.19-6.44.22-9.6.84-1.77.33-3.87.89-5.31,1.53,0-.08-.01.04.07.17.06.13.16.28.27.43.45.59,1.02,1.18,1.56,1.79l-.22.3h0Z"/><path class="cls-21" d="M57.25,110.22c8.16-8.01,19.83-16.43,31.78-12.44,4.74,1.15,8.3,5.22,13.14,5.68,0,0,2.87.31,2.87.31l2.91.28c1.53.22,3.47.27,4.64,1.66,1.05,1.42.53,3.43.25,4.95-.93,3.69-2.28,7.7-5.37,10.15-3.67,2.13-8.02,2.72-12.18,2.42-.53-.03-3.31-.32-3.64-.24.2-.05.39-.41.34-.56-.02-.06.09.16.22.29,2.39,2.86,6.23,3.66,9.79,3.43.58-.02,1.28-.1,1.75.47.71.88-.15,1.89-.69,2.55-3.76,4.08-8.48,7.21-13.57,9.37-12.27,4.75-29.93,3.35-39.26-6.63-1.49-1.53-1.22-4.02-.9-5.95.58-2.97,1.38-5.82,2.94-8.45,1.66-2.44,3.06-4.95,4.98-7.28h0ZM58.33,111.17c-1.85,2.13-3.41,4.69-5.11,7.01-1.48,2.33-2.41,5.22-2.98,7.93-.27,1.75-.65,3.77.73,5.14,9.8,9.63,31.4,9.68,42.59,2.41,2.97-1.87,6.09-3.89,8.28-6.66,0,0,0-.03-.03.1-.02.06-.05.2-.03.4.02.38.41.82.75.87.09.01-.04,0-.13,0-4.25.29-8.88-1.14-11.47-4.66-.45-.52-.89-1.72.13-2.14,1.49-.31,2.9.24,4.34.29,3.84.42,7.93-.08,11.26-2.06,2.78-2.28,3.86-6.05,4.63-9.45.19-1.11.4-2.2.16-3.22-.55-1.23-2.41-1.08-3.68-1.29-2.9-.27-6.08-.27-8.87-1.18-2.01-.67-3.69-1.86-5.32-2.8-3.2-1.87-6.88-3.21-10.58-3.36-9.53.02-18.24,6.11-24.69,12.69h0Z"/><path class="cls-21" d="M83.1,104.93c.04,4.71-.65,10.12,1.82,14.28,2.67,4.1,6.08,7.8,9.24,11.57,0,0-.19.18-.19.18-3.62-3.44-7.14-7.03-9.93-11.2-1.49-2.13-1.73-4.87-1.83-7.38-.03-2.52.14-5.01.56-7.48,0,0,.33.04.33.04h0Z"/><path class="cls-21" d="M79.11,124.04c-2.29.71-11.95,2.84-11,5.95.85,2.58,3.12,5.07,5.58,6.13,1.24.27,1.93-1.16,2.73-1.98,1.88-2.34,3.49-4.99,5.13-7.58.04-.07.17-.01.13.07-1.23,2.86-2.48,5.64-4.02,8.37-1.68,3.05-3.99,3.94-6.62,1.31-1.74-1.67-3.09-3.78-3.61-6.15-.07-.39-.13-.88.07-1.33.59-1.12,1.69-1.76,2.71-2.37,2.76-1.47,5.81-2.08,8.81-2.84.28-.06.39.37.11.44h0Z"/><path class="cls-21" d="M71.28,128.48c1.03-.62,8.58-5.7,8.98-4.01.1.32-.1.66-.43.74-1.41.32-2.85.92-4.23,1.56-1.39.64-2.76,1.34-4.1,2.08-.22.13-.44-.21-.22-.35h0Z"/><path class="cls-21" d="M72.59,132.58c2.66-2.35,5.46-4.67,7.83-7.3.21-.25.58-.28.82-.07.25.21.28.58.07.82-.68.69-1.39,1.27-2.1,1.86-2.1,1.7-4.26,3.32-6.45,4.91-.14.1-.31-.11-.17-.22h0Z"/><polygon class="cls-21" points="38.42 130.04 49.15 128.69 49.27 129.75 38.47 130.55 38.42 130.04 38.42 130.04"/><path class="cls-21" d="M42.26,136.8c2.61-1.92,5.23-3.87,7.65-5.97l.67.83c-2.65,1.95-5.39,3.68-8.16,5.4l-.17-.26h0Z"/><path class="cls-9" d="M51.6,132.71s-8.36,7.72-9.29,7.88c-1.14.19-5.75-5.4-6.26-10.46-.58-5.72,1.88-10.08,2.91-10.43,1.71-.58,10.98,4.85,10.98,4.85"/><path class="cls-21" d="M50.91,121.74c-3.73-.78-3.74-1.42-2.55-4.86,3.01-8.06,8.46-15.07,14.99-20.61,2.08-1.71,4.33-3.36,6.88-4.4.56-.2,1.02-.4,1.81-.44.76.02,1.32.28,1.85.54,2.45,1.34,4.4,3.34,6.09,5.5,0,0-.9.74-.9.74-1.76-1.82-3.67-3.65-5.88-4.86-.71-.33-1.05-.46-1.75-.26-9.24,3.25-21.21,17.26-23.05,26.87.41.6,1.81.7,2.57.62,0,0-.07,1.16-.07,1.16h0Z"/><path class="cls-16" d="M115.31,95.95c-.62,1.5-1.27,2.99-2.16,4.37-.22.28-.33.55-.82.83-.04.03-.23.06-.28.05-.62-.06-1.26-.23-1.85-.4-.68-.26-2.78-.73-2.28-1.82,1.08-1.38,2.62-2.27,4.04-3.22.04-.03.1-.01.13.03-.95,1.2-2.48,2.14-3.46,3.38-.1.11-.11.26-.1.09.72.53,1.87.82,2.79,1.05.19.04.57.12.77.13.02-.01-.07.01-.05,0,1.2-1.27,1.96-3.14,2.82-4.68.13-.28.56-.08.44.2h0Z"/><path class="cls-21" d="M40.21,122.53c3.3,1.25,6.55,2.38,9.69,4.08,0,0-.62.98-.62.98-2.86-1.82-6.12-3.24-9.23-4.67,0,0,.16-.39.16-.39h0Z"/><path class="cls-21" d="M56.82,155.93c-.62,2.48-1.18,4.99-2.73,7.13-.61.78-1.79.93-2.72.9-1.1-.06-3.17-.46-2.97-1.96.93-2.19,2.73-3.83,4.32-5.53.05-.05.14-.05.19,0,.05.05.05.12.01.17-1.19,1.85-2.69,3.58-3.56,5.58,0,.07,0-.04,0,0,0,.01.03.05.08.09.8.63,3.12.9,3.83.05,1.4-1.88,2.08-4.37,2.88-6.59.12-.41.77-.24.66.17h0Z"/><path class="cls-21" d="M39.2,161.5c-1.43,2.03-.85,2.39,1.36,1.71,1.63-.49,3.26-1.11,4.88-1.72.19-.08.34.21.15.31-1.41.7-6.54,3.58-7.71,2.05-.64-.99.34-2.06,1.12-2.58.14-.09.3.09.2.22h0Z"/><circle class="cls-17" cx="76.34" cy="109.71" r="2.3"/><circle class="cls-17" cx="65.65" cy="110.35" r="3.01"/><circle class="cls-17" cx="57.17" cy="120.86" r="1.91"/><path class="cls-20" d="M76.25,54.9s-1.25,4.56-.92,5.11,2.76.34,3.02-.17-.84-5.49-.84-5.49l-1.26.56Z"/><path class="cls-20" d="M49.06,49.51c-.41.92,2.29,4.23,2.39,5.28s-2.54,4.95-1.65,5.71c.89.76,2.04-.91,4.32-2.35,1.38-.87,2.81-2.21,3.3-2.22s9.02,5.13,20.08,2.51c7.36-1.75,14.05-10.8,12.44-12.23-1.16-1.02-4.34,1.51-14.87,2.81-14.26,1.77-17.04,5.95-17.82,5.72-.56-.16-7.78-6.16-8.19-5.23Z"/><path class="cls-20" d="M63.8,56.65s-2.52,2.8-1.8,3.19,8.96-1.57,8.24-1.65-6.44-1.54-6.44-1.54Z"/><path class="cls-20" d="M83.22,47.71s-9.29-1.55-18.55,1.32c-1.09.34,2.15,2.79,2.15,2.79l16.4-4.11Z"/><path class="cls-30" d="M58.28,56.35s8,1.92,14.38,1.05c9.25-1.26,17.54-9.85,17.54-9.85,0,0-2.37,9.03-15.01,11.45-9.11,1.74-16.91-2.64-16.91-2.64Z"/><path class="cls-20" d="M73.71,56.25s-3.31,3.8-3.2,4.44,2.91,1.41,3.41,1.02,1.37-5.52,1.37-5.52l-1.57.06Z"/><circle class="cls-21" cx="83.03" cy="51.82" r="1.2"/><path class="cls-21" d="M57.87,54.52c3.59-2.49,7.71-4.12,11.86-5.45,4.16-1.39,8.57-2.32,12.98-1.97,0,0-.27.05-.27.05,1.81-.73,7.3-3.34,8.38-.78.31,2.36-1.35,4.41-2.72,6.12-3.28,3.76-8.09,5.88-12.95,6.49,5.8-1.21,11.58-4.54,14.19-10.02.3-.71.63-1.57.48-2.28-.03-.1-.12-.17-.31-.24-2.25-.27-4.65.97-6.73,1.78-4.39-.45-8.64.31-12.85,1.49-4.17,1.15-8.3,2.59-12.05,4.8h0Z"/><ellipse class="cls-23" cx="82.51" cy="51.58" rx=".57" ry=".31" transform="translate(1.4 105.33) rotate(-65.54)"/><ellipse class="cls-23" cx="73.2" cy="79.45" rx=".57" ry=".31" transform="translate(-30.77 50.12) rotate(-31.59)"/><ellipse class="cls-23" cx="121.21" cy="92.6" rx=".57" ry=".31" transform="translate(-30.55 77.23) rotate(-31.59)"/><ellipse class="cls-23" cx="160.1" cy="102.76" rx=".57" ry=".31" transform="translate(-30.11 99.11) rotate(-31.59)"/><ellipse class="cls-31" cx="166" cy="135.35" rx="1.46" ry="1.5" transform="translate(-13.01 252.95) rotate(-72.5)"/><ellipse class="cls-31" cx="154.49" cy="143.2" rx="1.46" ry="1.5" transform="translate(-28.55 247.46) rotate(-72.5)"/><ellipse class="cls-31" cx="163.4" cy="140.66" rx="1.89" ry="1.95" transform="translate(-19.89 254.19) rotate(-72.5)"/><path class="cls-20" d="M124.55,131.85c-.19,1.05,3.42,3.73,3.79,4.78.37,1.05-1.33,5.71-.23,6.26,1.11.55,1.85-1.45,3.81-3.51,1.18-1.24,2.31-2.98,2.81-3.11s9.76,3.43,21.07-.52c7.52-2.62,12.75-8.66,12.06-9.96-.76-1.44-8.49-2.17-15.53-.47-12.65,3.06-17.23,9.81-18.08,9.78-.62-.02-9.52-4.3-9.71-3.25Z"/><path class="cls-20" d="M141.02,136.8s-1.64,2.4-.86,2.75,8.07-2.61,7.32-2.63-6.46-.12-6.46-.12Z"/><path class="cls-20" d="M159.08,124.47s-12.38-.79-17.33,2.14c-1.04.61,2.05,2.42,2.05,2.42l15.28-4.56Z"/><path class="cls-30" d="M135.72,136.48s7.63-.15,14.7-1.98c9.58-2.49,17.02-7.11,17.02-7.11,0,0-3.61,6.11-14.01,9.19-9.36,2.78-17.72-.1-17.72-.1Z"/><path class="cls-20" d="M151.44,133.59s-3.54,3-3.42,3.67,3.08,1.46,3.6,1.05,1.51-5.09,1.51-5.09l-1.68.37Z"/><circle class="cls-21" cx="161.16" cy="128.5" r="1.22"/><path class="cls-21" d="M135.72,133.99c6.5-6.27,15.4-9.64,24.39-10.03,2.43-.05,7.08-.36,8.36,2.22.14.99-.32,1.33-.73,1.99-3.69,4.36-9.11,6.74-14.41,8.47,4.09-1.76,8.05-3.88,11.36-6.74,1.03-.95,2.31-2.11,2.7-3.38-.08-.23-.48-.54-.92-.73-1.88-.73-4.16-.72-6.32-.67-8.89.15-17.59,3.09-24.44,8.87h0Z"/><path class="cls-21" d="M134.18,135.15c-3.04-1.12-6.34-2.67-9.45-3.01,0-.03.02,0,.02-.1,0-.03,0,0,.02.02,1.12,1.57,2.65,2.75,3.81,4.35.06.08.11.26.12.37.07,1.01-.33,2.58-.46,3.59-.08.71-.29,1.54-.05,2.12.06.05.11.05.21.04,1.41-.62,2.22-2.24,3.3-3.4.88-1.07,1.81-2.1,2.72-3.15,4.09.9,8.31,1.79,12.47,1.79-4.18.6-8.37-.52-12.44-1.37,0,0,.21-.07.2-.07-1.57,1.87-3.36,4.59-5.1,6.31-.4.37-1.19.86-1.78.4-.71-.77-.27-1.93-.22-2.78.11-.68.41-2.29.46-2.96.02-.29.04-.5-.15-.72-1.1-1.44-2.59-2.71-3.62-4.25-.09-.12-.1-.45.02-.55.14-.17.29-.2.4-.22.79-.06,1.39.19,2.1.39,2.6.73,5.06,1.92,7.46,3.1l-.05.11h0Z"/><path class="cls-21" d="M153.36,133.71c-.16,1.49-.36,2.99-.95,4.4-.13.26-.32.58-.66.7-1.22.38-5.35-.43-3.71-2.28.97-1.15,2.16-2.07,3.37-2.93.05-.03.11-.02.15.03-.77,1.18-2.11,2.14-2.91,3.35-.17.2-.24.52-.21.34.06.09.31.24.55.33.7.28,1.63.49,2.34.4.18.11.46-.58.63-1.07.35-1.08.61-2.22.87-3.35.06-.33.57-.25.53.08h0Z"/><path class="cls-21" d="M140.62,137.71c-.18.35-.68,1.11-.54,1.41,0,.04.31.1.6.05,1.54-.25,3.01-.89,4.5-1.42.16-.07.28.18.12.26-1.58.83-3.26,1.78-5.11,1.82-.18-.01-.48-.09-.65-.35-.41-.8.34-1.5.89-1.95.11-.08.25.06.18.17h0Z"/><path class="cls-21" d="M143.28,128.8c-.9-.2-2.96-1.48-1.73-2.5,1.93-.98,4.1-1.29,6.19-1.71,3.03-.46,6.12-.79,9.17-.23,0,0-.11.63-.11.63-1.46-.18-2.96-.15-4.45-.04-3.34.25-7.48,1.02-10.26,2.03.07.41,1.01,1.18,1.33,1.54,0,0-.15.27-.15.27h0Z"/><ellipse class="cls-23" cx="160.9" cy="128.05" rx=".57" ry=".31" transform="translate(-43.24 103.28) rotate(-31.59)"/><ellipse class="cls-31" cx="154.52" cy="62.51" rx="1.48" ry="1.51" transform="translate(89.42 215.96) rotate(-89.04)"/><ellipse class="cls-31" cx="160.04" cy="62.42" rx="1.24" ry="1.28" transform="translate(52.37 196.28) rotate(-72.5)"/><path class="cls-20" d="M97.67,53.99c-.48,1.33,3.6,5.64,3.85,7.09s-3.04,7.13-1.72,8.1c1.31.97,2.74-1.47,5.76-3.7,1.82-1.34,3.68-3.35,4.36-3.41s11.93,6.69,27.55,4.14c10.39-1.7,18.58-8.37,17.98-10.21-.66-2.04-10.56-4.77-20.11-4.16-17.16,1.1-24.67,8.83-25.77,8.6-.8-.17-11.41-7.77-11.9-6.44Z"/><path class="cls-20" d="M116.7,64.5s-2.68,2.75-1.74,3.39,11.11-1.56,10.13-1.76-8.38-1.63-8.38-1.63Z"/><path class="cls-20" d="M141.75,52.41s-15.94-3.86-23.05-1.17c-1.49.56,2.11,3.62,2.11,3.62l20.94-2.45Z"/><path class="cls-30" d="M111.16,62.56s11.22,1.97,20.17,1.48c8.95-.49,23.22-6.07,23.22-6.07,0,0-6.1,7.13-20.34,8.77-12.82,1.48-23.05-4.18-23.05-4.18Z"/><path class="cls-20" d="M133.06,63.01s-5.23,3.54-5.23,4.44,3.67,2.17,4.44,1.75,2.96-5.91,2.96-5.91l-2.17-.28Z"/><circle class="cls-21" cx="147.27" cy="57.65" r="1.59"/><path class="cls-21" d="M111.53,59.37c7.23-4.63,15.62-7.96,24.32-8.25,4.97-.05,17.26.02,20.2,4.41.13.26.15.73.07.97-.63,1.76-2.2,2.87-3.49,3.89-4.76,3.4-10.43,5.15-16.11,6.08,5.51-1.51,10.93-3.64,15.38-7.05,1.14-.96,2.37-1.98,2.84-3.25,0-.17-.24-.38-.5-.58-2.89-1.81-6.49-2.18-9.89-2.7-5.64-.64-11.36-.89-16.9.38-5.55,1.2-10.91,3.34-15.92,6.1h0Z"/><path class="cls-21" d="M109.21,60.44l-4.59-2.89c-1.91-1.16-3.74-2.5-5.83-3.22-.28-.07-.59-.19-.82-.05-.02.03.11-.13.09-.16.24.58.76,1.46,1.17,2.1.8,1.4,2.37,3.36,2.79,4.87-.02,1.15-.44,1.84-.79,2.82-.5,1.5-1.6,3.23-1.52,4.76.68,1.25,2.95-1.27,3.65-1.78,1.31-1.13,4.98-3.97,6.39-5.06,0,0,.13-.1.13-.1,5.46,2.34,11.18,4.44,17.02,5.18-5.99-.08-11.65-2.28-17.09-4.59,0,0,.29-.04.29-.04,0,0-4.12,3.52-4.12,3.52-1.27,1.01-2.85,2.62-4.15,3.57-.84.67-2.54,1.03-3.02-.31-.13-.25-.14-.64-.1-.91.28-1.62,1.04-3.09,1.61-4.59.26-.69.71-1.69.72-2.35-.04-.27-.33-.76-.48-1.05-.44-.8-1.6-2.67-2.09-3.47-.45-.88-1.19-1.69-1.24-2.71,0-.08.14-.3.17-.3.91-.65,2.06.1,2.91.48,3.21,1.82,6.04,4.03,8.98,6.15l-.09.13h0Z"/><path class="cls-21" d="M135.6,63.36c-.32,1.89-.76,3.87-1.91,5.5-.27.34-.6.7-1.16.88-.93.24-1.74.14-2.55-.06-.99-.29-2.25-.75-2.67-1.9-.24-.76.55-1.47,1-1.91,1.18-1.02,2.43-1.85,3.76-2.59.15-.08.3.13.17.24-1.3,1.3-2.93,2.42-3.86,3.95,0-.07.03.08.18.21.84.75,2.52,1.19,3.61.91,1.55-1.02,2.06-3.63,2.68-5.39.1-.46.82-.31.74.15h0Z"/><path class="cls-21" d="M116.74,64.76c-.6.73-1.43,1.64-1.6,2.52-.02.18.03.32.09.38.5.23,1.38.1,2,.03,2.12-.3,4.25-.82,6.37-1.32.11-.03.22.04.25.15.02.1-.03.2-.12.24-1.03.41-2.07.77-3.13,1.07-1.62.45-3.25.93-4.98.87-.31-.05-.65-.03-1.06-.4-1.08-1.55.81-3.05,1.95-3.81.17-.11.35.13.22.27h0Z"/><path class="cls-21" d="M120.66,55.02c-1.12-.71-3.99-3.31-2.03-4.51,4.15-1.19,8.53-.83,12.76-.47,1.91.23,3.82.58,5.67,1.18l-.24.85c-1.82-.43-3.68-.68-5.56-.84-3.98-.22-8.21-.52-12.08.43,0,0-.07.04-.02,0,.04-.04.05-.07.06-.07.21.98,1.14,2.09,1.73,3.11,0,0-.31.31-.31.31h0Z"/><ellipse class="cls-23" cx="146.87" cy="57" rx=".67" ry=".37" transform="translate(-8.33 84.09) rotate(-31.11)"/><ellipse class="cls-23" cx="113.02" cy="155.38" rx=".67" ry=".37" transform="translate(-64.65 82.24) rotate(-31.59)"/><ellipse class="cls-23" cx="65.71" cy="149.19" rx=".67" ry=".37" transform="translate(-68.42 56.54) rotate(-31.59)"/><ellipse class="cls-23" cx="218.42" cy="101.47" rx=".67" ry=".37" transform="translate(-20.79 129.47) rotate(-31.59)"/><ellipse class="cls-23" cx="94.94" cy="109.57" rx="1.05" ry=".57" transform="translate(-43.33 65.98) rotate(-31.59)"/><path class="cls-4" d="M193.1,470.45c-4-1.43-8.13,3.21-7.59,4.36.26.55.82.72,1.48.83-1.62,2.2-8.71,11.93-8.14,12.38.64.51,8.6-11.16,8.6-11.16,0,0-4.88,8.6-4.23,8.98.64.38,5.52-8.72,5.52-8.72,0,0-4.36,11.29-3.85,11.67s5.13-11.03,5.13-11.03c0,0-2.57,10.39-1.92,10.65.64.26,3.46-9.75,3.46-9.75,0,0-2.05,13.34-1.54,13.34s2.95-12.96,2.95-12.96c0,0-.77,10.26-.13,10.26.51,0,1.19-7.48,1.44-10.47.85.21,1.18.15,1.73-.25.76-.56,1.86-6.45-2.9-8.14Z"/><path class="cls-15" d="M192.6,472.01c-2.58-.92-5.24,2.06-4.88,2.81s1.53.41,2.46.92c.96.53,1.18,1.08,2.39,1.45,1.21.36,1.42.42,1.91.06s1.19-4.15-1.87-5.24Z"/><path class="cls-4" d="M131.91,211.74c-4-1.43-8.13,3.21-7.59,4.36.26.55.82.72,1.48.83-1.62,2.2-8.71,11.93-8.14,12.38.64.51,8.6-11.16,8.6-11.16,0,0-4.88,8.6-4.23,8.98.64.38,5.52-8.72,5.52-8.72,0,0-4.36,11.29-3.85,11.67s5.13-11.03,5.13-11.03c0,0-2.57,10.39-1.92,10.65.64.26,3.46-9.75,3.46-9.75,0,0-2.05,13.34-1.54,13.34s2.95-12.96,2.95-12.96c0,0-.77,10.26-.13,10.26.51,0,1.19-7.48,1.44-10.47.85.21,1.18.15,1.73-.25.76-.56,1.86-6.45-2.9-8.14Z"/><path class="cls-15" d="M131.41,213.29c-2.58-.92-5.24,2.06-4.88,2.81s1.53.41,2.46.92c.96.53,1.18,1.08,2.39,1.45,1.21.36,1.42.42,1.91.06s1.19-4.15-1.87-5.24Z"/></svg>