<?xml version="1.0" encoding="UTF-8"?><svg id="Layer_1" xmlns="http://www.w3.org/2000/svg" viewBox="0 0 538.35 298.57"><defs><style>.cls-1{fill:#231f20;}</style></defs><path class="cls-1" d="M170.04,233.09c-1.06,2.32-2.04,4.63-2.97,6.92-.92,2.29-1.78,4.63-2.57,7,2.48-.05,4.65-.08,6.53-.08s3.89-.03,6.05-.08c-1-2.37-2.07-4.73-3.2-7.08-1.14-2.35-2.41-4.57-3.84-6.69Z"/><path class="cls-1" d="M520.59,192.22H18.23c-9.81,0-17.76,7.95-17.76,17.76v70.82c0,9.81,7.95,17.76,17.76,17.76h502.35c9.81,0,17.76-7.95,17.76-17.76v-70.82c0-9.81-7.95-17.76-17.76-17.76ZM86.46,233.81c-.34.58-.8,1.07-1.38,1.46-.58.39-1.24.65-1.98.75-1.21.16-2.15.03-2.81-.39-.66-.42-1.18-.95-1.58-1.58-.39-.64-.78-1.25-1.15-1.86-.37-.61-.9-1.04-1.58-1.3-.42,0-.74.03-.95.08-1.8.47-3.6,1.12-5.42,1.94-1.82.82-3.51,1.81-5.06,2.97-1.56,1.16-2.92,2.5-4.07,4.03-1.16,1.53-2.01,3.24-2.53,5.14-.63,2.27-.87,4.56-.71,6.89.16,2.32.79,4.51,1.9,6.57.63,1.21,1.48,2.27,2.53,3.16,1.06.89,2.22,1.57,3.48,2.01,1.26.45,2.56.61,3.88.48,1.32-.13,2.58-.59,3.8-1.39,1.06-.74,2-1.65,2.85-2.73.84-1.08,1.61-2.18,2.29-3.28.85-.85,1.81-1.33,2.89-1.47,1.08-.13,2.07.02,2.97.44.89.42,1.59,1.09,2.1,2.02.5.92.62,2.01.35,3.28-.32,1.27-.92,2.44-1.82,3.52-.89,1.08-1.79,2.07-2.69,2.97-2.06,2.17-4.34,3.76-6.84,4.78-2.51,1.03-5.04,1.52-7.6,1.47-2.56-.05-5.06-.66-7.51-1.82-2.45-1.16-4.66-2.9-6.61-5.22-1.16-1.37-2.14-2.82-2.93-4.35-.79-1.53-1.39-3.14-1.82-4.83-.63-2.48-.92-5.06-.87-7.75.05-2.69.47-5.3,1.27-7.83.79-2.53,1.91-4.92,3.36-7.16,1.45-2.24,3.23-4.15,5.34-5.74,1.53-1.16,3.07-2.17,4.63-3.01s3.21-1.64,4.95-2.38c1-.42,2.03-.83,3.09-1.23,1.05-.39,2.14-.7,3.24-.91,1.11-.21,2.21-.29,3.32-.24,1.11.05,2.19.29,3.24.71.74.32,1.47.75,2.21,1.31.74.55,1.42,1.18,2.06,1.9.64.71,1.19,1.46,1.66,2.26.47.79.82,1.56,1.03,2.29.16.69.2,1.38.12,2.1-.08.71-.29,1.36-.63,1.94ZM139.39,251.72c-.64.92-1.56,1.51-2.77,1.78v13.76c0,1.32-.33,2.49-.99,3.52-.66,1.03-1.46,1.75-2.41,2.17-.95.42-1.95.51-3.01.28s-2-.94-2.85-2.1c-.37-.53-.62-1.13-.75-1.82-.14-.68-.2-1.32-.2-1.9v-13.69h-18.43v13.45c0,.58-.05,1.17-.16,1.78-.11.61-.29,1.15-.56,1.62-.68,1.27-1.56,2.08-2.61,2.45-1.06.37-2.09.36-3.09-.04-1-.39-1.86-1.08-2.57-2.06-.71-.98-1.07-2.18-1.07-3.6v-40.9c0-1.37.41-2.56,1.23-3.56.82-1,1.75-1.7,2.81-2.1s2.12-.42,3.2-.08c1.08.34,1.89,1.18,2.41,2.49.16.42.26.8.32,1.15.05.35.08.73.08,1.15v17.88h18.43v-16.93c0-1.05.24-2.06.71-3.01.58-1.16,1.41-1.98,2.49-2.45,1.08-.48,2.14-.61,3.16-.4,1.03.21,1.92.73,2.69,1.54.76.82,1.15,1.94,1.15,3.36v18.2c1.27.37,2.21,1.04,2.85,2.01.63.98.94,1.99.91,3.05s-.36,2.04-.99,2.97ZM194.68,253.11c-.29.79-.76,1.48-1.42,2.06-.66.58-1.47.97-2.41,1.18.53,1.85.99,3.73,1.38,5.66.39,1.93.73,3.86.99,5.81v.56c-.16,1.16-.55,2.15-1.19,2.97-.63.82-1.36,1.38-2.17,1.7-.82.32-1.69.36-2.61.12-.92-.24-1.78-.86-2.57-1.86-.69-.84-1.07-1.78-1.15-2.81-.08-1.03-.23-2.04-.44-3.04-.53-2.9-1.29-5.88-2.3-8.94-3.27.06-6.51.08-9.73.08s-6.44.03-9.65.08c-.48,1.38-.88,2.77-1.23,4.19-.34,1.42-.67,2.82-.99,4.19-.26,1.05-.5,2.15-.71,3.28s-.69,2.12-1.42,2.97c-.9,1.06-1.86,1.65-2.89,1.78-1.03.13-1.95-.04-2.77-.51-.82-.47-1.48-1.2-1.98-2.18-.5-.97-.67-2.09-.51-3.36.16-1.64.47-3.24.95-4.83.47-1.58.92-3.16,1.34-4.75,2.38-9.07,5.44-17.85,9.18-26.35.32-.74.65-1.45.99-2.14.34-.69.67-1.37.99-2.06.37-.74.74-1.53,1.11-2.37.37-.84.8-1.62,1.3-2.33s1.09-1.32,1.78-1.82c.68-.5,1.53-.75,2.53-.75,1.32,0,2.43.42,3.32,1.27,3.59,3.59,6.54,7.63,8.86,12.14,2.32,4.51,4.4,9.11,6.25,13.8,1.11-.05,2.19-.05,3.24,0,1.05.06,2,.53,2.85,1.42.74.74,1.17,1.53,1.31,2.38.13.84.05,1.66-.24,2.45ZM238.08,270.55c-.66.82-1.68,1.44-3.05,1.86-.53.16-1.26.25-2.21.28-.95.03-2.27.04-3.95.04h-6.41c-2.59,0-5.78.03-9.57.08-.95.05-1.92.08-2.93.08s-1.87-.34-2.61-1.03c-.64-.53-1.1-1.33-1.39-2.41s-.47-2.22-.55-3.4c-.08-1.19-.11-2.38-.08-3.56.03-1.19.04-2.18.04-2.97,0-1.58.02-3.4.04-5.46s.05-4.15.08-6.29c.03-2.14.04-4.24.04-6.29v-5.46c0-2.8.02-5.05.08-6.77.05-1.71.17-3.06.35-4.03s.49-1.69.91-2.14c.42-.45,1-.83,1.74-1.15.64-.26,1.33-.35,2.1-.27s1.48.29,2.14.63c.66.34,1.21.82,1.66,1.42.45.61.67,1.28.67,2.02.11,6.33.11,12.61,0,18.83-.11,6.22-.16,12.45-.16,18.67,3.32,0,6.63-.04,9.93-.12,3.3-.08,6.63-.17,10.01-.28l.48.16c1.21.58,2.14,1.32,2.77,2.22.64.89.94,1.8.91,2.73s-.37,1.79-1.03,2.61ZM283.21,270.55c-.66.82-1.68,1.44-3.05,1.86-.53.16-1.26.25-2.21.28-.95.03-2.27.04-3.95.04h-6.41c-2.59,0-5.78.03-9.57.08-.95.05-1.92.08-2.93.08s-1.87-.34-2.61-1.03c-.64-.53-1.1-1.33-1.39-2.41s-.47-2.22-.55-3.4c-.08-1.19-.11-2.38-.08-3.56.03-1.19.04-2.18.04-2.97,0-1.58.02-3.4.04-5.46s.05-4.15.08-6.29c.03-2.14.04-4.24.04-6.29v-5.46c0-2.8.02-5.05.08-6.77.05-1.71.17-3.06.35-4.03s.49-1.69.91-2.14c.42-.45,1-.83,1.74-1.15.64-.26,1.33-.35,2.1-.27s1.48.29,2.14.63c.66.34,1.21.82,1.66,1.42.45.61.67,1.28.67,2.02.11,6.33.11,12.61,0,18.83-.11,6.22-.16,12.45-.16,18.67,3.32,0,6.63-.04,9.93-.12,3.3-.08,6.63-.17,10.01-.28l.48.16c1.21.58,2.14,1.32,2.77,2.22.64.89.94,1.8.91,2.73s-.37,1.79-1.03,2.61ZM312.24,242.82c1.9-.11,3.8-.24,5.69-.39.84-.05,1.69-.13,2.53-.24.84-.11,1.71-.11,2.61,0,1.16.16,2.06.63,2.69,1.42.63.79,1.01,1.67,1.15,2.65.13.97-.04,1.94-.51,2.89-.47.95-1.24,1.64-2.29,2.06-.9.37-2.11.65-3.64.83-1.53.18-3.14.32-4.83.39-1.69.08-3.35.12-4.98.12s-3.01-.03-4.12-.08v9.73c2.9.37,5.83.42,8.78.16,2.95-.26,5.86-.76,8.71-1.5h.55c.95.05,1.78.3,2.49.75.71.45,1.29.99,1.74,1.62.45.64.71,1.36.79,2.18.08.82-.09,1.65-.51,2.49-.16.37-.49.8-.99,1.31-.5.5-.96.8-1.39.91-3.38,1-6.84,1.62-10.4,1.86-3.56.24-7.08.17-10.56-.2-1-.11-2.1-.21-3.29-.32-1.19-.11-2.23-.45-3.12-1.03-1.64-1.06-2.45-2.56-2.45-4.51v-33.7c-.58-.42-1.06-.95-1.42-1.58-.37-.64-.59-1.31-.67-2.02-.08-.71.02-1.4.28-2.06.26-.66.71-1.23,1.35-1.7,1.05-.84,2.27-1.41,3.64-1.7,1.37-.29,2.72-.54,4.04-.75,2.74-.42,5.48-.64,8.23-.64s5.54-.03,8.39-.08c.84,0,1.82-.06,2.92-.2,1.11-.13,2.09-.04,2.93.27,1,.37,1.79.95,2.38,1.74.58.79.92,1.64,1.03,2.53s-.06,1.77-.51,2.61c-.45.85-1.23,1.5-2.33,1.98-1.32.53-2.73.76-4.23.71-1.5-.05-2.94-.08-4.32-.08-2,0-4.01.03-6.01.08-2.01.05-4.01.21-6.01.47v11c1.9.11,3.8.11,5.7,0ZM384.31,246.42c-.18,7.51-.49,15.05-.91,22.59,0,1.21-.38,2.16-1.15,2.85-.77.68-1.64,1.12-2.61,1.3-.97.18-1.97.08-2.97-.32-1-.39-1.74-1.07-2.21-2.02-.05-.05-.08-.11-.08-.16v.16c-3.43-5.64-7.04-11.06-10.84-16.26-3.8-5.19-7.75-10.35-11.87-15.47v23.97c0,1.64-.03,2.97-.08,4-.05,1.03-.12,1.83-.2,2.41-.08.58-.2,1.08-.36,1.5-.47,1.27-1.2,2.11-2.17,2.53-.98.42-1.97.53-2.97.32-1-.21-1.87-.74-2.61-1.58-.74-.85-1.11-1.9-1.11-3.16v-22.07c0-2.22-.02-4.29-.04-6.21-.03-1.92-.04-3.54-.04-4.86,0-1.79-.03-3.57-.08-5.34s-.05-3.54,0-5.34c0-.89.22-1.66.67-2.29.45-.63,1.01-1.12,1.7-1.46.69-.35,1.42-.54,2.22-.59.79-.05,1.55.05,2.29.32.64.21,1.28.65,1.94,1.3.66.66,1.3,1.37,1.94,2.14.64.77,1.23,1.53,1.78,2.3s1.01,1.38,1.38,1.86c1.37,1.69,2.95,3.62,4.75,5.81,1.79,2.19,3.45,4.26,4.98,6.21,1.53,2,3.02,4.01,4.47,6.01,1.45,2.01,2.86,4.01,4.23,6.01.16-4.8.26-9.57.32-14.32.05-4.74.08-9.52.08-14.32l.08-.48c.32-1.05.83-1.92,1.54-2.61.71-.68,1.49-1.14,2.33-1.35.85-.21,1.7-.16,2.57.16.87.32,1.62.95,2.26,1.9.21.27.41.58.59.95s.28.71.28,1.03c.11,7.54.06,15.07-.12,22.59ZM441.15,249.03c-.34.87-1.07,1.65-2.18,2.33-.11.16-.13.8-.08,1.94s.09,2.44.12,3.92-.02,2.97-.12,4.47-.34,2.68-.71,3.52c-.37.68-.82,1.29-1.35,1.82s-1.08,1.03-1.66,1.5c-1.95,1.64-4.03,2.89-6.25,3.76-2.21.87-4.48,1.39-6.8,1.54-2.32.16-4.65-.08-7-.71-2.35-.63-4.6-1.64-6.76-3-2.74-1.74-5.05-3.98-6.92-6.72-1.87-2.74-3.23-5.7-4.07-8.86-.53-2-.83-4.1-.91-6.29s.09-4.35.51-6.49c.42-2.14,1.11-4.18,2.06-6.13.95-1.95,2.14-3.72,3.56-5.3,1.69-1.85,3.63-3.37,5.81-4.59,2.19-1.21,4.44-2.27,6.77-3.16,1.79-.74,3.64-1.29,5.54-1.66,1.9-.37,3.83-.5,5.78-.4,1.48.11,3.07.36,4.78.75,1.71.4,3.18,1.1,4.39,2.1.58.47,1.07,1.06,1.47,1.74.39.69.63,1.39.71,2.1s-.01,1.4-.27,2.06c-.27.66-.74,1.26-1.42,1.78-.69.53-1.41.83-2.18.91-.77.08-1.54.03-2.33-.16s-1.58-.44-2.37-.75c-.79-.32-1.53-.58-2.22-.79-.58-.21-1.2-.3-1.86-.27-.66.03-1.31.09-1.94.2-1.85.53-3.71,1.18-5.58,1.94-1.87.77-3.6,1.7-5.18,2.81-1.58,1.11-2.94,2.43-4.07,3.96s-1.86,3.38-2.17,5.54c-.42,2.69-.29,5.37.39,8.03.68,2.67,1.95,5,3.8,7,1.21,1.32,2.62,2.39,4.23,3.21,1.61.82,3.29,1.3,5.03,1.46,1.74.16,3.45-.03,5.14-.55s3.19-1.45,4.51-2.77v-8.54c-1.06.05-2.15.15-3.29.27-1.14.14-2.27.21-3.4.24s-2.24-.05-3.32-.24c-1.08-.18-2.1-.54-3.04-1.07-.9-.53-1.52-1.23-1.86-2.09-.34-.87-.44-1.74-.28-2.61.16-.87.53-1.67,1.11-2.41.58-.74,1.37-1.24,2.37-1.5.48-.11,1.07-.17,1.78-.2.71-.02,1.42-.04,2.14-.04s1.36.02,1.94.04c.58.03,1.03.04,1.35.04,2.06,0,4.1-.03,6.13-.08s4.1-.08,6.21-.08c1.06.32,1.95.83,2.69,1.54.74.71,1.23,1.5,1.46,2.38.24.87.18,1.74-.16,2.61ZM470.03,242.82c1.9-.11,3.8-.24,5.69-.39.84-.05,1.69-.13,2.53-.24.84-.11,1.71-.11,2.61,0,1.16.16,2.06.63,2.69,1.42.63.79,1.01,1.67,1.15,2.65.13.97-.04,1.94-.51,2.89-.47.95-1.24,1.64-2.29,2.06-.9.37-2.11.65-3.64.83-1.53.18-3.14.32-4.83.39-1.69.08-3.35.12-4.98.12s-3.01-.03-4.12-.08v9.73c2.9.37,5.83.42,8.78.16,2.95-.26,5.86-.76,8.71-1.5h.55c.95.05,1.78.3,2.49.75.71.45,1.29.99,1.74,1.62.45.64.71,1.36.79,2.18.08.82-.09,1.65-.51,2.49-.16.37-.49.8-.99,1.31-.5.5-.96.8-1.39.91-3.38,1-6.84,1.62-10.4,1.86-3.56.24-7.08.17-10.56-.2-1-.11-2.1-.21-3.29-.32-1.19-.11-2.23-.45-3.12-1.03-1.64-1.06-2.45-2.56-2.45-4.51v-33.7c-.58-.42-1.06-.95-1.42-1.58-.37-.64-.59-1.31-.67-2.02-.08-.71.02-1.4.28-2.06.26-.66.71-1.23,1.35-1.7,1.05-.84,2.27-1.41,3.64-1.7,1.37-.29,2.72-.54,4.04-.75,2.74-.42,5.48-.64,8.23-.64s5.54-.03,8.39-.08c.84,0,1.82-.06,2.92-.2,1.11-.13,2.09-.04,2.93.27,1,.37,1.79.95,2.38,1.74.58.79.92,1.64,1.03,2.53s-.06,1.77-.51,2.61c-.45.85-1.23,1.5-2.33,1.98-1.32.53-2.73.76-4.23.71-1.5-.05-2.94-.08-4.32-.08-2,0-4.01.03-6.01.08-2.01.05-4.01.21-6.01.47v11c1.9.11,3.8.11,5.7,0Z"/><polygon class="cls-1" points="288.38 61.35 300.29 61.35 300.29 96.81 321.61 96.81 321.61 107.06 288.38 107.06 288.38 61.35"/><polygon class="cls-1" points="323.66 61.35 360.09 61.35 360.09 70.89 335.56 70.89 335.56 78.89 357.97 78.89 357.97 88.1 335.56 88.1 335.56 96.81 360.73 96.81 360.73 107.06 323.66 107.06 323.66 61.35"/><path class="cls-1" d="M405.86,107.06h-7.68l-.7-4.99c-3.14,4.41-8.51,5.95-12.74,5.95-13.83,0-22.79-10.56-22.79-23.81s8.96-23.82,22.79-23.82c9.48,0,19.59,5.06,20.68,16.52h-11.91c-.38-3.9-4.23-6.27-9.03-6.27-7.68,0-10.63,6.79-10.63,13.58s2.95,13.57,10.63,13.57c5.89,0,9.86-2.75,10.5-6.91h-8.32v-8.84h19.21v25.04Z"/><path class="cls-1" d="M430.45,60.38c14.4,0,22.54,10.57,22.54,23.82s-8.13,23.81-22.54,23.81-22.54-10.56-22.54-23.81,8.13-23.82,22.54-23.82M430.45,97.77c7.68,0,10.63-6.78,10.63-13.57s-2.94-13.58-10.63-13.58-10.63,6.79-10.63,13.58,2.94,13.57,10.63,13.57"/><polygon class="cls-1" points="289.66 119.89 301.56 119.89 301.56 155.35 322.89 155.35 322.89 165.6 289.66 165.6 289.66 119.89"/><polygon class="cls-1" points="324.94 119.89 361.36 119.89 361.36 129.42 336.84 129.42 336.84 137.42 359.25 137.42 359.25 146.64 336.84 146.64 336.84 155.35 362 155.35 362 165.6 324.94 165.6 324.94 119.89"/><path class="cls-1" d="M377.37,119.89h12.1l17.1,45.71h-12.42l-2.82-8.19h-15.94l-2.88,8.19h-12.23l17.1-45.71ZM378.14,148.57h10.37l-5.06-16.01h-.13l-5.18,16.01Z"/><path class="cls-1" d="M448.37,165.6h-7.68l-.71-4.99c-3.14,4.41-8.51,5.95-12.74,5.95-13.83,0-22.8-10.56-22.8-23.81s8.97-23.82,22.8-23.82c9.47,0,19.59,5.06,20.67,16.52h-11.91c-.38-3.9-4.23-6.27-9.03-6.27-7.68,0-10.63,6.79-10.63,13.58s2.95,13.57,10.63,13.57c5.89,0,9.86-2.75,10.5-6.91h-8.33v-8.84h19.21v25.03Z"/><path class="cls-1" d="M491.66,146.71c0,13.25-6.08,19.85-19.91,19.85s-19.91-6.6-19.91-19.85v-26.82h11.91v27.53c0,5.89,2.17,8.9,8,8.9s8-3.01,8-8.9v-27.53h11.91v26.82Z"/><polygon class="cls-1" points="495.75 119.89 532.18 119.89 532.18 129.42 507.66 129.42 507.66 137.42 530.07 137.42 530.07 146.64 507.66 146.64 507.66 155.35 532.82 155.35 532.82 165.6 495.75 165.6 495.75 119.89"/><path class="cls-1" d="M455.82,63.52c2.25,0,4.08,1.82,4.08,4.07s-1.82,4.08-4.08,4.08-4.08-1.78-4.08-4.08,1.8-4.07,4.08-4.07M455.82,71.17c1.99,0,3.57-1.59,3.57-3.56s-1.58-3.59-3.57-3.59-3.58,1.59-3.58,3.57,1.58,3.58,3.58,3.58M454.23,65.5c.21-.01.24-.02.64-.06.42-.03.59-.05.76-.05,1.34,0,2,.53,2,1.52,0,.6-.25.96-.78,1.16l-.07.02s.07.04.08.08c.14.12.61.83,1.01,1.48h-1.53c-.31-.58-.41-.74-.8-1.4v1.4h-1.31v-4.15ZM455.7,67.46c.36,0,.56-.17.56-.5s-.18-.5-.55-.5c-.08,0-.09,0-.17.01v.96c.06.01.09.01.16.01"/><polygon class="cls-1" points="299.39 .92 331.76 .92 328.71 13.38 313.2 13.38 311.67 19.93 327.85 19.93 325.03 31.48 309.06 31.48 305.22 47.89 288.5 47.89 299.39 .92"/><polygon class="cls-1" points="336.16 .92 352.89 .92 341.99 47.89 325.27 47.89 336.16 .92"/><path class="cls-1" d="M357.26,1.2l1.08-.14C363.7.43,370.38,0,374.06,0c6.13,0,10.89.7,14.5,2.18,4.6,1.9,7.36,6.06,7.36,11.05,0,4.3-1.46,8.38-4.22,11.55-2.38,2.75-4.53,4.08-8.97,5.42l-1.07.35c.46.35.61.5.84.71,1.31,1.48,5.22,9.08,8.51,16.62h-18.41c-2.37-6.69-3.07-8.45-6.21-16.06l-3.68,16.06h-16.26l10.81-46.69ZM369.61,23.31c5.37,0,9.13-3.17,9.13-7.68,0-2.4-1.76-3.59-5.22-3.59-1,0-1.53.07-2.61.28l-2.53,10.84c.54.07.61.14,1.23.14"/><polygon class="cls-1" points="435.62 .92 476.18 .92 473.35 14.52 461.31 14.52 453.33 47.89 436.61 47.89 444.59 14.52 431.54 14.52 435.62 .92"/><path class="cls-1" d="M461.16,39.5c2.25,0,4.09,1.81,4.09,4.07s-1.82,4.09-4.09,4.09-4.07-1.78-4.07-4.09,1.8-4.07,4.07-4.07M461.16,47.14c1.99,0,3.58-1.59,3.58-3.56s-1.59-3.58-3.58-3.58-3.56,1.59-3.56,3.56,1.58,3.58,3.56,3.58M459.58,41.48c.21-.01.24-.03.65-.06.41-.03.58-.05.76-.05,1.34,0,2,.52,2,1.52,0,.6-.25.96-.78,1.16l-.06.02s.06.04.08.08c.14.13.61.84,1.01,1.48h-1.53c-.31-.58-.41-.74-.81-1.4v1.4h-1.31v-4.15ZM461.05,43.44c.36,0,.57-.17.57-.51,0-.31-.18-.49-.55-.49-.08,0-.09,0-.17.01v.96c.06.01.1.01.16.01"/><path class="cls-1" d="M392.66,46.69c4.7,1.4,9.84,2.18,14.64,2.18,6.52,0,11.51-1.48,15.8-4.58,4.75-3.38,7.83-8.59,7.83-13.31,0-3.17-1.38-6.06-3.83-8.1-1.92-1.55-3.92-2.74-7.98-4.65l-3.3-1.55c-1.07-.56-1.61-1.12-1.61-1.76,0-1.69,2.15-2.96,5.06-2.96,2.18,0,4.78.64,9.75,2.26l3.43-12.71c-3.72-1.01-7.34-1.52-10.95-1.52-13.65,0-24.16,7.46-24.16,17.11,0,5.07,3.38,8.66,11.81,12.6,3.99,1.83,4.68,2.33,4.68,3.59,0,1.9-2.07,3.1-5.45,3.1-2.99,0-6.83-.91-12.05-2.81h0l-3.67,13.1Z"/><path class="cls-1" d="M271.8,75.62v-.03h-.01S194.67,1.89,194.67,1.89l-25.94,27.02c-10.72-4.15-27.57-7.48-40.37-7.48-18.64,0-37.85,6.36-51.26,14.66L40.93,1.82v-.04s-.04,0-.04,0l-.02-.02v.02s-12.94,1.36-12.94,1.36L0,156.03l13,1.36v-.04s58.93-25.78,58.93-25.78c.1.09.18.18.28.26,14.02,12.36,35.06,20.24,58.6,20.24,16.33,0,31.45-3.8,43.87-10.25l23.69,22.74,73.44-76.49v-12.44h.01s-.01-.02-.01-.02ZM127.73,24.35c12.17,0,28.44,3.12,38.76,6.89l-.46.48-11.46,11.94-.04.04c-7.21-2.41-15.24-3.77-23.72-3.77-14.81,0-28.25,4.11-38.25,10.81l-.15-.14-12.02-11.39-1.07-1.02c13.14-7.93,30.19-13.84,48.42-13.84ZM143.89,54.78l-22.43,23.36-19.7-18.67c8.46-3.67,18.4-5.81,29.04-5.81,4.51,0,8.89.4,13.09,1.13ZM13.58,154.14L40.47,4.37l38.38,36.37,12.02,11.4,9.19,8.71,21.81,20.79v9.49l9.27,8.91-28.97,13.18c-6.54-2.77-12.24-6.48-16.68-10.92-.1-.09-.18-.21-.28-.31l22.23-10.38-52.27-48.67-1.03-1.04-1.25,6.74-12.34,64.34-1.91,9.99,3.27-1.4v-.08s16.8-7.19,16.8-7.19c2.62,5.54,6.39,10.68,11.07,15.27l-56.2,24.57ZM135.84,104.55l12.52,12.01c-5.83,1.43-11.9,2.16-18.04,2.16-7.68,0-15.11-1.1-22.07-3.28-.93-.29-1.84-.61-2.74-.93l27.74-12.47,2.61,2.51ZM80.59,96.27c-.14-.2-.3-.39-.43-.6-1.84-2.92-3.16-5.98-3.92-9.09-.08-.33-.12-.66-.19-.99.89-3.13,2.3-6.13,4.15-8.95l14.56,14.41-14.18,5.22ZM52.64,89.25c.01.09.04.17.06.26-.03.35-.06.68-.06.94,0,3.68,2.26,12.43,3.17,15.92,0,0,0,0,0,.01l-11.98,5.12,11.43-59.54,4.69,4.64c-5.24,7.99-7.92,16.56-7.92,25.5,0,2.32.2,4.66.61,7.14ZM173.01,127.86c-2.81,1.43-5.79,2.72-8.87,3.86-10.55,3.9-21.94,5.87-33.83,5.87-16.86,0-32.81-4-46.14-11.59-7.37-4.19-13.56-9.27-18.39-15.11-1.85-2.23-3.48-4.56-4.86-6.91-2.84-4.85-4.71-9.96-5.57-15.18-.38-2.33-.57-4.51-.57-6.69,0-8.07,2.32-15.84,6.89-23.12l12.26,12.41c-.83,2.85-1.25,5.74-1.25,8.61,0,2.39.3,4.82.89,7.24.83,3.4,2.27,6.73,4.26,9.9,1.58,2.51,3.51,4.9,5.72,7.12,6.08,6.07,14.34,10.85,23.87,13.83,7.24,2.25,14.94,3.4,22.9,3.4,6.42,0,12.77-.76,18.87-2.27,3.47-.87,6.83-1.97,9.96-3.27,7.21-3.01,13.56-7.19,18.37-12.11,4.88-5,8.09-10.59,9.56-16.59.59-2.43.89-4.86.89-7.23,0-6.83-2.57-14.56-6.77-20.47l10.44-10.86c8.93,9.31,14.22,21.7,14.22,33.43,0,2.16-.19,4.41-.57,6.69-1.61,9.84-6.84,19.21-15.1,27.11-4.85,4.63-10.62,8.65-17.17,11.96ZM176.03,101.37l-18.19-17.72,15.4-16.05c5.49,4.57,9.54,10.03,11.68,16.03-.13.98-.3,1.96-.54,2.95-1.3,5.31-4.12,10.28-8.36,14.78ZM208.07,88.67c.34-2.24.53-4.44.53-6.57,0-12.5-5.67-25.68-15.18-35.51l2.48-2.58,38.54,37-31.91,33.23c3.39-7.87,5.58-17.6,5.58-24.57,0-.29-.02-.64-.05-1ZM198.36,152.07l-15.66-15.04c6.15-4.21,11.36-9.16,15.38-14.66.06-.08.11-.16.17-.24l38.09-39.56,1.13-1.22,4.98-5.18-46.53-44.67-10.46,10.88-11.53,12.02-7.86,8.19-14.81,15.43h0s-1.28,1.34-1.28,1.34l4.32,4.14,20.05,19.55c-4.39,4.15-9.96,7.71-16.25,10.33,0,0-.01,0-.01,0l-13.23-12.7-12.99-12.48-8.84-8.38,21-21.88,10.55-10.99,11.46-11.94,28.65-29.83,75.4,72.17-71.72,74.69Z"/></svg>