<?xml version="1.0" encoding="UTF-8"?>
<svg id="Layer_1" data-name="Layer 1" xmlns="http://www.w3.org/2000/svg" viewBox="0 0 636.39 401.38">
  <defs>
    <style>
      .cls-1 {
        fill: #fff;
      }
    </style>
  </defs>
  <path d="M506.81,54.69c-10.49-10.49-33.11-24.57-47.35-28.65-21.4-6.12-64.49-5.35-85.25,3.13-28.97,11.83-49.07,28.47-61.57,57.43-6.16,14.28-5.41,41.37-4.57,57.29,1.01,19.09,6.97,38.01,9.55,56.9,22.64,16.47,48.49,36.88,38.76,68.61-4.55,14.82-14.79,21.48-26.9,29.77-1.99,11.54-3.53,24.97-15.37,30.48-12.78,5.95-20.6,1.94-26.94-9.92-5.9,1.77-11.66,3.91-17.61,5.56-2.12.59-8.74,1.47-9.62,2.74-.82,1.17-1.56,4.68-2.4,6.36-11.54,23.02-45.54,39.31-69.5,45.39-26.35,6.69-45.08,9.6-71.9,1.81-18.94-5.5-27.45-14.13-43.38-23.09-11.39-6.41-23.09-6.96-33.13,2.22,7.14,4.18,8.32,10.8,3.59,17.5-3.6,5.1-17.53,19.38-22.83,21.99s-14.83.46-18.51-4.34c-5.13-6.69,1.47-21.47,5.19-28.03,9.77-17.19,31.07-38.44,52.33-35.65,26.78,3.52,41.25,23.98,66.37,29.98,22.87,5.46,47.79.74,69.74-6.86,15.19-5.26,28.19-15.14,39.93-25.76-16.92-2.74-35.69-7.7-44.4-23.87-6.45-11.97-5.76-26.66,6.83-34.04,12.29-7.2,26.62-1.34,37.53,5.67,10.67,6.85,18.16,17.23,23.58,28.58,10.18-1.58,19.84-5.6,29.06-10.05,2.97-9.47,9.2-17.18,17.01-23.17l.53-1.58c-3.55-18.53-5.35-37.29-7.37-56.04-.7-2.48-9.77-5.43-12.28-6.27-31.54-10.48-69.85-12.32-102.77-8.51-3.81.44-7.67,1.1-11.41,1.99-9.5,2.25-41.04,14.73-47.36,21.17-6.67,6.79-10.41,22.93-23.11,17.47-6.45-2.77-7.39-9.45-4.64-15.34,10.62-22.66,37.91-33.64,60.22-41.27,15.72-5.38,28.95-6.15,45.37-6.71,14.25-.49,28.37-.42,42.75,1.06,16.59,1.71,32.44,4.86,48.18,10.3-1.22-9.63-3.66-19.06-5.06-28.67-3.49-23.96-4.58-61.21,5.49-83.45,15.34-33.87,37.58-52.66,71.73-66.85,33.61-13.96,83.48-13.14,116.79,1.7,9.1,4.06,14.15,9.26,21.95,14.63,6.07,4.18,14.09,7.36,18.91,13.03,5.88,6.91,8.06,17.01,13.42,24.18,6.2,8.3,9.65,11.52,11.26,22.74,1.41,9.78-3.38,21.66-11.53,27.49-6.42,4.6-15.92.43-16.74-7.46-.87-8.33,8.22-12.87,5.31-23.34-2.01-7.22-12.46-22.86-17.86-28.25ZM322.01,231.18l4.23,30.54c2.91,2.01,5.17,3.86,6.85,7.05,3.38-4.23,4.39-10.42,3.86-15.69-.96-9.5-9.37-15.05-14.93-21.9ZM235.94,307.93c-2.24-5.02-8.39-12.23-14.17-12.88-1.6-.18-11.58-.12-11.59,1.8,6.95,6.52,16.45,9.73,25.75,11.07Z"/>
  <path d="M534.3,183.79c-3.75-4.16-8.21-7.33-11.46-11.98-5.12-7.33-11.19-22.78,1.04-26.5,11.56-3.52,13.22,7.63,17.95,14.74,2,3.01,11.14,14.02,13.83,15.54,1.77,1,10.24,1.46,13.79,2.7,10.14,3.54,13.44,13.09,5.33,20.99-7.43,7.24-15.7,5.05-23.64.09-5.82,2.76-11.81,5.03-17.31,8.43-14.24,8.8-39.24,33.1-43.99,49.26-.92,3.14-1.14,6.61-2.06,9.78-4.71,16.19-8.15,24.6-7.06,42.38.74,11.98,2.11,28.52,16.88,30.52,34.08,4.62,72.42-11.18,99.95-30.14,4.78-3.29,12.93-8.59,16.33-13.04,3.13-4.09,3.77-8.62,9.96-9.62,7.97-1.29,13.69,5.74,12.38,13.4-1.45,8.48-20.04,22.18-27.23,26.87-10.82,7.06-21.54,14.49-33.47,19.6-26.84,11.49-53.85,17.35-83.19,14.69-8.89-.81-25.08-16.31-27.71-24.84-8.35-27.03-7.06-49.82,2.19-76.37,9.75-28.03,21.22-44.36,44.6-62.56,7.05-5.49,14.68-10.4,22.91-13.93Z"/>
  <path d="M418.76,172.57c3.43-.27,7.65,1.75,9.61,4.56,2.16,3.11,1.95,6.4,1.86,10.03-.15,5.93-.89,14.06-1.63,20-.82,6.6-1.35,9.84-7.64,12.96-10.11,5.02-20.69-2.22-16.61-12.99.54-1.43,2.59-3.81,2.69-4.57.24-1.88-.27-6.11-.01-8.73.77-7.81,1.67-20.47,11.74-21.27Z"/>
  <path class="cls-1" d="M322.01,231.18c5.57,6.85,13.97,12.4,14.93,21.9.53,5.28-.48,11.47-3.86,15.69-1.68-3.19-3.94-5.04-6.85-7.05l-4.23-30.54Z"/>
  <path class="cls-1" d="M235.94,307.93c-9.3-1.34-18.8-4.55-25.75-11.07.01-1.93,9.99-1.98,11.59-1.8,5.77.65,11.93,7.85,14.17,12.88Z"/>
</svg>