<?xml version="1.0" encoding="UTF-8"?>
<svg id="Layer_1" data-name="Layer 1" xmlns="http://www.w3.org/2000/svg" viewBox="0 0 668.38 490.91">
  <defs>
    <style>
      .cls-1 {
        fill: #231f20;
      }

      .cls-2 {
        fill: #fefefe;
      }
    </style>
  </defs>
  <path class="cls-1" d="M618.47,403.14c-1.13-.3-1.24.29-1.87.74-10.16,7.07-15.14,15.61-28.11,20.62-14.32,5.53-39.07,2.25-52.47-5.22-17.78-9.92-30.16-37.36-39.36-55.12-5.2-10.04-10.51-20.26-14.61-30.76-8.06,8.62-11.39,20.42-17.36,30.24-10.07,16.55-27.07,31.88-46.01,37.22-22.76,6.41-50.31-9.33-56.56-32.21-5.86,6-14.85,10.17-23.04,11.81-3.83.77-8.73.41-12.2,1.29-4.51,1.14-12.82,6.97-17.81,9.18-31.9,14.14-58.13,7.75-81.86-17.03-7.62,28.01-15.25,55.57-35.96,76.9-18.63,19.19-54.01,34.71-80.71,36.24-39.39,2.27-78.66-53.84-93.88-85.13C-14.93,336.95-.89,271.07,29.39,208.62c13.87-28.6,33.27-51.95,51.04-77.94,4.23-6.19,7.16-12.84,11.84-18.9,6.28-8.13,14.47-14.59,21.35-22.14,15.23-16.68,28.23-35.78,47.05-48.93,4.81-3.36,10.07-5.49,14.72-8.52,24.09-15.7,35.64-25.43,66.41-27.31,33.33-2.04,56.62-1.84,69.14,32.81,2.86,7.92,8.76,23.31-4.11,25.5-13.04,2.22-13.99-9.53-18.81-18.32-5.63-10.28-8.54-17.26-21.47-18.27-53.03-4.15-90.87,26.45-124.86,62.63-45.1,48.02-99.02,124.23-114.16,188.78-12.38,52.77-7.69,89.17,20.62,135.09,10.28,16.68,38.26,49.98,58.67,51.54,12.16.93,43.06-10.8,53.85-17.42,22.95-14.07,42.03-53.63,44.66-79.82.88-8.74-1.14-31.73,4.58-38.17,4.65-5.23,13.59-4.69,17.65,1.1,3.26,4.64.68,9.23,2.23,12.02.39.7,6.55,4.75,8.25,6.75,6.03,7.08,6.38,12.43,15.12,18.62,15.07,10.67,33.21,10.53,48.97,1.25-12.04-16.08-5.72-38.88,3.89-54.59,8.68-14.19,31.42-27.76,46.68-15.5,1.64,1.32,4.27,5.25,4.9,5.65,2.39,1.49,8.79-4.4,14.36,5.08,4.04,6.88,7.26,15.33,6.62,23.37-.81,10.08-.66,13.06,2.32,23.2,3.99,13.58,9.34,21.47,24.5,23.49,14.52,1.93,32.71-16.51,39.77-28.08,2.8-4.59,4.89-10.01,7.79-14.71,6.27-10.17,13.45-19.83,19.21-30.34-10.24-54.67-8.47-111.79-3.6-167.05,3.14-35.65,7.18-71.19,24.6-102.89,3.88-7.07,14.66-25.51,22.97-26.52,20.64-2.51,24.44,13.6,29.25,29.27,11.09,36.12,8.56,63.21,3.25,100-6.59,45.69-18.04,89.67-34.53,132.7-6.47,12.43-12.62,24.92-17.54,38.06,6.12,16.24,13.75,31.91,21.82,47.25,6.54,12.43,18.35,37.54,31.14,43.09,10.79,4.69,24.7,6.83,35.16.7,3.11-1.82,22.12-17.18,21.74-19.33-6.38-9.48-15.78-16.33-23.16-24.88-7.53-8.72-27.01-39.41-27.06-50.23-.1-21.5,32.52-24.79,45.41-12.39,3.27-8.58,4.48-17.64,9.51-25.71,12.49-20.01,33.92-14,43.94,4.49,11.06,20.43,2.4,75.88-9.29,96.17-1.58,2.75-10.69,14.15-10.75,15.41-.09,1.82,4.84,11.91,6.09,14.13,4.25,7.58,21.5,27.08,22.28,33.22,1.02,8-5.79,14.3-13.64,12.88-5.83-1.06-14.48-13.75-17.95-18.78-4.93-7.14-9.74-15.15-13.34-23.04Z"/>
  <path class="cls-2" d="M490.29,270.38l-1.48-7.88c-2.91-47.6-1.18-97.25,4.58-144.65,1.92-15.79,4.66-33.92,9.45-49.04,2.47-7.81,6.13-12.2,9.32-19.17,1.19-2.6,5.18-16.86,7.73-16.25,1.63.39,3.99,9.34,4.51,11.24,6.9,25.37,7.57,44.65,4.77,70.78-5.67,53.02-18.89,105.74-38.89,154.97Z"/>
  <path class="cls-2" d="M622.21,364.89c-8.49-9.41-18.32-17.54-25.64-27.96-3.7-5.26-7.21-13.48-11.42-17.82-3.24-3.33-8.38-4.88-10.9-8.96,5.09-.34,9.87.17,14.52,2.34,2.35,1.09,8.86,5.82,10.73,7.64.92.89,1.08,2.78,2.85,4.28,4.11,3.47,9.1,3.54,13.65.9,6.71-3.89,5.16-13.95,6.42-20.57,1.1-5.76,3.75-18.9,6.39-23.61s4.39-.92,6.06,2.49c5.04,10.3,1.58,39.6-.89,51.42-2.25,10.74-5.61,20.75-11.77,29.86Z"/>
  <path class="cls-2" d="M335.63,313.25c2.1-.18,5.97,6.33,6.48,8.28,3.3,12.59-10.36,29.77-20.76,35.8-7.09-7.77-2.14-19.05,1.89-27.21,1.64-3.31,9.08-16.58,12.39-16.87Z"/>
</svg>