<?xml version="1.0" encoding="UTF-8"?><svg id="Layer_1" xmlns="http://www.w3.org/2000/svg" viewBox="0 0 808.66 808.66"><defs><style>.cls-1{fill:#667fa1;}.cls-2{fill:#fff;}.cls-3{fill:#fdeb2b;}.cls-4{fill:#3187a6;}.cls-5{fill:#009fdd;}.cls-6{fill:#afddf0;}.cls-7{fill:#0e0f0e;}.cls-8{fill:#f39400;}</style></defs><path class="cls-2" d="M404.33,808.66C181.38,808.66,0,627.28,0,404.33S181.38,0,404.33,0s405.07,181.38,404.33,404.33c-.75,223.72-182.1,405.07-404.33,404.33Z"/><path class="cls-6" d="M738.12,280.65c-50.25-135.58-180.73-232.2-333.79-232.2S120.8,145.08,70.54,280.65c-14.28,38.52-22.09,80.19-22.09,123.68,0,40.74,6.86,79.87,19.46,116.32,48.2,139.42,180.61,239.56,336.42,239.56s288.22-100.14,336.42-239.56c12.6-36.45,19.46-75.58,19.46-116.32,0-43.49-7.81-85.15-22.09-123.68Z"/><path class="cls-4" d="M199.92,698.58c12.01.99,24.1,1.42,36.18,1.27,9.73-.12,19.81-.57,28.84,2.32,7.57,2.42,13.68,6.97,20.38,10.66,23.69,13.04,54.56,15.1,83.17,12.19,28.61-2.92,56.19-10.3,84.53-14.56,17.37-2.61,35.84-3.97,52.3,1.15,7.29,2.27,13.97,5.76,21.51,7.45,19.55,4.36,39.54-4.11,57.67-11.37,7.8-3.12,15.75-6.01,23.77-8.77,23.64-16.65,45.14-36.12,64.05-57.91-7.97,5.46-27.36,22.65-61.25,32.2-40.13,11.31-84.15.17-125.03-9.42-17.62-4.13-35.36-7.94-53.21-11.4-8.18-1.59-16.58-3.12-24.95-2.35-16.67,1.54-29.71,11.68-44.94,17.25-18.59,6.8-40.19,6.58-60.32,3.55-20.13-3.03-39.48-8.68-59.42-12.43-30.72-5.77-78.89-17.4-94.07-3.4,15.51,16.06,32.51,30.66,50.79,43.58Z"/><path class="cls-7" d="M526.83,719.05c-7.54-1.68-14.22-5.17-21.51-7.45-16.45-5.13-34.93-3.77-52.3-1.15-28.34,4.27-55.92,11.65-84.53,14.56-28.61,2.91-59.48.85-83.17-12.19-6.7-3.69-12.81-8.24-20.38-10.66-9.03-2.89-19.11-2.08-28.84-2.32-25.96-.63-31.7-1.24-38.72-6.15,26.31,34.59,130.83,69.67,206.95,69.67s172.02-33.38,207.63-70.16c-23.37,15.29-65.57,30.2-85.13,25.84Z"/><path class="cls-7" d="M404.33,784.18c-209.45,0-379.85-170.4-379.85-379.85S194.88,24.48,404.33,24.48s379.85,170.4,379.85,379.85-170.4,379.85-379.85,379.85ZM404.33,48.45c-196.23,0-355.88,159.65-355.88,355.88s159.65,355.88,355.88,355.88,355.88-159.65,355.88-355.88S600.56,48.45,404.33,48.45Z"/><path class="cls-3" d="M308.2,238.22c-2.94-.8-5.11-1.4-8.32-2.29-.7-.19-1.47.05-1.92.62-22.42,28.28-24.87,57.71-23.51,91.92.03.82.63,1.52,1.43,1.69,3.47.75,5.79,1.25,9.08,1.98,1.16.26,2.25-.67,2.18-1.85-1.88-32.91-.36-62.36,21.95-89.2.84-1.01.37-2.54-.89-2.88Z"/><path class="cls-1" d="M369.33,213.36c-8.57-2.09-12.96-3.33-21.39-5.13-4.63-.99-9.23,2.07-10.39,6.58-3.9,15.16-5.75,23.5-9.61,39.32-1.15,4.71,1.59,9.49,6.23,10.65,8.44,2.11,12.8,3.14,21.38,5.23,4.71,1.15,9.45-1.76,10.6-6.46,1.69-6.94,2.53-10.41,4.22-17.36-5.98-1.45-8.97-2.18-14.94-3.64-.17.71-.26,1.06-.43,1.77-3.44-.84-5.15-1.25-8.59-2.09-1.8-.44-2.92-2.29-2.48-4.1.21-.87.32-1.31.53-2.18.44-1.81,2.26-2.86,4.07-2.42,3.44.84,5.15,1.25,8.59,2.09-.21.87-.32,1.3-.53,2.17,5.98,1.45,8.97,2.18,14.94,3.64,1.7-6.98,2.55-10.47,4.25-17.44,1.15-4.71-1.74-9.47-6.44-10.61ZM345.3,244.99c3.6.88,5.4,1.31,9,2.19-.12,4.9-.18,7.35-.3,12.25-.07,2.83-3.31,4.64-6.79,3.8-1.67-.41-2.51-.61-4.19-1.02-3.38-.82-5.4-3.8-4.34-6.32,2.63-4.36,3.95-6.54,6.61-10.9ZM363.1,222.04c-2.15,4.41-3.22,6.61-5.37,11.02-3.6-.88-5.4-1.31-9-2.19-.35-5.09-.53-7.7-.87-12.78.22-2.72,3.38-4.39,6.77-3.56,1.67.41,2.51.61,4.19,1.02,3.48.85,5.52,3.95,4.28,6.49Z"/><path class="cls-3" d="M276.8,233.29c1.26-1.28.38-3.44-1.4-3.66-6.55-.8-19.18-1.06-31.15,5.94-11.3,6.6-20.64,17.66-25,30.33-.24.69-.48,1.4-.72,2.09-7.98,24.06,6.89,46.81,33.04,56.51,1.42.53,2.93-.62,2.83-2.13-1.04-15.69,1.34-67.61,22.38-89.08Z"/><path class="cls-1" d="M423.64,337.58c-15.8-3.84-31.78,5.88-35.62,21.68-3.84,15.8,5.88,31.78,21.68,35.62,15.8,3.84,31.78-5.88,35.62-21.68,3.84-15.8-5.88-31.78-21.68-35.62ZM402.18,377.69c-6.66-2.65-10.63-16.44-4.82-21.79,4.7-4.33,8.04,5.46,12.18,8-.11.29-.2.58-.27.89-.94,3.85,1.21,7.72,4.87,9.02-2.94,2.48-7.73,5.56-11.95,3.88ZM412.38,365.54c.58-2.39,2.99-3.85,5.38-3.27,2.39.58,3.85,2.99,3.27,5.38s-2.99,3.85-5.38,3.27c-2.39-.58-3.85-2.99-3.27-5.38ZM417.2,388.54c-6.04-1.88.57-9.53.83-14.4,2.9-.51,5.37-2.68,6.11-5.73.28-1.15.28-2.31.05-3.39,3.62,1.29,8.8,3.9,9.46,8.45,1.04,7.09-8.92,17.43-16.46,15.07ZM422.5,361.6c-1.01-1.17-2.37-2.05-3.99-2.44-2.5-.61-5.02.09-6.83,1.65-.71-3.78-1.06-9.63,2.58-12.5,5.63-4.44,19.55-.99,21.28,6.72,1.4,6.24-8.78,4.23-13.04,6.56Z"/><path class="cls-3" d="M523.55,300.18c-6.63-7.66-15.75-12.74-25.6-15.13h0c-.11-.03-.22.06-.2.18.7,7.16.86,14.24.53,21.27,8.3,4.82,12.93,7.5,20.39,11.83,1.67.97,2.26,3.12,1.29,4.79-1.9,3.28-18.47,31.83-20.3,34.98-.97,1.67-3.12,2.24-4.79,1.27-2.56-1.49-4.56-2.65-7.74-4.49-3.33,7.81-7.52,15.7-12.12,22.98.6.12.89.18,1.49.3,25.6,5.16,50.72-8.74,56.9-32.76.17-.67.35-1.36.52-2.04,3.75-15.09.2-30.99-10.36-43.18Z"/><path class="cls-3" d="M478.21,281.03c-.11-.54-.54-.98-1.07-1.11l-10.02-2.44c-1.03-.25-1.93.66-1.7,1.69,5.66,24.94-.44,58.12-14.88,78.86,1.11,4.55,1.27,9.41.41,14.27,1.27.34,2.05.55,3.1.82.62.16,1.29-.12,1.6-.68,16.11-28.79,29.78-57.04,22.55-91.41Z"/><path class="cls-2" d="M513.56,331.75l-11.36,17.2,9.59,2.94s8.5-3.1,8.54-3.22.56-10.23.56-10.23l-2.46-5.8-4.87-.89Z"/><path class="cls-7" d="M502,273.1c-27.97-6.6-42.5-10.38-70.8-17.27,9.24-7.32,14.25-11.29,22.76-18.03,1.27-1.01,1.47-2.86.4-4.08-2.63-2.98-4.63-6.45-5.87-10.2-.64-1.93-2.96-2.68-4.55-1.42-13.38,10.6-21.15,16.76-35.56,28.18l-28.05-6.83c-1.95-.47-3.15-2.44-2.67-4.39l3.36-13.81c1.85-7.6-2.86-15.3-10.46-17.15-8.54-2.08-12.93-3.39-21.34-5.05-7.46-1.47-14.81,3.68-16.7,10.77-1.4,5.27-2.23,8.41-3.41,13.08-.49,1.94-2.44,3.13-4.38,2.66l-42.84-10.32c-33.28-8.97-63.99,13.94-74.9,43.77-.27.75-.55,1.54-.8,2.31-10.54,32.09,14.66,66.48,45.98,74.36,7.35,1.3,11.01,1.93,18.39,3.25-.25,2.05,3.65,4.39,8.75,5.29,5.1.9,9.57.14,9.93-1.79,31.03,6.52,61.8,14.41,92.6,21.91.92,14.86,11.37,28.06,26.57,31.76,7.66,1.86,15.34,1,22.08-1.92l-.67,5.56c-.27,2.21,1.17,4.27,3.32,4.81,4.32,1.09,7.56,1.94,12.08,2.72,2.43.42,4.74-1.22,5.15-3.65.76-4.53.86-7.95,1.93-12.56.4-1.7-.89-3.3-2.63-3.25-2.88.08-5.63-.28-8.27-1.06,1.14-1.14,2.22-2.35,3.2-3.65,5.08,1.08,9.43.56,9.82-1.13,7.71,1.67,11.7,2.33,19.8,3.49,30.76,3.61,62.6-8.39,71.32-40.78.2-.75.4-1.5.58-2.25,7.79-32.38-11.74-65.05-44.13-73.35ZM254.42,322.37c.1,1.51-1.41,2.66-2.83,2.13-26.15-9.69-41.02-32.45-33.04-56.51.23-.7.48-1.4.72-2.09,4.35-12.67,13.7-23.73,25-30.33,11.97-6.99,24.59-6.74,31.15-5.94,1.78.22,2.66,2.38,1.4,3.66-21.04,21.46-23.43,73.38-22.38,89.08ZM309.09,241.1c-22.31,26.84-23.82,56.29-21.95,89.2.07,1.18-1.02,2.11-2.18,1.85-3.29-.73-5.61-1.23-9.08-1.98-.8-.17-1.39-.87-1.43-1.69-1.36-34.22,1.08-63.65,23.51-91.92.45-.57,1.23-.81,1.92-.62,3.2.89,5.38,1.49,8.32,2.29,1.26.34,1.72,1.87.89,2.88ZM375.78,223.98c-1.7,6.98-2.55,10.47-4.25,17.44-5.98-1.45-8.97-2.18-14.94-3.64.21-.87.32-1.3.53-2.17-3.44-.84-5.15-1.25-8.59-2.09-1.8-.44-3.63.61-4.07,2.42-.21.87-.32,1.31-.53,2.18-.44,1.81.67,3.66,2.48,4.1,3.44.84,5.15,1.25,8.59,2.09.17-.71.26-1.06.43-1.77,5.98,1.45,8.97,2.18,14.94,3.64-1.69,6.94-2.53,10.41-4.22,17.36-1.15,4.71-5.89,7.61-10.6,6.46-8.57-2.09-12.94-3.12-21.38-5.23-4.63-1.16-7.38-5.94-6.23-10.65,3.86-15.83,5.71-24.16,9.61-39.32,1.16-4.51,5.76-7.57,10.39-6.58,8.43,1.8,12.82,3.05,21.39,5.13,4.71,1.15,7.59,5.91,6.44,10.61ZM445.31,373.2c-3.84,15.8-19.82,25.52-35.62,21.68-15.8-3.84-25.52-19.82-21.68-35.62,3.84-15.8,19.82-25.52,35.62-21.68,15.8,3.84,25.52,19.83,21.68,35.62ZM517.48,345.3c-1.31,2.96-3.58,4.48-6.74,4.54-1.83-.03-3.74-.53-5.51-1.36,2.66-4.59,5.82-10.02,8.55-14.73,3.35,2.6,5.72,7,3.7,11.55ZM455.65,372.44c-.31.56-.98.84-1.6.68-1.05-.27-1.83-.48-3.1-.82.86-4.86.7-9.72-.41-14.27,14.43-20.74,20.53-53.92,14.88-78.86-.23-1.03.67-1.94,1.7-1.69l10.02,2.44c.54.13.96.57,1.07,1.11,7.22,34.37-6.45,62.62-22.55,91.41ZM533.91,343.36c-.17.68-.34,1.37-.52,2.04-6.03,23.45-25.67,36.97-56.12,32.8-1.07-.15-1.63-1.35-1.07-2.27,3.72-6.08,7.15-12.52,10.01-18.95.5-1.12,1.86-1.55,2.92-.94,2.11,1.22,3.75,2.18,5.73,3.33,1.67.97,3.82.4,4.79-1.27.37-.64,1.36-2.35,2.7-4.65,2.6,1.31,5.45,2.1,8.23,2.1.09,0,.17,0,.26,0,5.35-.09,9.67-2.98,11.87-7.93,3.43-7.72-.57-14.96-6.03-18.86,1.61-2.78,2.84-4.89,3.27-5.64.97-1.67.38-3.82-1.29-4.79-6.93-4.02-11.41-6.62-18.66-10.83-1.04-.6-1.69-1.72-1.66-2.92.12-5.39-.13-13.15-.28-17.07-.05-1.23,1.12-2.16,2.3-1.82,8.92,2.6,17.11,7.46,23.19,14.49,10.56,12.19,14.11,28.09,10.36,43.18Z"/><path class="cls-7" d="M269.35,351.88c-1.01,8.36-1.85,14.08-3.04,22.29-.07.48.3.95.79.99,5.93.52,9.31.84,15.49,1.61.44.06.88-.25.97-.69,1.56-7.92,2.81-14.61,4.25-22.61.11-.59-.42-1.12-1.01-.99-5.77,1.22-11.13,1.59-16.17-1.24-.53-.3-1.2.02-1.27.63Z"/><path class="cls-7" d="M491.94,417.14c-88.17-.73-170.29-37.24-258.66-41.64-3.71-.34-7,3.58-7.59,8.44-.59,4.86,1.62,8.69,5.24,8.92,88.56.88,169.69,40.33,257.87,39.03,5.53-.55,10.99-4.67,11.76-8.61.77-3.94-3.26-6.47-8.63-6.13Z"/><path class="cls-7" d="M473.55,224.16c3.36-.26,5.83-3.67,5.52-7.62-.31-3.94-3.28-6.93-6.63-6.66-3.36.26-5.83,3.67-5.52,7.61.31,3.94,3.28,6.93,6.64,6.67Z"/><path class="cls-7" d="M358.82,215.55c-1.67-.41-2.51-.61-4.19-1.02-3.38-.82-6.55.84-6.77,3.56.34,5.07.52,7.68.87,12.78,3.6.88,5.4,1.31,9,2.19,2.15-4.41,3.22-6.61,5.37-11.02,1.24-2.55-.8-5.65-4.28-6.49Z"/><path class="cls-7" d="M343.03,262.21c1.67.41,2.51.61,4.19,1.02,3.48.85,6.72-.97,6.79-3.8.12-4.9.18-7.35.3-12.25-3.6-.88-5.4-1.31-9-2.19-2.65,4.36-3.97,6.54-6.61,10.9-1.06,2.53.95,5.5,4.34,6.32Z"/><path class="cls-7" d="M424.2,365.01c.23,1.09.23,2.24-.05,3.39-.74,3.05-3.21,5.22-6.11,5.73-.26,4.87-6.87,12.52-.83,14.4,7.54,2.35,17.49-7.98,16.46-15.07-.66-4.55-5.84-7.16-9.46-8.45Z"/><path class="cls-7" d="M409.27,364.78c.07-.3.17-.6.27-.89-4.15-2.54-7.49-12.33-12.18-8-5.81,5.35-1.84,19.14,4.82,21.79,4.22,1.68,9.01-1.4,11.95-3.88-3.65-1.3-5.8-5.17-4.87-9.02Z"/><path class="cls-7" d="M414.27,348.31c-3.63,2.87-3.28,8.71-2.58,12.5,1.81-1.57,4.32-2.26,6.83-1.65,1.61.39,2.98,1.27,3.99,2.44,4.26-2.34,14.45-.32,13.04-6.56-1.73-7.7-15.66-11.16-21.28-6.72Z"/><path class="cls-7" d="M468.05,235.91c10.44,2.54,20.79-4.01,23.29-14.49,2.5-10.48-3.65-20.78-14.09-23.32-10.44-2.54-20.96,3.86-23.5,14.3-2.54,10.44,3.86,20.96,14.3,23.5ZM459.62,213.83c1.75-7.18,9.02-11.61,16.2-9.86,7.18,1.75,11.61,9.02,9.86,16.2-1.75,7.18-9.02,11.61-16.2,9.86s-11.61-9.02-9.86-16.2Z"/><path class="cls-7" d="M421.03,367.65c.58-2.39-.88-4.8-3.27-5.38-2.39-.58-4.8.88-5.38,3.27-.58,2.39.88,4.8,3.27,5.38,2.39.58,4.8-.88,5.38-3.27Z"/><path class="cls-7" d="M497.42,224.13c-.12.53-.28,1.04-.43,1.57,17.3,11.59,22.92,15.01,40.36,26.9,1.44.98,3.39.88,4.68-.29,3.01-2.71,5.79-6.3,7.87-10.07.94-1.71.39-3.88-1.24-4.96-20.41-13.57-29.05-18.68-50.18-32.99-1.15-.78-2.67.37-2.15,1.65,2.22,5.48,2.57,11.65,1.09,18.19Z"/><path class="cls-7" d="M555.37,281.19l13.48,8.53c.38.24.85.3,1.28.17,2.41-.7,3.93-1.13,6.4-1.83.45-.13.97-.04,1.36.22,2.58,1.72,4.11,2.71,7.07,4.57-8.32,2.24-12.56,3.39-19.94,5.62-.44.13-.94.07-1.32-.19l-21.22-14.1c-.68-.45-.88-1.37-.48-2.08,2.91-5.14,4.8-8.27,7.6-13.33.46-.83,1.57-1.08,2.33-.5,1.95,1.5,3.38,2.58,5.47,4.14.65.49.83,1.4.39,2.09-1.05,1.66-1.84,2.88-2.89,4.52-.47.73-.26,1.71.47,2.17Z"/><path class="cls-7" d="M598.4,267.88c.37-.93.67-1.72,1-2.69.26-.74.03-1.57-.57-2.08l-10.1-8.46c-.55-.46-1.33-.56-1.99-.27-2.39,1.05-4.02,1.74-6.59,2.8-.58.24-1.28.17-1.8-.17-2.16-1.42-3.71-2.45-5.5-3.65-1.29-.87-1.03-2.85.44-3.37,5.68-2,9.46-3.37,14.96-5.62.63-.26,1.36-.17,1.9.25l18.93,14.72c.61.48.87,1.28.65,2.02l-3.8,13.01c-2.81-1.71-4.4-2.69-6.79-4.17-.78-.48-1.09-1.47-.75-2.32Z"/><path class="cls-7" d="M574.28,259.71c-.03.39-.89,1.71-3.07,3.39-2.04,1.57-3.09,2.36-5.19,3.93-2.24,1.67-4.05,2.42-4.57,2.47-3.8-2.76-5.64-4.13-9.27-6.87-4.1,3.29-6.19,4.94-10.25,8.23-4.12-3.61-2.95-10.36,2.52-15.18,4.1-3.62,6.15-5.43,10.02-9.07,5.15-4.85,13.25-5.93,18.89-2.43-3.41,3.46-5.31,5.17-9.25,8.59,4.02,2.77,6.05,4.16,10.18,6.94Z"/><path class="cls-5" d="M441.74,309.42c-.1,0-.21,0-.32-.04l-129.2-30.24c-.74-.18-1.2-.92-1.03-1.66.18-.73.92-1.21,1.66-1.03l129.2,30.24c.74.18,1.2.92,1.03,1.66-.15.63-.72,1.06-1.35,1.06Z"/><path class="cls-5" d="M439.89,317.32c-.1,0-.21,0-.32-.04l-129.2-30.24c-.74-.18-1.2-.92-1.03-1.66.18-.73.89-1.22,1.66-1.03l129.2,30.24c.74.18,1.2.92,1.03,1.66-.15.63-.72,1.06-1.35,1.06Z"/><path class="cls-5" d="M438.04,325.22c-.1,0-.21,0-.32-.04l-129.2-30.24c-.74-.18-1.2-.92-1.03-1.66.17-.73.91-1.21,1.66-1.03l129.2,30.24c.74.18,1.2.92,1.03,1.66-.15.63-.72,1.06-1.35,1.06Z"/><path class="cls-5" d="M436.19,333.11c-.1,0-.21,0-.32-.04l-129.2-30.24c-.74-.18-1.2-.92-1.03-1.66.18-.73.91-1.21,1.66-1.03l129.2,30.24c.74.18,1.2.92,1.03,1.66-.15.63-.72,1.06-1.35,1.06Z"/><path class="cls-7" d="M600.84,460.53c-1.02,0-2.03-.45-2.7-1.32l-56.64-72.52c-1.16-1.49-.9-3.64.59-4.81,1.49-1.17,3.64-.9,4.81.59l56.64,72.52c1.16,1.49.9,3.64-.59,4.81-.63.49-1.37.73-2.1.73Z"/><path class="cls-7" d="M659.62,466.59c-.79,0-1.58-.27-2.23-.82l-99.2-84.99c-1.44-1.23-1.61-3.39-.37-4.83,1.24-1.44,3.4-1.6,4.83-.37l99.2,84.99c1.44,1.23,1.61,3.39.37,4.83-.68.79-1.64,1.2-2.6,1.2Z"/><path class="cls-7" d="M683.6,424.09c-.49,0-.99-.11-1.47-.33l-122.97-58.52c-1.71-.81-2.43-2.86-1.62-4.56.82-1.71,2.85-2.43,4.56-1.62l122.97,58.52c1.71.81,2.43,2.86,1.62,4.56-.59,1.23-1.82,1.95-3.1,1.95Z"/><path class="cls-7" d="M249.76,307.29c2.05-.3,1.66.73,1.55,3.38-.26,2.91.02,6.95-1.17,7.75-2.09,1.4-14.31-5.25-20.35-13.05-4.06-5.76-6.67-12.81-7.53-20.54-.97-8.74.11-21.44,5.65-28.81-1.78,10.71-3.19,16.69-2.31,26.77.38,4.32,2.39,10.28,4.44,13.78,2.23,3.83,8.33,12.13,19.73,10.71Z"/><path class="cls-7" d="M354.36,154.99c-1.31,21.3-32.94,13.81-32.46-4.68.25-9.74,9.15-13.73,17.79-11.85,8.92,1.94,13.73,7.56,14.67,16.53ZM334.68,162.63c10.78.19,2.43-17.86-3.91-19.43-7.96-1.98-6.34,19.36,3.91,19.43Z"/><path class="cls-7" d="M344.57,80.44c4.38,5.99,7.77,15.09,1.03,21.02-4.79,4.21-12.64,3.94-17.54.07-12.91-10.2,3.86-33.04,16.51-21.43l.04-.02c0,.13,0,.26,0,.39,0,0-.04-.02-.04-.02Z"/><path class="cls-7" d="M537.6,176.96c.06-11.19,17.55-12.5,20.19-2.3,3.22,12.47-20.38,15.72-20.19,2.3ZM551.49,179.35c.04-5.05-6.83-5.11-6.53-.11.24,4,6.49,4.38,6.53.11ZM553.73,182.85c-.07-.21-.16-.25-.28-.13.07.22.16.26.28.13Z"/><path class="cls-7" d="M278.63,155.6c.08-10.54-14.24-10.66-13.62-.23.5,8.35,13.55,9.13,13.62.23ZM283.3,162.9c-.14-.44-.34-.53-.59-.26.14.45.33.54.59.26Z"/><path class="cls-8" d="M415.55,287.17c-.28-7.11-9.94-6.74-9.18.28.6,5.61,9.42,5.73,9.18-.28Z"/><path class="cls-8" d="M431.5,290.89c-.28-7.11-9.94-6.74-9.18.28.6,5.61,9.42,5.73,9.18-.28Z"/><path class="cls-8" d="M447.45,294.61c-.28-7.11-9.94-6.74-9.18.28.6,5.61,9.42,5.73,9.18-.28Z"/><path class="cls-7" d="M292.49,165.27c4.97.16,8.67,3.84,8.39,8.96-.32,5.72-4.97,7.8-10.07,7.44-4.59-.33-8.21-3.08-8.08-8.08.14-5.37,4.95-8.07,9.76-8.32ZM293.46,173.65c-1.64-2.01-7.74-5.68-6.76-.16.67,3.8,6.78,4.63,6.76.16Z"/><path class="cls-7" d="M157.66,365.51c-1.75,10.39,12.38,12.78,13.41,2.38.82-8.32-11.93-11.16-13.41-2.38ZM154.19,357.56c.07.46.25.57.54.35-.06-.47-.24-.59-.54-.35Z"/><path class="cls-7" d="M136.1,330.12c-7.68-1.48-12.5-8.12-10.79-15.99,1.91-8.8,9.65-10.87,17.47-9.04,7.04,1.64,11.98,6.81,10.53,14.54-1.56,8.3-9.69,11.3-17.21,10.49ZM136.67,316.87c2.05,3.53,10.6,10.74,10.45,1.92-.1-6.07-9.37-8.87-10.45-1.92Z"/><path class="cls-7" d="M329.86,108c0,.12,0,.23,0,.35,0,0,.03.02.04.02,0-.13,0-.26,0-.39l-.04.02Z"/><rect class="cls-8" x="301.37" y="312.48" width="33.66" height="14.5" rx="3.47" ry="3.47" transform="translate(83.02 -65.2) rotate(13.44)"/><path class="cls-7" d="M161.65,518.4c-13.48-5.98-17.11-9.56-17.07-15.03.04-5.99,3.85-8.95,10.7-8.5,6,.38,10.23,5.3,10.16,11.91,0,.25,0,.5,0,.75-.02,1.64,1.07,3.11,2.41,3.26,4.11.45,8.23.88,12.34,1.3,1.35.14,2.47-1.16,2.49-2.88,0-.26,0-.52.01-.79.28-19.78-9.99-33.37-27.22-33.27-8.49-.05-15.4,2.62-20.69,7.44-5.29,4.97-7.86,10.9-7.86,18.25,0,14.33,7.24,24.96,21.59,32.35,7.37,3.75,12.19,6.94,14.47,9.5,2.16,2.53,3.22,5.77,3.17,9.53-.07,6.48-4.84,9.63-12.06,7.59-6.86-1.94-11.63-7.96-11.59-14.73,0-.93.01-1.86.02-2.78,0-1.53-1.07-3.04-2.4-3.35-4.26-1-8.51-2.02-12.75-3.06-1.32-.32-2.4.58-2.4,2.01v2.61c0,8.45,2.75,16.04,8.09,23.42,5.35,7.35,12.23,12.74,20.86,15.7,8.74,3,15.88,2.31,21.4-2.33,5.52-4.62,8.31-12.38,8.45-22.77.24-17.22-6.2-28.84-22.12-36.13Z"/><path class="cls-7" d="M241.06,510.71c-4.14-.27-8.28-.54-12.41-.83-1.35-.09-1.57,1.44-1.6,3.34-.26,16.28-.52,32.56-.77,48.84-.12,7.78-4.63,12.99-11.48,11.59-6.73-1.38-10.9-8.08-10.79-15.47.39-25.84.79-51.68,1.18-77.51.03-1.82-1.06-3.31-2.41-3.33-4.14-.05-8.28-.1-12.42-.16-1.35-.02-2.48,1.4-2.5,3.14-.35,24.84-.7,49.68-1.05,74.52-.14,10.13,2.53,19.16,7.91,27.19,5.37,8.18,12.01,13.49,19.7,15.4,7.82,1.94,14.62-.09,20.38-6.32,5.64-6.07,8.62-15.04,8.79-26.39-.04-16.8-.09-33.57-.13-50.32.03-1.95-1.05-3.61-2.4-3.7Z"/><path class="cls-7" d="M426.74,588.86c-11.1.38-22.2.57-33.29.56-1.07,0-1.39-.89-1.19-3,0-7.31,0-14.59,0-21.9-.11-1.79.24-2.54,1.23-2.54,2.39,0,4.77-.02,7.16-.02,2.39,0,4.78,0,7.17-.02,3.09-.02,6.18-.08,9.26-.13,1.95-.03,3.9-.04,5.85-.08h0c.75-.03,1.5-.03,2.25-.05,1.37-.03,2.48-1.8,2.47-3.94-.02-6.47-.04-12.95-.05-19.42,0-2.14-1.12-3.87-2.49-3.86-4.42.05-8.84.02-13.25.03-6.16.02-12.31.06-18.47.02-.91-.09-1.22-.91-1.05-2.82,0-7.34.01-14.64.02-21.98-.12-1.84.22-2.62,1.21-2.61,10.82.09,21.64.14,32.45.13,1.36,0,2.46-1.75,2.46-3.88-.02-6.47-.04-12.94-.06-19.41,0-2.13-1.12-3.89-2.47-3.91-16.11-.17-32.22-.35-48.33-.54-1.35-.02-2.47,1.74-2.47,3.89-.07,16.96-.13,33.92-.2,50.87-2.52-.04-5.03-.08-7.55-.13.08-16.95.17-33.89.25-50.84.01-2.56-1.22-3.77-3.23-3.76-4.82-.04-7.7-.08-12.52-.13-2.33.12-4.56.35-5.05,3.03-2.23,13.28-4.47,26.52-6.72,39.73-.39,2.13-1.87,2.08-2.22-.07-2.03-13.33-4.05-26.62-6.07-39.86-.44-2.68-1.42-3.1-3.69-3.1-4.81-.07-9-.13-13.81-.21-2.29,0-3.27,1.08-3.3,3.58-.47,42-.94,83.99-1.41,125.99-.02,2.1,1.08,3.94,2.45,4.09,4.07.43,8.13.83,12.21,1.2,1.37.12,2.51-1.52,2.53-3.64.25-26.42.61-54.55.87-81.09,0-.44.63-.51.74-.08,1.46,5.92,4.83,19.43,6.82,26.19,1.04,3.52,6.01,3.58,7.12.07,2.18-6.9,6.12-21.01,7.58-26.3.09-.32.56-.26.55.07-.2,27.06-.54,55.76-.73,82.74-.01,2.14,1.1,3.96,2.47,4.04,4.08.22,8.16.4,12.25.55,1.38.05,2.51-1.68,2.52-3.83.08-16.98.17-33.95.25-50.93,2.53.06,5.05.13,7.58.18-.07,16.99-.13,33.97-.2,50.96,0,2.15,1.11,3.95,2.49,3.97,16.55.33,33.12.11,49.67-.64,1.38-.06,2.5-1.87,2.49-4-.02-6.47-.04-12.94-.06-19.41,0-2.13-1.13-3.84-2.5-3.79Z"/><path class="cls-7" d="M552.29,534.32c-10.61.99-21.23,1.87-31.86,2.64-1.36.1-2.45,1.79-2.42,3.76.07,5.67.15,11.34.22,17.01.03,1.97,1.16,3.47,2.52,3.32,5.34-.57,10.67-1.18,16-1.83.68-.08,1.25.63,1.26,1.59.02,1.16.03,2.32.05,3.48.15,10.57-3.6,16.41-11.39,17.56-5.81.84-9.69-1.51-11.62-7.05-1.16-3.28-1.91-13.68-2.12-30.82-.21-17.14.28-27.63,1.34-31.09,1.78-5.83,5.56-8.78,11.34-8.93,6.52-.16,11.03,5.1,11.15,13.25.08,2.81.17,5.62.25,8.43.05,1.57.97,2.76,2.09,2.68,4.5-.33,9.01-.67,13.51-1.03,1.13-.09,2.02-1.42,2-2.97-.04-2.7-.08-5.41-.12-8.11-.17-11.29-3.01-20.09-8.53-26.9-5.63-6.62-12.44-10.22-20.68-10.31-13.15-.18-22.62,9.14-27.02,24.13-2.85,9.6-3.23,20.71-3,42.1.23,21.38.84,32.43,3.92,41.64,4.75,14.37,14.57,22.39,27.82,19.94,17.22-3.3,28.56-19.5,28.17-45.08-.12-8.09-.25-16.18-.37-24.28-.03-1.85-1.16-3.26-2.51-3.14Z"/><path class="cls-7" d="M299.89,541.05c4.28-6.16,6.47-14.25,6.59-24.34.1-8.95-1.68-17.68-5.33-24.58-4.7-8.9-11.01-13.32-18.77-13.73,0-.02-19.44-.3-28.7-.42-8.04-.1-15.07-.31-23.11-.31-2.02,0-2.98,1.2-3,2.7-.1,6.25-.2,12.5-.3,18.75-.02,1.51.83,2.77,1.9,2.84,5.8.32,11.61.63,17.41.92,2.34.11,4.2,2.97,4.15,6.38-.46,30.12-.93,60.24-1.39,90.36-.03,1.97,1.05,3.79,2.41,4.05,9.28,1.77,18.59,3.35,27.93,4.76,16.36,2.54,26.89-12.6,27.17-37.97.14-12-2.24-20.56-7-26-.85-1-.84-2.14.04-3.41ZM280.04,582.41c-3.96-.49-7.91-1-11.87-1.54-.86-.12-1.23-.72-1.21-2,.12-8.24.24-16.48.36-24.72.02-1.28.4-1.79,1.26-1.7,3.95.4,7.9.79,11.85,1.16,4.94.45,8.56,7.51,8.46,15.21-.1,7.7-3.78,14.23-8.86,13.6ZM280.77,529.07c-3.95-.26-7.89-.54-11.83-.83-.86-.06-1.22-.64-1.21-1.92.1-6.9.2-13.79.3-20.69.01-1,.26-1.53.77-1.71,4.29.19,8.58.37,12.88.54,4.06.64,7.48,6.3,7.4,12.57-.09,6.57-3.99,12.33-8.31,12.03Z"/><path class="cls-7" d="M672.78,497.17c-4.4-9.1-13.9-15.53-26.68-15.64-2.84,0-5.69-.01-8.53-.02-5.18-.01-10.37-.02-15.55-.04-3.89-.01-7.78-.02-11.67-.04-9.7-.03-19.4-.08-29.1-.13-6.4-.03-12.8-.07-19.2-.11-1.35-.01-2.44,1.48-2.41,3.32.57,36.68,1.14,73.36,1.7,110.04.03,1.83,1.16,3.09,2.51,2.78,16.26-3.73,32.44-7.99,48.49-12.79,1.33-.4,2.41-2.05,2.38-3.65-.07-4.88-.14-9.75-.21-14.63-.02-1.61-1.14-2.66-2.47-2.34-10.83,2.57-21.7,4.95-32.6,7.13-.68.14-1.24-.48-1.25-1.36-.1-6.43-.2-12.86-.31-19.29-.01-.89.52-1.69,1.2-1.79,10.42-1.55,20.82-3.23,31.19-5.05,1.34-.24,2.42-1.75,2.4-3.37-.07-4.9-.14-9.79-.21-14.69-.02-1.61-1.14-2.81-2.49-2.65-10.39,1.2-20.81,2.31-31.24,3.32-.68.07-1.24-.6-1.25-1.49-.1-6.43-.2-12.86-.31-19.29-.02-1.13.34-1.63,1.2-1.66,22.68-.99,45.32-2.22,67.89-3.71,5.38-.36,8.94,1.45,10.8,5.29,1.12,2.54,1.77,9.08,1.83,19.94.07,10.85-.49,17.61-1.56,20.55-1.78,4.49-5.25,7.56-10.55,9.04-2.65.74-5.31,1.46-7.96,2.17-.67.18-1.21-.28-1.22-1.03-.13-11.42-.26-22.83-.39-34.25-.02-1.56-1.17-2.68-2.57-2.5-4,.51-8,1.01-12,1.49-1.4.17-2.52,1.64-2.5,3.29.25,18.35.51,36.69.76,55.04.02,1.58,1.13,2.54,2.46,2.11,7.9-2.49,15.77-5.1,23.6-7.84,12.47-4.46,21.58-14.43,25.88-25.2,2.26-5.54,3.34-14.24,3.34-26.13,0-11.89-1.09-20.17-3.42-24.83Z"/><path class="cls-7" d="M479.04,559.33c-.39-1.48-.64-2.59-.65-3.52,0-.94.48-1.91,1.34-2.71,8.48-8.03,12.69-19.17,12.54-33.57-.12-11.65-2.56-20.83-7.43-28.09-4.87-7.26-11.05-10.9-18.79-10.98-9.02-.09-18.03-.18-27.05-.27-1.35-.01-2.45,1.71-2.44,3.84.17,42.54.33,85.09.5,127.63,0,2.13,1.14,3.8,2.52,3.72,4.17-.26,8.33-.55,12.5-.88,1.37-.11,2.49-1.92,2.47-4.03-.2-33.81-.41-67.62-.61-101.42,0-1.06.54-1.92,1.22-1.93,3.42-.03,6.83-.07,10.25-.11,4.8-.05,8.91,5.72,8.98,13.04.07,7.72-3.6,12.48-8.54,13.52-4.19.88-7.26,6.69-5.87,12.91,4.73,21.11,9.5,41.99,14.3,62.56.64,2.19,1.77,3.2,3.15,3.05,4.16-.47,8.31-.97,12.46-1.5,1.87-.24,3.09-2.26,3.07-4.66,0-.74-.27-1.82-.66-3.44-4.42-14.16-8.83-28.55-13.22-43.14Z"/><path class="cls-7" d="M656.16,588.33c-.75-.33-1.32-.79-1.73-1.39-.41-.6-.61-1.3-.61-2.1v-.25c0-.08.02-.15.07-.2.05-.05.11-.07.2-.07h2.75c.08,0,.15.02.2.07.05.05.07.11.07.2v.11c0,.33.17.62.52.88.35.25.81.38,1.39.38.44,0,.75-.09.94-.28.19-.18.28-.39.28-.61,0-.26-.12-.46-.36-.59-.24-.13-.67-.29-1.3-.48l-.52-.14c-1.17-.36-2.16-.83-2.95-1.42-.79-.59-1.19-1.45-1.19-2.58,0-.75.2-1.41.6-1.98.4-.57.96-1.02,1.66-1.32.7-.31,1.5-.46,2.37-.46.92,0,1.76.17,2.51.52.75.34,1.34.83,1.78,1.46.43.63.65,1.34.65,2.15v.16c0,.08-.02.15-.07.2s-.11.07-.2.07h-2.75c-.08,0-.15-.02-.2-.07-.05-.05-.07-.11-.07-.2v-.02c0-.36-.16-.68-.48-.97-.32-.29-.75-.44-1.3-.44-.38,0-.68.08-.9.23-.22.15-.33.37-.33.64,0,.21.08.39.24.54.16.15.41.29.74.43.33.14.84.31,1.53.52.09.04.51.16,1.25.38.74.22,1.36.62,1.86,1.19.5.57.75,1.27.75,2.09s-.2,1.48-.6,2.05c-.4.57-.97,1.02-1.69,1.32-.72.31-1.56.46-2.52.46s-1.87-.16-2.61-.49Z"/><path class="cls-7" d="M672.58,576.24h2.77c.08,0,.15.02.2.07.05.05.07.11.07.2v11.9c0,.08-.02.15-.07.2s-.11.07-.2.07h-2.81c-.08,0-.15-.02-.2-.07-.05-.05-.07-.11-.07-.2v-6.45s-.01-.07-.04-.08c-.02,0-.05,0-.07.04l-1.21,1.97c-.07.12-.18.18-.32.18h-1.35c-.14,0-.25-.06-.32-.18l-1.21-1.97s-.05-.05-.07-.04c-.02,0-.04.03-.04.08v6.45c0,.08-.02.15-.07.2s-.11.07-.2.07h-2.81c-.08,0-.15-.02-.2-.07-.05-.05-.07-.11-.07-.2v-11.9c0-.08.02-.15.07-.2.05-.05.11-.07.2-.07h2.77c.14,0,.25.06.32.18l2.24,3.61c.04.07.07.07.11,0l2.24-3.61c.07-.12.18-.18.32-.18Z"/></svg>