<?xml version="1.0" encoding="UTF-8"?><svg id="Layer_1" xmlns="http://www.w3.org/2000/svg" viewBox="0 0 343.33 118.05"><defs><style>.cls-1{fill:#06214f;}</style></defs><path class="cls-1" d="M306.83,100.48c.19,0,.42-.13.5-.31l35.93-78.46c.08-.18.1-.42.03-.54s-.27-.22-.46-.22h-49.68c-.53,0-.63.07-.7.19-.08.12.02.44.1.62l5.13,11.15c.08.18.28.39.45.48s.46.16.66.16h23.94c.19.01.39.1.45.2s.03.33-.05.51l-16.2,35.45c-.08.18-.2.33-.27.34s-.19-.13-.27-.3l-22.1-48.24c-.08-.18-.27-.39-.42-.48s-.43-.16-.62-.16h-13.05c-.19,0-.39.08-.44.19s-.03.34.05.51l36.03,78.56c.08.18.3.32.5.33l.5.02Z"/><path class="cls-1" d="M283,16.24c.54-2.72,3.09-4.73,6.59-4.71,9.57.07,19.28,4.7,27.1,4.71.86,0,2.64.11,3.74-.42.79-.38,1.32-.62,1.94-1.6.39-.63.54-1.42,1.06-2.08.67-.86,1.62-1.24,2.66-1.7.52-.24,1.14-.54,1.53-.95.38-.39.46-.59.71-1.14.23-.51.41-1.56.77-2.08s1.12-1.12,1.59-1.38c.57-.31,1.25-.88,1.83-1.57.59-.7.94-1.79,1.22-3.18,0-.04-.04-.21-.2-.12-.01,0-.02.01-.03.02-.35.19-6.64,4.35-18.58,4.18-7.33-.11-22.7-3.81-29.13-3.86-5.18-.04-11.82,1.53-15.51,7.69-1.71,2.84-2,6.93-2.05,8.08,0,.2.08.31.25.31,1.82,0,12.48.01,14.23.01.16,0,.27-.15.28-.22Z"/><path class="cls-1" d="M335.26,75.72c-.04-.19.07-.43.25-.52l4.97-2.66c.17-.09.26-.32.2-.51l-1.08-3.04c-.07-.19-.28-.31-.48-.28l-5.6,1.02c-.2.04-.43-.08-.53-.25l-1.83-3.15c-.11-.17-.08-.43.05-.57l3.8-4.23c.13-.15.14-.39.01-.55l-2.05-2.49c-.13-.15-.37-.2-.54-.1l-1.44.84c-.17.1-.38.33-.46.51l-6.26,13.6c-.08.18-.13.38-.1.43l.03.05c1.23,2.43,1.97,5.16,2.07,8.06.34,9.66-6.36,17.91-15.49,19.87h-.06c-.06.03-.19.18-.27.36l-1.78,3.78c-.08.18-.32.33-.51.33h-3.22c-.2,0-.43-.15-.52-.33l-1.83-3.84c-.09-.18-.22-.34-.31-.36l-.08-.02c-8.44-1.95-14.87-9.35-15.18-18.43-.12-3.33.62-6.5,1.99-9.3l.03-.05c.12-.15.16-.41.07-.59l-6.58-13.92c-.08-.18-.29-.41-.46-.52l-1.23-.76c-.17-.1-.41-.07-.54.08l-2.09,2.46c-.13.15-.13.4,0,.55l3.86,4.55c.13.15.15.41.04.58l-1.76,3.01c-.09.17-.33.28-.53.24l-5.78-1.22c-.19-.04-.41.08-.48.26l-1.13,3.02c-.07.19.01.42.19.52l5.18,2.95c.17.1.28.34.24.53l-.6,3.42c-.03.2-.21.38-.41.41l-5.88.84c-.2.03-.36.21-.36.41l-.03,3.23c0,.2.16.39.35.42l5.89,1.01c.2.03.38.22.4.42l.56,3.44c.04.19-.07.43-.25.52l-5.2,2.78c-.17.09-.26.32-.2.51l1.08,3.04c.07.19.28.31.48.28l5.83-1.06c.2-.04.43.08.52.25l1.75,3.04c.11.17.08.43-.05.57l-3.94,4.39c-.13.15-.14.39-.01.55l2.05,2.49c.13.15.37.2.54.1l5.11-2.98c.17-.1.43-.07.58.06l2.68,2.29c.16.12.22.38.15.56l-2.18,5.43c-.07.18,0,.42.18.52l2.78,1.64c.17.1.41.06.54-.09l3.75-4.51c.13-.15.38-.21.56-.14l3.33,1.25c.19.06.34.28.33.48l-.19,5.79c0,.2.15.39.34.43l3.17.59c.2.04.41-.09.48-.27l1.96-5.46c.07-.19.28-.33.48-.32,0,0,1.9.11,3.06.07.3-.01.53-.04.53-.04.2-.02.41.11.47.3l1.79,5.48c.06.19.27.32.47.28l3.18-.53c.2-.03.35-.22.35-.42l-.03-5.77c0-.2.15-.41.34-.47l3.41-1.21c.18-.07.44,0,.56.15l3.52,4.48c.12.16.36.2.54.11l2.81-1.59c.17-.1.26-.33.19-.52l-1.98-5.36c-.07-.19,0-.44.16-.56l2.8-2.34c.15-.13.41-.16.57-.05l4.82,3c.17.1.41.07.54-.08l2.09-2.46c.13-.15.13-.4,0-.55l-3.69-4.35c-.13-.15-.15-.41-.04-.58l1.86-3.15c.1-.17.33-.28.53-.24l5.51,1.16c.19.04.41-.08.48-.26l1.13-3.02c.07-.19-.01-.42-.19-.52l-4.92-2.81c-.17-.1-.28-.34-.24-.53l.63-3.61c.03-.2.21-.38.41-.41l5.59-.8c.2-.03.36-.21.36-.41l.03-3.23c0-.2-.16-.39-.35-.42l-5.62-.96c-.2-.03-.38-.22-.4-.42l-.61-3.61Z"/><path class="cls-1" d="M168.71,63.75l-8.02-.21s-.15-.02-.24-.1c-.1-.09-.11-.23-.11-.23v-6.26c0-.17.06-.24.1-.28.07-.08.22-.11.36-.12l7.98.18c4.99,0,7.37-1.4,7.37-4.84v-8.28c0-4.06-2.52-5.21-6.42-5.31-3.9-.1-8.98.22-8.98.22,0,0-.18.01-.31-.1-.13-.12-.11-.24-.11-.24v-6.23s0-.19.14-.32c.13-.12.38-.12.38-.12,0,0,.75-.33,6.29-.3,8.07.03,16.41,1.48,16.41,14.99v3.04c0,11.95-6.03,14.52-14.83,14.52"/><rect class="cls-1" x="225.29" y="46.56" width="7" height="17.32" rx=".16" ry=".16"/><path class="cls-1" d="M155.03,63.77s.04-.1.04-.1v-8.71s0-11.11,0-11.11c0-10.33-4.36-12.43-10.44-12.43h-4.35s-.04,0-.08.05-.05.09-.05.09v6.71s.01.05.05.09.09.05.09.05h.71c5.44,0,7.03,1.32,7.03,5.83v12.37s0,.05-.04.09-.09.05-.09.05h-11.72s-.05,0-.1.05-.05.1-.05.1v6.76s0,.07.05.11.12.05.12.05h18.74s.05,0,.09-.05Z"/><path class="cls-1" d="M206.8,31.42h-3.33s-.05.01-.09.05-.04.1-.04.1v6.72s0,.05.04.09.1.05.1.05h.87c5.46,0,8.05,1.32,8.05,5.83v6.76c0,4.07-2.21,5.52-6.8,5.72-.4.02-1.83.02-2.55-.01-5.61-.21-6.8-1.37-6.79-5.09v-4.98s0-1.4,0-1.4v-13.7s0-.05-.05-.09-.1-.05-.1-.05h-7.17s-.04,0-.09.04-.05.1-.05.1v19.99c0,10.17,7.02,12.27,13.02,12.27h4.95c6.08,0,13.1-2.1,13.1-12.27v-7.85c0-10.26-7.02-12.28-13.1-12.28"/><rect class="cls-1" x="125.84" y="31.42" width="7" height="18.03" rx=".16" ry=".16"/><path class="cls-1" d="M253.43,63.77s.05-.11.05-.11v-19.97c0-10.26-7.02-12.27-13.1-12.27h-14.93s-.07,0-.11.05-.04.12-.04.12v6.7s0,.05.05.09c.03.03.1.04.1.04h12.26c5.44,0,8.12,1.32,8.12,5.83v19.44s0,.05.05.09.1.05.1.05h7.37s.05,0,.1-.05Z"/><rect class="cls-1" x="112.29" y="31.42" width="7" height="32.53" rx=".16" ry=".16"/><rect class="cls-1" x="97.52" y="31.42" width="7" height="40.44" rx=".16" ry=".16"/><path class="cls-1" d="M13.36,89H2.94v-6.57H0v8.95c0,.35.18.53.54.53h9.67l-1.61,8.92c-.43,2.39-1.82,3.58-4.16,3.58h-.79v2.9h1c3.87,0,6.2-2.13,6.99-6.38l2.12-11.31c.07-.41-.07-.61-.4-.61M28.36,99.51c.89-.97,1.68-2.4,2.4-4.3.82-2.15,1.22-4.18,1.22-6.12v-.09h-3.15v.23c0,3.52-.62,6.31-1.87,8.36-3.37-4.03-5.96-6.9-7.77-8.59h-3.72c1.43,1.36,3.12,3.19,5.05,5.47-1.12,1.16-2.11,3.02-2.99,5.6-.87,2.58-1.31,4.97-1.31,7.16v.07h3.04v-.21c0-1.91.3-3.97.89-6.17.58-2.16,1.25-3.74,2.01-4.76,3.09,3.5,5.8,7.21,8.13,11.14h3.36c-1.42-2.35-3.19-4.96-5.3-7.8M46.61,95.63c0-2.67-.45-4.48-1.35-5.44-.74-.79-1.75-1.19-3.06-1.19h-7.66v2.9h7.85c.26,0,.47.06.65.19.42.34.63,1.43.63,3.29v11.93h2.94v-11.68ZM67.07,89l-1.33,11.17c-.38,3.21-2.31,4.81-5.79,4.81h-.68c-3.21,0-5-1.65-5.39-4.95l-.09-.86h1.72c3.74,0,5.67-1.93,5.79-5.8l.16-4.37h-3.01l-.12,4.37c-.06,2.44-.95,3.65-2.68,3.65h-2.04l-.72-8.03h-3.04l1.08,11.22c.22,2.41,1.09,4.26,2.59,5.54,1.45,1.24,3.37,1.85,5.79,1.85h.68c5.29,0,8.22-2.4,8.8-7.19l1.36-11.44h-3.08ZM76.85,89h-2.94v10.51h2.94v-10.51ZM92.77,89h-10.42v-6.57h-2.94v8.95c0,.35.18.53.54.53h9.67l-1.61,8.92c-.43,2.39-1.82,3.58-4.16,3.58h-.79v2.9h1c3.87,0,6.2-2.13,6.99-6.38l2.12-11.31c.07-.41-.06-.61-.4-.61"/><path class="cls-1" d="M108.07,88.68h-2.94v10.51h2.94v-10.51ZM120.51,98.54v-3.24c0-2.67-.45-4.48-1.35-5.44-.73-.79-1.75-1.19-3.04-1.19h-4.6v2.9h4.77c.26,0,.47.06.65.19.43.34.65,1.43.65,3.29v1.82c0,.98-.44,2-1.33,3.06-1.62,1.95-3.32,3.44-5.09,4.47v3.04c.52-.11,1.14-.38,1.85-.83.71-.45,1.49-1.2,2.34-2.25.9-1.11,1.59-2.21,2.06-3.31h.26c.22,3.35.38,5.32.49,5.91h2.52c.3,0,.41-.31.31-.93-.34-2.3-.51-4.8-.51-7.52M127.89,88.68h-2.94v18.31h2.94v-18.31ZM143.84,88.68h-10.42v-6.57h-2.94v8.95c0,.35.18.52.54.52h9.67l-1.61,8.92c-.43,2.39-1.82,3.58-4.16,3.58h-.79v2.9h1c3.87,0,6.2-2.13,6.99-6.38l2.11-11.32c.07-.41-.06-.61-.4-.61M150.64,88.68h-2.94v18.31h2.94v-18.31ZM161.64,95.3c0-2.67-.45-4.48-1.35-5.44-.73-.79-1.75-1.19-3.04-1.19h-3.13v2.9h3.31c.25,0,.47.06.65.19.43.34.65,1.43.65,3.29v9.02h-5.12v2.9h8.04v-11.68ZM175.62,90.02c-.9-.9-2.22-1.35-3.97-1.35h-6.71v2.9h6.8c.33,0,.6.02.84.05.99.16,1.62,1.04,1.87,2.62.08.54.12,1.72.12,3.57,0,3.24-.35,5.16-1.05,5.75-.39.34-.99.51-1.78.51h-6.8v2.9h6.57c2.42,0,4.11-.97,5.05-2.9.69-1.4,1.03-3.48,1.03-6.26,0-3.88-.66-6.48-1.98-7.8M196.97,88.92c-.13-.16-.32-.24-.58-.24h-8.53v2.9h5.91l-1.17,9.9c-.22,1.92-1.48,2.89-3.79,2.89h-.3c-2.29,0-3.54-.96-3.78-2.89l-1.47-12.8h-3.16l1.52,12.4c.51,4.13,2.83,6.19,6.96,6.19h.14c4.14,0,6.46-2.06,6.98-6.19l1.35-10.93c.08-.65.06-1.06-.07-1.22M210.98,88.68h-2.94v24.76h2.94v-24.76ZM218.11,88.68h-2.94v18.31h2.94v-18.31ZM232.1,90.02c-.9-.9-2.22-1.35-3.97-1.35h-6.71v2.9h6.8c.33,0,.61.02.84.05.99.16,1.61,1.04,1.87,2.62.08.54.12,1.72.12,3.57,0,3.24-.35,5.16-1.05,5.75-.4.34-.99.51-1.79.51h-6.8v2.9h6.57c2.43,0,4.11-.97,5.05-2.9.69-1.4,1.03-3.48,1.03-6.26,0-3.88-.66-6.48-1.98-7.8M253.97,95.02c0-4.33-2.02-6.49-6.05-6.49h-.35c-1.64,0-2.99.53-4.02,1.57-.66.66-1.23,1.7-1.71,3.09l-.32.93-2.41-5.45h-3.11l3.65,8.67-3.01,9.64h3.09l3.74-11.96c.39-1.22.83-2.1,1.35-2.64.65-.69,1.56-1.03,2.71-1.03h.25c.98,0,1.77.3,2.36.91.59.61.89,1.6.89,2.97v8.88h-5.91v2.87h8.85v-11.96Z"/></svg>