<?xml version="1.0" encoding="UTF-8"?>
<svg xmlns="http://www.w3.org/2000/svg" version="1.1" viewBox="0 0 183.4 183.4">
  <defs>
    <style>
      .cls-1 {
        fill: #f3f3f4;
      }

      .cls-2 {
        fill: #fff;
      }

      .cls-3 {
        fill: #ed1c24;
      }

      .cls-4 {
        fill: none;
      }

      .cls-5 {
        fill: #98989a;
      }

      .cls-6 {
        fill: #0066b3;
      }
    </style>
  </defs>
  <!-- Generator: Adobe Illustrator 28.7.4, SVG Export Plug-In . SVG Version: 1.2.0 Build 166)  -->
  <g>
    <g id="Layer_2">
      <circle class="cls-1" cx="91.7" cy="91.7" r="91.7"/>
      <g>
        <path class="cls-5" d="M92.6,77.4c2.2,0,4.3.2,6.3.6l4.8-5c-3.4-1.2-7.1-1.8-11.1-1.8-6.8,0-12.9,1.9-17.5,5l4.2,4c3.9-1.7,8.4-2.7,13.3-2.7Z"/>
        <path class="cls-2" d="M92.6,71.1c4,0,7.8.7,11.1,1.8l5.2-5.4c-4.9-1.9-10.4-3-16.4-3-8.8,0-16.9,2.4-23,6.4l5.5,5.2c4.6-3.1,10.7-5,17.5-5Z"/>
        <path class="cls-5" d="M67.5,92.4c.4-1.8,1.3-3.5,2.4-5.1l-2.1-2.1c-.4,1.3-.6,2.7-.6,4.1s.1,2.1.4,3.1Z"/>
        <path class="cls-5" d="M52,104.2l-.9,4.6,8.8-3.8c-.6-1.2-.7-2.7-1-3.9l-6.9,3.1Z"/>
        <polygon class="cls-5" points="45.8 54.3 33 124.1 39.1 124.5 51.7 53.8 45.8 54.3"/>
        <path class="cls-3" d="M88.6,94.5v-5.6l-9.2-8.8-4.2-4-5.5-5.2-18-17.1-12.6,70.7,26.7-11.7c-2.7-2.3-4.5-4.8-5.9-7.8l-8.7,3.7.9-4.6,5.6-29.3.5-2.5,4.6,4.7,6,6,2.6,2.6,10.6,9.1-10.2,4.7c2.7,2.7,5.8,5,10.1,6.3l12.8-5.7-5.8-5.6Z"/>
        <path class="cls-4" d="M120.5,74.8c4.3,4.3,6.9,9.6,6.9,15.4s0,2.1-.3,3.1c.2,1,.3,2.1.3,3.1,0,4.4-1.5,8.6-4.2,12.2l17.4-18.1-18.4-17.6-1.8,1.8Z"/>
        <path class="cls-4" d="M112,83.7l-7.2,7.5,8.8,8.4c2.1-2.1,3.5-4.6,4.2-7.2-.8-3.3-2.8-6.2-5.7-8.7Z"/>
        <path class="cls-5" d="M117.7,92.4c.2-1,.4-2.1.4-3.1,0-3.1-1.2-6.1-3.1-8.7l-3,3.1c2.9,2.4,5,5.4,5.8,8.7Z"/>
        <path class="cls-5" d="M123.4,122.2l-7.2-6.9c-1.2.8-2.4,1.5-3.7,2.2l10.9,10.4,33.5-34.9v-5.6s-33.5,34.8-33.5,34.8Z"/>
        <path class="cls-5" d="M99,98.8l-5.9-5.7-4.5-4.3v5.7s6.4,6.1,6.4,6.1l6.1,5.9c1.5-.4,3-.9,4.4-1.5l-6.4-6.2Z"/>
        <polygon class="cls-5" points="122.3 67.3 117.6 72.2 112.3 77.7 108.7 81.5 101.9 88.5 104.8 91.3 112 83.7 115 80.6 120.5 74.8 122.3 73 140.7 90.6 143.6 87.7 122.3 67.3"/>
        <path class="cls-2" d="M120.5,74.8l-5.5,5.8c2,2.6,3.1,5.5,3.1,8.7s-.1,2.1-.4,3.1c-.6,2.6-2.1,5.1-4.2,7.2-2.1,2.2-4.9,4-8.1,5.3-1.4.6-2.9,1.1-4.4,1.5-2.6.7-5.5,1-8.4,1s-7.1-.5-10.2-1.5c-4.3-1.3-7.9-3.4-10.6-6.1-1-1-1.8-2-2.5-3.1-.9-1.4-1.5-2.8-1.9-4.3-.2-1-.4-2.1-.4-3.1s.2-2.8.6-4.1l-6.4-6.4c-2.3,3.5-3.6,7.3-3.6,11.5s0,2.1.3,3.1c.4,2.5,1.3,4.9,2.6,7.1.7,1.1,1.4,2.2,2.3,3.2,2.2,2.7,5.1,5.1,8.5,7,5.9,3.3,13.2,5.3,21.2,5.3s10.9-1,15.5-2.7c1.4-.5,2.8-1.1,4.1-1.8,3-1.5,5.7-3.4,7.9-5.5,3.7-3.6,6.2-7.9,7-12.6.2-1,.3-2.1.3-3.1,0-5.8-2.6-11.1-6.9-15.4Z"/>
        <path class="cls-6" d="M99,98.9l6.4,6.1c3.2-1.3,6-3.1,8.1-5.3l-8.8-8.4-2.8-2.7,6.8-7,3.6-3.7,5.3-5.5,4.8-5,21.2,20.4-2.8,3-17.4,18.1c-1.8,2.5-4.2,4.7-7,6.7l7.1,6.9,33.5-34.9-34.9-33.5-13.1,13.6-5.2,5.4-4.8,5-10.3,10.8,10.4,10.1Z"/>
        <path class="cls-6" d="M93.1,93.2"/>
        <path class="cls-5" d="M69.5,96.9s.2.3.2.3c.5.8,1.2,1.6,1.9,2.3l10.4-4.8-23.9-22.3-.7,3.4,18.8,18.6-6.7,2.5Z"/>
        <path class="cls-5" d="M127.5,90.2c0,1.1,0,2.1-.3,3.1-.8,4.7-3.3,9-7,12.6-2.2,2.1-4.9,4-7.9,5.5-1.3.7-2.7,1.3-4.1,1.8-4.7,1.7-10,2.7-15.5,2.7-8,0-15.3-2-21.2-5.3-3.4-1.9-6.3-4.3-8.5-7-.9-1-1.6-2.1-2.3-3.2-1.3-2.2-2.2-4.6-2.6-7.1-.2-1-.3-2.1-.3-3.1s0-.7,0-1c0,0,0,0,0,0-.2,1,0,6.3,0,7.3,0,1.7.2,3.3.6,4.9.3,1.2.8,2.4,1.3,3.6,1.4,2.9,3.5,5.7,6.2,8,6.4,5.6,16,9.2,26.7,9.2s14.3-1.7,20-4.7c1.3-.7,2.5-1.4,3.7-2.2,2.8-1.9,5.2-4.2,7-6.7,2.7-3.6,4.2-7.8,4.2-12.2s0-5.4,0-7.1c0-.2,0,.5,0,.8Z"/>
      </g>
      <g>
        <path class="cls-5" d="M127.3,126h-.7v-.2h1.6v.2h-.7v1.9h-.3v-1.9Z"/>
        <path class="cls-5" d="M130.3,126.9c0-.3,0-.7,0-.9h0c0,.3-.2.5-.3.8l-.4,1.1h-.2l-.4-1c-.1-.3-.2-.6-.3-.8h0c0,.3,0,.6,0,1v.9h-.3l.2-2.2h.4l.4,1.1c0,.3.2.5.2.7h0c0-.2.1-.5.2-.7l.4-1.1h.4v2.2c.1,0-.1,0-.1,0v-1Z"/>
      </g>
    </g>
  </g>
</svg>