<?xml version="1.0" encoding="UTF-8"?>
<svg id="Layer_1" data-name="Layer 1" xmlns="http://www.w3.org/2000/svg" viewBox="0 0 1152.47 178.85">
  <defs>
    <style>
      .cls-1 {
        fill: #fff;
      }

      .cls-2 {
        fill: #231f20;
      }

      .cls-3 {
        fill: #0065b3;
      }

      .cls-4 {
        fill: #ed1c24;
      }

      .cls-5 {
        fill: #99999a;
      }
    </style>
  </defs>
  <g>
    <polygon class="cls-2" points="306.42 65.19 319.08 65.19 319.08 102.87 341.73 102.87 341.73 113.76 306.42 113.76 306.42 65.19"/>
    <polygon class="cls-2" points="343.91 65.19 382.62 65.19 382.62 75.32 356.56 75.32 356.56 83.82 380.37 83.82 380.37 93.62 356.56 93.62 356.56 102.87 383.3 102.87 383.3 113.76 343.91 113.76 343.91 65.19"/>
    <path class="cls-2" d="M431.26,113.76h-8.16l-.75-5.31c-3.34,4.69-9.05,6.33-13.54,6.33-14.7,0-24.22-11.22-24.22-25.3s9.52-25.31,24.22-25.31c10.07,0,20.81,5.37,21.97,17.55h-12.65c-.41-4.14-4.49-6.67-9.59-6.67-8.16,0-11.29,7.21-11.29,14.43s3.13,14.42,11.29,14.42c6.26,0,10.48-2.92,11.16-7.34h-8.84v-9.39h20.41v26.6Z"/>
    <path class="cls-2" d="M457.38,64.16c15.31,0,23.95,11.23,23.95,25.31s-8.64,25.3-23.95,25.3-23.95-11.22-23.95-25.3,8.64-25.31,23.95-25.31M457.38,103.89c8.16,0,11.29-7.2,11.29-14.42s-3.13-14.43-11.29-14.43-11.29,7.21-11.29,14.43,3.13,14.42,11.29,14.42"/>
    <polygon class="cls-2" points="307.78 127.39 320.43 127.39 320.43 165.07 343.09 165.07 343.09 175.96 307.78 175.96 307.78 127.39"/>
    <polygon class="cls-2" points="345.27 127.39 383.98 127.39 383.98 137.52 357.92 137.52 357.92 146.02 381.73 146.02 381.73 155.82 357.92 155.82 357.92 165.07 384.66 165.07 384.66 175.96 345.27 175.96 345.27 127.39"/>
    <path class="cls-2" d="M400.98,127.39h12.85l18.17,48.57h-13.2l-2.99-8.71h-16.94l-3.06,8.71h-13l18.17-48.57ZM401.8,157.86h11.02l-5.37-17.01h-.14l-5.51,17.01Z"/>
    <path class="cls-2" d="M476.43,175.96h-8.16l-.75-5.31c-3.33,4.69-9.05,6.33-13.53,6.33-14.7,0-24.22-11.22-24.22-25.3s9.53-25.31,24.22-25.31c10.07,0,20.81,5.37,21.97,17.55h-12.65c-.41-4.14-4.49-6.67-9.59-6.67-8.16,0-11.29,7.21-11.29,14.43s3.13,14.42,11.29,14.42c6.26,0,10.48-2.92,11.16-7.34h-8.85v-9.39h20.41v26.6Z"/>
    <path class="cls-2" d="M522.42,155.89c0,14.08-6.46,21.09-21.16,21.09s-21.16-7.01-21.16-21.09v-28.5h12.65v29.25c0,6.26,2.31,9.45,8.5,9.45s8.51-3.19,8.51-9.45v-29.25h12.65v28.5Z"/>
    <polygon class="cls-2" points="526.77 127.39 565.48 127.39 565.48 137.52 539.43 137.52 539.43 146.02 563.24 146.02 563.24 155.82 539.43 155.82 539.43 165.07 566.16 165.07 566.16 175.96 526.77 175.96 526.77 127.39"/>
    <path class="cls-5" d="M138.92,56.81c5.08,0,10.02.46,14.73,1.32l11.21-11.68c-7.84-2.71-16.64-4.24-25.94-4.24-15.82,0-30.18,4.41-40.82,11.59l9.77,9.26c9.04-3.96,19.66-6.25,31.06-6.25"/>
    <path class="cls-1" d="M138.92,42.21c9.3,0,18.1,1.52,25.94,4.24l12.19-12.69c-11.38-4.48-24.35-7.03-38.13-7.03-20.55,0-39.3,5.65-53.61,14.96l12.78,12.11c10.65-7.18,25.01-11.59,40.82-11.59"/>
    <path class="cls-5" d="M80.4,91.86c1.03-4.19,2.92-8.16,5.53-11.83l-4.91-4.96c-.97,3.05-1.51,6.23-1.51,9.5,0,2.49.31,4.92.9,7.29"/>
    <path class="cls-5" d="M44.12,119.32l-2.06,10.68,20.51-8.83c-1.3-2.72-1.55-6.27-2.3-9.15l-16.15,7.3Z"/>
    <polygon class="cls-5" points="29.68 3.1 0 165.65 14.04 166.79 43.43 1.88 29.68 3.1"/>
    <path class="cls-4" d="M129.5,96.63v-13.14l-21.56-20.44-9.77-9.26-12.78-12.11L43.38,1.87,13.98,166.79l62.21-27.35c-6.2-5.47-10.59-11.31-13.85-18.18l-20.25,8.69,2.03-10.63,13.13-68.4,1.09-5.74,10.84,10.91,13.94,14.04,5.98,6.03,24.61,21.2-23.89,10.95c6.2,6.2,13.55,11.66,23.46,14.74l29.81-13.38-13.59-13.03Z"/>
    <path class="cls-5" d="M197.44,91.86c.58-2.37.9-4.8.9-7.29,0-7.35-2.69-14.27-7.31-20.29l-7.07,7.33c6.79,5.66,11.62,12.62,13.48,20.26"/>
    <path class="cls-5" d="M210.74,161.43l-16.77-16.11c-2.68,1.83-5.55,3.53-8.55,5.09l25.32,24.31,78.08-81.32-.09-13.17-77.99,81.2Z"/>
    <path class="cls-5" d="M153.85,106.81l-13.81-13.26-10.57-10.09-.04,13.18,14.86,14.28,14.2,13.64c3.61-.9,7.06-2.04,10.31-3.38l-14.95-14.36Z"/>
    <polygon class="cls-5" points="208.13 33.27 197.02 44.84 184.76 57.62 176.4 66.32 160.56 82.81 167.2 89.18 184.05 71.63 191.1 64.29 204.01 50.85 208.13 46.55 251.07 87.71 257.71 80.81 208.13 33.27"/>
    <path class="cls-1" d="M204.01,50.85l-12.91,13.44c4.62,6.02,7.24,12.92,7.24,20.27,0,2.49-.32,4.93-.9,7.29-1.5,6.18-4.89,11.9-9.72,16.86-4.94,5.07-11.4,9.33-18.92,12.46-3.25,1.35-6.7,2.49-10.31,3.38-6.12,1.52-12.71,2.36-19.57,2.36-8.45,0-16.48-1.26-23.75-3.53-9.91-3.08-18.41-8.04-24.62-14.24-2.27-2.26-4.22-4.69-5.84-7.25-1.99-3.16-3.46-6.52-4.32-10.04-.59-2.36-.9-4.8-.9-7.29,0-3.27.54-6.45,1.51-9.5l-14.83-15.01c-5.43,8.05-8.49,17.12-8.49,26.73,0,2.47.23,4.91.62,7.3.95,5.81,3.03,11.35,6.07,16.53,1.52,2.6,3.28,5.1,5.27,7.5,5.22,6.29,11.94,11.82,19.82,16.3,13.69,7.79,30.83,12.44,49.45,12.44,13.02,0,25.32-2.27,36.23-6.3,3.31-1.22,6.49-2.61,9.52-4.14,7.03-3.56,13.27-7.9,18.48-12.88,8.74-8.34,14.57-18.43,16.38-29.44.39-2.39.61-4.82.61-7.3,0-13.48-6-25.92-16.13-35.93"/>
    <path class="cls-3" d="M153.78,106.91l14.9,14.31c7.5-3.13,14.01-7.35,18.96-12.41l-20.43-19.62-6.64-6.37,15.75-16.41,8.35-8.7,12.27-12.78,11.12-11.57,49.45,47.48-6.64,6.91-40.52,42.19c-4.27,5.85-9.8,11.04-16.35,15.51l16.65,16.06,78.08-81.32L207.43,2.14l-30.45,31.72-12.19,12.7-11.22,11.68-24.11,25.23,24.31,23.45Z"/>
    <path class="cls-5" d="M85.05,102.29s.39.64.44.72c1.19,1.89,2.83,3.63,4.38,5.36l24.29-11.23-55.82-51.99-1.52,8.04,43.79,43.36-15.56,5.73Z"/>
    <path class="cls-5" d="M220.14,86.78c0,2.47-.22,4.91-.61,7.3-1.81,11.01-7.65,21.1-16.38,29.44-5.21,4.97-11.45,9.32-18.48,12.88-3.04,1.53-6.21,2.92-9.52,4.14-10.91,4.03-23.2,6.3-36.23,6.3-18.62,0-35.76-4.65-49.44-12.43-7.88-4.48-14.61-10-19.82-16.3-1.99-2.4-3.75-4.9-5.27-7.5-3.03-5.17-5.12-10.72-6.07-16.53-.39-2.39-.62-4.82-.62-7.3,0-.78.06-1.55.1-2.31,0-.04-.02-.1-.03-.14-.4,2.39-.07,14.57-.07,17.05,0,3.91.52,7.74,1.49,11.44.75,2.9,1.79,5.71,3.08,8.43,3.26,6.87,8.15,13.18,14.35,18.65,14.91,13.15,37.28,21.52,62.3,21.52,17.36,0,33.43-4.04,46.64-10.9,3-1.56,5.85-3.26,8.53-5.09,6.55-4.49,12.09-9.74,16.35-15.59,6.19-8.47,9.7-18.16,9.7-28.47,0-2.17.19-12.48-.02-16.57-.04-.56.02,1.26.02,1.97"/>
    <path class="cls-2" d="M484.34,67.49c2.39,0,4.33,1.93,4.33,4.33s-1.93,4.34-4.33,4.34-4.34-1.89-4.34-4.34,1.92-4.33,4.34-4.33M484.34,75.62c2.11,0,3.79-1.69,3.79-3.78s-1.68-3.81-3.79-3.81-3.8,1.69-3.8,3.79,1.68,3.8,3.8,3.8M482.66,69.6c.22-.01.25-.02.68-.06.44-.04.63-.06.81-.06,1.43,0,2.13.56,2.13,1.61,0,.64-.27,1.02-.83,1.24l-.07.02s.07.05.09.08c.15.13.65.88,1.07,1.57h-1.63c-.33-.62-.43-.79-.85-1.48v1.48h-1.39v-4.41ZM484.22,71.68c.38,0,.6-.18.6-.53s-.19-.53-.59-.53c-.08,0-.1,0-.18.02v1.03c.06.02.1.02.17.02"/>
    <polygon class="cls-2" points="318.13 .97 352.52 .97 349.28 14.22 332.8 14.22 331.17 21.18 348.37 21.18 345.37 33.45 328.4 33.45 324.32 50.88 306.55 50.88 318.13 .97"/>
    <polygon class="cls-2" points="357.2 .97 374.97 .97 363.39 50.88 345.62 50.88 357.2 .97"/>
    <path class="cls-2" d="M379.62,1.27l1.14-.15C386.46.45,393.55,0,397.46,0c6.52,0,11.57.75,15.4,2.32,4.89,2.02,7.83,6.43,7.83,11.75,0,4.57-1.55,8.91-4.49,12.27-2.53,2.92-4.81,4.34-9.53,5.76l-1.14.37c.49.38.65.53.9.75,1.39,1.57,5.54,9.65,9.05,17.66h-19.56c-2.52-7.11-3.26-8.98-6.6-17.06l-3.91,17.06h-17.28l11.49-49.61ZM392.74,24.77c5.7,0,9.7-3.37,9.7-8.16,0-2.55-1.87-3.82-5.54-3.82-1.06,0-1.63.07-2.77.3l-2.69,11.52c.57.07.65.15,1.3.15"/>
    <polygon class="cls-2" points="462.87 .97 505.98 .97 502.97 15.42 490.18 15.42 481.7 50.88 463.93 50.88 472.41 15.42 458.54 15.42 462.87 .97"/>
    <path class="cls-2" d="M490.01,41.97c2.39,0,4.34,1.93,4.34,4.32s-1.93,4.34-4.34,4.34-4.33-1.89-4.33-4.34,1.91-4.32,4.33-4.32M490.01,50.09c2.11,0,3.8-1.69,3.8-3.79s-1.69-3.8-3.8-3.8-3.79,1.69-3.79,3.79,1.67,3.8,3.79,3.8M488.34,44.08c.22-.02.26-.03.69-.07.44-.03.62-.05.81-.05,1.42,0,2.13.55,2.13,1.61,0,.64-.27,1.02-.83,1.24l-.07.02s.07.05.08.08c.15.13.65.89,1.07,1.58h-1.63c-.33-.62-.44-.79-.86-1.49v1.49h-1.39v-4.41ZM489.9,46.15c.38,0,.6-.18.6-.54,0-.33-.2-.52-.59-.52-.08,0-.1,0-.18.02v1.03c.07.02.1.02.17.02"/>
    <path class="cls-2" d="M417.23,49.61c4.99,1.49,10.46,2.32,15.56,2.32,6.93,0,12.23-1.57,16.79-4.86,5.05-3.59,8.32-9.13,8.32-14.14,0-3.37-1.47-6.43-4.07-8.61-2.04-1.64-4.16-2.92-8.48-4.94l-3.51-1.65c-1.14-.6-1.71-1.19-1.71-1.87,0-1.8,2.28-3.14,5.38-3.14,2.32,0,5.08.68,10.36,2.4l3.64-13.51c-3.95-1.07-7.79-1.61-11.63-1.61-14.51,0-25.67,7.93-25.67,18.19,0,5.39,3.59,9.2,12.55,13.39,4.24,1.94,4.97,2.47,4.97,3.81,0,2.02-2.2,3.29-5.79,3.29-3.18,0-7.26-.97-12.8-2.99h0l-3.9,13.92Z"/>
  </g>
  <path class="cls-4" d="M617.05,64.04h517.63c9.82,0,17.79,7.97,17.79,17.79v79.23c0,9.82-7.97,17.79-17.79,17.79h-517.63c-9.82,0-17.79-7.97-17.79-17.79v-79.23c0-9.82,7.97-17.79,17.79-17.79Z"/>
  <g>
    <path class="cls-1" d="M671.05,133.71c.91-.91,1.95-1.44,3.12-1.58,1.17-.14,2.23.01,3.2.47.97.46,1.72,1.18,2.26,2.18.54,1,.67,2.18.38,3.54-.34,1.37-1,2.63-1.96,3.8-.97,1.17-1.94,2.23-2.9,3.2-2.22,2.34-4.68,4.06-7.39,5.17-2.7,1.11-5.44,1.64-8.2,1.58-2.76-.06-5.47-.71-8.11-1.96-2.65-1.25-5.03-3.13-7.13-5.64-1.25-1.48-2.31-3.05-3.16-4.7-.85-1.65-1.51-3.39-1.96-5.21-.68-2.68-1-5.47-.94-8.37.06-2.9.51-5.72,1.37-8.46.85-2.73,2.06-5.31,3.63-7.73,1.57-2.42,3.49-4.48,5.77-6.19,1.65-1.25,3.32-2.34,5-3.25s3.46-1.77,5.34-2.56c1.08-.46,2.19-.9,3.33-1.32,1.14-.43,2.31-.75,3.5-.98,1.2-.23,2.39-.31,3.59-.26,1.19.06,2.36.31,3.5.77.8.34,1.59.81,2.39,1.41.8.6,1.54,1.28,2.22,2.05.68.77,1.28,1.58,1.79,2.43.51.86.88,1.68,1.11,2.48.17.74.21,1.5.13,2.26-.08.77-.31,1.47-.68,2.09-.37.63-.87,1.15-1.49,1.58-.63.43-1.34.7-2.14.81-1.31.17-2.32.03-3.03-.43-.71-.46-1.28-1.02-1.71-1.71-.43-.68-.84-1.35-1.24-2.01-.4-.65-.97-1.12-1.71-1.41-.46,0-.8.03-1.03.08-1.94.51-3.89,1.21-5.85,2.09-1.96.89-3.79,1.95-5.47,3.2-1.68,1.25-3.15,2.71-4.4,4.36-1.25,1.65-2.16,3.5-2.73,5.55-.68,2.45-.94,4.93-.77,7.43.17,2.51.85,4.87,2.05,7.09.68,1.31,1.59,2.45,2.73,3.42,1.14.97,2.39,1.69,3.76,2.18,1.37.48,2.76.65,4.19.51,1.42-.14,2.79-.64,4.1-1.5,1.14-.8,2.16-1.78,3.07-2.95.91-1.17,1.74-2.35,2.48-3.54Z"/>
    <path class="cls-1" d="M734.38,119.61c1.37.4,2.39,1.13,3.07,2.18.68,1.05,1.01,2.15.98,3.29-.03,1.14-.38,2.21-1.07,3.2-.68,1-1.68,1.64-2.99,1.92v14.86c0,1.42-.36,2.69-1.07,3.8-.71,1.11-1.58,1.89-2.6,2.35s-2.11.56-3.25.3c-1.14-.26-2.17-1.01-3.08-2.26-.4-.57-.67-1.22-.81-1.96-.14-.74-.21-1.42-.21-2.05v-14.78h-19.9v14.52c0,.63-.06,1.27-.17,1.92-.12.66-.31,1.24-.6,1.75-.74,1.37-1.68,2.25-2.82,2.65-1.14.4-2.25.38-3.33-.04-1.08-.43-2.01-1.17-2.78-2.22-.77-1.05-1.15-2.35-1.15-3.89v-44.16c0-1.48.44-2.76,1.32-3.84.88-1.08,1.89-1.84,3.03-2.26,1.14-.43,2.29-.46,3.46-.08,1.17.37,2.04,1.27,2.61,2.69.17.46.28.87.34,1.24.06.37.09.78.09,1.24v19.3h19.9v-18.28c0-1.14.26-2.22.77-3.25.63-1.25,1.52-2.13,2.69-2.65,1.17-.51,2.31-.65,3.42-.43,1.11.23,2.08.78,2.9,1.66.82.88,1.24,2.09,1.24,3.63v19.65Z"/>
    <path class="cls-1" d="M795.49,146.26c-.17,1.25-.6,2.32-1.28,3.2-.68.88-1.47,1.5-2.35,1.84-.88.34-1.82.38-2.82.13-1-.26-1.92-.93-2.78-2.01-.74-.91-1.15-1.92-1.24-3.03-.09-1.11-.24-2.21-.47-3.29-.57-3.13-1.4-6.35-2.48-9.65-3.53.06-7.03.08-10.51.08s-6.95.03-10.42.08c-.51,1.48-.95,2.99-1.32,4.53-.37,1.54-.73,3.05-1.07,4.53-.29,1.14-.54,2.32-.77,3.54-.23,1.23-.74,2.29-1.54,3.2-.97,1.14-2.01,1.78-3.12,1.92-1.11.14-2.11-.04-2.99-.56-.88-.51-1.6-1.29-2.14-2.35-.54-1.05-.73-2.26-.55-3.63.17-1.76.51-3.5,1.02-5.21.51-1.71,1-3.42,1.45-5.13,2.56-9.79,5.86-19.28,9.91-28.44.34-.8.7-1.56,1.07-2.31.37-.74.73-1.48,1.07-2.22.4-.8.8-1.65,1.2-2.56.4-.91.87-1.75,1.41-2.52.54-.77,1.18-1.42,1.92-1.96.74-.54,1.65-.81,2.73-.81,1.42,0,2.62.46,3.59,1.37,3.87,3.87,7.06,8.24,9.57,13.11,2.51,4.87,4.75,9.84,6.75,14.9,1.2-.05,2.36-.05,3.5,0,1.14.06,2.16.57,3.07,1.54.8.8,1.27,1.65,1.41,2.56.14.91.06,1.79-.26,2.65-.31.85-.83,1.59-1.54,2.22-.71.63-1.58,1.05-2.61,1.28.57,1.99,1.07,4.03,1.5,6.11.43,2.08.78,4.17,1.07,6.28v.6ZM778.06,123.03c-1.08-2.56-2.23-5.11-3.46-7.64-1.22-2.53-2.6-4.94-4.14-7.22-1.14,2.51-2.21,5-3.2,7.47-1,2.48-1.92,5-2.78,7.56,2.68-.05,5.02-.08,7.05-.08s4.2-.03,6.53-.09Z"/>
    <path class="cls-1" d="M841.05,140.46c1.31.63,2.31,1.42,2.99,2.39.68.97,1.01,1.95.98,2.95-.03.99-.4,1.93-1.11,2.82-.71.88-1.81,1.55-3.29,2.01-.57.17-1.37.27-2.39.3-1.03.03-2.45.04-4.27.04h-6.92c-2.79,0-6.24.03-10.34.08-1.02.06-2.08.09-3.16.09s-2.02-.37-2.82-1.11c-.68-.57-1.18-1.44-1.49-2.6-.31-1.17-.51-2.39-.6-3.67-.09-1.28-.12-2.56-.09-3.84.03-1.28.04-2.35.04-3.2,0-1.71.01-3.67.04-5.89.03-2.22.06-4.48.08-6.79.03-2.31.04-4.57.04-6.79v-5.89c0-3.02.03-5.45.08-7.3.06-1.85.18-3.3.39-4.35.2-1.05.52-1.82.98-2.31.46-.48,1.08-.9,1.88-1.24.68-.29,1.44-.38,2.26-.3s1.59.31,2.31.68c.71.37,1.31.88,1.79,1.54.48.66.73,1.38.73,2.18.11,6.83.11,13.61,0,20.33-.12,6.72-.17,13.44-.17,20.16,3.59,0,7.16-.04,10.72-.13,3.56-.08,7.16-.18,10.81-.3l.51.17Z"/>
    <path class="cls-1" d="M889.78,140.46c1.31.63,2.31,1.42,2.99,2.39.68.97,1.01,1.95.98,2.95-.03.99-.4,1.93-1.11,2.82-.71.88-1.81,1.55-3.29,2.01-.57.17-1.37.27-2.39.3-1.03.03-2.45.04-4.27.04h-6.92c-2.79,0-6.24.03-10.34.08-1.02.06-2.08.09-3.16.09s-2.02-.37-2.82-1.11c-.68-.57-1.18-1.44-1.49-2.6-.31-1.17-.51-2.39-.6-3.67-.09-1.28-.12-2.56-.09-3.84.03-1.28.04-2.35.04-3.2,0-1.71.01-3.67.04-5.89.03-2.22.06-4.48.08-6.79.03-2.31.04-4.57.04-6.79v-5.89c0-3.02.03-5.45.08-7.3.06-1.85.18-3.3.39-4.35.2-1.05.52-1.82.98-2.31.46-.48,1.08-.9,1.88-1.24.68-.29,1.44-.38,2.26-.3s1.59.31,2.31.68c.71.37,1.31.88,1.79,1.54.48.66.73,1.38.73,2.18.11,6.83.11,13.61,0,20.33-.12,6.72-.17,13.44-.17,20.16,3.59,0,7.16-.04,10.72-.13,3.56-.08,7.16-.18,10.81-.3l.51.17Z"/>
    <path class="cls-1" d="M937.31,138.15c1.02.06,1.92.33,2.69.81s1.39,1.07,1.88,1.75c.48.68.77,1.47.85,2.35.09.89-.1,1.78-.55,2.69-.17.4-.53.87-1.07,1.41-.54.54-1.04.87-1.49.98-3.65,1.08-7.39,1.75-11.23,2.01-3.84.26-7.64.19-11.4-.21-1.08-.11-2.26-.23-3.54-.34-1.28-.11-2.41-.48-3.37-1.11-1.77-1.14-2.65-2.76-2.65-4.87v-36.39c-.63-.46-1.14-1.02-1.54-1.71-.4-.68-.64-1.41-.73-2.18-.09-.77.01-1.51.3-2.22.28-.71.77-1.32,1.45-1.84,1.14-.91,2.45-1.52,3.93-1.84,1.48-.31,2.93-.58,4.36-.81,2.96-.46,5.92-.68,8.88-.68s5.98-.03,9.05-.08c.91,0,1.96-.07,3.16-.21,1.19-.14,2.25-.04,3.16.3,1.08.4,1.94,1.02,2.56,1.88.63.85,1,1.77,1.11,2.73.11.97-.07,1.91-.55,2.82-.48.91-1.32,1.62-2.52,2.14-1.42.57-2.95.83-4.57.77-1.62-.05-3.18-.08-4.66-.08-2.16,0-4.33.03-6.49.08-2.16.06-4.33.23-6.49.51v11.87c2.05.11,4.1.11,6.15,0,2.05-.11,4.1-.26,6.15-.43.91-.06,1.82-.14,2.73-.26.91-.11,1.85-.11,2.82,0,1.25.17,2.22.68,2.9,1.54.68.86,1.1,1.81,1.24,2.86.14,1.05-.04,2.09-.55,3.12-.51,1.03-1.34,1.77-2.48,2.22-.97.4-2.28.7-3.93.9-1.65.2-3.39.34-5.21.43-1.82.09-3.62.13-5.38.13s-3.25-.03-4.44-.08v10.51c3.13.4,6.29.46,9.48.17,3.19-.28,6.32-.82,9.4-1.62h.6Z"/>
    <path class="cls-1" d="M991.58,98.09c.34-1.14.9-2.08,1.67-2.82.77-.74,1.61-1.22,2.52-1.45.91-.23,1.84-.17,2.78.17.94.34,1.75,1.02,2.43,2.05.23.29.44.63.64,1.03.2.4.3.77.3,1.11.11,8.14.07,16.27-.13,24.39-.2,8.11-.53,16.24-.98,24.39,0,1.31-.41,2.33-1.24,3.07-.83.74-1.77,1.21-2.82,1.41-1.05.2-2.12.09-3.2-.34-1.08-.43-1.88-1.15-2.39-2.18-.06-.06-.09-.11-.09-.17v.17c-3.7-6.09-7.6-11.95-11.7-17.55-4.1-5.61-8.37-11.17-12.81-16.7v25.88c0,1.77-.03,3.2-.08,4.31-.06,1.11-.13,1.98-.21,2.6-.09.63-.21,1.17-.38,1.62-.51,1.37-1.3,2.28-2.35,2.74-1.06.46-2.12.57-3.2.34-1.08-.23-2.02-.8-2.82-1.71-.8-.91-1.19-2.05-1.19-3.42v-23.83c0-2.39-.01-4.63-.04-6.71-.03-2.08-.04-3.83-.04-5.25,0-1.93-.03-3.86-.09-5.77-.06-1.91-.06-3.83,0-5.77,0-.97.24-1.79.73-2.48.48-.68,1.1-1.21,1.84-1.58.74-.37,1.54-.58,2.39-.64.85-.05,1.68.06,2.48.34.68.23,1.38.7,2.09,1.41.71.71,1.41,1.48,2.09,2.31.68.83,1.32,1.65,1.92,2.48.6.83,1.1,1.5,1.49,2.01,1.48,1.82,3.19,3.92,5.12,6.28,1.94,2.36,3.73,4.6,5.38,6.71,1.65,2.16,3.26,4.33,4.83,6.49,1.57,2.17,3.09,4.33,4.57,6.49.17-5.18.28-10.34.34-15.46.06-5.13.08-10.28.08-15.46l.09-.51Z"/>
    <path class="cls-1" d="M1058.84,118.33c1.14.34,2.11.9,2.9,1.66.8.77,1.32,1.62,1.58,2.56.26.94.2,1.88-.17,2.82-.37.94-1.15,1.78-2.35,2.52-.11.17-.14.87-.09,2.09.06,1.23.1,2.63.13,4.23.03,1.59-.01,3.2-.13,4.83-.11,1.62-.37,2.89-.77,3.8-.4.74-.88,1.4-1.45,1.96-.57.57-1.17,1.11-1.79,1.62-2.11,1.77-4.36,3.12-6.75,4.06-2.39.94-4.84,1.49-7.35,1.66-2.51.17-5.03-.08-7.56-.77-2.53-.68-4.97-1.77-7.3-3.25-2.96-1.88-5.45-4.3-7.47-7.26-2.02-2.96-3.49-6.15-4.4-9.57-.57-2.16-.9-4.43-.98-6.79s.1-4.7.56-7.01c.46-2.31,1.19-4.51,2.22-6.62,1.02-2.11,2.31-4.01,3.84-5.72,1.82-1.99,3.91-3.64,6.28-4.96,2.36-1.31,4.8-2.45,7.3-3.41,1.93-.8,3.93-1.4,5.98-1.8,2.05-.4,4.13-.54,6.24-.43,1.59.11,3.32.38,5.17.81,1.85.43,3.43,1.18,4.74,2.26.63.51,1.15,1.14,1.58,1.88.43.74.68,1.49.77,2.26.09.77-.01,1.51-.3,2.22-.28.71-.8,1.35-1.54,1.92-.74.57-1.52.9-2.35.98-.83.09-1.67.03-2.52-.17s-1.71-.47-2.56-.81c-.85-.34-1.65-.63-2.39-.86-.63-.23-1.3-.33-2.01-.3-.71.03-1.41.1-2.09.21-1.99.57-4,1.27-6.02,2.09-2.02.83-3.89,1.84-5.6,3.03-1.71,1.2-3.18,2.62-4.4,4.27-1.22,1.65-2.01,3.65-2.35,5.98-.46,2.9-.31,5.79.43,8.67.74,2.88,2.11,5.4,4.1,7.56,1.31,1.42,2.83,2.58,4.57,3.46,1.74.89,3.54,1.41,5.42,1.58,1.88.17,3.73-.03,5.55-.6s3.45-1.57,4.87-2.99v-9.23c-1.14.06-2.32.16-3.54.3-1.22.14-2.45.23-3.67.26-1.22.03-2.42-.06-3.59-.26-1.17-.2-2.26-.58-3.29-1.15-.97-.57-1.64-1.32-2.01-2.26-.37-.94-.47-1.88-.3-2.82.17-.94.57-1.81,1.19-2.6.63-.8,1.48-1.34,2.56-1.62.51-.11,1.15-.19,1.92-.21.77-.03,1.54-.04,2.31-.04s1.46.01,2.09.04c.63.03,1.11.04,1.45.04,2.22,0,4.43-.03,6.62-.08s4.43-.09,6.71-.09Z"/>
    <path class="cls-1" d="M1107.65,138.15c1.02.06,1.92.33,2.69.81.77.48,1.39,1.07,1.88,1.75.48.68.77,1.47.85,2.35.09.89-.1,1.78-.55,2.69-.17.4-.53.87-1.07,1.41-.54.54-1.04.87-1.49.98-3.65,1.08-7.39,1.75-11.23,2.01-3.84.26-7.64.19-11.4-.21-1.08-.11-2.26-.23-3.54-.34-1.28-.11-2.41-.48-3.37-1.11-1.77-1.14-2.65-2.76-2.65-4.87v-36.39c-.63-.46-1.14-1.02-1.54-1.71-.4-.68-.64-1.41-.73-2.18-.09-.77.01-1.51.3-2.22.28-.71.77-1.32,1.45-1.84,1.14-.91,2.45-1.52,3.93-1.84,1.48-.31,2.93-.58,4.36-.81,2.96-.46,5.92-.68,8.88-.68s5.98-.03,9.05-.08c.91,0,1.96-.07,3.16-.21,1.19-.14,2.25-.04,3.16.3,1.08.4,1.94,1.02,2.56,1.88.63.85,1,1.77,1.11,2.73.11.97-.07,1.91-.55,2.82-.48.91-1.32,1.62-2.52,2.14-1.42.57-2.95.83-4.57.77-1.62-.05-3.18-.08-4.66-.08-2.16,0-4.33.03-6.49.08-2.16.06-4.33.23-6.49.51v11.87c2.05.11,4.1.11,6.15,0,2.05-.11,4.1-.26,6.15-.43.91-.06,1.82-.14,2.73-.26.91-.11,1.85-.11,2.82,0,1.25.17,2.22.68,2.9,1.54.68.86,1.1,1.81,1.24,2.86.14,1.05-.04,2.09-.55,3.12-.51,1.03-1.34,1.77-2.48,2.22-.97.4-2.28.7-3.93.9-1.65.2-3.39.34-5.21.43-1.82.09-3.62.13-5.38.13s-3.25-.03-4.44-.08v10.51c3.13.4,6.29.46,9.48.17,3.19-.28,6.32-.82,9.4-1.62h.6Z"/>
  </g>
</svg>