<?xml version="1.0" encoding="UTF-8"?><svg id="Layer_1" xmlns="http://www.w3.org/2000/svg" viewBox="0 0 980.98 491.97"><defs><style>.cls-1{fill:#ff0096;}.cls-1,.cls-2{stroke-width:0px;}.cls-2{fill:#101820;}</style></defs><path class="cls-2" d="m537.21,453.26c.78,0,1.5.65,1.5,1.49v28.28c0,.78-.72,1.43-1.5,1.43h-3.84c-.71,0-1.43-.59-1.43-1.37v-2.6c-1.95,2.86-5.27,4.81-10.14,4.81-8.13,0-13.13-5.4-13.13-13.39v-17.23c0-.78.71-1.43,1.49-1.43h3.84c.78,0,1.43.65,1.43,1.43v16.12c0,5.2,2.73,8.65,8.13,8.65s8.39-3.58,8.39-8.58v-16.19c0-.78.72-1.43,1.43-1.43h3.84m-56.57-15.67c-13.13,0-23.73,10.21-23.73,23.86s10.6,23.86,23.73,23.86c2.25,0,4.42-.3,6.47-.87l2.56,6.66c.26.72.78,1.17,1.75,1.17h4.1c.98,0,1.69-.65,1.24-1.89l-3.34-8.71c6.59-4.14,10.95-11.47,10.95-20.22,0-13.65-10.6-23.86-23.73-23.86m10.33,37.69l-2.98-7.78c-.26-.65-.78-1.23-1.95-1.23h-3.9c-.98,0-1.76.65-1.3,1.89l3.94,10.23c-1.31.32-2.69.5-4.14.5-9.62,0-16.45-7.54-16.45-17.42s6.83-17.43,16.45-17.43,16.45,7.54,16.45,17.43c0,5.74-2.31,10.68-6.12,13.83m263.39,7.63c.33.78-.06,1.56-1.04,1.56h-4.29c-.78,0-1.43-.39-1.69-1.17l-7.93-21.33-8.06,21.33c-.33.84-.91,1.17-1.69,1.17h-3.84c-.78,0-1.37-.33-1.69-1.17l-8.13-21.46-8,21.46c-.32.78-.91,1.17-1.69,1.17h-4.03c-.78,0-1.36-.39-1.69-1.17l-7.93-21.46-8.19,21.46c-.33.84-.91,1.17-1.69,1.17h-3.84c-.78,0-1.37-.33-1.69-1.17l-8-21.46-8,21.46c-.26.78-.91,1.17-1.69,1.17h-4.16c-.98,0-1.37-.78-1.04-1.56l10.86-28.41c.33-.84.91-1.24,1.69-1.24h4.68c.78,0,1.37.39,1.69,1.24l7.67,20.74,7.74-20.74c.33-.84.91-1.24,1.69-1.24h4.62c.78,0,1.37.39,1.69,1.24l7.67,20.74,7.67-20.74c.32-.84.91-1.24,1.69-1.24h4.62c.78,0,1.37.39,1.69,1.24l7.8,20.74,7.61-20.74c.33-.84.91-1.24,1.69-1.24h4.68c.78,0,1.37.39,1.69,1.24l10.86,28.41m-179.96-29.65h-3.84c-.78,0-1.5.65-1.5,1.49v2.6c-1.95-2.92-5.72-5.01-10.21-5.01-8.45,0-15.73,6.7-15.73,16.45s7.28,16.51,15.67,16.51c4.55,0,8.26-2.08,10.27-5.01v2.73c0,.78.72,1.43,1.5,1.43h3.84c.78,0,1.43-.65,1.43-1.43v-28.28c0-.84-.65-1.49-1.43-1.49m-14.82,25.81c-5.59,0-9.56-4.55-9.56-10.21s3.97-10.14,9.56-10.14,9.56,4.42,9.56,10.14-4.03,10.21-9.56,10.21m60.6.97c.85,1.04.13,1.82-.32,2.15-2.67,2.02-6.18,3.12-10.01,3.12-9.69,0-16.12-7.09-16.12-16.45s6.44-16.51,16.12-16.51c3.84,0,7.35,1.11,10.01,3.12.45.32,1.1,1.04.32,2.15l-1.82,2.53c-.71.98-1.56.72-2.27.26-1.69-1.04-3.71-1.89-6.05-1.89-5.66,0-9.43,4.55-9.43,10.34s3.77,10.27,9.43,10.27c2.34,0,4.22-.91,5.92-1.89.72-.39,1.49-.71,2.28.33l1.95,2.47Zm18.08-27.63c-9.1,0-16.38,7.15-16.38,16.45s7.28,16.45,16.38,16.45,16.38-7.09,16.38-16.45-7.28-16.45-16.38-16.45m0,26.59c-5.59,0-9.56-4.49-9.56-10.14s3.97-10.14,9.56-10.14,9.56,4.42,9.56,10.14-3.97,10.14-9.56,10.14m-50.39-40.57c.84,0,1.43.72,1.43,1.5v43.04c0,.78-.59,1.5-1.43,1.5h-3.84c-.78,0-1.49-.72-1.49-1.5v-43.04c0-.78.72-1.5,1.49-1.5h3.84"/><path class="cls-2" d="m224.53,471.37v4.31h-2.63v-13.7h5.53c1.99,0,3.45.43,4.38,1.27.94.85,1.4,1.99,1.4,3.42s-.46,2.62-1.39,3.46c-.93.85-2.35,1.26-4.26,1.24h-3.04Zm0-7.13v4.86h2.98c1.01,0,1.77-.2,2.28-.61.51-.41.76-1.02.76-1.83s-.26-1.41-.78-1.82c-.52-.4-1.3-.6-2.33-.6h-2.9Z"/><path class="cls-2" d="m241.67,470.81v4.86h-2.65v-13.7h5.72c1.96,0,3.37.37,4.24,1.11.86.74,1.3,1.75,1.3,3.06,0,.93-.21,1.68-.62,2.24-.42.56-1.03.97-1.84,1.22.76.23,1.31.61,1.66,1.15.35.54.53,1.31.53,2.33v1.83c0,.18.03.33.08.46.05.13.13.23.23.31h-2.8c-.1-.06-.18-.17-.22-.33-.04-.15-.07-.32-.07-.48v-1.76c0-.84-.2-1.42-.6-1.77-.4-.35-1.09-.52-2.07-.52h-2.88Zm0-6.57v4.29h2.96c.91,0,1.63-.17,2.14-.52.52-.35.78-.89.78-1.63v-.06c0-.7-.23-1.22-.69-1.57-.46-.34-1.18-.51-2.17-.51h-3.02Z"/><path class="cls-2" d="m266.84,475.67h-10.47v-13.7h10.14v2.29h-7.57v3.36h6.42v2.28h-6.42v3.4h7.9v2.36Z"/><path class="cls-2" d="m275.87,475.84c-.59-.09-1.11-.24-1.56-.43-.9-.38-1.56-.96-1.99-1.71-.43-.76-.68-1.69-.76-2.78h2.86c.06.95.38,1.64.94,2.09.56.44,1.41.66,2.54.66.98,0,1.71-.19,2.16-.56.45-.37.68-.84.68-1.39,0-.24-.04-.45-.12-.63-.08-.18-.2-.34-.37-.46-.32-.25-.77-.43-1.35-.56-.58-.13-1.25-.25-2.02-.35-.64-.11-1.25-.23-1.84-.38-.58-.16-1.1-.38-1.55-.67-.45-.28-.8-.66-1.06-1.13-.26-.48-.39-1.08-.39-1.83,0-.37.05-.72.14-1.06.1-.34.24-.65.43-.94.38-.62.96-1.1,1.74-1.47.77-.36,1.75-.54,2.93-.54,1.92,0,3.35.39,4.3,1.16.94.78,1.46,1.89,1.57,3.34h-2.79c-.09-.79-.38-1.37-.86-1.73-.48-.36-1.23-.54-2.26-.54-.92,0-1.57.17-1.95.51-.38.34-.57.75-.57,1.22,0,.22.03.41.11.58.07.16.18.3.34.42.28.23.69.41,1.22.54.53.13,1.16.25,1.89.37.69.11,1.34.24,1.96.39.61.16,1.16.39,1.63.68.46.28.83.66,1.1,1.14.27.48.4,1.09.4,1.83,0,.41-.05.8-.15,1.17-.1.37-.25.72-.46,1.04-.42.67-1.05,1.19-1.87,1.58-.83.38-1.85.58-3.08.58-.73,0-1.39-.05-1.98-.15Z"/><path class="cls-2" d="m299.64,475.67h-10.47v-13.7h10.14v2.29h-7.57v3.36h6.42v2.28h-6.42v3.4h7.9v2.36Z"/><path class="cls-2" d="m307.88,475.67h-2.53v-13.7h2.57l6.34,9.26.33.69-.06-.68v-9.28h2.52v13.7h-2.48l-6.44-9.38-.33-.67.08.62v9.43Z"/><path class="cls-2" d="m329.51,464.3v11.38h-2.71v-11.38h-4v-2.33h10.88v2.33h-4.17Z"/><path class="cls-2" d="m349.89,475.67h-10.47v-13.7h10.14v2.29h-7.57v3.36h6.42v2.28h-6.42v3.4h7.9v2.36Z"/><path class="cls-2" d="m355.6,461.97h5.13c.63,0,1.22.06,1.78.17.56.12,1.09.29,1.59.52.99.45,1.76,1.14,2.32,2.1.56.95.85,2.15.85,3.61v.94c0,.72-.07,1.38-.2,1.97-.14.59-.34,1.13-.61,1.6-.54.94-1.29,1.63-2.26,2.1-.97.46-2.09.69-3.35.69h-5.24v-13.7Zm2.63,2.29v9.09h2.48c1.22,0,2.16-.34,2.84-1.02.68-.69,1.02-1.75,1.02-3.2v-.59c0-1.46-.35-2.54-1.05-3.23-.7-.69-1.68-1.03-2.93-1.03h-2.36Z"/><path class="cls-2" d="m382.89,475.67v-13.7h5.72c1.9,0,3.28.3,4.16.89.88.6,1.32,1.49,1.32,2.66v.02c0,.82-.18,1.48-.53,1.98-.35.5-.87.87-1.57,1.11.78.22,1.37.57,1.78,1.06s.61,1.17.61,2.04v.02c0,1.3-.46,2.28-1.38,2.94-.92.66-2.31.98-4.17.98h-5.94Zm2.59-11.57v3.48h3.27c.87,0,1.54-.13,2.02-.39.47-.26.71-.72.71-1.38,0-.61-.22-1.06-.65-1.32-.43-.26-1.14-.39-2.12-.39h-3.23Zm0,5.61v3.69h3c1.19,0,2.02-.15,2.49-.46.47-.3.7-.77.7-1.4v-.02c0-.67-.25-1.13-.74-1.4-.49-.27-1.28-.4-2.37-.4h-3.08Z"/><path class="cls-2" d="m403.32,475.67v-5.48l-4.88-8.22h3l3.32,5.82,3.5-5.82h3l-5.17,8.27v5.44h-2.77Z"/><path class="cls-1" d="m960.08,375.18c-.7-.7-1.06-1.81-1.06-3.32v-5.07h3.87v4.82c0,.4.05.69.14.87.09.18.3.27.61.27.29,0,.49-.09.58-.27.09-.18.14-.47.14-.87v-3.75c0-.57-.18-1-.55-1.31s-.92-.69-1.65-1.15c-.9-.59-1.63-1.19-2.17-1.8s-.83-1.49-.85-2.65v-3.81c0-1.39.39-2.42,1.18-3.12s1.92-1.04,3.39-1.04,2.51.33,3.24.99c.74.66,1.1,1.6,1.1,2.82v4.63h-3.68v-4.06c0-.42-.05-.71-.14-.88-.1-.17-.29-.25-.58-.25-.25,0-.43.08-.54.25-.11.17-.16.46-.16.88v3.21c0,.46.17.83.52,1.1.35.27.94.68,1.78,1.23.86.53,1.56,1.09,2.11,1.7.55.61.82,1.51.82,2.71v4.57c0,1.51-.38,2.61-1.13,3.31s-1.91,1.04-3.46,1.04c-1.64,0-2.81-.35-3.51-1.06Z"/><path class="cls-1" d="m973.2,375.95h-3.46v-22.67h2.99l2.65,9.35,2.61-9.35h2.99v22.67h-3.46v-10.01l.54-4.6-.25,1.26-2.08,6.96h-.69l-2.11-6.93-.16-.82.44,4.28v9.86Z"/><path class="cls-1" d="m630.2,207.63h-16.09v168.7h-44.12V2.6h44.12v163.51h16.09V2.6h43.6v373.73h-43.6v-168.7Z"/><path class="cls-1" d="m878.26,376.95h-38.93L813.38,3.22h41.53l8.06,215.93,3.63.06,14.78-214.86h27.51l14.37,215.51,3.63-.05,8.99-216.59h40.49l-27.51,373.73h-37.37l-15.26-208.45h-3.63s-14.33,208.45-14.33,208.45Z"/><path class="cls-1" d="m373.51,375.74h-10.4v-127.83h9.5l24.56,89.34v-89.34h10.4v127.83h-9.14l-24.92-89.68v89.68Z"/><rect class="cls-1" x="338.02" y="247.92" width="11.47" height="127.83"/><path class="cls-1" d="m302.11,367.76l.16-.04c1.32-.51,1.94-1.4,1.94-2.87,0-2.45-1.63-3.73-4.93-3.73-.43,0-.86.04-1.87.12-1.01.08-1.09.12-1.59.16v10.22h3.23v-3.46c.97,1.63,1.21,2.02,1.98,3.46h3.77c-.97-1.59-2.14-3.34-2.49-3.65-.04-.08-.08-.12-.2-.19Zm-2.68-1.55c-.15,0-.23,0-.39-.04v-2.37c.19-.04.23-.04.43-.04.89,0,1.36.43,1.36,1.2,0,.82-.51,1.25-1.4,1.25Z"/><path class="cls-1" d="m299.7,356.49c-5.6,0-10.03,4.43-10.03,10.03s4.39,10.07,10.03,10.07,10.06-4.47,10.06-10.07-4.51-10.03-10.06-10.03Zm0,18.85c-4.89,0-8.78-3.89-8.78-8.82s3.93-8.78,8.78-8.78,8.82,3.93,8.82,8.82-3.92,8.78-8.82,8.78Z"/><polygon class="cls-1" points="0 376.14 26.36 376.14 26.36 326.28 53.6 326.28 53.6 301.35 26.36 301.35 26.36 273.03 53.6 273.03 53.6 247.92 0 247.92 0 376.14"/><path class="cls-1" d="m164.78,367.24v-32.23c0-5.23-.71-9.32-2.14-12.29-1.43-2.96-4.04-5.16-7.84-6.59,3.44-1.42,6.05-3.62,7.84-6.59,1.78-2.96,2.67-7.12,2.67-12.47v-20.83c0-10.45-2.44-17.78-7.3-22-4.87-4.21-12.76-6.32-23.69-6.32h-33.12v128.22h25.46v-47.55h3.92c2.97,0,4.99.59,6.05,1.78,1.07,1.19,1.6,3.33,1.6,6.41v30.45c0,2.26.18,4.16.53,5.7.36,1.54.95,2.61,1.78,3.2h27.25c-.95-.95-1.69-2.16-2.23-3.65-.53-1.48-.8-3.23-.8-5.26Zm-25.29-69.1c0,2.38-.51,4.1-1.51,5.17-1.01,1.07-2.88,1.61-5.61,1.61h-5.7v-34.73h5.7c2.73,0,4.6.56,5.61,1.69,1.01,1.13,1.51,3,1.51,5.61v20.66Z"/><path class="cls-1" d="m225.86,306.33c-1.66-1.3-3.38-2.52-5.16-3.65-1.78-1.13-3.56-2.23-5.34-3.3-4.63-2.73-8.4-5.07-11.31-7.03-2.91-1.96-4.36-4.6-4.36-7.93v-16.38h10.68v18.2h26v-13.04c0-8.91-2.64-15.67-7.92-20.3-5.28-4.63-13.03-6.95-23.24-6.95s-18.46,2.4-24.04,7.21c-5.58,4.81-8.37,12.2-8.37,22.17v11.58c.12,5.58,1.22,10.27,3.29,14.07,2.08,3.8,4.78,7.01,8.1,9.62,1.66,1.31,3.35,2.56,5.08,3.74,1.72,1.19,3.47,2.32,5.25,3.39,4.51,2.61,8.31,5.07,11.4,7.39,3.09,2.32,4.63,5.43,4.63,9.35v19.77h-11.22v-7.47s0,0,0-.01v-10.9h-27.43v11.79c0,10.21,2.49,17.84,7.48,22.88,4.99,5.04,13.42,7.57,25.29,7.57,11.16,0,19.41-2.49,24.75-7.48,5.34-4.99,8.01-12.53,8.01-22.62v-17.28c0-5.93-1.1-10.83-3.29-14.69-2.2-3.86-4.96-7.09-8.28-9.71Z"/><polygon class="cls-1" points="241 247.92 241 273.14 258.27 273.14 258.27 376.14 284.99 376.14 284.99 273.14 302.26 273.14 302.26 247.92 241 247.92"/><rect class="cls-1" x="62.96" y="247.92" width="26" height="128.22"/><path class="cls-1" d="m549.23,329.35s0-.06,0-.09c0,.15,0,.29,0,.44,0-.12,0-.23,0-.34Z"/><path class="cls-1" d="m542.74,191.8c-4.33-6.4-12.03-13.41-23.1-21.02-8.65-6.23-14.88-10.81-18.69-13.76-3.81-2.93-6.06-5.62-6.75-8.05-.7-1.38-1.13-2.85-1.3-4.41-.18-1.56-.26-3.2-.26-4.93V38.41h14.02v92.86h41.53V47.63c0-22.66-15.37-41.73-36.26-47.36-3.58-.51-7.4-.79-11.49-.79-6.74,0-12.78.72-18.21,2.09-18.76,6.89-32.14,24.91-32.14,46.06v98.75c.34,11.77,2.85,21.02,7.53,27.77,4.67,6.75,13.06,14.27,25.18,22.58,6.92,4.85,12.11,8.56,15.57,11.16,3.46,2.59,5.71,5.28,6.75,8.05.34,1.38.69,3.03,1.04,4.93.34,1.91.52,4.07.52,6.49v110.04h-14.53v-89.48h-43.08v81.44c0,26.79,21.04,48.67,47.5,50.02.09,0,.17,0,.26,0,.73.03,1.46.05,2.2.06,1.06,0,2.05-.06,3.08-.09,26.18-1.52,46.96-23.13,47.14-49.65,0-.15,0-.29,0-.44,0-.06,0-.11,0-.17v-108.49c0-12.8-2.17-22.4-6.49-28.81Z"/><path class="cls-1" d="m747.51,0c-28.95,0-52.43,23.47-52.43,52.43v274.59c0,27.94,21.86,50.77,49.41,52.33,1,.03,1.98.09,3.01.09,0,0,0,0,0,0,1,0,1.95-.06,2.93-.09,27.59-1.52,49.49-24.37,49.49-52.34V52.43c0-28.95-23.47-52.43-52.43-52.43Zm8.3,337.4h-16.09V38.41h16.09v298.98Z"/></svg>