<?xml version="1.0" encoding="UTF-8"?><svg id="Layer_2" xmlns="http://www.w3.org/2000/svg" viewBox="0 0 406.03 108.33"><defs><style>.cls-1{fill:#005ca9;}.cls-1,.cls-2,.cls-3,.cls-4,.cls-5,.cls-6{stroke-width:0px;}.cls-2{fill:#98989a;}.cls-3{fill:#e30613;}.cls-4{fill:none;}.cls-5{fill:#fff;}.cls-6{fill:#1d1d1b;}</style></defs><path class="cls-2" d="m85.3,35.92c3.12,0,6.15.29,9.04.81l6.88-7.17c-4.81-1.67-10.22-2.6-15.93-2.6-9.71,0-18.53,2.71-25.06,7.12l6,5.68c5.55-2.43,12.07-3.84,19.07-3.84Z"/><path class="cls-5" d="m85.3,26.96c5.71,0,11.12.94,15.93,2.6l7.48-7.79c-6.98-2.75-14.95-4.32-23.41-4.32-12.62,0-24.13,3.47-32.91,9.18l7.85,7.44c6.54-4.41,15.35-7.12,25.06-7.12Z"/><path class="cls-2" d="m49.37,57.45c.63-2.57,1.79-5.01,3.4-7.27l-3.01-3.05c-.6,1.88-.93,3.83-.93,5.83,0,1.53.19,3.02.55,4.48Z"/><path class="cls-2" d="m27.09,74.31l-1.27,6.56,12.59-5.42c-.79-1.67-.95-3.85-1.41-5.62l-9.92,4.48Z"/><polygon class="cls-2" points="18.23 2.95 0 102.76 8.62 103.46 26.67 2.2 18.23 2.95"/><path class="cls-3" d="m79.52,60.38v-8.07l-13.24-12.55-6-5.68-7.85-7.44L26.64,2.2,8.58,103.46l38.2-16.8c-3.8-3.36-6.5-6.94-8.5-11.16l-12.44,5.33,1.25-6.53,8.06-42,.67-3.53,6.65,6.7,8.56,8.62,3.68,3.7,15.11,13.02-14.67,6.72c3.81,3.81,8.32,7.16,14.41,9.05l18.3-8.22-8.35-8Z"/><path class="cls-4" d="m125.27,32.27c6.22,6.15,9.91,13.79,9.91,22.06,0,1.52-.14,3.01-.38,4.48.24,1.47.38,2.96.38,4.48,0,6.33-2.16,12.29-5.96,17.48l24.88-25.91-26.29-25.25-2.54,2.64Z"/><path class="cls-4" d="m113.01,45.03l-10.29,10.72,12.54,12.05c2.96-3.04,5.04-6.55,5.97-10.35-1.14-4.69-4.05-8.95-8.22-12.42Z"/><path class="cls-2" d="m121.23,57.45c.36-1.46.55-2.95.55-4.48,0-4.51-1.65-8.76-4.48-12.46l-4.34,4.5c4.17,3.47,7.13,7.75,8.28,12.44Z"/><path class="cls-2" d="m129.4,100.17l-10.3-9.9c-1.64,1.13-3.41,2.17-5.25,3.12l15.55,14.93,47.94-49.93-.05-8.09-47.89,49.86Z"/><path class="cls-2" d="m94.47,66.63l-8.48-8.14-6.49-6.2-.02,8.09,9.12,8.76,8.72,8.38c2.21-.55,4.33-1.25,6.33-2.08l-9.18-8.82Z"/><polygon class="cls-2" points="127.8 21.47 120.98 28.58 113.45 36.42 108.32 41.76 98.59 51.89 102.67 55.8 113.01 45.03 117.34 40.52 125.27 32.27 127.8 29.63 154.17 54.9 158.25 50.67 127.8 21.47"/><path class="cls-5" d="m125.27,32.27l-7.92,8.25c2.83,3.7,4.45,7.94,4.45,12.45,0,1.53-.2,3.02-.55,4.48-.93,3.79-3,7.31-5.97,10.35-3.04,3.11-7,5.73-11.62,7.65-2,.83-4.12,1.52-6.33,2.08-3.76.93-7.81,1.45-12.02,1.45-5.19,0-10.12-.77-14.58-2.16-6.08-1.9-11.3-4.94-15.11-8.75-1.39-1.39-2.59-2.88-3.58-4.45-1.22-1.94-2.13-4-2.66-6.16-.35-1.46-.55-2.95-.55-4.48,0-2.01.33-3.96.93-5.83l-9.11-9.22c-3.33,4.94-5.21,10.51-5.21,16.42,0,1.52.14,3.01.38,4.48.58,3.57,1.86,6.97,3.72,10.15.93,1.6,2.02,3.13,3.23,4.6,3.2,3.86,7.33,7.25,12.17,10.01,8.41,4.78,18.93,7.63,30.36,7.63,8,0,15.55-1.39,22.25-3.86,2.03-.75,3.98-1.6,5.84-2.54,4.32-2.18,8.15-4.85,11.35-7.91,5.37-5.12,8.95-11.32,10.06-18.08.24-1.47.38-2.96.38-4.48,0-8.27-3.68-15.91-9.91-22.06Z"/><path class="cls-1" d="m94.42,66.69l9.15,8.79c4.61-1.92,8.61-4.51,11.65-7.62l-12.54-12.05-4.07-3.91,9.67-10.07,5.13-5.34,7.53-7.85,6.83-7.11,30.37,29.16-4.08,4.25-24.88,25.91c-2.62,3.59-6.02,6.78-10.04,9.53l10.22,9.86,47.95-49.93L127.37,2.36l-18.7,19.48-7.48,7.79-6.88,7.17-14.8,15.49,14.93,14.4Z"/><path class="cls-2" d="m52.23,63.86s.24.39.27.44c.73,1.16,1.74,2.23,2.69,3.29l14.92-6.89-34.28-31.92-.94,4.94,26.89,26.62-9.55,3.52Z"/><path class="cls-2" d="m135.17,54.33c0,1.52-.14,3.01-.38,4.48-1.11,6.76-4.69,12.95-10.06,18.08-3.2,3.05-7.03,5.72-11.35,7.91-1.86.94-3.81,1.79-5.84,2.54-6.7,2.47-14.25,3.86-22.25,3.86-11.43,0-21.95-2.85-30.36-7.63-4.84-2.75-8.97-6.14-12.17-10.01-1.22-1.47-2.3-3.01-3.23-4.6-1.86-3.18-3.14-6.58-3.72-10.15-.24-1.47-.38-2.96-.38-4.48,0-.48.03-.95.06-1.42,0-.03-.01-.06-.02-.08-.24,1.47-.04,8.95-.04,10.47,0,2.41.32,4.75.92,7.03.46,1.77,1.1,3.5,1.89,5.18,2,4.22,5.01,8.09,8.81,11.45,9.15,8.07,22.89,13.21,38.25,13.21,10.66,0,20.53-2.48,28.64-6.69,1.84-.96,3.59-2,5.24-3.13,4.02-2.75,7.42-5.98,10.04-9.57,3.8-5.2,5.96-11.16,5.96-17.48,0-1.33.12-7.66-.01-10.17-.02-.34.01.77.01,1.21Z"/><path class="cls-6" d="m189.25,26.35h39.69l-3.74,15.28h-19.02l-1.88,8.03h19.85l-3.46,14.16h-19.59l-4.7,20.12h-20.5l13.36-57.59Z"/><path class="cls-6" d="m234.33,26.35h20.5l-13.36,57.59h-20.5l13.36-57.59Z"/><path class="cls-6" d="m260.2,26.7l1.32-.17c6.58-.78,14.77-1.29,19.28-1.29,7.52,0,13.36.86,17.78,2.68,5.64,2.33,9.03,7.43,9.03,13.56,0,5.27-1.79,10.28-5.17,14.16-2.92,3.37-5.55,5.01-11,6.65l-1.32.43c.56.43.75.61,1.04.86,1.6,1.81,6.4,11.14,10.44,20.38h-22.57c-2.92-8.2-3.76-10.36-7.62-19.69l-4.51,19.69h-19.94l13.26-57.25Zm15.14,27.11c6.58,0,11.19-3.89,11.19-9.41,0-2.94-2.16-4.4-6.4-4.4-1.22,0-1.88.09-3.2.35l-3.1,13.3c.66.09.75.17,1.5.17Z"/><path class="cls-6" d="m356.28,26.35h49.75l-3.48,16.67h-14.77l-9.78,40.92h-20.5l9.78-40.92h-16l5-16.67Z"/><path class="cls-6" d="m387.6,73.66c2.76,0,5.01,2.22,5.01,4.99s-2.22,5.01-5.01,5.01-4.99-2.19-4.99-5.01,2.2-4.99,4.99-4.99Zm0,9.38c2.44,0,4.39-1.95,4.39-4.37s-1.95-4.39-4.39-4.39-4.37,1.95-4.37,4.37,1.93,4.39,4.37,4.39Zm-1.93-6.94c.25-.02.29-.04.79-.08.5-.04.71-.06.93-.06,1.64,0,2.45.64,2.45,1.86,0,.73-.31,1.18-.97,1.43l-.08.02c.06.04.08.06.1.1.17.16.75,1.03,1.24,1.82h-1.87c-.39-.72-.5-.91-.99-1.72v1.72h-1.6v-5.08Zm1.8,2.4c.44,0,.7-.21.7-.62s-.23-.6-.68-.6c-.1,0-.12,0-.21.02v1.18c.08.02.12.02.19.02Z"/><path class="cls-6" d="m303.6,82.48c5.76,1.71,12.07,2.67,17.96,2.67,8,0,14.11-1.81,19.37-5.61,5.83-4.15,9.59-10.53,9.59-16.32,0-3.89-1.69-7.43-4.7-9.93-2.35-1.9-4.8-3.37-9.78-5.7l-4.04-1.9c-1.32-.69-1.98-1.38-1.98-2.16,0-2.07,2.63-3.63,6.21-3.63,2.67,0,5.86.78,11.95,2.77l4.2-15.59c-4.55-1.24-8.99-1.86-13.43-1.86-16.74,0-29.63,9.15-29.63,20.98,0,6.22,4.14,10.62,14.48,15.46,4.89,2.24,5.74,2.85,5.74,4.4,0,2.33-2.54,3.8-6.68,3.8-3.67,0-8.37-1.12-14.77-3.45h0s-4.5,16.06-4.5,16.06Z"/></svg>