<?xml version="1.0" encoding="UTF-8"?>
<svg id="Layer_1" data-name="Layer 1" xmlns="http://www.w3.org/2000/svg" xmlns:xlink="http://www.w3.org/1999/xlink" viewBox="0 0 317.25 164.94">
  <defs>
    <style>
      .cls-1 {
        fill: #444;
      }

      .cls-2 {
        fill: #005aaa;
      }

      .cls-3 {
        fill: url(#radial-gradient);
      }

      .cls-4 {
        fill: #fff;
      }
    </style>
    <radialGradient id="radial-gradient" cx="158.62" cy="131.85" fx="158.62" fy="131.85" r="112.52" gradientUnits="userSpaceOnUse">
      <stop offset="0" stop-color="#005aaa" stop-opacity="0"/>
      <stop offset=".12" stop-color="#005aaa" stop-opacity=".26"/>
      <stop offset=".25" stop-color="#005aaa" stop-opacity=".49"/>
      <stop offset=".38" stop-color="#005aaa" stop-opacity=".67"/>
      <stop offset=".52" stop-color="#005aaa" stop-opacity=".82"/>
      <stop offset=".66" stop-color="#005aaa" stop-opacity=".92"/>
      <stop offset=".82" stop-color="#005aaa" stop-opacity=".98"/>
      <stop offset="1" stop-color="#005aaa"/>
    </radialGradient>
  </defs>
  <g>
    <polygon class="cls-1" points="108.89 .55 128.29 .55 126.47 8.02 117.16 8.02 116.24 11.95 125.95 11.95 124.26 18.88 114.68 18.88 112.38 28.71 102.35 28.71 108.89 .55"/>
    <polygon class="cls-1" points="130.93 .55 140.96 .55 134.43 28.71 124.4 28.71 130.93 .55"/>
    <path class="cls-1" d="M150.99,13.98c3.22,0,5.47-1.9,5.47-4.6,0-1.44-1.06-2.15-3.13-2.15-.6,0-.92.04-1.56.17l-1.52,6.5c.32.04.37.08.74.08M143.58.72l.64-.08c3.22-.38,7.22-.63,9.43-.63,3.68,0,6.53.42,8.69,1.31,2.76,1.14,4.42,3.63,4.42,6.63,0,2.57-.87,5.02-2.53,6.92-1.43,1.65-2.71,2.45-5.38,3.25l-.64.21c.28.21.37.3.51.42.78.89,3.13,5.45,5.11,9.97h-11.04c-1.43-4.01-1.84-5.07-3.73-9.63l-2.21,9.63h-9.75l6.49-28Z"/>
    <polygon class="cls-1" points="190.57 .55 214.9 .55 213.2 8.7 205.98 8.7 201.19 28.71 191.17 28.71 195.95 8.7 188.12 8.7 190.57 .55"/>
    <path class="cls-1" d="M205.82,26.05c.22,0,.34-.1.34-.3s-.11-.29-.33-.29c-.05,0-.06,0-.1,0v.58s.06,0,.09,0M204.94,24.87c.12,0,.14-.02.39-.04.25-.02.35-.03.45-.03.8,0,1.2.31,1.2.91,0,.36-.15.58-.47.7h-.04s.04.04.05.06c.09.08.37.5.6.89h-.92c-.19-.35-.25-.44-.48-.84v.84h-.78v-2.49ZM205.88,28.27c1.19,0,2.15-.96,2.15-2.14s-.95-2.15-2.15-2.15-2.14.95-2.14,2.14.95,2.15,2.14,2.15M205.88,23.68c1.35,0,2.45,1.09,2.45,2.44s-1.09,2.45-2.45,2.45-2.44-1.07-2.44-2.45,1.08-2.44,2.44-2.44"/>
    <path class="cls-1" d="M184.97,13.72c-1.15-.93-2.35-1.65-4.78-2.79l-1.98-.93c-.64-.34-.97-.68-.97-1.06,0-1.01,1.29-1.77,3.04-1.77,1.31,0,2.87.38,5.84,1.35l2.06-7.62c-2.23-.61-4.4-.91-6.57-.91-8.19,0-14.49,4.48-14.49,10.26,0,3.04,2.02,5.19,7.08,7.56,2.39,1.1,2.81,1.39,2.81,2.15,0,1.14-1.24,1.86-3.27,1.86-1.79,0-4.09-.55-7.22-1.69h0s-2.2,7.86-2.2,7.86c2.82.84,5.9,1.31,8.78,1.31,3.91,0,6.9-.89,9.47-2.74,2.85-2.03,4.69-5.15,4.69-7.98,0-1.9-.83-3.63-2.3-4.86"/>
  </g>
  <g>
    <g>
      <path class="cls-4" d="M80.82,157.98h-1.15v2.25h-1.17v-5.98h2.32c1.24,0,1.97.85,1.97,1.87s-.74,1.87-1.97,1.87ZM80.76,155.29h-1.09v1.64h1.09c.53,0,.87-.33.87-.81s-.34-.82-.87-.82Z"/>
      <path class="cls-4" d="M87.38,160.23l-1.17-2.39h-.84v2.39h-1.17v-5.98h2.34c1.22,0,1.94.83,1.94,1.83,0,.84-.51,1.36-1.09,1.57l1.34,2.58h-1.35ZM86.47,155.29h-1.1v1.58h1.1c.51,0,.85-.33.85-.79s-.34-.79-.85-.79Z"/>
      <path class="cls-4" d="M90.12,160.23v-5.98h3.94v1.04h-2.77v1.4h2.36v1.04h-2.36v1.45h2.77v1.04h-3.94Z"/>
      <path class="cls-4" d="M97.27,160.28c-.91,0-1.6-.19-2.18-.79l.76-.76c.38.38.89.5,1.45.5.69,0,1.06-.26,1.06-.74,0-.21-.06-.39-.18-.5-.12-.11-.25-.17-.53-.21l-.72-.1c-.51-.08-.89-.24-1.16-.5-.29-.29-.43-.67-.43-1.18,0-1.07.79-1.81,2.08-1.81.82,0,1.42.2,1.93.7l-.74.73c-.38-.36-.83-.41-1.23-.41-.62,0-.92.34-.92.76,0,.15.05.31.18.43.12.11.31.2.55.24l.71.1c.55.08.89.23,1.14.46.32.3.46.74.46,1.27,0,1.16-.97,1.81-2.22,1.81Z"/>
      <path class="cls-4" d="M101.01,160.23v-5.98h3.94v1.04h-2.77v1.4h2.36v1.04h-2.36v1.45h2.77v1.04h-3.94Z"/>
      <path class="cls-4" d="M110.05,160.23l-2.37-3.67v3.67h-1.17v-5.98h1.04l2.37,3.66v-3.66h1.17v5.98h-1.04Z"/>
      <path class="cls-4" d="M115.2,155.29v4.94h-1.17v-4.94h-1.56v-1.04h4.29v1.04h-1.56Z"/>
      <path class="cls-4" d="M118.13,160.23v-5.98h3.94v1.04h-2.77v1.4h2.36v1.04h-2.36v1.45h2.77v1.04h-3.94Z"/>
      <path class="cls-4" d="M127.38,159.66c-.39.39-.96.57-1.58.57h-2.16v-5.98h2.16c.62,0,1.18.18,1.58.57.67.67.6,1.5.6,2.39s.07,1.77-.6,2.44ZM126.56,155.66c-.2-.24-.47-.37-.87-.37h-.88v3.9h.88c.4,0,.67-.13.87-.37.22-.27.25-.7.25-1.6s-.03-1.29-.25-1.55Z"/>
      <path class="cls-4" d="M134.47,160.23h-2.5v-5.98h2.4c1.17,0,1.85.66,1.85,1.68,0,.66-.44,1.09-.74,1.23.36.17.82.55.82,1.34,0,1.12-.76,1.72-1.83,1.72ZM134.28,155.29h-1.14v1.38h1.14c.5,0,.77-.28.77-.69s-.28-.69-.77-.69ZM134.36,157.72h-1.22v1.47h1.22c.53,0,.78-.34.78-.74s-.25-.73-.78-.73Z"/>
      <path class="cls-4" d="M140.21,157.78v2.45h-1.16v-2.45l-1.8-3.53h1.27l1.12,2.41,1.1-2.41h1.27l-1.8,3.53Z"/>
    </g>
    <path class="cls-4" d="M177.56,153.95c.22,0,.42.18.42.42v7.97c0,.22-.2.4-.42.4h-1.08c-.2,0-.4-.16-.4-.38v-.73c-.55.81-1.48,1.36-2.86,1.36-2.29,0-3.7-1.52-3.7-3.77v-4.85c0-.22.2-.4.42-.4h1.08c.22,0,.4.18.4.4v4.54c0,1.46.77,2.44,2.29,2.44s2.36-1.01,2.36-2.42v-4.56c0-.22.2-.4.4-.4h1.08M161.62,149.54c-3.7,0-6.68,2.87-6.68,6.72s2.98,6.72,6.68,6.72c.63,0,1.24-.09,1.82-.24l.72,1.87c.07.2.22.33.49.33h1.15c.27,0,.48-.18.35-.53l-.94-2.45c1.85-1.17,3.08-3.23,3.08-5.7,0-3.85-2.98-6.72-6.68-6.72M164.53,160.15l-.84-2.19c-.07-.18-.22-.35-.55-.35h-1.1c-.27,0-.49.18-.37.53l1.11,2.88c-.37.09-.76.14-1.17.14-2.71,0-4.63-2.12-4.63-4.91s1.92-4.91,4.63-4.91,4.63,2.12,4.63,4.91c0,1.62-.65,3.01-1.72,3.89M238.72,162.3c.09.22-.02.44-.29.44h-1.21c-.22,0-.4-.11-.48-.33l-2.23-6.01-2.27,6.01c-.09.24-.26.33-.48.33h-1.08c-.22,0-.38-.09-.48-.33l-2.29-6.04-2.25,6.04c-.09.22-.26.33-.48.33h-1.14c-.22,0-.38-.11-.48-.33l-2.23-6.04-2.31,6.04c-.09.24-.26.33-.48.33h-1.08c-.22,0-.38-.09-.48-.33l-2.25-6.04-2.25,6.04c-.07.22-.26.33-.48.33h-1.17c-.27,0-.38-.22-.29-.44l3.06-8c.09-.24.26-.35.48-.35h1.32c.22,0,.38.11.48.35l2.16,5.84,2.18-5.84c.09-.24.26-.35.48-.35h1.3c.22,0,.38.11.48.35l2.16,5.84,2.16-5.84c.09-.24.26-.35.48-.35h1.3c.22,0,.38.11.48.35l2.2,5.84,2.14-5.84c.09-.24.26-.35.48-.35h1.32c.22,0,.38.11.48.35l3.06,8M188.03,153.95h-1.08c-.22,0-.42.18-.42.42v.73c-.55-.82-1.61-1.41-2.87-1.41-2.38,0-4.43,1.89-4.43,4.63s2.05,4.65,4.41,4.65c1.28,0,2.33-.59,2.89-1.41v.77c0,.22.2.4.42.4h1.08c.22,0,.4-.18.4-.4v-7.97c0-.24-.18-.42-.4-.42M183.86,161.22c-1.57,0-2.69-1.28-2.69-2.88s1.12-2.86,2.69-2.86,2.69,1.25,2.69,2.86-1.14,2.88-2.69,2.88M200.92,161.5c.24.29.04.51-.09.6-.75.57-1.74.88-2.82.88-2.73,0-4.54-2-4.54-4.63s1.81-4.65,4.54-4.65c1.08,0,2.07.31,2.82.88.13.09.31.29.09.6l-.51.71c-.2.27-.44.2-.64.07-.48-.29-1.04-.53-1.7-.53-1.59,0-2.66,1.28-2.66,2.91s1.06,2.89,2.66,2.89c.66,0,1.19-.26,1.67-.53.2-.11.42-.2.64.09l.55.7ZM206.01,153.71c-2.56,0-4.61,2.01-4.61,4.63s2.05,4.63,4.61,4.63,4.61-2,4.61-4.63-2.05-4.63-4.61-4.63M206.01,161.2c-1.57,0-2.69-1.26-2.69-2.86s1.12-2.86,2.69-2.86,2.69,1.25,2.69,2.86-1.12,2.86-2.69,2.86M191.82,149.78c.24,0,.4.2.4.42v12.12c0,.22-.16.42-.4.42h-1.08c-.22,0-.42-.2-.42-.42v-12.12c0-.22.2-.42.42-.42h1.08"/>
  </g>
  <g>
    <path class="cls-2" d="M260.92,134.44c13.11-.46,25.72-2.03,37.25-4.11v-7.62c0-.67-.19-1.19-.57-1.57-.38-.38-.91-.57-1.57-.57h-42.76c-.48,0-.71-.24-.71-.71v-14.87c0-.48.24-.72.71-.72h26.46c.67,0,1.19-.19,1.57-.57s.57-.9.57-1.57v-18.59c0-.67-.19-1.19-.57-1.57-.38-.38-.91-.57-1.57-.57h-26.46c-.48,0-.71-.24-.71-.71v-13.44c0-.48.24-.72.71-.72h42.76c.67,0,1.19-.19,1.57-.57s.57-.9.57-1.57v-18.73c0-.67-.19-1.19-.57-1.57-.38-.38-.91-.57-1.57-.57h-68.21c-.67,0-1.19.19-1.57.57-.38.38-.57.91-.57,1.57v86.21c8.62,1.95,19.1,3.17,35.25,2.6Z"/>
    <path class="cls-2" d="M156.29,119.28c.34,0,.68,0,1.02,0,18.48.28,30.51,2.1,39.97,4.39l23.1-77.76c.19-.76.12-1.36-.21-1.79-.33-.43-.88-.64-1.64-.64h-23.88c-1.24,0-2,.62-2.29,1.86l-13.87,60.35c-.1.38-.24.57-.43.57s-.33-.19-.43-.57l-14.3-60.35c-.29-1.24-1.05-1.86-2.29-1.86h-24.45c-1.34,0-2,.57-2,1.72,0,.29.05.52.14.71l21.57,73.37Z"/>
    <path class="cls-2" d="M129.43,122.53V45.63c0-.67-.19-1.19-.57-1.57-.38-.38-.91-.57-1.57-.57h-22.59c-.67,0-1.19.19-1.57.57-.38.38-.57.91-.57,1.57v86.44c8.6-2.81,16.52-6.77,26.88-9.54Z"/>
    <path class="cls-2" d="M57.8,131.74c10.67,2.91,19.15,3.9,26.4,3.68,2.68-2.03,4.94-4.4,6.76-7.13,3.24-4.86,4.86-10.49,4.86-16.87v-35.75c0-6.39-1.62-12.01-4.86-16.87-3.24-4.86-7.84-8.63-13.8-11.3-5.96-2.67-12.8-4-20.52-4H19.89c-.67,0-1.19.19-1.57.57-.38.38-.57.91-.57,1.57v87.23c10.34-4.17,23.53-5.63,40.05-1.12ZM44.63,67.23c0-.48.24-.72.71-.72h12.16c3.43,0,6.2,1.26,8.29,3.79,2.1,2.53,3.15,5.84,3.15,9.94v26.6c-.1,4.1-1.19,7.41-3.29,9.94-2.1,2.53-4.77,3.79-8.01,3.79h-12.3c-.48,0-.71-.24-.71-.71v-52.62Z"/>
    <path class="cls-3" d="M51.98,135.88c46.59,12.71,49.88-13.71,95.72-13.01,55.91.85,53.68,19.99,102.49,17.59,26.78-1.31,50.76-8.24,67.06-14.28-15.94,3.94-35.51,7.46-56.33,8.2-51.17,1.8-45.49-14.27-103.61-15.15-47.65-.72-51.08,25.66-99.51,12.45-28.13-7.67-46.59,1.92-57.8,12.81,10.99-8.75,27.76-15.22,51.98-8.61Z"/>
    <path class="cls-2" d="M289.7,142.21c-.3-.13-.52-.31-.68-.54s-.24-.51-.24-.82v-.16s0-.05.03-.06c.02-.02.04-.03.06-.03h.84s.05,0,.06.03c.02.02.03.04.03.06v.11c0,.2.09.36.27.5.18.14.43.2.74.2.26,0,.45-.06.58-.17.13-.11.19-.25.19-.41,0-.12-.04-.22-.12-.3-.08-.08-.19-.15-.32-.21s-.35-.15-.65-.25c-.33-.11-.61-.23-.84-.35-.23-.12-.42-.28-.58-.48-.16-.2-.23-.46-.23-.76s.08-.55.23-.78c.15-.22.36-.39.63-.51.27-.12.58-.18.94-.18.37,0,.71.07,1,.2s.52.32.69.56c.16.24.25.52.25.83v.11s0,.05-.03.06c-.02.02-.04.03-.06.03h-.85s-.05,0-.06-.03c-.02-.02-.03-.04-.03-.06v-.06c0-.21-.08-.38-.25-.53-.17-.15-.4-.22-.7-.22-.23,0-.41.05-.54.15-.13.1-.2.23-.2.41,0,.12.04.23.11.31.08.08.19.16.34.23.15.07.38.16.7.27.35.13.62.24.82.34.2.1.38.25.54.44s.24.45.24.76c0,.46-.17.83-.51,1.1-.34.27-.8.4-1.38.4-.39,0-.74-.06-1.03-.19Z"/>
    <path class="cls-2" d="M297.2,137.17h.86s.05,0,.06.03c.02.02.03.04.03.06v4.99s0,.05-.03.06c-.02.02-.04.03-.06.03h-.86s-.05,0-.06-.03c-.02-.02-.03-.04-.03-.06v-3.26s0-.03-.01-.03-.02,0-.03.02l-.78,1.23s-.06.06-.1.06h-.44s-.08-.02-.1-.06l-.78-1.23s-.02-.02-.03-.02c-.01,0-.01.01-.01.03v3.25s0,.05-.03.06c-.02.02-.04.03-.06.03h-.86s-.05,0-.06-.03c-.02-.02-.03-.04-.03-.06v-4.99s0-.05.03-.06c.02-.02.04-.03.06-.03h.86s.08.02.1.06l1.11,1.72s.03.03.04,0l1.11-1.72s.06-.06.1-.06Z"/>
  </g>
</svg>