<?xml version="1.0" encoding="UTF-8" standalone="no"?>
<!-- Created with Inkscape (http://www.inkscape.org/) -->

<svg
   version="1.1"
   id="svg1"
   width="1466.6667"
   height="400"
   viewBox="0 0 1466.6667 400"
   sodipodi:docname="first_age_logo_horizontal_rgb_fullcolor.eps"
   xmlns:inkscape="http://www.inkscape.org/namespaces/inkscape"
   xmlns:sodipodi="http://sodipodi.sourceforge.net/DTD/sodipodi-0.dtd"
   xmlns="http://www.w3.org/2000/svg"
   xmlns:svg="http://www.w3.org/2000/svg">
  <defs
     id="defs1" />
  <sodipodi:namedview
     id="namedview1"
     pagecolor="#ffffff"
     bordercolor="#000000"
     borderopacity="0.25"
     inkscape:showpageshadow="2"
     inkscape:pageopacity="0.0"
     inkscape:pagecheckerboard="0"
     inkscape:deskcolor="#d1d1d1">
    <inkscape:page
       x="0"
       y="0"
       inkscape:label="1"
       id="page1"
       width="1466.6667"
       height="400"
       margin="0"
       bleed="0" />
  </sodipodi:namedview>
  <g
     id="g1"
     inkscape:groupmode="layer"
     inkscape:label="1">
    <g
       id="group-R5">
      <path
         id="path2"
         d="m 924.008,1787.76 h 396.022 l -37.29,-152.5 h -189.81 l -18.77,-80.12 h 198.01 l -34.48,-141.29 H 1042.25 L 995.328,1213.11 H 790.746 l 133.262,574.65 v 0"
         style="fill:#100f0d;fill-opacity:1;fill-rule:nonzero;stroke:none"
         transform="matrix(0.13333333,0,0,-0.13333333,0,400)" />
      <path
         id="path3"
         d="m 1373.87,1787.76 h 204.58 l -133.26,-574.65 h -204.58 l 133.26,574.65 v 0"
         style="fill:#100f0d;fill-opacity:1;fill-rule:nonzero;stroke:none"
         transform="matrix(0.13333333,0,0,-0.13333333,0,400)" />
      <path
         id="path4"
         d="m 1631.97,1784.31 13.14,1.73 c 65.69,7.75 147.34,12.92 192.38,12.92 75.07,0 133.25,-8.62 177.37,-26.7 56.3,-23.27 90.09,-74.1 90.09,-135.27 0,-52.55 -17.84,-102.53 -51.62,-141.3 -29.09,-33.59 -55.37,-49.96 -109.8,-66.33 l -13.14,-4.31 c 5.63,-4.32 7.51,-6.04 10.33,-8.62 15.95,-18.1 63.81,-111.15 104.17,-203.32 h -225.24 c -29.08,81.84 -37.53,103.38 -76,196.43 l -45.05,-196.43 h -198.95 l 132.32,571.2 z m 151.09,-270.53 c 65.69,0 111.68,38.78 111.68,93.91 0,29.3 -21.6,43.94 -63.82,43.94 -12.2,0 -18.77,-0.86 -31.91,-3.45 l -30.97,-132.67 c 6.58,-0.87 7.51,-1.73 15.02,-1.73 v 0"
         style="fill:#100f0d;fill-opacity:1;fill-rule:nonzero;stroke:none"
         transform="matrix(0.13333333,0,0,-0.13333333,0,400)" />
      <path
         id="path5"
         d="m 2590.6,1787.76 h 496.39 l -34.67,-166.35 h -147.33 l -97.6,-408.3 h -204.58 l 97.6,408.3 h -159.69 l 49.88,166.35 v 0"
         style="fill:#100f0d;fill-opacity:1;fill-rule:nonzero;stroke:none"
         transform="matrix(0.13333333,0,0,-0.13333333,0,400)" />
      <path
         id="path6"
         d="m 2903.14,1315.77 c 27.57,0 49.95,-22.19 49.95,-49.77 0,-27.77 -22.18,-49.96 -49.95,-49.96 -27.98,0 -49.78,21.8 -49.78,49.96 0,27.77 21.99,49.77 49.78,49.77 z m 0,-93.55 c 24.3,0 43.78,19.48 43.78,43.59 0,24.3 -19.48,43.79 -43.78,43.79 -24.12,0 -43.6,-19.49 -43.6,-43.6 0,-24.49 19.3,-43.78 43.6,-43.78 z m -19.3,69.24 c 2.52,0.2 2.9,0.38 7.92,0.77 5.01,0.39 7.13,0.59 9.25,0.59 16.4,0 24.5,-6.37 24.5,-18.52 0,-7.33 -3.08,-11.76 -9.65,-14.28 l -0.77,-0.19 c 0.57,-0.39 0.77,-0.58 0.97,-0.96 1.73,-1.55 7.51,-10.23 12.34,-18.14 h -18.7 c -3.86,7.14 -5.02,9.07 -9.85,17.17 v -17.17 h -16.01 v 50.73 z m 17.94,-23.92 c 4.43,0 6.95,2.13 6.95,6.18 0,3.86 -2.32,5.98 -6.76,5.98 -0.96,0 -1.15,0 -2.12,-0.19 v -11.77 c 0.78,-0.2 1.16,-0.2 1.93,-0.2 v 0"
         style="fill:#100f0d;fill-opacity:1;fill-rule:nonzero;stroke:none"
         transform="matrix(0.13333333,0,0,-0.13333333,0,400)" />
      <path
         id="path7"
         d="m 2065.02,1227.71 c 57.51,-17.09 120.41,-26.67 179.18,-26.67 79.77,0 140.76,18.09 193.32,56 58.18,41.36 95.71,105.11 95.71,162.83 0,38.78 -16.88,74.1 -46.91,99.09 -23.46,18.94 -47.87,33.6 -97.6,56.86 l -40.35,18.95 c -13.14,6.9 -19.72,13.79 -19.72,21.54 0,20.68 26.28,36.18 61.94,36.18 26.68,0 58.48,-7.76 119.24,-27.62 l 41.94,155.55 c -45.45,12.35 -89.72,18.54 -133.97,18.54 -167.03,0 -295.61,-91.32 -295.61,-209.36 0,-62.03 41.3,-105.97 144.52,-154.22 48.8,-22.39 57.26,-28.43 57.26,-43.94 0,-23.25 -25.34,-37.91 -66.64,-37.91 -36.6,0 -83.51,11.21 -147.34,34.47 l -0.07,-0.02 -44.9,-160.27 v 0"
         style="fill:#100f0d;fill-opacity:1;fill-rule:nonzero;stroke:none"
         transform="matrix(0.13333333,0,0,-0.13333333,0,400)" />
      <path
         id="path8"
         d="m 9042.97,1785.63 h -14.61 v -21.9 h 14.61 c 7.07,0 11.57,4.37 11.57,10.9 0,6.51 -4.5,11 -11.57,11 m 0.78,-35.95 h -15.39 v -30.11 h -15.61 v 80 h 31 c 16.52,0 26.41,-11.35 26.41,-24.94 0,-13.61 -9.89,-24.95 -26.41,-24.95"
         style="fill:#100f0d;fill-opacity:1;fill-rule:nonzero;stroke:none"
         transform="matrix(0.13333333,0,0,-0.13333333,0,400)" />
      <path
         id="path9"
         d="m 9119.3,1785.63 h -14.72 v -21.12 h 14.72 c 6.85,0 11.34,4.39 11.34,10.56 0,6.18 -4.49,10.56 -11.34,10.56 m 12.13,-66.06 -15.62,31.91 h -11.23 v -31.91 h -15.61 v 80 h 31.34 c 16.29,0 25.95,-11.13 25.95,-24.5 0,-11.24 -6.86,-18.2 -14.61,-21.01 l 17.87,-34.49 h -18.09"
         style="fill:#100f0d;fill-opacity:1;fill-rule:nonzero;stroke:none"
         transform="matrix(0.13333333,0,0,-0.13333333,0,400)" />
      <path
         id="path10"
         d="m 9168.1,1719.57 v 80 h 52.69 v -13.94 h -37.07 v -18.76 h 31.56 v -13.93 h -31.56 v -19.44 h 37.07 v -13.93 h -52.69"
         style="fill:#100f0d;fill-opacity:1;fill-rule:nonzero;stroke:none"
         transform="matrix(0.13333333,0,0,-0.13333333,0,400)" />
      <path
         id="path11"
         d="m 9263.75,1718.9 c -12.12,0 -21.34,2.58 -29.2,10.55 l 10.11,10.11 c 5.06,-5.05 11.9,-6.73 19.32,-6.73 9.22,0 14.16,3.48 14.16,9.88 0,2.82 -0.79,5.18 -2.48,6.75 -1.57,1.46 -3.37,2.24 -7.08,2.8 l -9.66,1.35 c -6.85,1.01 -11.9,3.15 -15.5,6.63 -3.82,3.83 -5.73,8.99 -5.73,15.72 0,14.28 10.56,24.27 27.86,24.27 11.01,0 18.99,-2.69 25.85,-9.31 l -9.9,-9.78 c -5.04,4.83 -11.11,5.5 -16.4,5.5 -8.3,0 -12.35,-4.6 -12.35,-10.1 0,-2.03 0.67,-4.17 2.35,-5.73 1.58,-1.47 4.16,-2.71 7.41,-3.15 l 9.45,-1.36 c 7.31,-1.01 11.91,-3.03 15.28,-6.17 4.27,-4.05 6.18,-9.89 6.18,-16.97 0,-15.5 -12.93,-24.26 -29.67,-24.26"
         style="fill:#100f0d;fill-opacity:1;fill-rule:nonzero;stroke:none"
         transform="matrix(0.13333333,0,0,-0.13333333,0,400)" />
      <path
         id="path12"
         d="m 9313.8,1719.57 v 80 h 52.69 v -13.94 h -37.08 v -18.76 h 31.57 v -13.93 h -31.57 v -19.44 h 37.08 v -13.93 h -52.69"
         style="fill:#100f0d;fill-opacity:1;fill-rule:nonzero;stroke:none"
         transform="matrix(0.13333333,0,0,-0.13333333,0,400)" />
      <path
         id="path13"
         d="m 9434.72,1719.57 -31.68,49.1 v -49.1 h -15.61 v 80 h 13.93 l 31.68,-48.99 v 48.99 h 15.62 v -80 h -13.94"
         style="fill:#100f0d;fill-opacity:1;fill-rule:nonzero;stroke:none"
         transform="matrix(0.13333333,0,0,-0.13333333,0,400)" />
      <path
         id="path14"
         d="m 9503.53,1785.63 v -66.06 h -15.61 v 66.06 h -20.9 v 13.94 h 57.41 v -13.94 h -20.9"
         style="fill:#100f0d;fill-opacity:1;fill-rule:nonzero;stroke:none"
         transform="matrix(0.13333333,0,0,-0.13333333,0,400)" />
      <path
         id="path15"
         d="m 9542.78,1719.57 v 80 h 52.69 v -13.94 h -37.08 v -18.76 h 31.57 v -13.93 h -31.57 v -19.44 h 37.08 v -13.93 h -52.69"
         style="fill:#100f0d;fill-opacity:1;fill-rule:nonzero;stroke:none"
         transform="matrix(0.13333333,0,0,-0.13333333,0,400)" />
      <path
         id="path16"
         d="m 9655.51,1780.69 c -2.7,3.26 -6.29,4.94 -11.68,4.94 h -11.8 v -52.12 h 11.8 c 5.39,0 8.98,1.69 11.68,4.93 2.93,3.61 3.38,9.33 3.38,21.46 0,12.14 -0.45,17.2 -3.38,20.79 m 10.9,-53.48 c -5.28,-5.28 -12.8,-7.65 -21.12,-7.65 h -28.88 v 80.01 h 28.88 c 8.32,0 15.84,-2.37 21.12,-7.64 8.99,-8.99 8.09,-20 8.09,-32.03 0,-12.02 0.9,-23.7 -8.09,-32.69"
         style="fill:#100f0d;fill-opacity:1;fill-rule:nonzero;stroke:none"
         transform="matrix(0.13333333,0,0,-0.13333333,0,400)" />
      <path
         id="path17"
         d="m 9759.73,1753.17 h -16.29 v -19.67 h 16.29 c 7.08,0 10.45,4.49 10.45,9.89 0,5.39 -3.37,9.78 -10.45,9.78 m -1.01,32.47 h -15.28 v -18.42 h 15.28 c 6.63,0 10.33,3.7 10.33,9.2 0,5.51 -3.7,9.22 -10.33,9.22 m 2.58,-66.07 h -33.48 v 80 h 32.13 c 15.63,0 24.72,-8.77 24.72,-22.48 0,-8.87 -5.84,-14.6 -9.89,-16.51 4.83,-2.24 11.01,-7.31 11.01,-17.97 0,-14.95 -10.21,-23.04 -24.49,-23.04"
         style="fill:#100f0d;fill-opacity:1;fill-rule:nonzero;stroke:none"
         transform="matrix(0.13333333,0,0,-0.13333333,0,400)" />
      <path
         id="path18"
         d="m 9837.97,1752.38 v -32.81 h -15.51 v 32.81 l -24.03,47.18 h 16.96 l 14.94,-32.23 14.71,32.23 h 16.98 l -24.05,-47.18"
         style="fill:#100f0d;fill-opacity:1;fill-rule:nonzero;stroke:none"
         transform="matrix(0.13333333,0,0,-0.13333333,0,400)" />
      <path
         id="path19"
         d="m 9344.86,1479.07 c 4.38,0 7.43,-3.71 7.43,-7.76 v -223.3 c 0,-4.05 -3.05,-7.76 -7.43,-7.76 h -19.9 c -4.04,0 -7.75,3.71 -7.75,7.76 v 223.3 c 0,4.05 3.71,7.76 7.75,7.76 h 19.9 m 261.42,-210.49 c -29.01,0 -49.58,23.28 -49.58,52.63 0,29.67 20.57,52.62 49.58,52.62 29,0 49.59,-22.95 49.59,-52.62 0,-29.35 -20.59,-52.63 -49.59,-52.63 m 0,137.97 c -47.22,0 -85,-37.11 -85,-85.34 0,-48.58 37.78,-85.35 85,-85.35 47.23,0 85,36.77 85,85.35 0,48.23 -37.77,85.34 -85,85.34 m -93.77,-143.36 c 4.39,-5.39 0.67,-9.45 -1.69,-11.13 -13.83,-10.46 -32.05,-16.2 -51.95,-16.2 -50.25,0 -83.65,36.77 -83.65,85.35 0,48.57 33.4,85.67 83.65,85.67 19.9,0 38.12,-5.74 51.95,-16.19 2.36,-1.68 5.73,-5.4 1.69,-11.14 l -9.45,-13.14 c -3.7,-5.06 -8.09,-3.71 -11.8,-1.35 -8.77,5.39 -19.23,9.78 -31.37,9.78 -29.35,0 -48.91,-23.61 -48.91,-53.63 0,-30.03 19.56,-53.3 48.91,-53.3 12.14,0 21.91,4.72 30.7,9.78 3.7,2.02 7.75,3.71 11.8,-1.69 z m -314.37,5.05 c -29.01,0 -49.59,23.62 -49.59,52.97 0,29.67 20.58,52.62 49.59,52.62 28.67,0 49.58,-22.95 49.58,-52.62 0,-29.35 -20.91,-52.97 -49.58,-52.97 m 76.89,133.92 h -19.89 c -4.05,0 -7.76,-3.38 -7.76,-7.76 v -13.49 c -10.11,15.18 -29.68,25.97 -52.96,25.97 -43.85,0 -81.63,-34.74 -81.63,-85.34 0,-51.27 37.78,-85.68 81.29,-85.68 23.62,0 42.84,10.8 53.3,25.98 v -14.16 c 0,-4.05 3.71,-7.42 7.76,-7.42 h 19.89 c 4.05,0 7.43,3.37 7.43,7.42 v 146.72 c 0,4.38 -3.38,7.76 -7.43,7.76 m 933.67,-153.81 c 1.7,-4.05 -0.4,-8.1 -5.4,-8.1 h -22.3 c -4,0 -7.4,2.02 -8.8,6.07 l -41.1,110.64 -41.8,-110.64 c -1.7,-4.38 -4.8,-6.07 -8.8,-6.07 h -19.9 c -4.1,0 -7.1,1.69 -8.8,6.07 l -42.1,111.31 -41.54,-111.31 c -1.67,-4.05 -4.71,-6.07 -8.76,-6.07 h -20.92 c -4.04,0 -7.08,2.02 -8.76,6.07 l -41.16,111.31 -42.5,-111.31 c -1.69,-4.38 -4.72,-6.07 -8.77,-6.07 h -19.9 c -4.05,0 -7.08,1.69 -8.77,6.07 l -41.49,111.31 -41.49,-111.31 c -1.35,-4.05 -4.72,-6.07 -8.77,-6.07 h -21.59 c -5.06,0 -7.08,4.05 -5.39,8.1 l 56.32,147.4 c 1.69,4.39 4.73,6.41 8.78,6.41 h 24.28 c 4.05,0 7.09,-2.02 8.78,-6.41 l 39.79,-107.6 40.15,107.6 c 1.69,4.39 4.72,6.41 8.76,6.41 h 23.96 c 4.05,0 7.08,-2.02 8.76,-6.41 l 39.81,-107.6 39.8,107.6 c 1.69,4.39 4.72,6.41 8.77,6.41 h 23.95 c 4,0 7.1,-2.02 8.8,-6.41 l 40.5,-107.6 39.4,107.6 c 1.7,4.39 4.7,6.41 8.8,6.41 h 24.3 c 4,0 7.1,-2.02 8.7,-6.41 l 56.4,-147.4 m -1366.47,39.58 -15.48,40.36 c -1.35,3.37 -4.05,6.41 -10.12,6.41 h -20.24 c -5.05,0 -9.1,-3.37 -6.74,-9.79 l 20.45,-53.07 c -6.78,-1.68 -13.96,-2.57 -21.47,-2.57 -49.93,0 -85.34,39.12 -85.34,90.39 0,51.27 35.41,90.4 85.34,90.4 49.92,0 85.34,-39.13 85.34,-90.4 0,-29.77 -11.96,-55.43 -31.74,-71.73 m -53.6,195.52 c -68.14,0 -123.11,-52.95 -123.11,-123.79 0,-70.84 54.97,-123.8 123.11,-123.8 11.66,0 22.91,1.59 33.59,4.51 l 13.3,-34.53 c 1.35,-3.71 4.04,-6.07 9.11,-6.07 h 21.25 c 5.06,0 8.76,3.37 6.41,9.78 l -17.33,45.18 c 34.17,21.49 56.79,59.52 56.79,104.93 0,70.84 -54.98,123.79 -123.12,123.79 m 293.47,-81.29 c 4.05,0 7.75,-3.38 7.75,-7.76 v -146.72 c 0,-4.05 -3.7,-7.43 -7.75,-7.43 h -19.9 c -3.71,0 -7.42,3.03 -7.42,7.08 v 13.5 c -10.12,-14.84 -27.33,-24.97 -52.62,-24.97 -42.17,0 -68.14,28 -68.14,69.49 v 89.39 c 0,4.04 3.7,7.42 7.75,7.42 h 19.91 c 4.04,0 7.42,-3.38 7.42,-7.42 v -83.66 c 0,-26.98 14.16,-44.86 42.15,-44.86 27.33,0 43.53,18.56 43.53,44.53 v 83.99 c 0,4.04 3.71,7.42 7.42,7.42 h 19.9"
         style="fill:#100f0d;fill-opacity:1;fill-rule:nonzero;stroke:none"
         transform="matrix(0.13333333,0,0,-0.13333333,0,400)" />
      <path
         id="path20"
         d="m 4415.5,1455.07 c -13.91,-26.19 -35.11,-47.4 -61.32,-61.33 -28.16,-14.95 -59.02,-22.85 -89.23,-22.85 -46,0 -89.33,17.99 -122,50.65 -55.55,55.54 -66.46,138.45 -27.82,211.23 13.91,26.19 35.11,47.4 61.32,61.33 72.82,38.63 155.71,27.72 211.23,-27.81 55.54,-55.53 66.45,-138.44 27.82,-211.22 z m 822.01,-905.879 -769.35,1918.379 -3.44,8.59 H 3825.58 L 3960.86,2213.98 3279.73,549.191 h 502.38 l 222.35,577.719 484.19,-6.57 148.68,-383.07 -111.19,-188.079 h 711.37"
         style="fill:#100f0d;fill-opacity:1;fill-rule:nonzero;stroke:none"
         transform="matrix(0.13333333,0,0,-0.13333333,0,400)" />
      <path
         id="path21"
         d="m 7588.62,1018.26 4.81,1014.4 h 667.3 v 435 H 7019.99 l 117.42,-126.93 V 726.199 l -134.88,-137.488 134.88,0.051 v -0.024 l 1123.33,0.453 5.14,428.929 -677.26,0.14"
         style="fill:#100f0d;fill-opacity:1;fill-rule:nonzero;stroke:none"
         transform="matrix(0.13333333,0,0,-0.13333333,0,400)" />
      <path
         id="path22"
         d="m 7051.27,2453.98 99.81,-107.89 V 720.609 l -115.96,-118.211 1212.1,0.461 4.82,401.591 -677.16,0.14 4.93,1041.75 h 667.25 v 407.64 z M 6969.95,575.031 7123.73,731.789 V 2335.38 l -135.02,145.96 h 1285.7 v -462.36 h -667.37 l -4.68,-987.05 677.37,-0.13 -5.47,-456.28 -1304.31,-0.489"
         style="fill:#100f0d;fill-opacity:1;fill-rule:nonzero;stroke:none"
         transform="matrix(0.13333333,0,0,-0.13333333,0,400)" />
      <path
         id="path23"
         d="m 6975.89,1615.77 -3.48,35.11 h -944.25 l -187.62,-389.35 h 662.9 c -51.83,-93.4 -215.01,-299.409 -454.38,-289.569 -201.94,8.289 -326.44,109.149 -395.34,192.289 -82.29,99.32 -131.42,229.58 -131.42,348.43 0,116.94 49.85,252.97 130.1,355.01 66.63,84.7 183.86,185.67 364.01,185.67 322.63,0 420.49,-163.11 478.96,-260.56 l 18.15,-30.26 387.07,183.1 -15.23,34.68 c -140.75,320.5 -472.51,519.61 -865.83,519.61 -256.96,0 -498.48,-102.55 -680.09,-288.76 -181.34,-185.94 -281.22,-433.1 -281.22,-695.93 0,-262.84 99.88,-510 281.22,-695.939 181.61,-186.211 423.13,-288.762 680.09,-288.762 288.15,0 530.7,92.77 701.41,268.281 170.03,174.801 259.9,422.54 259.9,716.42 0,33.55 -1.66,67.37 -4.95,100.53"
         style="fill:#100f0d;fill-opacity:1;fill-rule:nonzero;stroke:none"
         transform="matrix(0.13333333,0,0,-0.13333333,0,400)" />
      <path
         id="path24"
         d="m 6019.53,2486.25 c -253.24,0 -491.29,-101.08 -670.29,-284.63 -178.84,-183.37 -277.34,-427.14 -277.34,-686.38 0,-259.25 98.5,-503.01 277.34,-686.4 179,-183.539 417.05,-284.621 670.29,-284.621 284.38,0 523.53,91.34 691.61,264.14 167.5,172.192 256.03,416.621 256.03,706.881 0,33.11 -1.65,66.48 -4.88,99.18 h -0.01 l -2.26,22.78 h -923.27 l -174.44,-361.99 h 664.36 l -11.27,-20.31 c -62.09,-111.89 -225.41,-296.931 -450.05,-296.959 -5.6,0 -11.18,0.118 -16.85,0.348 -206.97,8.5 -334.65,111.951 -405.31,197.241 -84.26,101.69 -134.57,235.21 -134.57,357.15 0,119.86 50.98,259.13 133.03,363.46 68.5,87.09 189.12,190.9 374.76,190.9 330.36,0 430.72,-167.26 490.68,-267.2 l 11.78,-19.64 363.85,172.12 -9.88,22.5 c -138.53,315.46 -465.5,511.43 -853.31,511.43 z m 0,-1969.379 c -260.68,0 -505.68,104.008 -689.88,292.879 -183.85,188.52 -285.1,439.06 -285.1,705.49 0,266.42 101.25,516.96 285.1,705.48 184.2,188.87 429.2,292.88 689.88,292.88 398.83,0 735.4,-202.24 878.35,-527.78 l 20.58,-46.86 -410.29,-194.08 -24.53,40.89 c -56.98,94.97 -152.35,253.91 -467.23,253.91 -174.66,0 -288.51,-98.13 -353.26,-180.45 -78.45,-99.74 -127.18,-232.53 -127.18,-346.55 0,-115.77 47.96,-242.76 128.29,-339.7 67.11,-81.01 188.46,-179.269 385.36,-187.359 206.86,-8.5 361.79,152.229 429.92,262.239 h -660.77 l 200.8,416.7 h 965.23 l 4.7,-47.44 c 3.33,-33.6 5.02,-67.88 5.02,-101.88 0,-297.52 -91.21,-548.549 -263.78,-725.959 C 6557.4,611.07 6311.47,516.871 6019.53,516.871"
         style="fill:#100f0d;fill-opacity:1;fill-rule:nonzero;stroke:none"
         transform="matrix(0.13333333,0,0,-0.13333333,0,400)" />
      <path
         id="path25"
         d="m 6528.76,1812.84 320.94,151.81 c -143.18,326.05 -476.81,496.32 -830.17,496.32 -509.4,0 -922.36,-423.42 -922.36,-945.74 0,-522.308 412.96,-945.742 922.36,-945.742 566.16,0 922.36,368.723 922.36,945.742 0,32.65 -1.61,64.91 -4.76,96.7 h -884.5 l -150.08,-311.44 h 657.27 c 0,-51.76 -198.63,-380.349 -512.36,-367.451 -377.8,15.52 -564.11,341.571 -564.11,579.631 0,238.07 191.49,579.64 533.06,579.64 341.57,0 450.25,-175.96 512.35,-279.47"
         style="fill:#ddaf42;fill-opacity:1;fill-rule:nonzero;stroke:none"
         transform="matrix(0.13333333,0,0,-0.13333333,0,400)" />
      <path
         id="path26"
         d="m 7177.66,2428.71 h -1.3 V 627.691 h 124.21 V 2221.7 l -122.91,207.01"
         style="fill:#b68725;fill-opacity:1;fill-rule:nonzero;stroke:none"
         transform="matrix(0.13333333,0,0,-0.13333333,0,400)" />
      <path
         id="path27"
         d="M 7300.57,2423.54 H 7176.36 V 627.691 h 124.21 V 2423.54"
         style="fill:#ab741d;fill-opacity:1;fill-rule:nonzero;stroke:none"
         transform="matrix(0.13333333,0,0,-0.13333333,0,400)" />
      <path
         id="path28"
         d="m 7549.48,979.32 5.18,1092.29 h 667.12 v 357.1 H 7109.08 L 7300.57,2221.7 V 836.898 l -205.24,-209.207 1126.92,0.43 4.22,351.059 -676.99,0.14"
         style="fill:#ddaf42;fill-opacity:1;fill-rule:nonzero;stroke:none"
         transform="matrix(0.13333333,0,0,-0.13333333,0,400)" />
      <path
         id="path29"
         d="m 7163.92,697.949 -13.03,12.801 139.44,141.871 V 2207.92 l -146.7,156.51 13.32,12.49 151.64,-161.78 V 845.148 L 7163.92,697.949"
         style="fill:#100f0d;fill-opacity:1;fill-rule:nonzero;stroke:none"
         transform="matrix(0.13333333,0,0,-0.13333333,0,400)" />
      <path
         id="path30"
         d="m 7374.65,887.852 h -18.32 V 2171.05 h 18.32 V 887.852"
         style="fill:#100f0d;fill-opacity:1;fill-rule:nonzero;stroke:none"
         transform="matrix(0.13333333,0,0,-0.13333333,0,400)" />
      <path
         id="path31"
         d="m 6038.55,741.551 c -314.8,0 -590.9,189.699 -712.89,503.259 l -3.32,8.54 17.08,6.65 3.32,-8.54 c 137.24,-352.769 474.15,-545.062 838.32,-478.499 l 9.01,1.648 3.3,-18.027 -9.02,-1.652 c -49.21,-8.989 -97.98,-13.379 -145.8,-13.379"
         style="fill:#100f0d;fill-opacity:1;fill-rule:nonzero;stroke:none"
         transform="matrix(0.13333333,0,0,-0.13333333,0,400)" />
      <path
         id="path32"
         d="m 6054.2,1440.06 -16.42,8.13 55.27,111.64 h 476.75 v -18.32 h -465.37 l -50.23,-101.45"
         style="fill:#100f0d;fill-opacity:1;fill-rule:nonzero;stroke:none"
         transform="matrix(0.13333333,0,0,-0.13333333,0,400)" />
      <path
         id="path33"
         d="m 6019.53,693.648 c -359.59,0 -663.86,242.883 -765.28,577.372 L 5143,1220.23 c 120.89,-377.839 467.6,-650.742 876.53,-650.742 93.77,0 181.74,10.184 263.32,29.684 l -46.93,117.34 c -67.37,-15.063 -139.66,-22.864 -216.39,-22.864"
         style="fill:#ab741d;fill-opacity:1;fill-rule:nonzero;stroke:none"
         transform="matrix(0.13333333,0,0,-0.13333333,0,400)" />
      <path
         id="path34"
         d="m 6281.3,576.98 -51.03,128.911 C 6163.94,691.68 6093.1,684.48 6019.53,684.48 c -176.43,0 -344.15,57.11 -485.03,165.149 -133.46,102.359 -234.72,247.271 -285.97,408.921 l -124.82,-54.22 -7.3,16.81 143.63,62.39 2.98,-9.85 c 49.11,-161.96 149.49,-307.391 282.63,-409.508 137.65,-105.563 301.52,-161.352 473.88,-161.352 75.05,0 147.19,7.61 214.39,22.629 l 7.64,1.711 56.79,-143.43 -17.05,-6.75"
         style="fill:#100f0d;fill-opacity:1;fill-rule:nonzero;stroke:none"
         transform="matrix(0.13333333,0,0,-0.13333333,0,400)" />
      <path
         id="path35"
         d="m 7966.61,1656.62 c -51.18,51.19 -127.79,61.14 -195.14,25.4 -23.78,-12.63 -43.03,-31.87 -55.66,-55.65 v -0.01 c -35.76,-67.36 -25.79,-143.95 25.4,-195.15 30.78,-30.77 70.73,-46.64 112.34,-46.64 27.61,0 55.94,6.99 82.81,21.25 23.78,12.63 43.03,31.88 55.65,55.67 35.76,67.35 25.79,143.94 -25.4,195.13"
         style="fill:#100f0d;fill-opacity:1;fill-rule:nonzero;stroke:none"
         transform="matrix(0.13333333,0,0,-0.13333333,0,400)" />
      <path
         id="path36"
         d="m 7854.2,1689.54 c -25.42,0 -51.53,-6.44 -76.32,-19.6 -21.37,-11.35 -38.65,-28.64 -49.98,-49.99 -32.88,-61.93 -23.86,-132.22 22.99,-179.07 27.5,-27.49 63.96,-42.64 102.67,-42.64 25.75,0 52.17,6.8 76.39,19.66 21.37,11.35 38.65,28.64 49.98,50 32.89,61.93 23.86,132.21 -22.98,179.05 -28.1,28.09 -64.64,42.59 -102.75,42.59 z m -0.64,-318.65 c -46.01,0 -89.34,17.99 -122.01,50.65 -55.54,55.54 -66.46,138.45 -27.82,211.23 13.91,26.2 35.11,47.4 61.32,61.33 72.82,38.63 155.71,27.71 211.23,-27.81 55.54,-55.53 66.45,-138.44 27.82,-211.22 -13.91,-26.19 -35.11,-47.4 -61.32,-61.33 -28.16,-14.95 -59.02,-22.85 -89.22,-22.85"
         style="fill:#100f0d;fill-opacity:1;fill-rule:nonzero;stroke:none"
         transform="matrix(0.13333333,0,0,-0.13333333,0,400)" />
      <path
         id="path37"
         d="m 7975.59,1541.54 c 0,-66.52 -53.92,-120.44 -120.44,-120.44 -66.51,0 -120.43,53.92 -120.43,120.44 0,66.51 53.92,120.43 120.43,120.43 66.52,0 120.44,-53.92 120.44,-120.43"
         style="fill:#ddaf42;fill-opacity:1;fill-rule:nonzero;stroke:none"
         transform="matrix(0.13333333,0,0,-0.13333333,0,400)" />
      <path
         id="path38"
         d="m 4415.5,1455.07 c -13.91,-26.19 -35.11,-47.4 -61.32,-61.33 -28.16,-14.95 -59.02,-22.85 -89.23,-22.85 -46,0 -89.33,17.99 -122,50.65 -55.55,55.54 -66.46,138.45 -27.82,211.23 13.91,26.19 35.11,47.4 61.32,61.33 72.82,38.63 155.71,27.72 211.23,-27.81 55.54,-55.53 66.45,-138.44 27.82,-211.22 z M 5159.7,601.809 4429.12,2423.54 h -517.17 l 106.81,-207.02 -660.5,-1614.711 h 387.72 l 222.54,578.221 556.35,-7.55 170.78,-439.992 -77.26,-130.679 h 541.31"
         style="fill:#ddaf42;fill-opacity:1;fill-rule:nonzero;stroke:none"
         transform="matrix(0.13333333,0,0,-0.13333333,0,400)" />
      <path
         id="path39"
         d="m 4018.76,2216.52 c 0,0 -660.71,-1614.711 -660.72,-1614.711 h 124.49 l 598.12,1495.461 -61.89,119.25"
         style="fill:#ab741d;fill-opacity:1;fill-rule:nonzero;stroke:none"
         transform="matrix(0.13333333,0,0,-0.13333333,0,400)" />
      <path
         id="path40"
         d="m 3478.02,571.871 -16.87,6.777 3.39,8.442 601.38,1497.88 -63.68,122.69 16.14,8.37 67.52,-130.09 -1.55,-3.87 -606.33,-1510.199"
         style="fill:#100f0d;fill-opacity:1;fill-rule:nonzero;stroke:none"
         transform="matrix(0.13333333,0,0,-0.13333333,0,400)" />
      <path
         id="path41"
         d="m 3542.92,571.75 -16.97,6.93 475.95,1166.76 16.97,-6.93 -475.95,-1166.76"
         style="fill:#100f0d;fill-opacity:1;fill-rule:nonzero;stroke:none"
         transform="matrix(0.13333333,0,0,-0.13333333,0,400)" />
      <path
         id="path42"
         d="m 4607.49,1796.78 -226.27,553.96 h -93.09 v 18.33 h 105.4 l 230.93,-565.36 -16.97,-6.93"
         style="fill:#100f0d;fill-opacity:1;fill-rule:nonzero;stroke:none"
         transform="matrix(0.13333333,0,0,-0.13333333,0,400)" />
      <path
         id="path43"
         d="m 4266.56,1421.11 c -66.52,0 -120.44,53.91 -120.44,120.43 0,66.51 53.92,120.42 120.44,120.42 66.51,0 120.43,-53.91 120.43,-120.42 0,-66.52 -53.92,-120.43 -120.43,-120.43 z m -90.11,272.99 c -26.21,-13.93 -47.41,-35.14 -61.32,-61.33 -38.64,-72.78 -27.73,-155.69 27.82,-211.23 32.67,-32.66 76,-50.65 122,-50.65 30.21,0 61.07,7.9 89.23,22.85 26.21,13.93 47.41,35.14 61.32,61.33 38.63,72.78 27.72,155.69 -27.82,211.22 -55.52,55.53 -138.41,66.44 -211.23,27.81"
         style="fill:#100f0d;fill-opacity:1;fill-rule:nonzero;stroke:none"
         transform="matrix(0.13333333,0,0,-0.13333333,0,400)" />
      <path
         id="path44"
         d="m 8173.9,2287.34 h -18.32 v 72.46 h -333.81 v 18.33 h 352.13 v -90.79"
         style="fill:#100f0d;fill-opacity:1;fill-rule:nonzero;stroke:none"
         transform="matrix(0.13333333,0,0,-0.13333333,0,400)" />
      <path
         id="path45"
         d="m 8074.62,706.148 v 10.184 h 47.49 v -10.184 h -17.7 v -48.226 h -12.08 v 48.226 h -17.71"
         style="fill:#100f0d;fill-opacity:1;fill-rule:nonzero;stroke:none"
         transform="matrix(0.13333333,0,0,-0.13333333,0,400)" />
      <path
         id="path46"
         d="m 8129.96,716.332 h 15.08 l 15.92,-39.254 h 0.68 l 15.92,39.254 h 15.08 v -58.41 h -11.86 v 38.019 h -0.48 l -14.96,-37.742 h -8.08 l -14.96,37.883 h -0.48 v -38.16 h -11.86 v 58.41"
         style="fill:#100f0d;fill-opacity:1;fill-rule:nonzero;stroke:none"
         transform="matrix(0.13333333,0,0,-0.13333333,0,400)" />
    </g>
  </g>
</svg>
