<?xml version="1.0" encoding="UTF-8"?><svg id="Layer_1" xmlns="http://www.w3.org/2000/svg" viewBox="0 0 543.18 301.35"><defs><style>.cls-1{fill:#ed1c24;}.cls-1,.cls-2,.cls-3,.cls-4,.cls-5{stroke-width:0px;}.cls-2{fill:#0065b3;}.cls-3{fill:#fff;}.cls-4{fill:#231f20;}.cls-5{fill:#99999a;}</style></defs><path class="cls-1" d="m18.26,192.52h503.12c9.82,0,17.79,7.97,17.79,17.79v70.92c0,9.82-7.97,17.79-17.79,17.79H18.26c-9.82,0-17.79-7.97-17.79-17.79v-70.93c0-9.82,7.97-17.79,17.79-17.79Z"/><polygon class="cls-4" points="288.82 61.44 300.74 61.44 300.74 96.96 322.1 96.96 322.1 107.22 288.82 107.22 288.82 61.44"/><polygon class="cls-4" points="324.15 61.44 360.64 61.44 360.64 70.99 336.07 70.99 336.07 79.01 358.52 79.01 358.52 88.24 336.07 88.24 336.07 96.96 361.28 96.96 361.28 107.22 324.15 107.22 324.15 61.44"/><path class="cls-4" d="m406.48,107.22h-7.69l-.7-5c-3.14,4.42-8.53,5.96-12.76,5.96-13.85,0-22.83-10.58-22.83-23.85s8.98-23.86,22.83-23.86c9.49,0,19.62,5.07,20.71,16.54h-11.93c-.39-3.91-4.23-6.28-9.04-6.28-7.69,0-10.65,6.8-10.65,13.6s2.95,13.59,10.65,13.59c5.9,0,9.88-2.75,10.52-6.92h-8.34v-8.85h19.24v25.08Z"/><path class="cls-4" d="m431.1,60.47c14.43,0,22.57,10.58,22.57,23.86s-8.15,23.85-22.57,23.85-22.57-10.58-22.57-23.85,8.15-23.86,22.57-23.86m0,37.45c7.69,0,10.64-6.79,10.64-13.59s-2.95-13.6-10.64-13.6-10.64,6.8-10.64,13.6,2.95,13.59,10.64,13.59"/><polygon class="cls-4" points="290.1 120.07 302.02 120.07 302.02 155.59 323.38 155.59 323.38 165.85 290.1 165.85 290.1 120.07"/><polygon class="cls-4" points="325.43 120.07 361.91 120.07 361.91 129.62 337.36 129.62 337.36 137.63 359.8 137.63 359.8 146.86 337.36 146.86 337.36 155.59 362.55 155.59 362.55 165.85 325.43 165.85 325.43 120.07"/><path class="cls-4" d="m377.95,120.07h12.12l17.12,45.78h-12.44l-2.82-8.21h-15.97l-2.88,8.21h-12.25l17.12-45.78Zm.77,28.72h10.39l-5.07-16.03h-.13l-5.19,16.03Z"/><path class="cls-4" d="m449.06,165.85h-7.69l-.71-5c-3.14,4.42-8.53,5.96-12.76,5.96-13.85,0-22.83-10.58-22.83-23.85s8.98-23.86,22.83-23.86c9.49,0,19.62,5.07,20.71,16.54h-11.92c-.39-3.91-4.23-6.28-9.04-6.28-7.69,0-10.65,6.8-10.65,13.6s2.95,13.59,10.65,13.59c5.9,0,9.88-2.75,10.52-6.92h-8.34v-8.85h19.24v25.07Z"/><path class="cls-4" d="m492.4,146.93c0,13.27-6.09,19.88-19.94,19.88s-19.94-6.61-19.94-19.88v-26.86h11.93v27.57c0,5.9,2.18,8.91,8.01,8.91s8.02-3.01,8.02-8.91v-27.57h11.93v26.86Z"/><polygon class="cls-4" points="496.51 120.07 532.99 120.07 532.99 129.62 508.44 129.62 508.44 137.63 530.88 137.63 530.88 146.86 508.44 146.86 508.44 155.59 533.63 155.59 533.63 165.85 496.51 165.85 496.51 120.07"/><path class="cls-5" d="m130.94,53.54c4.79,0,9.44.44,13.89,1.25l10.56-11.01c-7.39-2.55-15.69-3.99-24.45-3.99-14.91,0-28.44,4.15-38.48,10.92l9.21,8.72c8.52-3.73,18.53-5.89,29.27-5.89"/><path class="cls-3" d="m130.94,39.79c8.76,0,17.06,1.43,24.45,3.99l11.49-11.96c-10.72-4.22-22.95-6.63-35.94-6.63-19.37,0-37.04,5.33-50.53,14.1l12.05,11.42c10.03-6.77,23.57-10.92,38.48-10.92"/><path class="cls-5" d="m75.78,86.58c.97-3.95,2.75-7.69,5.21-11.15l-4.63-4.68c-.91,2.88-1.43,5.87-1.43,8.96,0,2.34.3,4.64.84,6.87"/><path class="cls-5" d="m41.58,112.46l-1.94,10.07,19.33-8.32c-1.22-2.56-1.46-5.91-2.17-8.63l-15.22,6.88Z"/><polygon class="cls-5" points="27.98 2.92 0 156.13 13.23 157.21 40.94 1.77 27.98 2.92"/><path class="cls-1" d="m122.06,91.08v-12.39l-20.32-19.27-9.21-8.72-12.05-11.41L40.89,1.77,13.18,157.2l58.64-25.78c-5.84-5.16-9.98-10.66-13.05-17.14l-19.09,8.19,1.91-10.02,12.37-64.47,1.03-5.41,10.22,10.28,13.14,13.23,5.64,5.68,23.19,19.98-22.51,10.32c5.85,5.84,12.77,10.99,22.11,13.89l28.09-12.62-12.81-12.28Z"/><path class="cls-5" d="m186.09,86.58c.54-2.23.85-4.53.85-6.87,0-6.92-2.53-13.45-6.89-19.13l-6.67,6.91c6.4,5.33,10.95,11.89,12.7,19.09"/><path class="cls-5" d="m198.63,152.15l-15.81-15.19c-2.53,1.73-5.23,3.33-8.06,4.8l23.86,22.91,73.59-76.65-.08-12.42-73.51,76.54Z"/><path class="cls-5" d="m145.01,100.68l-13.02-12.5-9.96-9.51-.04,12.42,14.01,13.46,13.38,12.86c3.41-.84,6.66-1.92,9.72-3.19l-14.09-13.53Z"/><polygon class="cls-5" points="196.18 31.36 185.7 42.26 174.14 54.31 166.26 62.51 151.34 78.05 157.59 84.06 173.47 67.51 180.12 60.6 192.28 47.93 196.18 43.87 236.64 82.67 242.9 76.17 196.18 31.36"/><path class="cls-3" d="m192.28,47.93l-12.17,12.67c4.35,5.67,6.82,12.18,6.82,19.1,0,2.34-.3,4.64-.84,6.87-1.42,5.83-4.61,11.22-9.16,15.89-4.66,4.78-10.75,8.8-17.83,11.74-3.06,1.27-6.31,2.34-9.72,3.19-5.77,1.43-11.98,2.23-18.44,2.23-7.96,0-15.53-1.19-22.39-3.33-9.34-2.91-17.35-7.58-23.2-13.42-2.14-2.13-3.98-4.42-5.5-6.84-1.87-2.98-3.26-6.15-4.07-9.46-.55-2.23-.84-4.53-.84-6.87,0-3.08.51-6.08,1.43-8.96l-13.97-14.14c-5.12,7.59-8.01,16.14-8.01,25.2,0,2.33.22,4.62.59,6.88.9,5.47,2.86,10.7,5.72,15.58,1.43,2.45,3.09,4.81,4.97,7.07,4.92,5.93,11.25,11.14,18.68,15.36,12.9,7.34,29.06,11.72,46.61,11.72,12.27,0,23.86-2.14,34.14-5.94,3.12-1.15,6.11-2.46,8.98-3.9,6.62-3.35,12.5-7.45,17.41-12.14,8.24-7.86,13.73-17.37,15.44-27.75.37-2.25.58-4.55.58-6.88,0-12.7-5.65-24.43-15.2-33.87"/><path class="cls-2" d="m144.94,100.77l14.05,13.49c7.07-2.95,13.21-6.92,17.87-11.7l-19.25-18.49-6.25-6.01,14.85-15.46,7.87-8.2,11.56-12.05,10.48-10.9,46.61,44.76-6.26,6.52-38.19,39.77c-4.03,5.51-9.24,10.4-15.41,14.62l15.69,15.14,73.59-76.65L195.51,2.02l-28.7,29.89-11.49,11.97-10.57,11.01-22.72,23.78,22.91,22.11Z"/><path class="cls-5" d="m80.17,96.41s.37.6.41.68c1.12,1.78,2.67,3.42,4.13,5.05l22.89-10.58-52.61-49-1.43,7.58,41.28,40.87-14.66,5.4Z"/><path class="cls-5" d="m207.49,81.8c0,2.33-.21,4.62-.58,6.88-1.7,10.38-7.21,19.89-15.44,27.75-4.91,4.69-10.79,8.79-17.41,12.14-2.86,1.44-5.85,2.75-8.98,3.9-10.28,3.8-21.87,5.94-34.15,5.94-17.55,0-33.7-4.38-46.6-11.72-7.43-4.22-13.77-9.43-18.68-15.36-1.87-2.26-3.54-4.62-4.97-7.07-2.86-4.88-4.82-10.11-5.72-15.58-.37-2.25-.58-4.55-.58-6.88,0-.73.06-1.46.09-2.18,0-.04-.02-.1-.03-.13-.37,2.26-.07,13.73-.07,16.07,0,3.69.49,7.29,1.41,10.79.71,2.73,1.69,5.38,2.91,7.95,3.07,6.48,7.68,12.42,13.53,17.58,14.05,12.39,35.14,20.28,58.72,20.28,16.36,0,31.51-3.81,43.96-10.27,2.83-1.47,5.51-3.07,8.04-4.8,6.17-4.23,11.39-9.18,15.41-14.7,5.83-7.98,9.14-17.12,9.14-26.83,0-2.05.18-11.76-.02-15.62-.04-.53.02,1.19.02,1.86"/><path class="cls-4" d="m456.51,63.61c2.25,0,4.08,1.82,4.08,4.08s-1.82,4.09-4.08,4.09-4.09-1.78-4.09-4.09,1.81-4.08,4.09-4.08m0,7.66c1.99,0,3.57-1.6,3.57-3.57s-1.58-3.59-3.57-3.59-3.58,1.6-3.58,3.57,1.58,3.58,3.58,3.58m-1.59-5.68c.21-.01.24-.02.64-.06.42-.03.59-.05.76-.05,1.34,0,2.01.53,2.01,1.52,0,.6-.25.96-.79,1.17l-.07.02s.07.04.08.08c.14.12.61.83,1.01,1.48h-1.53c-.31-.58-.41-.74-.8-1.4v1.4h-1.31v-4.16Zm1.47,1.96c.36,0,.56-.17.56-.5s-.18-.5-.55-.5c-.08,0-.09,0-.17.01v.97c.06.01.09.01.16.01"/><polygon class="cls-4" points="299.85 .92 332.27 .92 329.21 13.4 313.68 13.4 312.14 19.96 328.35 19.96 325.53 31.53 309.53 31.53 305.69 47.96 288.94 47.96 299.85 .92"/><polygon class="cls-4" points="336.67 .92 353.42 .92 342.51 47.96 325.77 47.96 336.67 .92"/><path class="cls-4" d="m357.8,1.2l1.08-.14C364.25.43,370.94,0,374.63,0c6.14,0,10.91.7,14.52,2.18,4.61,1.9,7.38,6.07,7.38,11.07,0,4.3-1.46,8.39-4.23,11.57-2.38,2.75-4.53,4.09-8.99,5.43l-1.07.35c.46.36.61.5.84.71,1.31,1.48,5.22,9.1,8.53,16.64h-18.44c-2.38-6.7-3.07-8.46-6.22-16.08l-3.68,16.08h-16.29l10.83-46.76Zm12.37,22.15c5.38,0,9.14-3.17,9.14-7.69,0-2.4-1.77-3.6-5.22-3.6-1,0-1.54.07-2.61.29l-2.53,10.86c.54.07.61.14,1.23.14"/><polygon class="cls-4" points="436.28 .92 476.91 .92 474.07 14.54 462.01 14.54 454.02 47.96 437.27 47.96 445.26 14.54 432.19 14.54 436.28 .92"/><path class="cls-4" d="m461.86,39.56c2.25,0,4.09,1.81,4.09,4.07s-1.82,4.09-4.09,4.09-4.08-1.78-4.08-4.09,1.8-4.07,4.08-4.07m0,7.66c1.99,0,3.58-1.6,3.58-3.57s-1.6-3.58-3.58-3.58-3.57,1.6-3.57,3.57,1.58,3.58,3.57,3.58m-1.58-5.67c.21-.01.24-.03.65-.06.41-.03.59-.05.76-.05,1.34,0,2,.52,2,1.52,0,.6-.25.96-.79,1.17l-.06.02s.06.04.08.08c.14.13.61.84,1.01,1.48h-1.53c-.31-.59-.41-.74-.81-1.41v1.41h-1.31v-4.15Zm1.47,1.96c.36,0,.57-.17.57-.51,0-.31-.19-.49-.55-.49-.08,0-.09,0-.17.01v.97c.06.01.1.01.16.01"/><path class="cls-4" d="m393.25,46.76c4.71,1.4,9.86,2.18,14.67,2.18,6.53,0,11.52-1.48,15.82-4.58,4.76-3.39,7.84-8.61,7.84-13.33,0-3.17-1.38-6.07-3.84-8.11-1.93-1.55-3.92-2.75-7.99-4.65l-3.31-1.55c-1.07-.56-1.61-1.13-1.61-1.76,0-1.69,2.15-2.96,5.07-2.96,2.18,0,4.78.64,9.76,2.26l3.43-12.73c-3.72-1.01-7.35-1.52-10.96-1.52-13.67,0-24.2,7.48-24.2,17.14,0,5.08,3.38,8.67,11.83,12.62,4,1.83,4.69,2.33,4.69,3.6,0,1.91-2.07,3.1-5.45,3.1-3,0-6.84-.91-12.06-2.82h0l-3.67,13.12Z"/><path class="cls-3" d="m78.08,257.14c.85-.85,1.81-1.34,2.89-1.47,1.08-.13,2.07.02,2.97.44s1.6,1.1,2.1,2.02c.5.92.62,2.02.36,3.29-.32,1.27-.92,2.44-1.82,3.53-.9,1.08-1.8,2.07-2.69,2.97-2.06,2.17-4.35,3.76-6.86,4.79-2.51,1.03-5.04,1.52-7.61,1.47s-5.07-.66-7.53-1.82c-2.46-1.16-4.66-2.91-6.62-5.23-1.16-1.37-2.14-2.83-2.93-4.36-.79-1.53-1.4-3.14-1.82-4.83-.63-2.48-.92-5.07-.87-7.77.05-2.69.48-5.31,1.27-7.84.79-2.54,1.91-4.93,3.37-7.17,1.45-2.25,3.24-4.16,5.35-5.74,1.53-1.16,3.08-2.17,4.64-3.01,1.56-.84,3.21-1.64,4.95-2.38,1-.42,2.03-.83,3.09-1.23,1.06-.4,2.14-.7,3.25-.91,1.11-.21,2.22-.29,3.33-.24,1.11.05,2.19.29,3.25.71.74.32,1.48.75,2.22,1.31.74.55,1.43,1.19,2.06,1.9.63.71,1.19,1.46,1.66,2.26.47.79.82,1.56,1.03,2.3.16.69.2,1.39.12,2.1-.08.71-.29,1.36-.63,1.94-.34.58-.81,1.07-1.39,1.46-.58.4-1.24.65-1.98.75-1.21.16-2.15.03-2.81-.4s-1.19-.95-1.58-1.58c-.4-.64-.78-1.25-1.15-1.86-.37-.61-.9-1.04-1.58-1.31-.42,0-.74.03-.95.08-1.8.47-3.61,1.12-5.43,1.94-1.82.82-3.51,1.81-5.07,2.97-1.56,1.16-2.92,2.51-4.08,4.04-1.16,1.53-2.01,3.25-2.54,5.15-.63,2.27-.87,4.57-.71,6.9.16,2.32.79,4.51,1.9,6.58.63,1.22,1.48,2.27,2.54,3.17,1.06.9,2.22,1.57,3.49,2.02,1.27.45,2.56.61,3.88.48,1.32-.13,2.59-.59,3.8-1.39,1.06-.74,2.01-1.65,2.85-2.73.85-1.08,1.61-2.18,2.3-3.29Z"/><path class="cls-3" d="m136.83,244.07c1.27.37,2.22,1.04,2.85,2.02.63.98.94,2,.91,3.05-.03,1.06-.36,2.05-.99,2.97-.63.93-1.56,1.52-2.77,1.78v13.79c0,1.32-.33,2.5-.99,3.53-.66,1.03-1.46,1.75-2.41,2.18-.95.43-1.96.52-3.01.28-1.06-.24-2.01-.94-2.85-2.1-.37-.53-.62-1.13-.75-1.82-.13-.69-.2-1.32-.2-1.9v-13.71h-18.46v13.47c0,.58-.05,1.17-.16,1.78-.11.61-.29,1.15-.56,1.63-.69,1.27-1.56,2.09-2.61,2.45-1.06.37-2.09.36-3.09-.04-1-.4-1.86-1.08-2.57-2.06-.71-.98-1.07-2.18-1.07-3.61v-40.97c0-1.37.41-2.56,1.23-3.57.82-1,1.76-1.71,2.81-2.1,1.06-.4,2.13-.42,3.21-.08s1.89,1.18,2.42,2.5c.16.43.26.81.32,1.15.05.35.08.73.08,1.15v17.91h18.46v-16.96c0-1.05.24-2.06.71-3.01.58-1.16,1.41-1.98,2.5-2.45,1.08-.48,2.14-.61,3.17-.4,1.03.21,1.93.73,2.69,1.55.77.82,1.15,1.94,1.15,3.37v18.23Z"/><path class="cls-3" d="m193.52,268.79c-.16,1.16-.56,2.15-1.19,2.97-.63.82-1.36,1.39-2.18,1.7-.82.32-1.69.36-2.62.12-.92-.24-1.78-.86-2.57-1.86-.69-.84-1.07-1.78-1.15-2.81-.08-1.03-.23-2.04-.44-3.05-.53-2.91-1.3-5.89-2.3-8.96-3.28.06-6.52.08-9.74.08s-6.45.03-9.67.08c-.48,1.38-.88,2.77-1.23,4.2-.34,1.43-.67,2.83-.99,4.2-.27,1.05-.5,2.15-.71,3.29s-.69,2.13-1.42,2.97c-.9,1.06-1.86,1.65-2.89,1.78s-1.96-.04-2.77-.52c-.82-.47-1.48-1.2-1.98-2.18-.5-.98-.67-2.1-.51-3.37.16-1.64.47-3.25.95-4.83.47-1.58.92-3.17,1.35-4.75,2.38-9.08,5.44-17.88,9.19-26.39.32-.74.65-1.45.99-2.14.34-.69.67-1.37.99-2.06.37-.74.74-1.53,1.11-2.38.37-.84.81-1.63,1.31-2.34.5-.71,1.1-1.32,1.78-1.82s1.53-.75,2.54-.75c1.32,0,2.43.42,3.33,1.27,3.59,3.59,6.55,7.65,8.87,12.16,2.32,4.51,4.41,9.13,6.26,13.82,1.11-.05,2.19-.05,3.25,0,1.06.06,2.01.53,2.85,1.43.74.74,1.17,1.54,1.31,2.38.13.84.05,1.66-.24,2.45-.29.79-.77,1.48-1.42,2.06-.66.58-1.47.98-2.42,1.19.53,1.85.99,3.74,1.39,5.67.4,1.93.73,3.87.99,5.82v.56Zm-16.16-21.56c-1-2.38-2.07-4.74-3.21-7.09-1.14-2.35-2.42-4.58-3.84-6.7-1.06,2.33-2.05,4.63-2.97,6.93-.93,2.3-1.78,4.63-2.57,7.01,2.48-.05,4.66-.08,6.54-.08s3.89-.03,6.06-.08Z"/><path class="cls-3" d="m235.78,263.4c1.21.58,2.14,1.32,2.77,2.22.63.9.94,1.81.91,2.73s-.37,1.8-1.03,2.61c-.66.82-1.68,1.44-3.05,1.86-.53.16-1.27.25-2.22.28-.95.03-2.27.04-3.96.04h-6.42c-2.59,0-5.78.03-9.59.08-.95.05-1.93.08-2.93.08s-1.88-.34-2.61-1.03c-.63-.53-1.1-1.33-1.39-2.42-.29-1.08-.48-2.22-.56-3.41-.08-1.19-.11-2.38-.08-3.57.03-1.19.04-2.18.04-2.97,0-1.58.01-3.41.04-5.47.03-2.06.05-4.16.08-6.3.03-2.14.04-4.24.04-6.3v-5.47c0-2.8.02-5.06.08-6.78.05-1.72.17-3.06.36-4.04.18-.98.49-1.69.91-2.14.42-.45,1-.83,1.74-1.15.63-.26,1.33-.35,2.1-.27.76.08,1.48.29,2.14.63s1.22.82,1.66,1.43c.45.61.67,1.28.67,2.02.11,6.34.11,12.63,0,18.86-.11,6.23-.16,12.47-.16,18.7,3.33,0,6.64-.04,9.94-.12s6.64-.17,10.02-.28l.48.16Z"/><path class="cls-3" d="m280.98,263.4c1.21.58,2.14,1.32,2.77,2.22.63.9.94,1.81.91,2.73s-.37,1.8-1.03,2.61c-.66.82-1.68,1.44-3.05,1.86-.53.16-1.27.25-2.22.28-.95.03-2.27.04-3.96.04h-6.42c-2.59,0-5.78.03-9.59.08-.95.05-1.93.08-2.93.08s-1.88-.34-2.61-1.03c-.63-.53-1.1-1.33-1.39-2.42-.29-1.08-.48-2.22-.56-3.41-.08-1.19-.11-2.38-.08-3.57.03-1.19.04-2.18.04-2.97,0-1.58.01-3.41.04-5.47s.05-4.16.08-6.3c.03-2.14.04-4.24.04-6.3v-5.47c0-2.8.02-5.06.08-6.78.05-1.72.17-3.06.36-4.04.18-.98.49-1.69.91-2.14.42-.45,1-.83,1.74-1.15.63-.26,1.33-.35,2.1-.27.76.08,1.48.29,2.14.63s1.22.82,1.66,1.43c.45.61.67,1.28.67,2.02.11,6.34.11,12.63,0,18.86-.11,6.23-.16,12.47-.16,18.7,3.33,0,6.64-.04,9.94-.12s6.64-.17,10.02-.28l.48.16Z"/><path class="cls-3" d="m325.08,261.26c.95.05,1.78.3,2.5.75s1.29.99,1.74,1.62c.45.64.71,1.36.79,2.18.08.82-.09,1.65-.52,2.5-.16.37-.49.81-.99,1.31-.5.5-.96.81-1.39.91-3.38,1-6.85,1.62-10.42,1.86-3.57.24-7.09.17-10.58-.2-1.01-.11-2.1-.21-3.29-.32-1.19-.11-2.23-.45-3.13-1.03-1.64-1.06-2.46-2.56-2.46-4.52v-33.75c-.58-.43-1.06-.95-1.43-1.58-.37-.64-.59-1.31-.67-2.02-.08-.72.01-1.4.28-2.06.26-.66.71-1.23,1.35-1.71,1.06-.84,2.27-1.41,3.65-1.7,1.37-.29,2.72-.54,4.04-.75,2.75-.43,5.49-.64,8.24-.64s5.55-.03,8.4-.08c.84,0,1.82-.06,2.93-.2,1.11-.13,2.09-.04,2.93.27,1,.37,1.8.95,2.38,1.74.58.79.92,1.64,1.03,2.54s-.07,1.77-.51,2.61c-.45.85-1.23,1.51-2.34,1.98-1.32.53-2.73.76-4.24.71-1.51-.05-2.95-.08-4.32-.08-2.01,0-4.01.03-6.02.08-2.01.05-4.01.21-6.02.47v11.02c1.9.11,3.8.11,5.71,0,1.9-.11,3.8-.24,5.71-.4.84-.05,1.69-.13,2.54-.24.84-.11,1.71-.11,2.61,0,1.16.16,2.06.63,2.69,1.43.63.79,1.02,1.68,1.15,2.65.13.98-.04,1.94-.51,2.89-.48.95-1.24,1.64-2.3,2.06-.9.37-2.11.65-3.64.83-1.53.18-3.14.32-4.83.4-1.69.08-3.36.12-4.99.12s-3.01-.03-4.12-.08v9.75c2.9.37,5.84.42,8.79.16,2.96-.26,5.86-.76,8.72-1.51h.56Z"/><path class="cls-3" d="m375.42,224.1c.32-1.05.83-1.93,1.55-2.61s1.49-1.14,2.34-1.35,1.7-.16,2.57.16,1.62.95,2.26,1.9c.21.27.41.58.59.95.18.37.28.71.28,1.03.11,7.56.07,15.1-.12,22.62-.19,7.53-.49,15.07-.91,22.62,0,1.22-.38,2.16-1.15,2.85-.77.69-1.64,1.12-2.61,1.31-.98.18-1.97.08-2.97-.32-1.01-.4-1.74-1.07-2.22-2.02-.05-.05-.08-.11-.08-.16v.16c-3.44-5.65-7.05-11.08-10.86-16.28-3.8-5.2-7.77-10.37-11.89-15.49v24.01c0,1.64-.03,2.97-.08,4-.05,1.03-.12,1.84-.2,2.42-.08.58-.2,1.08-.36,1.51-.47,1.27-1.2,2.11-2.18,2.54-.98.42-1.97.53-2.97.32s-1.87-.74-2.61-1.58c-.74-.85-1.11-1.9-1.11-3.17v-22.11c0-2.22-.02-4.29-.04-6.22-.03-1.93-.04-3.55-.04-4.87,0-1.8-.03-3.58-.08-5.35-.05-1.77-.05-3.55,0-5.35,0-.9.22-1.66.67-2.3.45-.63,1.02-1.12,1.7-1.46.69-.35,1.43-.54,2.22-.59s1.56.05,2.3.32c.63.21,1.28.65,1.94,1.31.66.66,1.31,1.37,1.94,2.14.63.77,1.23,1.54,1.78,2.3.55.76,1.02,1.39,1.39,1.86,1.37,1.69,2.96,3.63,4.75,5.82,1.8,2.19,3.46,4.27,4.99,6.22,1.53,2.01,3.02,4.01,4.48,6.02,1.45,2.01,2.86,4.02,4.24,6.02.16-4.81.26-9.59.32-14.34.05-4.75.08-9.53.08-14.34l.08-.48Z"/><path class="cls-3" d="m437.82,242.88c1.06.32,1.95.83,2.7,1.54.74.72,1.23,1.51,1.46,2.38.24.87.18,1.74-.16,2.61-.34.87-1.07,1.65-2.18,2.34-.11.16-.13.81-.08,1.94.05,1.14.09,2.44.12,3.92.02,1.48-.02,2.97-.12,4.48-.11,1.51-.34,2.68-.71,3.53-.37.69-.82,1.3-1.35,1.82-.53.53-1.08,1.03-1.66,1.51-1.96,1.64-4.04,2.89-6.26,3.76-2.22.87-4.49,1.39-6.81,1.55s-4.66-.08-7.01-.72c-2.35-.63-4.61-1.64-6.77-3.01-2.75-1.74-5.06-3.99-6.93-6.73-1.88-2.75-3.24-5.71-4.08-8.88-.53-2.01-.83-4.11-.91-6.3-.08-2.19.09-4.36.51-6.5s1.11-4.19,2.06-6.14,2.14-3.73,3.57-5.31c1.69-1.85,3.63-3.38,5.82-4.59,2.19-1.22,4.45-2.27,6.77-3.17,1.8-.74,3.65-1.3,5.55-1.66,1.9-.37,3.83-.5,5.78-.4,1.48.11,3.08.36,4.79.75,1.72.4,3.18,1.1,4.4,2.1.58.47,1.07,1.06,1.47,1.74.4.69.63,1.39.71,2.1.08.71-.01,1.4-.28,2.06-.27.66-.74,1.26-1.43,1.78-.69.53-1.41.83-2.18.91s-1.55.03-2.34-.16c-.79-.18-1.58-.44-2.38-.75s-1.53-.58-2.22-.79c-.58-.21-1.2-.3-1.86-.27-.66.03-1.31.09-1.94.2-1.85.53-3.71,1.18-5.59,1.94-1.87.77-3.6,1.71-5.19,2.81-1.58,1.11-2.95,2.43-4.08,3.96-1.14,1.53-1.86,3.38-2.18,5.55-.42,2.7-.29,5.38.4,8.04.69,2.67,1.95,5.01,3.8,7.01,1.21,1.32,2.63,2.39,4.24,3.21,1.61.82,3.29,1.31,5.03,1.46,1.74.16,3.46-.03,5.15-.55,1.69-.53,3.2-1.45,4.52-2.77v-8.56c-1.06.05-2.15.15-3.29.27-1.14.14-2.27.21-3.41.24-1.14.03-2.25-.05-3.33-.24-1.08-.18-2.1-.54-3.05-1.07-.9-.53-1.52-1.23-1.86-2.1-.34-.87-.44-1.75-.28-2.62.16-.87.53-1.68,1.11-2.42.58-.74,1.37-1.24,2.38-1.51.48-.11,1.07-.17,1.78-.2.71-.02,1.42-.04,2.14-.04s1.36.02,1.94.04c.58.03,1.03.04,1.35.04,2.06,0,4.11-.03,6.14-.08,2.03-.05,4.11-.08,6.22-.08Z"/><path class="cls-3" d="m483.1,261.26c.95.05,1.78.3,2.5.75s1.29.99,1.74,1.62c.45.64.71,1.36.79,2.18.08.82-.09,1.65-.52,2.5-.16.37-.49.81-.99,1.31-.5.5-.96.81-1.39.91-3.38,1-6.85,1.62-10.42,1.86-3.57.24-7.09.17-10.58-.2-1.01-.11-2.1-.21-3.29-.32-1.19-.11-2.23-.45-3.13-1.03-1.64-1.06-2.46-2.56-2.46-4.52v-33.75c-.58-.43-1.06-.95-1.43-1.58-.37-.64-.59-1.31-.67-2.02-.08-.72.01-1.4.28-2.06.26-.66.71-1.23,1.35-1.71,1.06-.84,2.27-1.41,3.65-1.7,1.37-.29,2.72-.54,4.04-.75,2.75-.43,5.49-.64,8.24-.64s5.55-.03,8.4-.08c.84,0,1.82-.06,2.93-.2,1.11-.13,2.09-.04,2.93.27,1,.37,1.8.95,2.38,1.74.58.79.92,1.64,1.03,2.54.11.9-.07,1.77-.51,2.61-.45.85-1.23,1.51-2.34,1.98-1.32.53-2.73.76-4.24.71-1.51-.05-2.95-.08-4.32-.08-2.01,0-4.01.03-6.02.08-2.01.05-4.01.21-6.02.47v11.02c1.9.11,3.8.11,5.71,0,1.9-.11,3.8-.24,5.71-.4.84-.05,1.69-.13,2.54-.24.84-.11,1.71-.11,2.61,0,1.16.16,2.06.63,2.69,1.43.63.79,1.02,1.68,1.15,2.65.13.98-.04,1.94-.51,2.89-.48.95-1.24,1.64-2.3,2.06-.9.37-2.11.65-3.64.83-1.53.18-3.14.32-4.83.4-1.69.08-3.36.12-4.99.12s-3.01-.03-4.12-.08v9.75c2.9.37,5.84.42,8.79.16,2.96-.26,5.86-.76,8.72-1.51h.56Z"/></svg>