<svg width="351" height="77" viewBox="0 0 351 77" fill="none" xmlns="http://www.w3.org/2000/svg">
<g clip-path="url(#clip0_190_436)">
<path d="M158.23 32.9008H163.084V39.4294C163.084 43.7836 166.278 47.0693 170.512 47.0693C174.747 47.0693 177.94 43.7836 177.94 39.4294V32.9008H182.794V50.9779H177.94V48.8787C176.178 50.7095 173.476 51.7779 170.512 51.7779C163.928 51.7779 158.497 46.4841 158.241 39.9126L158.23 32.9008Z" fill="#030504"/>
<path d="M312.408 37.6307C312.408 29.8297 306.096 23.4836 298.337 23.4836C290.578 23.4836 284.267 29.8297 284.267 37.6307H289.121C289.121 32.337 293.168 28.1922 298.337 28.1922C303.506 28.1922 307.554 32.2511 307.554 37.6307H312.408Z" fill="#030504"/>
<path d="M277.742 32.9008H272.888V50.9779H277.742V32.9008Z" fill="#030504"/>
<path d="M260.424 43.1876V20.4556H255.581V43.354C255.581 47.5579 258.983 50.9779 263.164 50.9779H268.354V46.2693H263.489C261.802 46.2693 260.424 44.8895 260.424 43.1876Z" fill="#030504"/>
<path d="M275.29 12.3754C273.4 12.3754 271.921 13.8626 271.921 15.7632C271.921 17.6638 273.336 19.1993 275.29 19.1993C277.245 19.1993 278.708 17.7228 278.708 15.7632C278.708 13.8035 277.271 12.3754 275.29 12.3754Z" fill="#030504"/>
<path d="M146.921 20.4556V27.4727C144.705 24.9386 141.522 23.4836 137.704 23.4836C129.945 23.4836 123.634 29.8297 123.634 37.6307C123.634 45.4318 129.945 51.7778 137.704 51.7778C141.522 51.7778 144.71 50.3229 146.921 47.7887V50.9779H151.775V20.4556H146.921ZM137.704 47.0639C132.466 47.0639 128.488 42.9191 128.488 37.6254C128.488 32.3316 132.386 28.1868 137.704 28.1868C143.023 28.1868 146.921 32.2457 146.921 37.6254C146.921 42.1621 143.397 47.0639 137.704 47.0639Z" fill="#030504"/>
<path d="M202.578 51.7779C209.381 51.7779 214.513 47.0586 216.077 41.6414H210.962C210.219 43.3272 207.806 47.0693 202.578 47.0693V51.7779Z" fill="#030504"/>
<path d="M188.508 37.6307C188.508 29.7062 194.905 23.4836 202.578 23.4836C209.381 23.4836 214.55 28.1278 216.157 33.8886H211.074C210.412 32.031 207.715 28.1976 202.578 28.1976C197.361 28.1976 193.362 32.3853 193.362 37.6361H188.508V37.6307Z" fill="#030504"/>
<path d="M347.202 26.2862V22.587H348.104L349.033 25.5453L349.93 22.587H350.817V26.2862H350.256V23.1776L349.306 26.2862H348.75L347.762 23.1347V26.2862H347.196H347.202ZM344.975 26.2862V23.1347H343.784V22.587H346.791V23.1347H345.589V26.2862H344.975Z" fill="#181716"/>
<path d="M243.423 37.6307C243.423 42.1675 239.898 47.0693 234.206 47.0693C229.037 47.0693 224.99 42.9245 224.99 37.6307C224.99 32.337 229.037 28.1922 234.206 28.1922C237.597 28.1922 240.443 29.8834 242.045 32.5195V26.1305C239.963 24.4286 237.293 23.4783 234.206 23.4783C226.447 23.4783 220.136 29.8243 220.136 37.6254C220.136 45.4264 226.447 51.7725 234.206 51.7725C238.024 51.7725 241.212 50.3175 243.423 47.7834V50.9725H248.277V35.9879H243.295C243.38 36.514 243.423 37.0616 243.423 37.62V37.6307Z" fill="#030504"/>
<path d="M343.773 50.9779L343.763 35.3597C343.507 28.7828 338.076 23.4944 331.492 23.4944C329.217 23.4944 327.097 24.1225 325.437 25.2447V31.3062C326.761 29.4056 328.934 28.2083 331.492 28.2083C335.726 28.2083 338.92 31.4941 338.92 35.8483V50.9832H343.773V50.9779Z" fill="#030504"/>
<path d="M324.059 42.248H319.205V50.9779H324.059V42.248Z" fill="#030504"/>
<path d="M120.168 37.6313C120.168 29.8303 113.857 23.4842 106.098 23.4842V28.1927C110.215 28.1927 113.595 30.6785 114.839 34.5603H98.9104C98.5046 35.5213 98.291 36.5629 98.291 37.6259C98.291 38.1843 98.3497 38.7319 98.4672 39.2688H120.083C120.126 38.8715 120.174 38.238 120.174 37.6259L120.168 37.6313Z" fill="#030504"/>
<path d="M115.501 48.1377C117.381 46.4412 118.55 44.4171 119.127 42.9943H113.744C113.13 43.9446 110.765 47.064 106.098 47.064V51.7725C110.113 51.7725 113.333 50.0867 115.501 48.1324V48.1377Z" fill="#030504"/>
<path d="M242.039 35.9932V23.5481H243.464V22.0662C243.464 21.9159 243.587 21.7924 243.737 21.7924H247.95C248.099 21.7924 248.222 21.9159 248.222 22.0662V23.5481H249.648V35.9932H242.033H242.039Z" fill="#00A237"/>
<path d="M194.766 37.6307H187.098C187.098 41.7594 188.726 45.7163 191.631 48.637C194.536 51.5577 198.471 53.1952 202.578 53.1952V45.4855C200.506 45.4855 198.52 44.6587 197.056 43.1876C195.593 41.7165 194.771 39.7192 194.771 37.6361L194.766 37.6307Z" fill="#ED6A70"/>
<path d="M306.149 37.6307C306.149 39.7139 305.327 41.7111 303.863 43.1822C302.4 44.6533 300.414 45.4801 298.342 45.4801C296.27 45.4801 294.284 44.6533 292.821 43.1822C291.358 41.7111 290.535 39.7139 290.535 37.6307H282.867C282.867 41.7594 284.496 45.7163 287.401 48.637C290.306 51.5577 294.241 53.1952 298.347 53.1952C302.454 53.1952 306.389 51.5577 309.294 48.637C312.199 45.7163 313.828 41.7594 313.828 37.6307H306.16H306.149Z" fill="#ED6A70"/>
<path d="M277.693 23.5534V22.0716C277.693 21.9213 277.57 21.7978 277.421 21.7978H273.208C273.058 21.7978 272.936 21.9213 272.936 22.0716V23.5534H271.51V32.9007H279.124V23.5534H277.699H277.693Z" fill="#F8AC00"/>
<path d="M324.011 22.0716C324.011 21.9213 323.888 21.7978 323.738 21.7978H319.525C319.376 21.7978 319.253 21.9213 319.253 22.0716V23.5534H317.827V42.248H325.442V23.5534H324.016V22.0716H324.011Z" fill="#009996"/>
<path d="M182.751 23.5534V22.0716C182.751 21.9213 182.628 21.7978 182.479 21.7978H178.265C178.116 21.7978 177.993 21.9213 177.993 22.0716V23.5534H176.567V32.9007H184.182V23.5534H182.756H182.751Z" fill="#F8AC00"/>
<path d="M163.025 23.5534V22.0716C163.025 21.9213 162.903 21.7978 162.753 21.7978H158.54C158.39 21.7978 158.268 21.9213 158.268 22.0716V23.5534H156.842V32.9007H164.456V23.5534H163.031H163.025Z" fill="#F8AC00"/>
<path d="M254.214 20.4556V11.1083H246.444V9.23454L254.208 1.75564H255.64V0.273815C255.64 0.123485 255.762 0 255.912 0H260.13C260.28 0 260.403 0.123485 260.403 0.273815V1.75564H261.828V11.1083H263.254V9.62647C263.254 9.47614 263.377 9.35266 263.526 9.35266H267.74C267.889 9.35266 268.012 9.47614 268.012 9.62647V11.1083H269.438V20.4556H254.214Z" fill="#B67540"/>
<path d="M151.726 1.75564V0.273815C151.726 0.123485 151.604 0 151.454 0H147.236C147.086 0 146.963 0.123485 146.963 0.273815V1.75564H145.538L137.773 9.23454V11.1083H145.538V20.4556H153.152V1.75564H151.726Z" fill="#009996"/>
<path d="M106.097 29.7761V22.0663C101.991 22.0663 98.0556 23.7038 95.1507 26.6245C92.2458 29.5452 90.6172 33.5021 90.6172 37.6308C90.6172 41.7595 92.2458 45.7164 95.1507 48.6371C98.0556 51.5578 101.991 53.1953 106.097 53.1953V45.4855C104.026 45.4855 102.039 44.6587 100.576 43.1876C99.1129 41.7165 98.2905 39.7193 98.2905 37.6362C98.2905 35.553 99.1129 33.5558 100.576 32.0847C102.039 30.6136 104.026 29.7868 106.097 29.7868V29.7761Z" fill="#ED6A70"/>
<path d="M0.512695 0.510071V75.589H75.1849V0.510071H0.512695Z" fill="white"/>
<path d="M0.512695 0.510071V75.589H75.1849V0.510071H0.512695ZM70.2188 31.7142C70.096 34.0551 69.3538 36.965 68.7023 38.914C66.0751 46.7579 63.0314 51.6222 55.9829 51.6222C53.9057 51.6222 50.2265 51.0692 48.8702 47.3539L48.5498 46.4734L47.9731 47.2089C45.7678 50.0169 42.4944 51.6383 38.9862 51.6544C36.2949 51.6651 34.1323 50.7578 32.7386 49.0344L32.3541 48.5619L31.9483 49.0129C30.4531 50.6719 27.8526 51.6222 24.8143 51.6222C22.4274 51.6222 20.3608 50.8061 19.0045 49.3243L18.6361 48.9216L18.2516 49.3135C16.7404 50.8437 14.3642 51.6168 11.3793 51.547C7.75351 51.4611 5.54816 49.4263 5.4734 46.1029C5.36126 40.981 10.2953 30.2002 12.3351 26.9252C13.6594 24.7346 15.4856 23.677 17.9099 23.677C19.5599 23.677 20.6919 24.0259 21.3594 24.74C21.9681 25.3896 22.091 25.9373 22.1444 27.258L22.2138 28.9653L23.1109 27.5157C25.2735 24.0098 28.8619 23.5266 32.4182 23.5266C34.8905 23.5266 37.0478 24.4393 37.9129 25.8567L38.2333 26.3775L38.6978 25.9802C40.5294 24.4125 43.1139 23.5535 45.976 23.5535C49.0998 23.5535 51.3692 24.332 52.7202 25.8728C53.0299 26.2218 53.2328 26.4688 53.5159 27.0647L53.8629 27.8003L54.3862 27.1775C56.3673 24.8205 59.0746 23.6286 62.4334 23.6286C65.0926 23.6286 67.1111 24.3373 68.4353 25.7386C70.0907 27.4943 70.331 29.9693 70.2349 31.7303L70.2188 31.7142Z" fill="#FFED00"/>
<path d="M0.512695 0.510071V75.589H75.1849V0.510071H0.512695ZM72.3227 34.5973C71.9863 37.3301 70.1494 42.393 69.1722 44.4171C66.5557 49.8397 63.0581 54.006 56.3193 54.006C52.7202 54.006 49.7566 52.8517 48.0265 50.6343C45.4901 52.8678 42.3503 54.0382 38.9702 54.0382C36.3643 54.0382 34.0682 53.2812 32.3114 51.8853C30.373 53.2597 27.7619 54.0221 24.8677 54.0221C22.4487 54.0221 20.2701 53.3563 18.5667 52.1215C16.6817 53.3778 14.2147 54.0006 11.3152 53.9308C6.49331 53.8181 3.16125 50.7417 3.06513 46.2747C2.93698 40.3421 7.90836 29.4808 10.2525 25.7225C12.004 22.8287 14.6793 21.2717 17.9579 21.2717C21.5143 21.2717 22.8065 22.2971 23.4419 23.5964C26.1866 21.2502 29.8284 21.116 32.4182 21.116C35.2803 21.116 37.0745 21.8784 38.6017 23.1025C40.7109 21.83 43.1299 21.1697 46.0081 21.1697C49.6925 21.1697 52.4265 22.0287 54.3329 23.9293C56.5596 22.0663 59.347 21.218 62.4654 21.218C66.5878 21.218 69.3057 22.7159 70.897 24.944C73.1451 28.0902 72.7446 31.2525 72.3281 34.6027L72.3227 34.5973Z" fill="#E3000B"/>
<path d="M0 0V76.0937H75.6814V0H0ZM74.6402 1.04694V75.0468H1.04127V1.04694H74.6402Z" fill="#181716"/>
<path d="M71.9537 22.834V22.3186H72.3062C72.5625 22.3186 72.696 22.4099 72.696 22.5763C72.696 22.7105 72.6105 22.8394 72.3489 22.8394H71.9537V22.834ZM73.2086 23.9078L72.9897 23.5266C72.7974 23.1937 72.7494 23.1401 72.5892 23.0864V23.0756C72.9042 23.038 73.0965 22.834 73.0965 22.5495C73.0965 22.2488 72.9096 22.0233 72.5037 22.0233H71.5693V23.9132H71.9591V23.1401H72.0285C72.194 23.1401 72.2635 23.1615 72.3382 23.2367C72.413 23.3119 72.5251 23.4729 72.5945 23.6072L72.744 23.9132H73.2139L73.2086 23.9078ZM72.2848 21.4918C73.0911 21.4918 73.7479 22.1468 73.7479 22.9575C73.7479 23.7682 73.0911 24.4232 72.2848 24.4232C71.4785 24.4232 70.8324 23.7682 70.8324 22.9575C70.8324 22.1468 71.4785 21.4918 72.2848 21.4918ZM72.2848 21.1321C71.2809 21.1321 70.4746 21.9482 70.4746 22.9575C70.4746 23.9669 71.2809 24.7776 72.2848 24.7776C73.2887 24.7776 74.1004 23.9669 74.1004 22.9575C74.1004 21.9482 73.2887 21.1321 72.2848 21.1321Z" fill="#181716"/>
<path d="M62.4173 23.0864C58.5032 23.0864 55.8066 24.6434 53.975 26.8232C53.6653 26.1735 53.4304 25.8836 53.0993 25.5078C51.6041 23.8058 49.1959 23.0112 45.9599 23.0112C42.724 23.0112 40.1716 24.0045 38.3453 25.5615C37.3948 24.0098 35.1361 22.9844 32.4074 22.9844C28.8458 22.9844 24.9584 23.4891 22.6569 27.2258C22.6035 25.8836 22.4807 25.1695 21.7278 24.3696C20.8147 23.3978 19.3355 23.1454 17.8991 23.1454C15.2773 23.1454 13.3015 24.2944 11.8811 26.6406C9.81996 29.9479 4.82722 40.836 4.93936 46.1083C5.01412 49.5122 7.28354 51.9712 11.3525 52.0624C14.5297 52.1376 17.0234 51.2839 18.6093 49.6733C20.0351 51.2249 22.203 52.1376 24.7982 52.1376C27.6924 52.1376 30.6026 51.2625 32.322 49.3565C33.7691 51.1444 36.0492 52.1859 38.9808 52.1698C42.8148 52.1537 46.1789 50.3229 48.3735 47.5257C49.5803 50.8276 52.6401 52.1376 55.9775 52.1376C63.2984 52.1376 66.5129 47.0747 69.1935 39.075C69.7969 37.2711 70.6033 34.2645 70.7367 31.7357C70.961 27.5318 69.1882 23.0756 62.4173 23.0756V23.0864ZM13.7074 43.2091C17.4933 42.5487 18.4491 43.9232 18.3263 45.201C17.9685 49.0183 14.487 49.8719 11.4646 49.8021C9.26996 49.7484 7.29956 48.7391 7.24616 46.1781C7.15005 41.7004 11.6942 31.3384 13.8302 27.9023C14.818 26.2702 16.0195 25.4648 17.9418 25.4648C19.7627 25.4648 20.2113 26.4044 20.1846 27.5265C20.1152 30.5277 15.2933 39.6441 13.7074 43.2091ZM26.0424 39.6871C25.7914 40.3689 25.3162 41.7971 24.9317 43.3111C26.1759 42.9997 27.105 42.7796 28.7016 42.8172C30.5225 42.8601 31.6866 43.6225 31.6866 45.1312C31.6866 48.7981 27.655 49.8773 24.8569 49.8773C21.7865 49.8773 19.0899 48.1163 19.0899 44.7446C19.0899 40.7877 21.2258 34.7853 23.2283 30.7854C25.6899 25.8729 28.1997 25.2232 32.5303 25.2232C34.4312 25.2232 36.6259 26.0393 36.6259 27.8432C36.6259 30.3452 34.5167 31.3008 32.4235 31.4243C31.5317 31.4726 30.154 31.5263 29.3317 31.4673C29.3317 31.4673 28.6375 32.5357 27.8953 34.4309C31.7667 33.8833 33.4113 34.7691 32.7545 37.0187C31.8735 40.0629 29.2516 40.2616 26.037 39.6817L26.0424 39.6871ZM45.0895 30.2217C44.0429 30.2217 43.3594 30.8874 42.8468 31.6069C41.7254 33.1907 39.2905 39.5421 38.9167 42.1514C38.655 43.9393 39.424 44.3043 40.2623 44.3043C41.608 44.3043 43.1138 42.8708 43.6318 40.5085C43.6318 40.5085 41.0686 40.4441 41.7788 38.1623C42.4623 35.9449 43.7653 35.4671 45.9226 35.3758C50.1731 35.1987 49.7566 38.3556 49.4148 40.0414C48.3095 45.507 44.4434 49.8988 38.9701 49.8988C35.2215 49.8988 32.8987 47.8156 32.8987 43.9715C32.8987 41.2333 34.2497 36.9382 35.3177 34.4255C37.5978 29.0727 39.9847 25.3306 46.0721 25.3306C49.7245 25.3306 52.608 26.6513 52.1862 30.0928C51.8765 32.6162 50.6163 34.098 48.3362 34.2806C47.6954 34.3289 45.0842 34.2645 45.9493 31.7787C46.2536 30.9089 46.3764 30.227 45.0895 30.227V30.2217ZM68.0829 34.7423C67.4367 37.9637 65.9896 41.7756 64.4197 44.6157C61.8566 49.2491 58.7435 49.8988 56.0255 49.8665C53.3075 49.8343 50.2425 48.825 50.2211 44.605C50.2051 41.5769 51.5027 37.3033 52.608 34.5007C54.5304 29.4217 56.4954 25.2823 62.7003 25.3574C69.9411 25.4433 68.6489 31.9183 68.0882 34.7369L68.0829 34.7423ZM62.9192 31.5639C62.8445 33.5075 60.009 41.2816 58.9998 42.9997C58.5619 43.7406 58.0707 44.358 57.1843 44.358C56.41 44.358 56.0682 43.805 56.0469 43.1769C55.9881 41.4212 59.192 32.627 60.2867 31.1988C60.7726 30.4418 61.3173 30.3237 61.9367 30.3291C62.8445 30.3398 62.9406 31.0002 62.9192 31.5639Z" fill="#181716"/>
</g>
<defs>
<clipPath id="clip0_190_436">
<rect width="350.822" height="76.0937" fill="white"/>
</clipPath>
</defs>
</svg>
