<?xml version="1.0" encoding="UTF-8"?><svg xmlns="http://www.w3.org/2000/svg" viewBox="0 0 587.44 141.73"><defs><style>.cls-1{fill:#006cb7;}.cls-1,.cls-2,.cls-3,.cls-4,.cls-5{stroke-width:0px;}.cls-2{fill:#ffed00;}.cls-3{fill:#fff;}.cls-4{fill:#181716;}.cls-5{fill:#e3000b;}</style></defs><g id="Product_logo"><rect class="cls-1" x="170.06" width="417.38" height="5.67"/><rect class="cls-1" x="170.06" y="136.06" width="288.28" height="5.67"/><rect class="cls-1" x="496.15" y="136.06" width="91.29" height="5.67"/><path class="cls-4" d="m201.6,81.85h11.29c0,6.72-1.97,11.12-5.9,13.2-2.8,1.49-8.14,2.23-16.02,2.23-8.83,0-14.74-1.81-17.72-5.45-2.63-3.15-3.94-9.28-3.94-18.4s1.25-15.18,3.76-18.39c2.92-3.81,8.88-5.72,17.89-5.72s15.51,1.78,18.26,5.35c2.44,3.15,3.66,10.04,3.66,20.66h-32.36c0,5.49.48,8.98,1.44,10.47,1.26,1.91,4.24,2.86,8.96,2.86,3.94,0,6.51-.26,7.71-.8,1.97-.88,2.96-2.89,2.96-6.02Zm-21.07-13.67h21.09c0-4.59-.6-7.45-1.79-8.57-1.2-1.12-4.16-1.68-8.88-1.68s-7.63.68-8.88,2.03c-1.02,1.12-1.53,3.86-1.53,8.22Z"/><path class="cls-4" d="m254.48,96.79l.34-7.07h-.34c-2.33,5.04-7.22,7.56-14.69,7.56-7.88,0-13.07-2.44-15.57-7.32-1.62-3.15-2.42-9.17-2.42-18.04,0-7.8.99-13.28,2.96-16.44,2.58-4.11,7.6-6.16,15.08-6.16s12.27,2.26,14.18,6.76h.45v-26.43h11.22v67.15h-11.22Zm-11.28-38.86c-4.54,0-7.49,1.28-8.82,3.83-.91,1.72-1.36,5.1-1.36,10.15,0,6.41.39,10.54,1.18,12.38,1.27,2.91,4.27,4.36,9,4.36,5.34,0,8.67-1.39,10-4.19.85-1.78,1.28-5.97,1.28-12.56,0-5.1-.58-8.55-1.73-10.33-1.52-2.43-4.7-3.65-9.55-3.65Z"/><path class="cls-4" d="m317.86,96.79h-10.89v-7.25h-.33c-2.15,5.16-7.13,7.73-14.92,7.73-10.54,0-15.81-4.5-15.81-13.5v-33.97h11.21v29.56c0,3.64.42,6.02,1.26,7.15,1.02,1.43,3.23,2.14,6.64,2.14,4.19,0,7.15-.91,8.88-2.72,1.73-1.82,2.61-4.84,2.61-9.07l.12-27.06h11.22v46.98Z"/><path class="cls-4" d="m358.28,78.9h11.3c0,7.56-1.73,12.61-5.19,15.17-2.86,2.14-8.27,3.21-16.2,3.21-8.77,0-14.56-1.84-17.36-5.54-2.44-3.15-3.67-9.29-3.67-18.39s1.19-15.07,3.58-18.22c2.93-3.87,8.74-5.81,17.45-5.81,7.64,0,12.95.98,15.93,2.95,3.64,2.39,5.46,7.05,5.46,14.01h-11.3c0-3.6-.81-5.94-2.42-7-1.26-.89-3.83-1.33-7.71-1.33-4.54,0-7.38,1.07-8.52,3.21-.84,1.6-1.26,5.67-1.26,12.2s.38,10.48,1.17,12.02c1.07,2.2,3.94,3.29,8.61,3.29,4.3,0,7.07-.58,8.29-1.73,1.22-1.15,1.84-3.83,1.84-8.03Z"/><path class="cls-4" d="m408.15,96.79l.36-5.91h-.27c-1.01,2.72-3.04,4.56-6.08,5.5-1.91.59-4.75.89-8.5.89-6.03,0-10.35-.95-12.98-2.85-3.04-2.2-4.56-6.21-4.56-12.04s1.59-9.49,4.75-11.69c2.64-1.78,6.91-2.68,12.83-2.68,3.77,0,6.48.24,8.16.71,2.74.77,4.72,2.31,5.92,4.62h.36v-6.09c0-4.06-.51-6.72-1.52-7.97-1.26-1.55-4.1-2.33-8.53-2.33-2.99,0-5.08.33-6.28.99-1.74.96-2.6,2.81-2.6,5.56h-11.3c0-6.13,2.03-10.2,6.09-12.22,2.62-1.31,7.31-1.96,14.05-1.96,8.05,0,13.49,1.04,16.29,3.13,3.34,2.45,5.02,7.43,5.02,14.93v29.42h-11.22Zm-10.45-21.14c-3.73,0-6.16.27-7.3.81-2.04.96-3.06,2.93-3.06,5.91,0,3.17.78,5.2,2.34,6.09,1.32.78,3.99,1.17,8.02,1.17,3.66,0,6.16-.36,7.48-1.07,1.98-1.08,2.97-3.14,2.97-6.19s-1.05-4.87-3.15-5.82c-1.32-.6-3.76-.9-7.3-.9Z"/><path class="cls-4" d="m424.69,58.42v-8.62h5.86v-10.57h11.22v10.57h18.09v8.62h-18.09v23.99c0,2.44.21,4.01.63,4.73.6,1.01,2.01,1.52,4.23,1.52,2.82,0,4.55-1.04,5.22-3.13.29-.95.44-3.21.44-6.79h9.99c.12,6.68-.78,11.34-2.69,13.96-2.21,3.05-6.51,4.57-12.91,4.57s-10.25-.92-12.46-2.77c-2.45-2.08-3.68-6.07-3.68-11.96v-24.12h-5.86Z"/><path class="cls-4" d="m482.32,29.64v9.59h-11.22v-9.59h11.22Zm0,20.17v46.98h-11.22v-46.98h11.22Z"/><path class="cls-4" d="m513.36,49.32c9.43,0,15.57,1.73,18.44,5.19,2.45,2.98,3.67,9.25,3.67,18.84s-1.22,15.78-3.67,18.75c-2.87,3.45-9.01,5.18-18.44,5.18s-15.58-1.73-18.44-5.18c-2.45-2.97-3.67-9.23-3.67-18.75s1.22-15.87,3.67-18.84c2.86-3.46,9.01-5.19,18.44-5.19Zm0,8.62c-4.8,0-7.86,1.01-9.18,3.03-1.14,1.78-1.71,5.94-1.71,12.47s.57,10.57,1.71,12.29c1.26,1.96,4.32,2.94,9.18,2.94s8.01-.98,9.27-2.94c1.08-1.66,1.63-5.76,1.63-12.29s-.55-10.8-1.63-12.47c-1.32-2.01-4.41-3.03-9.27-3.03Z"/><path class="cls-4" d="m544.96,49.81h11.21v7.07h.36c1.14-3.08,3.1-5.19,5.91-6.32,2.02-.83,4.97-1.25,8.85-1.25,5.96,0,10.13,1.27,12.52,3.8,2.38,2.54,3.58,6.78,3.58,12.74v30.93h-11.22v-29.75c0-3.51-.6-5.91-1.79-7.19-1.2-1.28-3.53-1.92-6.99-1.92-4.55,0-7.63,1.1-9.24,3.3-1.32,1.79-1.98,5.03-1.98,9.74v25.81h-11.21v-46.98Z"/><path class="cls-4" d="m576.33,44.98v-6.31h-2.36v-.84h5.67v.84h-2.37v6.31h-.95Z"/><path class="cls-4" d="m580.59,44.98v-7.16h1.43l1.69,5.07c.16.47.27.83.34,1.06.08-.26.21-.64.38-1.15l1.71-4.98h1.27v7.16h-.91v-5.99l-2.08,5.99h-.85l-2.07-6.09v6.09h-.91Z"/></g><g id="LEGO_logo"><path class="cls-3" d="m.96.95v139.84h139.84V.95H.96Z"/><path class="cls-2" d="m.96.95v139.84h139.84V.95H.96Zm130.54,58.13c-.23,4.36-1.62,9.78-2.84,13.41-4.92,14.61-10.62,23.67-23.82,23.67-3.89,0-10.78-1.03-13.32-7.95l-.6-1.64-1.08,1.37c-4.13,5.23-10.26,8.25-16.83,8.28-5.04.02-9.09-1.67-11.7-4.88l-.72-.88-.76.84c-2.8,3.09-7.67,4.86-13.36,4.86-4.47,0-8.34-1.52-10.88-4.28l-.69-.75-.72.73c-2.83,2.85-7.28,4.29-12.87,4.16-6.79-.16-10.92-3.95-11.06-10.14-.21-9.54,9.03-29.62,12.85-35.72,2.48-4.08,5.9-6.05,10.44-6.05,3.09,0,5.21.65,6.46,1.98,1.14,1.21,1.37,2.23,1.47,4.69l.13,3.18,1.68-2.7c4.05-6.53,10.77-7.43,17.43-7.43,4.63,0,8.67,1.7,10.29,4.34l.6.97.87-.74c3.43-2.92,8.27-4.52,13.63-4.52,5.85,0,10.1,1.45,12.63,4.32.58.65.96,1.11,1.49,2.22l.65,1.37.98-1.16c3.71-4.39,8.78-6.61,15.07-6.61,4.98,0,8.76,1.32,11.24,3.93,3.1,3.27,3.55,7.88,3.37,11.16Z"/><path class="cls-5" d="m.96.95v139.84h139.84V.95H.96Zm134.47,63.49c-.63,5.09-4.07,14.52-5.9,18.29-4.9,10.1-11.45,17.86-24.07,17.86-6.74,0-12.29-2.15-15.53-6.28-4.75,4.16-10.63,6.34-16.96,6.34-4.88,0-9.18-1.41-12.47-4.01-3.63,2.56-8.52,3.98-13.94,3.98-4.53,0-8.61-1.24-11.8-3.54-3.53,2.34-8.15,3.5-13.58,3.37-9.03-.21-15.27-5.94-15.45-14.26-.24-11.05,9.07-31.28,13.46-38.28,3.28-5.39,8.29-8.29,14.43-8.29,6.66,0,9.08,1.91,10.27,4.33,5.14-4.37,11.96-4.62,16.81-4.62,5.36,0,8.72,1.42,11.58,3.7,3.95-2.37,8.48-3.6,13.87-3.6,6.9,0,12.02,1.6,15.59,5.14,4.17-3.47,9.39-5.05,15.23-5.05,7.72,0,12.81,2.79,15.79,6.94,4.21,5.86,3.46,11.75,2.68,17.99Z"/><path class="cls-4" d="m0,0v141.73h141.73V0H0Zm139.78,1.95v137.83H1.95V1.95h137.83Z"/><path class="cls-4" d="m134.75,42.53v-.96h.66c.48,0,.73.17.73.48,0,.25-.16.49-.65.49h-.74Zm2.35,2l-.41-.71c-.36-.62-.45-.72-.75-.82v-.02c.59-.07.95-.45.95-.98,0-.56-.35-.98-1.11-.98h-1.75v3.52h.73v-1.44h.13c.31,0,.44.04.58.18.14.14.35.44.48.69l.28.57h.88Zm-1.73-4.5c1.51,0,2.74,1.22,2.74,2.73s-1.23,2.73-2.74,2.73-2.72-1.22-2.72-2.73,1.21-2.73,2.72-2.73Zm0-.67c-1.88,0-3.39,1.52-3.39,3.4s1.51,3.39,3.39,3.39,3.4-1.51,3.4-3.39-1.52-3.4-3.4-3.4Z"/><path class="cls-4" d="m116.89,43c-7.33,0-12.38,2.9-15.81,6.96-.58-1.21-1.02-1.75-1.64-2.45-2.8-3.17-7.31-4.65-13.37-4.65s-10.84,1.85-14.26,4.75c-1.78-2.89-6.01-4.8-11.12-4.8-6.67,0-13.95.94-18.26,7.9-.1-2.5-.33-3.83-1.74-5.32-1.71-1.81-4.48-2.28-7.17-2.28-4.91,0-8.61,2.14-11.27,6.51-3.86,6.16-13.21,26.44-13,36.26.14,6.34,4.39,10.92,12.01,11.09,5.95.14,10.62-1.45,13.59-4.45,2.67,2.89,6.73,4.59,11.59,4.59,5.42,0,10.87-1.63,14.09-5.18,2.71,3.33,6.98,5.27,12.47,5.24,7.18-.03,13.48-3.44,17.59-8.65,2.26,6.15,7.99,8.59,14.24,8.59,13.71,0,19.73-9.43,24.75-24.33,1.13-3.36,2.64-8.96,2.89-13.67.42-7.83-2.9-16.13-15.58-16.13ZM25.67,80.48c7.09-1.23,8.88,1.33,8.65,3.71-.67,7.11-7.19,8.7-12.85,8.57-4.11-.1-7.8-1.98-7.9-6.75-.18-8.34,8.33-27.64,12.33-34.04,1.85-3.04,4.1-4.54,7.7-4.54,3.41,0,4.25,1.75,4.2,3.84-.13,5.59-9.16,22.57-12.13,29.21Zm23.1-6.55c-.47,1.27-1.36,3.93-2.08,6.75,2.33-.58,4.07-.99,7.06-.92,3.41.08,5.59,1.5,5.59,4.31,0,6.83-7.55,8.84-12.79,8.84-5.75,0-10.8-3.28-10.8-9.56,0-7.37,4-18.55,7.75-26,4.61-9.15,9.31-10.36,17.42-10.36,3.56,0,7.67,1.52,7.67,4.88,0,4.66-3.95,6.44-7.87,6.67-1.67.09-4.25.19-5.79.08,0,0-1.3,1.99-2.69,5.52,7.25-1.02,10.33.63,9.1,4.82-1.65,5.67-6.56,6.04-12.58,4.96Zm35.67-17.63c-1.96,0-3.24,1.24-4.2,2.58-2.1,2.95-6.66,14.78-7.36,19.64-.49,3.33.95,4.01,2.52,4.01,2.52,0,5.34-2.67,6.31-7.07,0,0-4.8-.12-3.47-4.37,1.28-4.13,3.72-5.02,7.76-5.19,7.96-.33,7.18,5.55,6.54,8.69-2.07,10.18-9.31,18.36-19.56,18.36-7.02,0-11.37-3.88-11.37-11.04,0-5.1,2.53-13.1,4.53-17.78,4.27-9.97,8.74-16.94,20.14-16.94,6.84,0,12.24,2.46,11.45,8.87-.58,4.7-2.94,7.46-7.21,7.8-1.2.09-6.09-.03-4.47-4.66.57-1.62.8-2.89-1.61-2.89Zm43.06,8.41c-1.21,6-3.92,13.1-6.86,18.39-4.8,8.63-10.63,9.84-15.72,9.78-5.09-.06-10.83-1.94-10.87-9.8-.03-5.64,2.4-13.6,4.47-18.82,3.6-9.46,7.28-17.17,18.9-17.03,13.56.16,11.14,12.22,10.09,17.47Zm-9.67-5.91c-.14,3.62-5.45,18.1-7.34,21.3-.82,1.38-1.74,2.53-3.4,2.53-1.45,0-2.09-1.03-2.13-2.2-.11-3.27,5.89-19.65,7.94-22.31.91-1.41,1.93-1.63,3.09-1.62,1.7.02,1.88,1.25,1.84,2.3Z"/></g></svg>