<?xml version="1.0" encoding="UTF-8"?><svg id="Content" xmlns="http://www.w3.org/2000/svg" xmlns:xlink="http://www.w3.org/1999/xlink" viewBox="0 0 1715 396"><defs><style>.cls-1{fill:url(#RA-Gradient_Orange_to_Red);}.cls-1,.cls-2{stroke-width:0px;}.cls-2{fill:#bb2332;}</style><linearGradient id="RA-Gradient_Orange_to_Red" x1="67.42" y1="363.4" x2="275.37" y2="3.22" gradientUnits="userSpaceOnUse"><stop offset=".28" stop-color="#bb2332"/><stop offset=".9" stop-color="#f68a33"/></linearGradient></defs><path class="cls-2" d="m918.5,249.82c-38.51,0-61.5,20.21-61.5,54.07s22.99,53.89,61.5,53.89,61.69-20.15,61.69-53.89-23.06-54.07-61.69-54.07Zm0,78.04c-11.33,0-18.95-9.71-18.95-24.16s7.62-24.34,18.95-24.34,18.95,9.56,18.95,24.34-7.26,24.16-18.95,24.16Z"/><path class="cls-2" d="m1404.37,340.32c0,8.3,6.63,15.03,14.82,15.03h28.82v-102.9h-43.64v87.87Z"/><rect class="cls-2" x="1404.37" y="218.68" width="43.64" height="21.29"/><path class="cls-2" d="m1526.92,249.82c-38.51,0-61.5,20.21-61.5,54.07s22.99,53.89,61.5,53.89,61.69-20.15,61.69-53.89-23.06-54.07-61.69-54.07Zm0,78.04c-11.33,0-18.95-9.71-18.95-24.16s7.61-24.34,18.95-24.34,18.95,9.56,18.95,24.34-7.26,24.16-18.95,24.16Z"/><path class="cls-2" d="m711.35,86.57c-38.51,0-61.5,20.21-61.5,54.07s22.99,53.89,61.5,53.89,61.69-20.15,61.69-53.89-23.06-54.07-61.69-54.07Zm0,78.04c-11.33,0-18.95-9.71-18.95-24.15s7.62-24.34,18.95-24.34,18.95,9.56,18.95,24.34-7.26,24.15-18.95,24.15Z"/><path class="cls-2" d="m1320.76,165.73c-4.68.13-24.2,1.13-41.44,1.13s-23.9-1.82-27.43-13.23h69.83c1.81,0,3.28-1.47,3.28-3.28v-8.02c0-35.44-18.8-55.31-54.77-55.76-40.19-.51-59.04,20.56-59.04,52.39,0,34.92,18.43,55.76,62.29,55.76,31.39,0,45.59-12.75,48.36-27.5.1-.53-.54-1.5-1.08-1.49Zm-50.33-55.3c11.59,0,16.8,9.54,16.8,21.3h-35.84c0-11.91,4.04-21.3,19.04-21.3Z"/><path class="cls-2" d="m1383.6,55.43h-28.39c-8.18,0-14.82,6.73-14.82,15.03v121.63h43.2V55.43Z"/><path class="cls-2" d="m834.94,193.79c17.04,1.58,36.12-1.92,43.35-3.45,1.75-.37,2.99-1.94,2.99-3.75v-25.14s-7.96.89-26.95.89c-16.44,0-26.65-8.49-26.65-22.16s9.61-22.33,25.07-22.33c17.94,0,28.53,2.22,28.53,2.22v-25.42c0-1.81-1.24-3.37-2.98-3.75-7.21-1.56-26.09-5.2-41.03-4.32-31.98,1.9-51.94,20.61-51.94,53.8,0,31.45,18.77,50.56,49.61,53.42Z"/><path class="cls-2" d="m1264.79,252.09v13.33c-6.22-9.48-15.66-15.78-29.91-15.78-32.56,0-50.96,20.15-50.96,53.89v.39c0,33.74,18.4,53.89,50.96,53.89,14.25,0,23.7-6.31,29.91-15.78v2.26c0,6.11,4.88,11.06,10.94,11.06h30.23v-103.25h-41.17Zm-18.94,75.79c-11.32,0-18.94-9.74-18.94-24.16s7.62-24.16,18.94-24.16,18.94,9.28,18.94,24.16-7.27,24.16-18.94,24.16Z"/><path class="cls-2" d="m1164.56,89.2l-12.19,67.35-13.61-67.35h-49.14l-13.61,67.35-12.19-67.35h-40.93,0s-42.59-.33-42.59-.33c-6.38,0-12.59,3.92-16,10.07l-24.22,35.22V55.1h-26.36c-8.18,0-14.82,6.73-14.82,15.03v121.63h41.17v-51.2l28.25,41.13c3.41,6.16,9.62,10.07,16,10.07l42.67.34-41.73-55,37.64-47.83,24.57,102.81h45.96c5.07,0,9.4-3.74,10.27-8.87l8.79-61h3.39l8.79,61c.87,5.13,5.2,8.87,10.27,8.87h45.96l24.59-102.9h-40.92Z"/><path class="cls-2" d="m721.62,296.97c0,17.63-5.65,26.59-16.77,26.59-6.92,0-14-2.3-14-19.28v-51.82h-41.17v58.74c0,29.56,14.76,45.83,41.55,45.83,13.49,0,25.1-4.76,33.55-13.59v.81c0,6.11,4.91,11.09,10.94,11.09h27.08v-102.89h-41.17v44.51Z"/><path class="cls-2" d="m1132.13,250c-14.32,0-26.66,6.12-35.26,17.36-7.05-11.24-18.84-17.36-33.72-17.36-12.5,0-23.74,4.83-31.99,13.52v-11.08h-37.61v102.9h40.77v-49.57c0-13.3,6.04-21.9,15.39-21.9,6.66,0,12.82,2.27,12.82,18.72v52.76h40.97v-49.57c0-13.51,5.82-21.9,15.19-21.9,6.66,0,12.82,2.27,12.82,18.72v52.76h40.77v-59.7c0-29.43-14.26-45.63-40.15-45.63Z"/><path class="cls-2" d="m1673.55,249.82c-13.45,0-25.08,4.82-33.57,13.74v-11.12h-38v102.9h41.17v-49.57c0-13.65,6.58-22.46,16.77-22.46,6.93,0,14.01,2.29,14.01,19.28v52.76h40.97v-59.7c0-29.55-14.68-45.82-41.34-45.82Z"/><path class="cls-2" d="m1364.55,218.68h-41.17v121.63c0,8.3,6.63,15.03,14.82,15.03h26.35v-72.58h24.88v-30.31h-24.88v-33.77Z"/><path class="cls-2" d="m1447.47,55.43h-28.38c-8.19,0-14.82,6.73-14.82,15.03v121.63h43.2V55.43Z"/><path class="cls-2" d="m550.79,218.68c-4.43,0-8.41,2.7-10.05,6.81l-51.85,129.85h43.12l9.62-25.81h49.58l5.25,14.94v.03c2.9,6.5,9.31,10.84,16.17,10.84h33.77l-54.57-136.66h-41.05Zm1.95,80.39l14.15-38.6,13.6,38.6h-27.75Z"/><path class="cls-2" d="m825.02,218.75h-43.65v121.63c0,8.3,6.64,15.03,14.82,15.03h28.84v-72.58h24.88v-30.31h-24.88v-33.77Z"/><path class="cls-2" d="m629.93,139.48c-4.37-5.55-10.3-9.68-19.18-11.32v-.36c19.14-2.27,30.48-15.33,30.48-36.32,0-26.28-18.77-36.48-49.26-36.48h-73.78v136.85h43.59v-49.83h11.99c5.98,0,12.08.97,13.79,7.1l12.32,35.82c.68,4,4.06,6.91,8.02,6.91h40.3l-15.09-45.74c-.6-2.41-1.65-4.69-3.18-6.63Zm-50.34-25.99h-17.21v-29.08h17.87c8.93,0,17.35,1.78,17.35,14.12,0,13.77-8.9,14.96-18.01,14.96Z"/><path class="cls-1" d="m112.73,122.9L271.17,5.54c2.27-1.68,1.08-5.29-1.74-5.29h-129.88c-15.06,0-29.51,5.98-40.16,16.63L16.65,99.6C6,110.25.01,124.7.01,139.76v116.98c0,15.06,5.98,29.51,16.64,40.16l82.73,82.72c10.65,10.65,25.1,16.64,40.17,16.64h112.52c3.13,0,4.08-4.25,1.25-5.58L29.71,285.26c-9.34-4.4-15.29-13.79-15.29-24.11v-56.11c0-5.86,2.78-11.37,7.49-14.86l32.22-23.86v-43.42h58.61Z"/><polygon class="cls-2" points="266.84 168.18 251.57 209.81 281.51 209.81 266.84 168.18"/><path class="cls-2" d="m138.23,169.84c0-13.3-9.08-15.23-18.72-15.23h-19.27v31.36h18.56c9.83,0,19.43-1.28,19.43-16.14Z"/><path class="cls-2" d="m381.65,101.81l-77.02-77.03c-4.33-4.33-11.15-4.94-16.18-1.44l-148.24,99.83c28.07,1.75,45.06,13.13,45.06,39.07,0,22.64-12.22,36.73-32.87,39.18v.39c9.59,1.77,15.98,6.22,20.69,12.21,1.65,2.09,2.79,4.55,3.43,7.15l11.71,35.48,50.39-126.2c1.77-4.43,6.06-7.34,10.84-7.34h44.27l58.85,147.4h-36.43c-7.39,0-14.31-4.68-17.44-11.69v-.03l-5.67-16.12h-53.47l-10.38,27.84h-79.87c-4.27,0-7.91-3.15-8.65-7.46l-13.29-38.63c-1.84-6.61-8.42-7.66-14.87-7.66h-12.94v53.74h-45.47v-89.36l-27.2,18.32c-2.46,1.72-3.93,4.53-3.93,7.53v56.89c0,3.65,2.17,6.96,5.52,8.41l256.46,107.33c4.76,2.07,10.29,1.02,13.97-2.64l82.63-82.29c9.28-9.24,14.5-21.8,14.5-34.9v-123.17c0-13.06-5.19-25.59-14.42-34.82Z"/></svg>