<?xml version="1.0" encoding="UTF-8"?>
<svg id="Layer_1" data-name="Layer 1" xmlns="http://www.w3.org/2000/svg" viewBox="0 0 450 86.13">
  <path d="M72.41,19.77c2.79-6.81,5.14-11.93,7-16.57l-18.21.03-17.09,41.79c-1.86,4.64-4.47,8.64-7.82,11.99-3.98,3.93-8.18,5.89-12.59,5.89-3.87,0-5.8-2.35-5.8-7.05,0-3.58,1.55-9.5,4.64-17.75,3.24-7.94,6.07-14.78,8.51-20.53,2.44-5.75,4.5-10.55,6.19-14.42l-16.96.11c-1.38,3.01-2.66,5.72-3.65,7.82-.99,2.11-1.8,3.89-2.43,5.35C4.73,37.39,0,52.85,0,62.82c0,11.26,5.46,16.89,16.38,16.89,9.26,0,18.67-2.02,27.84-9.58,8.25-6.96,14.19-16.85,18.2-26.14,3.87-9.34,7.2-17.42,9.99-24.22Z"/>
  <path d="M107.65,14.09l-11.55,32.02-7.01-32.02h-8.68l-23.58,59.86c4.23-.73,9.09-1.37,14.42-1.92l10.71-26.93,6.15,25.5c4.96-.34,7.74-.42,13.09-.67l20.8-55.84h-14.36Z"/>
  <path d="M346.44,59.52l5.56-11.09,19.4.88,5.94-12.39-19.46-.84,4.87-9.12,23.59.26,5.82-13.12c-11.11,0-30.63-.04-43.06-.04l-6.15,13.18,5.61-.1-21.02,42.36c10.07.56,28.83,1.61,39.14,4.41l5.16-12.25c-10.1-1.5-19.77-1.72-25.41-2.13Z"/>
  <path d="M247.99,31.06c1.89-3.14,2.83-5.99,2.83-8.55,0-6.73-7.16-10.1-21.48-10.1-8.42,0-15.5.63-27.13,2.63l-4.06,12.23c4.59-1.01,10.6-1.62,12.44-1.79l-21.03,42.99c.59,0,1.17,0,1.75,0,3.61,0,7.68-.06,12.11-.15,2-4.62,4.19-8.87,5.23-11.09,3.93-.27,10.89,3.17,11.76,10.71,4.63-.13,10.4-.26,15.4-.38-1.26-8.23-8.31-14.58-12.13-16.32,10.79-4.3,18.89-11.02,24.31-20.16ZM234.04,31.19c-1.14,3.14-3.79,5.81-7.96,8.03-3.53,1.97-7.19,3.19-10.99,3.65l9.35-17.96s1.96-.09,2.46-.09c5.07,0,7.6,1.35,7.6,4.05,0,.77-.15,1.55-.46,2.34Z"/>
  <path d="M330.25,14.28l-11.12,23.82-14.83-.05,10.14-23.76-55.16-.2-6.41,13.08,13.96-.09-19.12,40.38c4.82-.08,9.71-.13,14.62-.14l17.75-40.09,14.4-.08-17.41,40.26c4.75.07,9.48.19,14.14.36l7.24-15.69,14.85.29-7.39,16.19c4.39.13,8.9.21,13.42.46l24.99-54.72h-14.07Z"/>
  <path d="M403.55,2.51l-33.81,78.56c31.51,2.7,46.94-3.32,57.96-11.59,10.98-8.13,22.21-21.46,22.3-39.56.08-17.06-12.38-37.03-46.45-27.4ZM432.59,38.38c-2.13,5.93-7.13,13.15-13.19,17.61-7.86,5.79-15.45,7.58-25.27,7.13,1.57-3.94,19.99-44.32,19.99-44.32,14.06-2.69,22.84,7.38,18.46,19.59Z"/>
  <path d="M179.06,14.09c-8.22,12.54-15.86,24.73-22.16,34.81-2.21,3.54-4.31,6.92-6.22,10.06l-20.06.28,4.67-11.32,13.57-.43,7.26-11.32-16.42.43,4.11-9.46h18.15l8.38-13.01-42.78-.03-5.01,13.08,7.69-.04-16.9,41.83c11.03-.45,14.99,0,45.29-.18l9.35-15.6c.91-.08,7.83,2.86,6.06,15.3,4.57-.01,6.15-.02,10.28-.02,2.15-22.06,7.48-40.08,12.99-54.37h-18.24ZM176.14,48.37c-1.63.02-4.73.08-5.73.18,2.83-4.63,8.65-16.02,10.08-18.3-.41,1.86-2.28,9.63-4.35,18.12Z"/>
  <polygon points="425.91 78.57 419.83 78.71 419.86 80.01 422.13 79.96 422.27 86.13 423.81 86.09 423.67 79.93 425.94 79.88 425.91 78.57"/>
  <polygon points="433 78.41 431.07 83.48 430.99 83.48 428.84 78.51 426.91 78.55 427.08 86.02 428.59 85.99 428.48 81.11 428.55 81.1 430.57 85.91 431.6 85.88 433.41 81.01 433.47 81.01 433.58 85.87 435.1 85.84 434.93 78.37 433 78.41"/>
</svg>