<?xml version="1.0" encoding="UTF-8"?><svg id="Layer_1" xmlns="http://www.w3.org/2000/svg" viewBox="0 0 1171.6 245.62"><defs><style>.cls-1{stroke-width:0px;}.cls-2{fill:#ffb300;stroke-miterlimit:10;stroke-width:1.58px;}.cls-2,.cls-3{stroke:#000;}.cls-3{fill:#ff007d;stroke-linecap:round;stroke-linejoin:round;stroke-width:.79px;}</style></defs><path class="cls-1" d="m873.65,150.45c5.07,1.74,10.36,2.68,15.59,3.75,6.98,1.43,14.03-.04,20.96-.68,6.97-.64,13.89-2.93,20.72-5.05,2.36-.73,4.19-.84,6.17.62.25.18.75-.1,1.14-.17,1.86-.2,1.1-3.1,2.67-3.6,1.55-.57,2.55,1.05,3.99,1.3,5.51-3.14,11.25-5.53,17.89-4.67.82.95,1.81,2.09,2.2,2.54-.18,3.97-.31,6.85-.47,10.29-1.33,1.36-2.83,3.5-4.74,4.75-7.16,4.7-14.88,7.98-22.59,11.04-5.77,2.29-11.91,3.15-17.74,5.23-5.96,2.13-12.1,2.76-18.14,3.07-8.4.42-16.93.38-25.1-2.41-4.69-1.6-9.36-3.43-13.65-6.21-3.13-2.03-6.12-4.41-8.15-7.99-5.34-9.42-5.76-19.53-2.52-30.12,3.47-11.35,8.92-21.01,17.18-28.41,8.15-7.3,17.05-13.14,26.17-18.44,9.83-5.71,19.77-11.2,29.97-15.9,6.43-2.96,12.97-5.55,19.77-7.32,4.92-1.28,9.86-.48,14.73-1.8,2.57-.7,5.07.3,6.83,2.63,2.59,2.82.26,6.89,1.94,10.02-1.12,1.32-2.25,2.66-3.39,4.01.72.47,1.37.89,2.02,1.31-.93,1.68-1.67,3.13-3.23,4.14-7.22,4.65-14.85,7.91-22.84,9.76-11.11,2.57-21.96,6.14-32.33,11.58-11.68,6.13-23.47,12.06-33.76,21.35-5.16,4.66-9.47,10.16-12.81,16.86,3.3,4.25,7.2,7.03,11.51,8.51Zm69.87-.15c.14.15.35.46.42.42.58-.3.56-.62,0-.86-.14.15-.28.3-.42.44Zm8.97-4.15c-.31.23-.25.54.18.78.05.03.27-.24.34-.4.03-.08-.08-.25-.13-.37-.13,0-.29-.07-.38,0Zm5.84-.9c.14.15.28.41.41.41.15,0,.29-.27.43-.42l-.44-.43c-.14.14-.27.29-.41.44Z"/><path class="cls-1" d="m1099.3,58.67c1.1-1.28,1.32-2.35.4-3.52-4.03-1.51-8.75-1.9-13.63-2.18-6.45-.37-13.13.47-19.58.12-2.85-.15-10.38.81-11.26.93-9.59,1.28-19.18,2.63-28.77,3.98-3.82.54-7.53,1.5-11.25,3-3.56,1.43-7.37,2.08-10.88,3.83-.02-.33-.05-.66-.11-1-1.16.68-2.05,1.5-2.8,2.4-1.66.86-3.05,1.9-3.25,3.95-.07.71-1.18.89-1.79,1.34-1.31.96-1.85,2.2-2.16,3.4.26.4,1.18.21.75,1.04-.6.34-1.28.72-1.97,1.11-.28,1.38-.64,2.77-1.5,4.02.57.28.87.43,1.16.57,0,.86-1.82.98-1.64,1.41.38,1.19,1.42,1.33,2.29,1.56-.15.42-.31.84-.47,1.26-.51.04-1.02.05-1.52.2-.29.83.21,1.14,1,1.16-3.21,8.31-7.07,16.38-10.22,24.72-2.37,6.26-5.41,12.29-6.96,18.83-.38,1.58-1.27,3.05-1.73,4.62-1.12,3.83-3.11,7.45-3.37,11.4.59.91,1.1,1.63,2.24,1.25.02-.02.03-.05.04-.08.47.14.98.25,1.44.42,0,.2.03.41.12.62.29.14.54.22.76.24-1.05,1.11-2.6-.55-4.02.79,1.91,1.25,4.79,1.08,7.09.94,5.88-.35,11.84-1.21,17.77-1.95,8.48-1.06,16.94-2.95,25.4-4.08,11.87-1.59,23.75-3.58,35.62-4.67,2.63-.24,5.35-.96,8.08-1.21,4.23-.39,7.84-2.49,11.39-4.3,1.14-.58,2.04-1.44,3.53-1.89.85-.26,2.48-1,1.92-2.03-.68-1.26,1.16-1.72,1.86-2.36-.24-.89-.42-1.55-.63-2.35-2.4-1.2-5.19-2.02-8.44-2.32-11.81-1.08-23.94-.81-36.24-.06-12.41.76-24.85,1.86-37.3,3.37-2.77.34-5.56,1.05-8.35,1.87.39-.59.78-1.17,1.16-1.77,1.81-2.84,3.55-5.71,4.95-8.73,1.84-.08,3.7-.29,5.59-.71,8.68-1.93,17.47-3.02,26.08-5.19,9.92-2.49,19.91-3.8,29.87-5.63,1.13-.21,2.2.23,3.66-.54,1.16-1.52,3.41-2.14,5.63-3.17,1.3-1.42,1.71-3.31,2.8-5-1.3-2.28-3.82-2.99-6.36-3.46-2.99-.55-6.1-.89-9.21-1.04-13.39-.63-26.9.07-40.48,1.38-2.83.27-5.62.32-8.46.83.03-.3.04-.61,0-.93.65-.26.96-.83,1.17-1.4.96-2.51,1.86-5.04,2.82-7.55,3.17-.48,6.36-1.11,9.59-2,5.55-1.52,11.21-2.76,16.83-4.17,7.07-1.78,14.12-3.95,21.29-4.8,3.01-2.49,6.91-1.39,10.09-3.25.95-.56,1.85-.19,2.77-.26,4.1-.34,8.22-.65,12.31-1.41,1.75-.32,3.76-1.08,5.19-2.65,1.35-1.49,3.67-2.08,5.08-3.69.6-.69,1.83-.61,2.75-.42.62-.73,1.23-1.43,1.04-2.4-1.65-1.36-.9-3.2.83-2.38Zm-126.35,87.42c.03-.08.06-.16.09-.24,0,0,0,.01,0,.02-.02.09-.05.16-.09.22Zm33.91-51.47c.45-.16.54.11.61.39-.3.03-.58.03-.61-.39Z"/><path class="cls-1" d="m756.66,129.89c.68,2.04-.5,3.93-.45,5.51-.64,1.6-2.23,1.15-2.86,2.15.33.81,1.33-.25,1.74,1.09-.54,2.18-.13,5.05-1.56,7.64-.42.77-.35,1.52-.18,2.36.16.8-.22,1.59-.99,2.11-.15-.31-.28-.66-.77-.37.11.49.45.42.81.3-.67,5.53-2.66,10.71-4.82,15.85-1.22,2.89-2.71,5.76-3.33,8.77-.34,1.66-1.54,2.69-1.94,4.26-.5,1.93-1.19,3.84-1.35,5.81-.48.23-.86.41-1.24.59-.15-.29-.26-.64-.73-.4.08.51.43.4.77.3.48.98.25,1.85-.5,2.68-.4-.33-.79-.66-1.28-1.06-1.51.57-1.43,2.25-2.39,3.24-.35-.07-.74-.14-1.27-.24-1.33.58-1.12,3.39-3.57,2.64-.91-1.4.87-3.13-.44-4.71-1.57,1.09-.86,2.75-1.42,3.99-1.14.61-1.81-.06-2.6-.92-.43-4.22,1.02-8.41,1.52-12.66.2-1.74.89-3.46,1-5.2.47-7.2,2.6-14.13,3.98-21.18,2.28-11.7,5.83-23.16,7.63-34.96.63-4.13,1.35-8.29,2.67-12.33.91-2.77,1.87-5.45,4.45-7.63,1.06,2.91.93,7.5,1.9,3,.33-1.51,1.18-2.39,2.16-3.6,1.38,1.12,2.98.73,4.21.15,1.71.26,2.39,1.83,3.95,1.65.26.62.52,1.25.79,1.88-.35.15-.66.31-.36.75.51-.12.36-.47.29-.78,1.27-.17,1.46.87,1.37,1.56-.69,5.15-.96,10.35-2.09,15.47-.78,3.55-1.37,7.13-2.09,10.69-.13.66-.36,1.34-1.04,1.73-.14-.31-.27-.64-.75-.37.12.47.45.38.79.29Zm3.1-20.81c-.1-.06-.19-.12-.29-.17l-.14.31c.13.04.27.09.4.13,0-.09.02-.18.02-.26Zm-16.21,16.16c-.08.08-.19.27-.17.3.23.25.42.23.5-.01.02-.07-.29-.32-.33-.28Zm.07,1.92c-.1-.06-.2-.11-.3-.17-.05.1-.1.21-.15.31.14.04.28.09.42.13.01-.09.02-.18.03-.27Zm-3.17,9.77c-.01.09-.07.21-.03.25.07.08.26.18.29.16.24-.23.23-.41,0-.47-.07-.02-.17.04-.25.07Zm14.58-3.39l-.31-.16c-.06.1-.11.2-.17.31.14.04.29.08.43.12.01-.09.03-.18.04-.26Zm-3.77,4.79c-.09-.01-.21-.07-.25-.03-.08.07-.12.19-.18.29.17,0,.33-.01.5-.02-.02-.08-.04-.16-.06-.24Z"/><path class="cls-1" d="m745.02,79.15c.1-1.94,1.34-3.48,2.14-5.13.63-1.31,2.02-2.19,3.62-2.43l-.04-.04c.13.32-.2.82.52,1.02.02-.38.05-.7.07-1.02l-.04.04c.84.12,1.18-.51,1.38-1.06.93,0,1.15.79,1.91,1.03,1.22-.84,2.7-.97,4.25-.74.38.06,5,1.58,5.2,1.8.3.33.69.65.81,1.04.58,1.82,1.88,3.43,1.68,5.49-.02.18-.05.39.02.54.65,1.35.78,2.68.06,4.07-.87,1.68-1.9,3.13-3.64,4.07-1.98,1.08-4.03,1.73-6.29,1.66-.45-.01-.91-.04-1.35.05-3.12.61-5.51-1.08-7.87-2.63-1.73-1.14-2.14-3.16-2.64-5.03-.15-.56.5-2.47.2-2.73Zm21.17,2.88c-.03.05-.09.12-.07.16.02.07.08.12.13.18.03-.11.07-.21.1-.32-.05,0-.1-.01-.15-.02Z"/><path class="cls-1" d="m846,104.33c-.98.02-1.63.7-2.35,1.22-.96.69-1.83,1.52-3.11,1.94-.01-.62.36-.97.69-1.32.55-.6,1.29-.98,1.91-1.49.45-.37,1.08-.62.98-1.42-.03-.28.31-.45.51-.65.8-.75,1.62-1.49,2.54-2.07.51-.33.86-.67.85-1.34,0-.81.44-1.36,1.12-1.84,1.6-1.14,2.91-2.59,4.06-4.18,1.22-1.7,2.27-3.51,3.31-5.4-.31-.32-.71-.44-1.04-.4-1.88.24-3.76-.27-5.64.05-5.72,1.01-11.5,1.83-17.04,3.58-6.83,2.16-13.75,4.16-20.2,7.37-1.37.68-2.82,1.14-4.23,1.72-1.76.72-3.5,1.51-5.07,2.61-.89.62-.89.67-.32,1.57.45.72.98,1.4,1.33,2.19.34.78.27,1.39-.31,2.08-3.29,3.89-6.54,7.81-9.78,11.74-.59.72-1.26,1.39-1.69,2.23.36.27.69.15.8-.09.32-.66.92-.74,1.52-.9,6.16-1.65,12.4-3,18.67-4.15,2.67-.49,5.31-1.12,8.02-1.4,2.86-.3,5.71-.39,8.51.4.67.19.94-.16,1.43-.67.01,1.07.5,1.3,1.34,1.19,1.09-.14,2.19-.05,3.28.06.35.03.81-.1.63.58-.09.35.35.39.58.45,1.02.24,2.04.45,3.07.64.63.12,1.13.29,1.4.99.25.64.85,1.04,1.51,1.22.6.17.84.54.93,1.1.16.98.24,2.01,1.2,2.63-.02.82.36,1.53.61,2.27.07.21-.08.34-.28.41-.23.09-.37.25-.47.49-.41,1.04-.42,1.05-1.57.98-6.02-.39-12,.04-17.96.81-5.77.74-11.44,1.99-17.05,3.5-6.16,1.65-12.23,3.59-18.25,5.69-.77.27-1.21.6-1.31,1.43-.07.59-.28,1.17-.42,1.75.33.28.55-.12.94-.05-.05.38-.64.65-.38,1.06.53.83-.1,1.15-.61,1.56-3.73,2.98-7.98,4.96-12.46,6.51-.36.12-.72.27-1.09.35-.61.14-.93.42-1.11,1.09-.32,1.17-1.57.81-2.39,1.16-.53.23-1.17.28-1.61-.43-.45-.74-1.25-1.15-1.97-1.61-1.1-.71-1.96-1.53-2.25-2.95-.24-1.19-.93-2.29-.92-3.56,0-.04-.02-.1-.05-.13-1.32-1.75-.68-3.62-.36-5.49.26-1.48.89-2.76,1.71-4.01,4.06-6.17,8.36-12.16,12.95-17.94.29-.37.57-.75.84-1.1-.14-.42-.49-.54-.77-.63-1.09-.35-1.48-1.17-1.75-2.18-.53-1.97-.89-4-1.86-5.83-.2-.37-.13-.73-.09-1.11.06-.64-.03-1.27-.56-1.69-.42-.33-.32-.62-.11-.98.69-1.19,1.57-2.27,1.92-3.64.11-.42.63-.55.99-.77,7-4.34,14.14-8.42,21.53-12.06,8.94-4.4,18.15-8.1,27.72-10.91,5.53-1.62,11.14-2.9,16.83-3.85.86-.14,1.77-.51,2.61.15.35.28.62-.05.9-.19.89-.46,1.84-.48,2.79-.32.63.11,1.25.45,1.79-.23.11-.14.4-.14.52.03.42.6,1.02.39,1.56.35.96-.07,1.9.11,2.83.3.84.17,1.67.36,2.51.52.68.13,1.43.07,1.76.93.06.17.39.25.6.34,2.55,1.08,4,3.12,4.93,5.62.89,2.38,1.22,4.88,1.62,7.37.15.94.27,1.88.45,2.82.11.59.14,1.21-.17,1.67-.7,1.03-1.35,2.08-2.16,3.06-1.5,1.79-3.6,2.82-5.14,4.51-.23.25-.5.41-.84.51-2.53.73-4.86,1.91-7.14,3.2-.33.19-.63.45-1.04.43-1.28-.07-2.26.62-3.27,1.25-.91.57-1.78,1.24-2.99,1.41q1.13-1,1.14-1.87c-.69-.06-1.04,1.09-1.83.59.05-.47.59-.48.69-.86l.06-.08-.03.11Zm2.48-.15c.04-.21-.08-.28-.22-.3-.31-.03-.34.24-.43.44-.05.13-.07.3.09.31.32.02.47-.21.55-.46Zm-3.73-1.02c.32.11.55.03.73-.24.08-.11.07-.2-.06-.22-.32-.04-.51.14-.66.46Z"/><path class="cls-1" d="m841.47,148.59c-.45,1.18-.85,2.17-1.22,3.2-.16.44-.33.63-.6.61-.56-.04-1.09.18-1.63.64-.45.38-.71.56-.95,1.2-.18.48-.43.65-.72.76-.7.27-1.39.19-2.08.14-1.03-.08-2.05-.48-3.09.4-.34.29-.57,0-.71-.67-.14.4-.23.61-.28.84-.12.53-.16,1.18-.57,1.23-.38.05-.51-.47-.62-1-.05-.22-.13-.4-.2-.6-.22.2-.22.53-.27.82-.11.61-.3.69-.64.61-.47-.11-1.02.21-1.26-.85-.03-.12-.18-.17-.27-.17-.32,0-.31,1.08-.59.81-.16-.15-.11-.94-.47-.97-.16-.01-.39-.09-.4.35,0,.36.21.73-.22.83-.44.09-.94.72-1.26-.05-.28-.68-.32-.18-.56.08-.33.34-.63.72-.91,1.23-.1-.62-.18-1.15-.28-1.66-.02-.11-.08-.18-.19-.39-.04.82-.08,1.48-.69,1.3-.33-.09-.79-.08-1.11.72-.18.46-.28-.24-.43-.38-.18-.17-.43-.42-.47.15-.07.94-.09,1.12-.47.33-.3-.63-.77-.41-.84.44-.14,1.68-.75,1.77-1.44,1.93-1.63.36-3.27.45-4.9,1.04-.43.15-1.04-.02-1.09,1.33-.01.32-.18.36-.32.33-.71-.18-1.38.36-2.05.7-.38.19-.75.38-1.14.29-.76-.18-1.76-.1-2.5.55-1.41,1.24-2.89,1.64-4.38,2.1-2.29.72-4.52,2.01-6.79,2.98-1.17.5-2.34.97-3.52,1.22-.59.12-1.17.35-1.71.97-.57.65-1.22.66-1.84.85-2.5.77-4.96,1.89-7.39,3.43-1.18.75-2.4,1.06-3.6,1.53-1.97.77-3.93,1.56-5.72,3.52-.56.62-1.18.3-1.74.34-.42.03-.85,0-1.28.15-.3.1-.51-.1-.61-.69-.57-3.54-.94-7.1-.56-10.97.11-1.08.56-1.64.74-2.56.21-1.1.84-1.3,1.37-1.69.36-.27.71-.59,1.06-.93.15-.14.38-.37.31-.68-.19-.93.24-.92.5-1.06,1.56-.86,3.13-1.68,4.69-2.52,5.23-2.81,10.47-5.51,15.77-7.71,4.79-1.99,9.6-3.49,14.43-4.42.31-.06.62-.23.92-.32.79-.25,1.55-.78,2.4-.36.61.31,1.37-.12,2.07-.24,5.15-.87,10.29-1.46,15.43-1.6,4.03-.11,8.04.1,12,.92,1.6.33,3.18.81,4.88,1.62Zm-1.68,1.05s.04.13.06.13c.06-.01.12-.06.17-.09-.02-.04-.04-.13-.06-.13-.06.01-.12.06-.18.09Zm-23.08,9.4s-.04-.09-.06-.14c-.03.04-.07.08-.08.12,0,.04.03.09.05.14.03-.04.06-.08.08-.12Z"/><path class="cls-1" d="m843.63,107.61c.41-.09.82-.18,1.25-.27-1,1.62-6.21,4.88-8.47,5.22,1.02-.64,1.65-1.79,3-2,.44-.07.88-.38,1.25-.66,1-.78,2.11-1.43,3.01-2.33l-.04.05Z"/><path class="cls-1" d="m834.01,111.44c1.66-1.85,3.54-2.81,5.53-3.83-.67,1.5-2.28,2.62-5.53,3.83Z"/><path class="cls-1" d="m842.27,104.54c-1.74,1.83-3.91,2.98-6.14,4.05,1.77-1.55,3.76-2.79,5.77-3.99.11-.06.27-.02.41-.03l-.04-.03Z"/><path class="cls-1" d="m843.01,107.38c-.45.17-.62.72-1.12.82-.09.02-.18,0-.28,0,.54-1.13,1.43-1.86,3.11-2.52-.24.98-1.45.91-1.75,1.74l.03-.04Z"/><path class="cls-1" d="m831.89,111.22c.85-.91,1.78-1.37,2.81-1.84-.72.97-1.23,1.31-2.81,1.84Z"/><path class="cls-1" d="m839.45,109.32c-.32.89-1.21.89-1.93,1.17.49-.63,1.1-1.07,1.93-1.17h0Z"/><path class="cls-1" d="m833.73,114.43c.41-.72,1.06-.87,1.78-1.12q-.55.87-1.78,1.12Z"/><path class="cls-1" d="m847.61,99.61c-.04.34-.38.37-.59.52-.05-.07-.14-.16-.13-.22.05-.32.29-.46.58-.52.03,0,.1.14.15.22Z"/><path class="cls-1" d="m832.48,112.61c-.04.27-.24.37-.46.44-.05.02-.19-.06-.19-.08.04-.26.27-.34.46-.46.03-.02.13.06.19.09Z"/><path class="cls-1" d="m833.35,112c-.12-.02-.22-.04-.31-.05.11-.09.21-.18.33-.25.09-.06.18-.02.21.09.05.23-.13.2-.23.21Z"/><path class="cls-1" d="m840.97,108.49c-.06.06-.11.15-.18.17-.13.03-.28.01-.28-.16,0-.04.14-.12.22-.12.08,0,.16.07.25.12Z"/><path class="cls-1" d="m842.98,107.42c.28-.15.49-.08.65.19l.04-.05c-.24.02-.49.05-.66-.18l-.03.04Z"/><path class="cls-1" d="m846.23,100.65c-.06.05-.11.14-.16.14-.07,0-.14-.07-.2-.11.04-.03.07-.08.11-.08.08,0,.16.03.25.05Z"/><polygon class="cls-1" points="840.98 149.52 840.93 149.43 841.03 149.43 840.98 149.52"/><polygon class="cls-1" points="836.88 111.02 836.91 111.09 836.83 111.09 836.88 111.02"/><path class="cls-1" d="m839.45,109.32l.07-.2s.08.07.12.11c-.07.03-.13.06-.2.09h0Z"/><path class="cls-1" d="m842.3,104.57c.01-.07.02-.14.03-.21.05.03.09.05.14.08-.07.04-.14.07-.21.11l.04.03Z"/><path class="cls-1" d="m740.3,81.8c.04.7-.35,1.26-.63,1.86-2.42,5.12-6.11,9.2-10.48,12.73-3.81,3.08-7.95,5.68-12.02,8.38-1.04.69-2.05,1.39-2.91,2.31-.5.54-1.03,1.14-1.81,1.25-.9.13-1.45.61-1.97,1.33-.69.97-1.91,1.29-2.89,1.88-5.46,3.28-10.72,6.9-16.33,9.95-1.53.83-3.09,1.59-4.67,2.32-1.43.66-2.94,1.14-3.88,2.54-.17.26-.5.44-.79.58-3.28,1.54-6.23,3.67-9.49,5.28-8.08,3.99-16.05,8.21-24.15,12.17-8.55,4.17-17.17,8.18-26.03,11.67-2.12.83-3.58,2.12-4.66,4.13-3.22,5.97-6.63,11.83-9.67,17.89-.72,1.44-.97,3.2-2.66,4.05-.29.14-.43.7-.53,1.09-1.25,4.89-3.9,9.08-6.61,13.25-.58.89-1.05,1.88-1.45,2.87-1.42,3.54-3.66,6.68-4.99,10.26-.25.67-.81,1.02-1.52,1.14-.41.07-.82.12-1.21.25-2.31.77-2.95.66-3.71-1.53-.62-1.79-1.72-3.69-.6-5.68.82-1.46-.46-2.87.03-4.32.07-.21-.29-.6-.63-.15-.33.44-.85.5-.6-.11.46-1.11.15-2.03-.01-3.1-.35-2.34-.19-4.7.91-6.89.41-.81.78-1.64,1.16-2.47.14-.3.42-.67.34-.9-.63-1.73.49-2.99,1.1-4.39,1.02-2.33,2.38-4.55,2.03-7.3-.07-.59.32-1.27.61-1.86.88-1.78,1.82-3.53,2.73-5.3.83-1.62,1.61-3.27,2.03-5.05.2-.82.53-1.51,1.15-2.14,1.93-1.98,2.28-4.54.86-6.92-.48-.8-.96-1.48-.85-2.46.06-.6-.42-1.05-.72-1.55-.3-.49-.64-.97-.86-1.5-.8-1.92-.5-2.87,1.31-3.92,1.36-.79,2.82-1.38,4.33-1.85.55-.17,1.11-.34,1.67-.48,3.22-.85,5.39-2.62,6.87-5.81,3.88-8.33,8.87-16.07,13.35-24.09.89-1.59,1.63-3.27,2.64-4.77,1.02-1.52.92-2.89.14-4.41-1.44-2.8-2.66-5.69-3.46-8.75-.65-2.49-1.06-4.99-.5-7.58.7-3.27,2.54-5.51,5.73-6.56,7.23-2.38,14.5-4.66,21.71-7.11,10.58-3.6,21.26-6.87,32.18-9.27,5.09-1.12,10.23-1.98,15.41-2.66,8.39-1.1,16.79-1.95,25.25-1.48,4.76.27,8.75,2.36,11.88,5.96,2.7,3.11,4.35,6.82,5.84,10.6.61,1.53,1.08,3.12,1.61,4.68.21.63.47,1.24.42,1.93Zm-31.1-.82c-4.04-.09-7.71.73-11.37,1.28-4.56.69-9.11,1.59-13.63,2.64-7.51,1.74-14.79,4.1-22.03,6.73-3.44,1.25-5.24,3.09-4.98,6.78.06.86-.27,1.6-.97,2.18-2.19,1.85-3.55,4.63-6.4,5.77-.27.11-.49.44-.67.7-2.74,4.13-5.54,8.24-8.18,12.44-.79,1.25-1.87,2.45-1.87,4.1,1.49-.21,2.79-.93,4.1-1.57,8.02-3.92,16.01-7.91,23.84-12.21,14.67-8.06,28.95-16.73,42.49-26.57.84-.61,2.48-1.17,2.21-2.03-.38-1.21-1.86.05-2.55-.24Z"/><path class="cls-1" d="m476.75,115.92c-.77.12-1.41.78-2.26.59.01-1.21,1.75-1.4,1.59-3.24,0-.43-1.21.13-1.47-.59.15-.23.3-.47.59-.91-.91-.73-1.54-1.77-2.11-2.83-.56-.07-1.11-.14-1.6-.21-.51-.54.14-.72.19-1.15-.54-.9-1.24-1.75-2.37-2.07-.52-.15-1.3.11-1.54-.47-1.08-2.5-3.29-2.06-5.33-2.23-2.84-.23-5.56.68-8.34.78-2.84.11-5.52.67-8.16,1.62,18.63-6.78,11.92-4.57-19.82,7.27-.59.22-1.19.68-1.31,1.45-2.29.01-4.48.76-6.27,1.93-.79.52-1.62.98-2.44,1.44-.37-.25-.78-.48-1.3-.57-1.13.5-2.58.82-3.8-.21-.92,1.06-1.71,1.83-2.05,3.18-.14.55-.29,1.1-.43,1.65-.42.24-.83.5-1.25.74.43-1.64.63-3.33.04-5.1-2.38,1.9-3.33,4.28-4.22,6.73-.18.49-.32.98-.48,1.48-1.89,1.39-3.64,2.87-5.06,4.66-.26,1.33.18,2.15,1.26,2.82.56-.84,1.51-1.27,2.32-1.88-.19.9-.38,1.8-.55,2.7-.22.27-.42.56-.55.89.04.26.14.47.25.65-1.96,10.36-5.41,20.4-7.77,30.67-1.43,6.26-3.55,12.41-4.17,18.82-.15,1.55-.82,3.07-1.05,4.62-.19,1.29-.48,2.56-.77,3.83-.87.75-1.65,1.58-2.34,2.47v2.49c.37.27,1,.37,1.4.72-.03.58-.04,1.17,0,1.76.67.76,1.25,1.35,2.24.9.65.08,1.19.33,1.72.57.01.02.01.05.03.07.09.03.16.02.25.04.17.07.35.15.53.2,2.76.84,5.62,1.96,8.59,1.22,1.91-.47,3.91-.49,5.75-.95,8.34-2.08,16.83-3.28,25.26-4.85,6-1.12,12.14-1.51,18.14-2.71,4.2-.84,8.44-1.57,12.53-2.79,1.6-.48,3.6-1.07,4.68-2.82-1.28-1-2.05,1.32-3.04.15.39-1.43,2.36-1.71,2.29-3.3-.48-1.1-1.29.73-1.68-.33-.13-.67.36-1.04.65-1.48-.65-1.93-1.61-3.5-3.99-3.27.33-.75.55-1.25.72-1.64-1.41-2.64-3.99-1.01-5.82-1.87.24-.5.47-.97,1.14-2.33-1.59.47-2.08-.78-3.15-.78-3.98,0-8.1-.62-11.92.17-8.8,1.82-17.52,4.04-26.16,6.59-3.96,1.17-7.87,2.43-11.72,3.87.72-2.22,1.87-4.36,2.86-6.52,1.43-3.11,2.78-6.23,3.74-9.47,1.7-.26,3.38-.68,5.02-1.36,6.31-2.61,12.9-4.51,19.11-7.32,7.15-3.23,14.62-5.45,21.95-8.11.83-.3,1.76-.04,2.72-.86.56-1.44,2.16-2.22,3.66-3.35.68-1.36.57-3.04,1.03-4.61-1.53-1.82-3.66-2.16-5.74-2.28-2.46-.15-4.95-.1-7.4.11-10.56.92-20.92,3-31.18,5.61-1.2.31-2.41.55-3.61.83.07-.54.07-1.09-.1-1.66.58-.34.81-.92.94-1.49.74-3.16,1.38-6.34,2.18-9.49.05-.19.08-.37.12-.56.75-.33,1.5-.66,2.24-.99.62-.27,1.1-.92,1.87-.8,2.59.4,4.81-1.98,7.48-.99,4.9-1.93,10.09-2.7,15.19-3.81,4.05-.88,8.08-1.93,12.12-2.7,7.14-1.36,13.43-4.37,19.57-7.97.53-.31.79-.77.35-1.38Zm-58.17,4.32s.02.01.03.02c0,.08,0,.17-.01.25,0,0,0,0,0,0-.04-.11-.05-.2-.01-.27Zm-12.95,7.44c.11.01.22.01.32,0-.08.41-.25.65-.49.72.06-.24.11-.49.17-.73Zm-.64,8.24c-.22.74-.56,1.46-1.13,2.11-.08-.2-.21-.41-.18-.6.09-.59.2-1.18.3-1.77.33.12.67.2,1.01.26Zm-2.27,7.29c.09.05.18.11.26.16-.01.08-.03.16-.04.24-.12-.04-.25-.08-.37-.12.05-.09.1-.18.15-.27Zm.09-1.3s.08-.2.16-.26c.04-.03.16.02.24.03.02.08.08.16.05.23-.07.22-.25.23-.45,0Zm.37-1.39c-.54-1.06-.15-1.76.66-2.35.39.86.27,1.63-.66,2.35Zm4.33-15.25c-.21.79-.42,1.57-.63,2.35-.27,0-.54,0-.81-.02.5-1.71.7-2.31,1.44-2.33Zm6.46,20.51c.41-.21.53.03.64.28-.29.07-.56.11-.64-.28Zm6.99-14.02c-.47-.47-.53-.93.04-1.37.55.48.48.93-.04,1.37Zm3.77-12.24c-.84.91-1.44.02-2.12-.31-.23.48-.46.96-.7,1.44-.84-.44-.42-1.18-.52-1.92,1.08-.75,2.19-.63,3.33-.13v.92Zm.15-5.5c.84.14.73.74.77,1.49-1.04-.34-.72-.99-.77-1.49Zm1.84,1.34c.74-.83,1.19-.67,1.46.28-.49,0-1,.18-1.46-.28Zm1.57.36c.26,0,.51,0,.77,0v.78c-.5-.02-.74-.29-.77-.77Zm.85.86c.32.02.64.05.55.55-.5.09-.52-.23-.55-.55Zm0-.94c.03-.35.06-.69.6-.57.08.52-.25.56-.6.57Zm3.06.67c-.12-.09-.23-.18-.35-.27.08-.08.17-.16.25-.24.07.09.15.18.22.27-.04.08-.08.16-.12.24Zm.94-1.8c-.16.21-.35.16-.49-.14-.01-.03.16-.18.26-.21.06-.02.16.07.24.11,0,.08.03.2,0,.25Zm8.41-2.44l-.24-.12c.09-.12.17-.24.26-.35.08.08.16.16.24.25-.09.07-.18.15-.26.22Zm32.27,5c-.03-.45.27-.47.57-.5-.05.31-.1.62-.57.5Z"/><path class="cls-1" d="m192.02,73.46c.64-.99.88-2.15-.62-2.76-.83-1.63-1.66-3.26-2.46-4.82-.59-.06-3.04-2.17-4.22-3-.91.97-1.76,2.01-2.75,2.88-.9.78-1.44,2.35-3.16,1.75q3.22-4.2,3.27-6.59c-2.9-.69-5.01.66-6.9,2.61-1.6,1.66-2.72,3.65-3.85,5.64-3.86,6.82-8.26,13.26-13.16,19.38-5.93,7.4-11.45,15.12-17.3,22.58-5.53,7.05-11.22,13.96-16.65,21.17-.84-1.24-.62-2.5-.37-3.53.94-3.87.87-7.79.96-11.71,0-.33-.03-.68.08-.98,1.34-3.84.64-7.69.38-11.61-.29-4.43-2.14-8.64-1.58-12.92-.74-1.5-1.39-2.81-2.07-4.19.38-1.71,1.69-3.27.86-5.25-1.02-1.02-4.55-3.81-5.17-4.26-1.74.72-1.43,3.36-3.52,3.74-.4-1.84,1.61-2.97,1.55-4.78q-2.76,1.01-3.63,2.03c-2.33,2.75-4.28,5.74-6,8.92-1.35,2.5-31.58,69.2-38.03,86.58-3.89,10.48-8.47,20.32-11.54,31.57-.74,2.72-2.03,5.06-2.86,7.73-2.03,6.52-4.95,12.37-6.06,19.38.45,1.83.87,3.3,2.2,2.99.99-1.66.91-4.73,2.83-5.55.7,3.3-1.66,5.02-1.27,7.8,2.11,2.63,2.93-1.99,4.43-2.14.48.47.83.82,1.15,1.13,1.29-1.02,1.83-3.77,3.5-3.79.32.93.59,1.69.86,2.45,1.01-.86,1.54-2.1,1.46-3.88.41-.06.83-.12,1.34-.2.87-3.05,2.23-5.7,3.41-8.5.97-2.27,2.5-3.22,3.43-5.68,1.69-4.46,4.18-8.18,6.41-12.1,3.95-6.94,7.75-14.04,10.4-22.46.91-.39,1.56-1.42,1.69-2.78.14-1.44.34-2.68,1.03-3.67,2.32-3.32,2.96-8.14,4.28-11.32.04-.94-.15-1.33-.4-1.56.26-.58.52-1.16.78-1.73.62-.01,1.28-.14,1.88-1.24.51-2.44,2.19-4.7,2.4-8.09.23-.08.5-.11.83-.1-1.47,5.05-1.02,10.09-1.05,15.1.84.86,1.53,1.56,2.16,2.21.78-.3,1.35-.53,1.97-.77.93.68,1.82,1.35,2.63,1.94,1.12-.37,2.04-.65,2.95-.98,2.88-1.02,6.11-1.55,8.57-3.2,5.91-3.97,10.91-9.04,15.52-14.47,2.92-3.43,5.6-7.07,9-10.07.31,1.2-.72,2.03-.94,3.09-2.69,13.11-6.9,25.81-10.43,38.69-1.09,4-2.91,7.93-2.44,12.39.77.44,1.04,1.73,2.62,1.14.13-.96,3.02,1.38,4.13.96.04-.98.58-1.95,1.7-2.47.27.55.53,1.11.79,1.65.96-.32,1.24-1.55,2.35-1.47.38.5.23,1.36.79,1.45,1.08.21,1.47-.42,1.9-.88.55-.59,1.12-1.22,1.49-1.93,1.66-3.16,3.4-6.29,4.84-9.55,3.14-7.09,5.98-14.32,9.2-21.38,3.44-7.53,7.22-14.9,10.76-22.38,1.46-3.07,2.75-6.22,4.04-9.36,2.7-6.57,5.22-13.22,8.05-19.74,4.42-10.21,8.49-20.54,11.6-31.24.38-1.31.42-2.5-.18-3.76-.66-1.38-.76-2.76.16-4.18ZM61.69,231.03c.5-.11.53.41.56.92-.34-.04-.66-.12-.56-.92Zm52-149.33-27,100.42c.55-.17.58.39.61.94-.36-.03-.68-.14-.61-.94Zm54.97-39.83c.04-.34.09-.67.58-.65.11.54-.24.6-.58.65Z"/><path class="cls-1" d="m512.66,156.59c-1.55-.16-3.07-.59-4.66-.47-.5.04-1.06-.26-1.18.59-.04.29-.39.19-.56,0-.48-.5-.79-1.8-1.65-.3-.04.07-.26-.15-.29-.31-.07-.37-.23-.56-.49-.16-.3.44-.53.3-.83.02-.29-.27-.68-.78-1-.31-.45.65-1.64.26-1.71,1.29-.09,1.34-.53,2.45-1.51,3.45-.49.5-.6,1.38-.83,2.11-.49,1.58-.84,3.23-2.14,4.38-.46.41.35.61.02.85-.28.21-.63.3-.92.5-.39.26-.22.48-.01.84.67,1.14.5,1.87-.66,2.17-.87.22-1.11.7-1.32,1.41-.16.53-.29,1.13-.87,1.41-.39-.28-.03-.43.02-.61.04-.16.15-.31-.13-.4-.59.25-.41,1.08-.98,1.39-.49.04-1.01-1.02-1.56-.03q1.71.69,1.55,1.87c-.47.14-.36-.3-.5-.49-.18-.25-.38-.45-.88-.38.23.86,1.11,1.64.32,2.63.5.08.83.13,1.15.18,0,.23-.16.43-.3.4-1.59-.32-2.1,1.38-3.31,1.75-.07.02-.11.32-.08.48.03.15.15.3.38.2.19-.08.43-.35.61-.07.23.34-.13.51-.34.67-.34.24-.73.39-1.05.64-.83.65-.83-.13-1.05-.63-.55.44-.55,1-.46,1.58l.06-.06c-.49.14-.28.9-.92.93-.31-.6.41-1.27,0-1.91l.14-.03-.09.06c-1.03,1.87-1.49,3.97-2.36,5.91-.2.44-.22,1.26-.9,1.09-.65-.16-.38-.86-.28-1.37.06-.29.14-.58-.07-.89-.54.18-.9.69-1.46.77.07.49.55.52.68.84.11.28.22.66,0,.84-.39.3-.45-.46-.86-.36-.24.87-.21,1.88-1.11,2.49-.53-.14-.35-1-1.03-1.01-.44.35-.19.87-.31,1.3-.11.4-.17.83-.57,1.06-.13.07-.34.08-.49.04-.24-.06-.15-.27-.13-.44.06-.45.64-.66.61-1.26-.98.11-1.21,1.2-2.12,1.36-.32-.31.12-.55.17-.82.05-.3.11-.74-.16-.79-1.29-.24-.87-1.12-.81-1.9.61-7.76,2.68-15.2,5-22.58,1.49-4.73,2.95-9.46,4.48-14.17.34-1.06.17-1.87-.44-2.78-2.12-3.2-4.33-6.33-6.25-9.66-.59-1.02-1.15-2.06-1.69-3.11-.67-1.3-.67-1.32.43-2.37,1.77-1.7,3.85-2.92,6.07-3.91,2.32-1.03,4.64-2.06,6.98-3.03.76-.32,1.26-.78,1.61-1.52.9-1.92,1.86-3.81,2.81-5.75-.93-.65-1.53-1.45-2.08-2.29-.62-.93-1.19-1.91-2.31-2.37-.2-.08-.39-.29-.49-.49-1.01-1.93-2.31-3.71-3.13-5.75-.93-2.3-.94-4.57.11-6.86,1.69-3.7,4.2-6.84,6.89-9.83,2.29-2.54,4.65-5.03,6.99-7.53.28-.3.58-.61.93-.81,2.17-1.22,4.15-2.72,6.19-4.11.98-.67,2.03-1.2,3.09-1.72,1.59-.79,3.25-1.44,4.77-2.39,3.77-2.36,7.84-4.1,12.09-5.41.57-.17,1.15-.28,1.55-.77.28-.34.7-.42,1.1-.53,6.38-1.75,12.72-3.66,19.23-4.87,5.71-1.06,11.47-1.64,17.28-1,1.84.2,8.18,2.28,9.6,3.38,2,1.55,3.6,3.39,4.86,5.56,1.9,3.28,3.08,6.88,4.59,10.34.97,2.21,1.17,4.43.85,6.74-.25,1.8-.92,3.42-2.32,4.65-.45.4-.81.86-1.13,1.35-4.2,6.37-9.64,11.4-16.16,15.38-6.1,3.72-12.13,7.55-18.43,10.91-8.28,4.42-16.75,8.46-25.34,12.25-3.13,1.38-6.26,2.75-9.54,4.2.83.52,1.64.55,2.4.69,5.28,1,10.65,1.41,15.97,2.16,1.79.25,3.63.32,5.23,1.33.12.07.17.15.29.07,1.19-.77,2.3.03,3.39.27,6.4,1.37,12.85,2.54,19.19,4.23,6.13,1.63,12.08,3.68,17.54,6.98.3.18.58.49.96.39.84-.21,1.1.51,1.57.91-.02-.01-.03-.03-.05-.04.94-.19.32,1.01,1.08,1.18.53.12.94.78,1.43,1.22-.63.44-.94-.5-1.51-.18,0,.14-.08.35-.01.46.55.79.28,1.14-.6,1.21-.47.04-.55.34-.4.74l.05-.06c-.42.14-.26.6-.53,1.03-.16-.62-.15-1.22-.45-1.5-.24-.22-.81-.47-1.35-.13.22.67,1.39.87.9,1.97-.62-.03-1.03-1.04-1.91-.48.16.94.58,2.02.02,3.07-.42-.17-.15-.67-.44-.92-.46-.07-.32.31-.36.53-.11.63-.54.61-.9.35-.47-.33-.87-.78-1.29-1.18-.27.11.02,1.08-.6.49-.53-.5-.76-1.01-1.42-.12-.27.36-.82-.05-1.11-.44.01-.1.36.01.15-.23-.03.09-.06.19-.09.28-1.78-.31-3.44-1.09-5.26-1.31-.32.47-.15,1.19-.8,1.46l.04.04c-.06-.81-1-.82-1.29-1.41.17.01.34.07.5.03.19-.04.49,0,.46-.33,0-.09-.09-.21-.17-.27-.23-.14-.44-.07-.57.15-.08.14-.11.31-.16.47-.27.45-.6.66-1.16.49-1.01-.29-2.05-.52-2.98-1.01-.95,1.31-1.68,1.28-2.29-.06-.05-.1-.08-.21-.11-.32-1.12,1.11-.95-.97-1.77-.72-.3.09-.71-.16-.76.41-.01.18.38.47-.08.51-.19.02-.56-.19-.57-.32-.13-1.32-1.22-1.02-2-1.24-.21-.06-.51-.2-.54.14-.07.77-.57.62-1.03.54-.74-.14-.34-.74-.43-1.14-.02-.1-.11-.19-.16-.29-.77,1.34-1.01,1.42-2.49.85-.05-.02-.1-.09-.15-.09-2.54.11-4.92-1.24-7.49-.88-.49.07-.91-.02-1.35-.23-1.19-.56-2.46-.76-3.76-.91-.79-.09-1.56-.05-2.2.41-.55.39-1.07.42-1.66.2-.2-.07-.52-.02-.5-.35.02-.37.35-.42.63-.49l.07.08-.09-.05c-1-.82-2.15-.48-3.34-.57.33.85,1.08.23,1.43.67-1.19.92-3.07.58-4.92-.89.2-.07.4-.13.59-.2-.06-.06-.11-.18-.17-.18-.27,0-.35.2-.38.43-.37-.25-.78-.4-1.09.01-1.1,1.41-2.46,1.53-4.03.94-.3-.11-.75-.13-1.03.02-1.02.55-1.26-.21-1.5-.89-.56.14-.5.71-.89.9-.59.29-.72-.03-.73-.53.09-.06.18-.13.27-.19.13-.09.25-.19.19-.37-.01-.04-.09-.07-.14-.07-.23,0-.21.2-.23.35-.01.11-.02.22-.03.33Zm1.91-40.7c.5.23.71.1.91,0,9.31-4.46,18.7-8.76,27.74-13.77,7.55-4.19,14.83-8.78,21.42-14.4,1.27-1.08,2-2.61,3.25-3.69.04-.04.06-.1.09-.15.56-1.03.34-1.54-.81-1.69-.87-.11-1.77-.15-2.65-.11-2.12.08-4.24.43-6.33-.21-.36-.11-.69.03-1.02.19-1.82.9-3.72,1.1-5.68.62-.35-.09-.7-.26-.97.09-1.04,1.35-2.51,1.08-3.91,1.08-.39,0-.88-.31-1.14.14-.42.74-1.15.77-1.82.92-4.85,1.09-9.58,2.56-14.23,4.3-2.21.82-4.37,1.78-6.54,2.7-.4.17-1,.31-.72.98.46,1.07.12,2.1-.16,3.11-.96,3.47-2.2,6.84-3.55,10.18-1.31,3.22-2.59,6.45-3.89,9.7Zm-37.96,73.25c.68.35,1.3.36,1.85-.38-.78-.29-1.31.05-1.85.38Zm97.17-28.73c-.38-.21-.63-.79-1.47-.67.46.55.83.81,1.47.67Zm-77.35,4.56c-.06-.1-.1-.26-.18-.27-.39-.08-.46.25-.58.5-.06.12,0,.25.14.27.35.03.5-.22.63-.49Zm-7.03,11.51c.05-.27-.1-.43-.33-.52-.29-.12-.45.07-.47.31-.02.24.19.39.42.44.18.04.31-.06.38-.23Zm40.6-21.1c-.18.06-.3.19-.25.38.05.18.22.24.39.21.22-.05.46-.12.31-.43-.09-.18-.27-.18-.44-.16Zm-35.76,15.24c.2,0,.35-.08.35-.28,0-.19-.14-.35-.33-.25-.13.07-.2.25-.3.39.09.05.19.1.28.14Zm77.73-11.44c-.07-.13-.13-.29-.18-.29-.23.03-.39.18-.44.41-.04.16.05.39.19.33.18-.07.29-.3.43-.45Zm-20.14-1.12c-.06-.09-.09-.2-.17-.25-.17-.1-.29-.01-.32.16-.04.21.09.29.27.26.08-.01.15-.11.22-.18Zm6.12,1.69c.15.08.3.16.44.24.04-.11.12-.22.1-.31-.04-.19-.19-.29-.38-.21-.07.03-.1.16-.16.28Zm-26.18-3.99s-.08-.07-.13-.1c-.03.1-.07.19-.08.29,0,.03.08.07.12.1.03-.1.06-.19.09-.29Zm42.11,5.85c-.09.06-.18.12-.27.18.04.04.08.09.13.11.14.05.24,0,.25-.16,0-.04-.07-.09-.11-.13Zm-85.76,17.33c-.01.05-.05.11-.03.16.07.18.15.18.2,0,.01-.04-.02-.11-.05-.15-.02-.02-.08,0-.12,0Zm79.83-19.37s-.02.09-.02.14c0,.02.05.03.07.04,0-.05.02-.09.02-.14,0-.02-.05-.03-.07-.04Zm-22.16-1.28s-.09-.11-.12-.1c-.1.03-.19.08-.28.12.04.04.09.11.12.1.1-.03.19-.08.28-.12Zm10.16,2.5h.05s-.03-.12-.03-.12l-.03.12Zm-5.93-2.89s-.09-.11-.13-.11c-.1.02-.2.08-.3.12.04.04.09.11.13.11.1-.02.2-.08.3-.12Zm-55.97,8.37c0,.05-.04.11-.03.15.05.18.11.19.16,0,.01-.04-.01-.11-.04-.15,0-.01-.06,0-.1,0Zm79.76-10.07s-.07-.08-.11-.11c-.03.09-.08.18-.09.28,0,.03.07.07.11.11.03-.09.06-.18.09-.27Zm-14.15,3.88l-.14-.26c-.06.05-.18.11-.18.16.01.09.09.18.14.26.06-.06.12-.11.18-.17Zm-2.77-.58l.06-.1h-.12s.05.1.05.1Zm-3.14-.87s-.09-.11-.13-.1c-.04,0-.08.08-.12.12.04.04.09.11.13.1.04,0,.08-.08.12-.12Zm-4.84-.73s-.06.09-.04.11c.02.04.1.11.11.1.13-.07.15-.16.04-.22-.03-.02-.07,0-.11,0Zm11.8,2.96s-.07-.07-.11-.1c-.04.04-.1.08-.1.12,0,.04.07.07.11.11.03-.04.06-.09.1-.13Zm-16.26-2.78s-.07-.07-.1-.11c-.03.03-.07.07-.1.1.05.04.1.07.15.11.02-.03.03-.07.05-.1Zm30.16-3.78l.05-.09h-.09s.04.09.04.09Zm-36.4,2.57s-.07-.07-.11-.1c-.03.04-.07.07-.1.11.05.03.11.06.16.1.02-.04.03-.07.05-.11Zm34.3,4.33s-.09-.11-.13-.1c-.04,0-.08.08-.12.12.04.04.09.11.13.1.04,0,.08-.08.12-.12Zm-48.2-4.94s-.08-.06-.1-.05c-.04.02-.11.08-.11.1.06.13.14.15.21.06.02-.02,0-.07,0-.1Zm-6.85.22s-.1.07-.09.11c0,.04.06.07.1.11.03-.04.1-.07.1-.11,0-.04-.06-.07-.1-.11Zm10.6-1.31s-.07.07-.1.1c.04.03.07.09.1.09.03,0,.07-.06.1-.09-.04-.03-.07-.06-.11-.09Zm-13.18.68l.05-.09h-.09s.04.09.04.09Z"/><path class="cls-1" d="m532.62,157.77c-.08.16-.09.24-.13.26-.47.19-.95.49-1.43.03-.04-.04,0-.26.06-.3.46-.34.94-.44,1.51.01Z"/><path class="cls-1" d="m564.44,163.58c-.37-.42-.24-.98-.61-1.31.34-.39.69-.25.84-.09.44.51,0,.93-.24,1.39Z"/><path class="cls-1" d="m576.31,162.79c-.9.04-.91-.53-.78-1.16.05-.23.27-.18.43-.11.63.3.64.76.32,1.3l.04-.04Z"/><path class="cls-1" d="m562.72,162.64c.05.38-.13.57-.49.49-.61-.14-1.19-.37-2-.35.98-.74,1.74-.08,2.52-.1l-.04-.04Z"/><path class="cls-1" d="m578.12,159.83c.11,0,.22,0,.33.01.16.01.35.02.34.24,0,.09-.08.23-.16.25-.2.06-.3-.1-.37-.25-.05-.1-.06-.21-.09-.32l-.05.06Z"/><path class="cls-1" d="m529.44,158.47c-.05.08-.11.23-.15.23-.16-.02-.37-.05-.45-.16-.2-.25.09-.24.22-.27.16-.03.32,0,.38.19Z"/><path class="cls-1" d="m485.45,183.23c.33-.01.58.04.45.46-.03.09-.18.23-.19.22-.28-.19-.17-.49-.2-.75l-.06.06Z"/><path class="cls-1" d="m566.72,162.93c-.17.03-.34.08-.51.1-.17.02-.35-.02-.38-.23-.01-.1.03-.23.1-.3.16-.17.32-.05.44.07.12.12.2.28.29.42l.05-.06Z"/><path class="cls-1" d="m576.28,162.83c.09.05.21.08.28.16.11.12.23.26.13.44-.04.07-.14.1-.22.14-.06-.15-.13-.29-.16-.44-.02-.1,0-.22,0-.33,0,0-.04.04-.04.04Z"/><path class="cls-1" d="m535.06,158.06c.1.04.29.08.29.11,0,.19-.17.24-.33.23-.1,0-.29-.08-.29-.11.01-.19.18-.21.33-.23Z"/><path class="cls-1" d="m484.68,185.46c.08.12.05.23-.1.25-.09.02-.2-.04-.3-.07.03-.1.07-.2.1-.3.1.04.19.07.29.11Z"/><path class="cls-1" d="m493.82,173.4c-.09.04-.19.1-.28.1-.15,0-.21-.12-.12-.23.06-.08.18-.1.27-.15.05.1.09.19.14.29Z"/><path class="cls-1" d="m545.6,159.9c.14.04.35,0,.31.23,0,.05-.19.11-.28.1-.12,0-.34.05-.32-.18,0-.06.19-.1.29-.15Z"/><path class="cls-1" d="m550.2,160.32c-.05-.09-.09-.19-.14-.28.09-.04.18-.12.26-.12.14,0,.2.12.13.23-.05.08-.17.11-.25.17Z"/><path class="cls-1" d="m566.67,162.99c.18.02.35.05.31.29,0,.04-.11.11-.11.11-.16-.11-.19-.27-.15-.45l-.05.06Z"/><path class="cls-1" d="m533.62,158.01s-.08.07-.13.07c-.16,0-.2-.05-.11-.12.04-.03.1-.04.15-.03.03,0,.06.06.09.09Z"/><path class="cls-1" d="m493.36,175.22s-.08.08-.13.09c-.15.01-.19-.06-.11-.16.02-.03.1-.03.15-.02.04,0,.06.06.09.09Z"/><path class="cls-1" d="m538.7,158.84s.09.07.09.1c0,.03-.06.07-.09.1-.03-.03-.09-.07-.09-.1,0-.03.06-.07.09-.1Z"/><polygon class="cls-1" points="557.52 161.92 557.47 161.83 557.57 161.83 557.52 161.92"/><polygon class="cls-1" points="559.27 162.4 559.38 162.36 559.37 162.46 559.27 162.4"/><path class="cls-1" d="m360.9,186.58s0,0,0,0c.03.02.04.03.07.05l-.06-.06Z"/><path class="cls-1" d="m360.98,184.57s-.06.04-.09.06c0,.01,0,.03,0,.04l.09-.1Z"/><path class="cls-1" d="m362.97,180.59s-.06.02-.09.02c0,.03,0,.05,0,.08l.1-.1Z"/><path class="cls-1" d="m395.57,107.54s-.03-.06-.05-.1c-.09.15-.18.3-.27.45.11.03.22-.08.32-.35Z"/><path class="cls-1" d="m394.01,110.41c.13.11.25.22.38.33.05-.1.09-.2.14-.3-.08-.11-.16-.22-.24-.33-.09.1-.18.2-.27.3Z"/><path class="cls-1" d="m361.97,182.59s-.05.02-.07.02c0,.02,0,.04,0,.06l.08-.08Z"/><path class="cls-1" d="m305.19,108.93s.03-.02.05-.03c-.02-.01-.05-.02-.07-.04l.02.06Z"/><path class="cls-1" d="m499.62,67.58c-.32-1.56-1.14-2.88-1.84-4.26-.49-.96-1.5-1.83-.66-3.11.17-.25-.1-.51-.34-.65-.74-.43-1.23-1.33-2.24-1.23-.51.05-.7-.3-.95-.62-1.03-1.36-2.45-2.04-4.08-2.44-2.36-.59-4.83-.59-7.13-1.44-.26-.1-.62-.12-.64.22-.06,1.02-.88,1.08-1.55,1.32-3.62,1.31-7.26,2.59-10.87,3.92-3.62,1.33-7.27,2.56-11.05,3.34-.33.07-.76.06-.97.26-1.22,1.17-2.84,1.1-4.31,1.48-1.38.36-2.74.78-3.92,1.6-.52.36-1.01.61-1.68.5-1.71-.27-3.21.27-4.53,1.32-.57.45-1.09.75-1.8.31-.35-.22-.72-.21-1.13.03-.88.51-1.92.79-2.67,1.43-.98.82-1.84,1.28-3,.44-.29-.21-.66-.17-.91.14-.54.67-1.17.84-1.96.44-.54-.27-1.06-.02-1.54.23-2.25,1.15-4.68,1.74-7.13,2.26-2.12.46-4.24.91-6.19,1.88-.69.35-1.28.23-1.92-.07-.3-.14-.77-.21-.69.33.11.77-.38.92-.9,1.1-1.36.48-2.78.51-4.2.56-.47.02-.95.02-1.41.1-.2.03-.65.08-.43.48.77,1.41-.23.86-.81.74-.57-.11-1.09-.54-1.71,0-.39.34-.9.02-1.36-.05-.67-.1-1.52-.52-1.59.74,0,.1-.35.27-.52.25-1.01-.09-1.79.11-2.15,1.21-.12.36-.5.33-.83.06-.25-.21-.56-.4-.87-.48-.31-.08-.75-.14-.97.02-.34.25.03.57.17.84.25.52-.15.58-.46.57-.48-.01-.84-.24-1.17-.65-.46-.56-.84-.79-1.54.07-1,1.22-2.48,1.89-4.12,2.14-1.67.25-3.33.57-4.85,1.39-.34.18-.78.19-1.18.25-6.96,1.01-13.76,2.85-20.67,4.1-.48.09-1.1.17-.6.7-1.03.25-2.06.5-3.09.74-.25.06-.51.12-.76.18-.77-.02-1.55-.28-2.32-.05-1.09.33-2.22.58-3.35.76-.59.09-.82.54-1.12.92-.42.1-.84.2-1.27.3-.49-.69-.67-.64-.93.16,0,.02-.01.05-.02.07-.82.2-1.64.4-2.46.59-7.55,1.71-15.07,3.43-22.35,6.16-.18.03-.36.07-.54.1-2.69.46-5.28,1.14-7.57,2.7-.41.28-.82.43-1.33.32-.61-.13-1.21-.05-1.79.16-.78.29-1.67.01-2.37.29-.7.28-1.17,1.11-2.09,1.04-.17-.01-.26.08-.21.26.03.12.11.33.18.33.57,0,1.27.46,1.69-.17.51-.75,1.17-.48,1.82-.49.92-.01,1.87.33,2.72-.39.48-.41,1.02.15,1.56.06.56-.08,1.09-.41,1.66-.36-.29.32-.57.63-.85.99.01.02.02.03.03.05-.3.1-.62.18-.91.28-.89.31-1.84.47-2.79.32-1.16-.18-2.25-.11-3.26.57-.28.19-.91-.07-.88.46.01.31.54.31.87.35.61.08,1.21.15,1.77.67-2.33.41-4.53,1.01-6.53,2.19,1.08.62,2.16.06,3.23-.05.97-.1,1.93-.61,2.61.62.32.57,1.12.66,1.64.46,1.23-.48,2.04.27,2.95.77.4.22.72.61,1.13.81,1.09.55,2.48-.12,3.51,1.04.85.96,2.26.44,3.4.71.55-.5,1.18-.53,1.86-.36-.14.09-.3.17-.39.31-.17.26.09.34.26.37,1.21.22,2.41.09,3.61-.1,2.2-.34,4.39-.65,6.55.26.53.22,1.05,0,1.57-.15,3.18-.92,6.41-1.56,9.74-1.23.51.05.91-.1,1.33-.34.7-.39,1.37-.83,2.21-.83.8-.56,1.57-.6,2.24.21.46.55.9.42,1.41.08.88-.58,1.88-.87,2.9-.7,1.05.18.85-.09.5-.79-.23-.46.16-.7.67-.66.89.06,1.72.35,2.53.68.5.21.87.35.82-.47-.03-.39.4-.25.64-.25,2.63.04,5.21-.16,7.74-1.03.46-.16.95-.23,1.44-.28-.06.1-.11.2-.18.3-.89,1.35-1.65,2.79-2.43,4.21-.95,1.71-1.9,3.42-2.79,5.16-.89,1.73-1.71,3.5-2.55,5.26-.84,1.75-1.95,3.44-2.42,5.29-.45,1.79-1.6,3.2-2.09,4.93-.53,1.84-1.28,3.62-1.93,5.43-.66,1.82-1.34,3.63-1.95,5.46-.56,1.68-1.13,3.5-1.4,5.08-.32,1.83-1.15,3.35-1.59,5.05-2.6,10.12-6.7,19.8-8.55,30.33.61.75.55,2.36,2.02,2.89.82-.77.94-2.03,1.59-2.93-.26,1.77-.29,4.09.46,5.05,1.04.15,2,.31,2.94-.1,1.02-1.1.89-2.97,2.47-3.69.17,1.21-.4,2.49.17,3.36,2.64.41,2.63-2.63,4.44-3.29,1.06,1.47-1.46,2.39-.07,3.76.83-1.35,2.73-1.41,3.43-2.94-1.23-.87-1.24-1.19,0-1.97.14-.77-.18-1.79,1-2.02.1-.79-.22-1.79.99-2,.07-1.28.38-2.44.95-3.65,2.62-5.57,21.05-51.69,31.41-69.07-.09-.03-.17-.14-.23-.38-.02-.08.19-.22.29-.34.07.09.16.18.21.26,1.14-1.89,2.18-3.4,3.08-4.45,2.11-.44,4.21-.94,6.32-1.41,1.45-.32,2.91-.61,4.36-.95.69-.16,1.51-.07,1.75-1.06,0,0,0,0,0-.02.25-.06.5-.12.76-.18.03,0,.07.02.1.02,1.6.33,3.09.14,4.37-.98.14-.13.4-.3.52-.25,1.74.73,3.22-.83,4.91-.53.3.05.7-.06.97-.23,1.6-.98,3.44-1.16,5.21-1.56,3.82-.88,7.62-1.79,11.23-3.4,1.13-.5,2.5-.42,3.53-1.27.05-.04.14-.07.19-.05,1.57.48,2.81-.54,4.2-.89,1.37-.34,2.87-.35,4.15-.89,2.82-1.2,5.88-1.38,8.74-2.39,1.59-.56,3.19-1.09,4.88-1.34,1.24-.18,2.26-1.03,3.49-1.39,4.07-1.18,7.95-2.99,12.16-3.7.46-.08.96-.17,1.36-.4,2.73-1.55,5.76-2.31,8.7-3.3,2.84-.95,5.52-2.22,7.66-4.41,1.32-1.35,1.85-2.95,1.46-4.84Zm-186.47,41.3c-.7-.11-1.52.21-2.16-.63.77-.06,1.4-.48,2.14-.23.2.07.32.24.31.46,0,.2-.03.44-.29.4Zm39.9,76.63c.17-.69,1.08-.57,0,0h0Zm1.63-5.19c-.18.25-.39.18-.53-.2-.02-.05.17-.22.3-.27.06-.02.18.1.27.16,0,.11.02.24-.03.31Zm3.84,4.1c-.94-.88-.64-1.39.39-1.72.02.58.18,1.19-.39,1.72Zm.48-1.84c.05-.35.04-.74.6-.69.13.57-.19.68-.6.69Zm1.64-3.27c-.17.26-.38.19-.53-.19-.02-.05.17-.22.29-.28.05-.02.17.09.26.14,0,.11.03.24-.02.32Zm61.18-105.35c.19-.27.48-.39.82-.26.2.19.36.48.24.69-.17.32-.52.31-.84.17-.29-.12-.39-.36-.22-.6Zm-27.36,7.32c.03.09.05.18.08.27-.11,0-.24.02-.34-.03-.06-.03-.06-.16-.09-.25.12,0,.24,0,.36,0Zm-68.27,30.28c-.15.13-.24.1-.25-.1,0-.02.12-.08.17-.06.04.02.06.1.09.16Zm-8.84-.89c-.48.07-.91-.11-1.27-.4-.13-.1-.22-.32-.23-.49-.01-.34.26-.2.42-.17.25.06.5.17.91.31.02,0,.21.06.38.15.11.06.17.19.26.28-.15.11-.3.28-.47.31Zm1.46-3.18c.04-.28.26-.24.43-.16.1.04.23.21.21.26-.09.21-.3.2-.5.18-.05-.09-.16-.2-.15-.28Zm.6,2.96c-.17-.02-.4-.2-.26-.34.16-.16.46-.17.68-.24.11.13.27.27.25.29-.16.22-.41.32-.67.29Zm6.35,2.43c.82-.72,1.79-.51,2.73-.42-.78.98-1.77.63-2.73.42Zm4-.44c-.09.21-.29.26-.48.22-.23-.06-.45-.16-.67-.25.06-.25.13-.41.22-.53.01,0,.03.02.04.02.16-.03.3-.08.45-.12.08.04.16.08.26.16.14.12.26.28.17.49Zm2.96-.44c-.16-.08-.28-.23-.42-.35.12-.02.26-.09.36-.05.16.07.29.21.46.34-.18.03-.32.1-.4.05Zm1.98.83c-.18-.02-.36-.05-.53-.12-.04-.02-.03-.18-.04-.28.27-.11.5-.06.67.16.12.14.06.26-.11.24Zm3.23-.55c-.12.31-.39.3-.62.19-.15-.08-.38-.34-.36-.38.18-.29.48-.37.81-.27.21.1.23.28.16.46Zm9.46-2.32c.15.04.3.08.45.12-.18.15-.35.3-.45-.12Zm.56.08c.07-.25.23-.31.47-.19-.08.25-.27.24-.47.19Zm1.03-.07c-.17,0-.33-.08-.5-.14.1-.19.27-.22.45-.11.15.09.15.26.05.25Zm10.17-1.68l-.28-.14c.05-.01.11-.04.16-.03.05,0,.1.04.14.08.01.01-.01.06-.02.1Zm26.96-2.64c.15-.03.3-.08.46-.14,0,.07,0,.15-.04.2-.14.2-.3.17-.42-.06Z"/><path class="cls-1" d="m323.75,113.28s-.03,0-.04,0c-.01.01-.03.02-.04.03l.08-.02Z"/><path class="cls-1" d="m350.48,111.2s-.01,0-.02,0c-.02.01-.04.02-.06.03l.07-.03Z"/><path class="cls-2" d="m1147.07,244.83l23.74-23.74v-90.93h-23.74v84c0,3.82-3.1,6.92-6.92,6.92h-81.54v23.74h88.46Z"/><path class="cls-2" d="m24.53.79L.79,24.53v90.93s23.74,0,23.74,0V31.45c0-3.82,3.1-6.92,6.92-6.92h81.54s0-23.74,0-23.74H24.53Z"/><path class="cls-1" d="m1056.52,159.42c-.06-.75-.31-1.33-.75-1.69-.44-.37-1.05-.5-1.8-.39-.51.07-.95.23-1.3.46-.35.23-.62.5-.8.82-.18.32-.28.66-.28,1.03-.01.31.05.57.17.79.12.22.29.4.51.56.22.15.47.28.75.39.28.11.59.2.91.28.45.11.89.23,1.34.35.65.17,1.25.4,1.8.71.55.31,1.02.7,1.43,1.17.4.47.72,1.03.94,1.68.22.65.34,1.39.34,2.22,0,1.22-.24,2.28-.7,3.14-.47.86-1.13,1.49-2,1.85-.87.36-1.91.42-3.12.15-1.2-.26-2.24-.77-3.12-1.43-.88-.66-1.55-1.45-2.04-2.32-.48-.88-.73-1.82-.76-2.9.98.13,1.98.25,2.98.36.03.57.18,1.06.43,1.48.25.42.59.76,1.02,1.03.43.27.91.45,1.45.52.53.08,1,.04,1.4-.11.4-.15.71-.4.93-.73.22-.34.33-.74.33-1.21,0-.43-.1-.8-.3-1.11-.2-.3-.49-.56-.86-.78-.38-.22-.84-.42-1.38-.6-.54-.19-1.08-.37-1.62-.55-1.25-.4-2.22-.96-2.93-1.63-.71-.68-1.06-1.53-1.06-2.65,0-.92.23-1.76.7-2.59.48-.83,1.13-1.59,1.97-2.25.84-.66,1.8-1.15,2.89-1.38,1.11-.24,2.08-.17,2.91.21.83.38,1.49,1.02,1.95,1.88.47.87.71,1.9.72,3.09-1.02.03-2.04.09-3.05.15Z"/><path class="cls-1" d="m1061.92,153.4c1.32-.03,2.64,0,3.95.07,1.39,4.58,2.77,9.12,4.15,13.33.06,0,.12,0,.18,0,1.38-4.35,2.74-8.42,4.1-11.94,1.28.34,2.55.74,3.8,1.2,0,4.97,0,9.94,0,14.91-.99.36-1.98.69-2.98.98v-10.98s-.08,0-.12-.01c-1.27,3.54-2.55,7.56-3.84,11.83-.7.13-1.39.24-2.09.34-1.3-4.02-2.6-8.33-3.91-12.71-.04,0-.08,0-.13,0,0,4.39,0,8.78,0,13.17-1.04.05-2.07.06-3.11.03,0-6.74,0-13.48,0-20.22Z"/><path class="cls-1" d="m1063.07,155.4c15.07,0,24.33,4.73,24.33,8.12s-9.25,8.12-24.33,8.12-24.33-4.73-24.33-8.12,9.25-8.12,24.33-8.12m0-2.18c-14.64,0-26.5,4.61-26.5,10.3s11.87,10.3,26.5,10.3,26.5-4.61,26.5-10.3-11.87-10.3-26.5-10.3h0Z"/><path class="cls-1" d="m243.79,140.57c-3.14-.65-6.31-.87-9.5-.85.64-5.04,1.15-10.09,1.77-15.13.7-5.66.17-11.42.93-17.16.81-6.12.07-12.33-2.15-18.04-2.73-3.54-6.29-5.82-9.4-8.16-1.35.19-2.94,1.44-3.14,1.81,0,.04,0,.07.02.11-.06,0-.06-.04-.02-.11-.19-.91.27-1.94-.76-3.18-.32-.42-1.15-.87-2.68-.56-2.56,1.98-4.94,4.48-6.63,7.85-3.51,6.97-6.88,14-10.73,20.81-7.28,12.87-14.08,26.02-21.13,39.03-2.33,4.29-5.01,8.38-7.23,12.73-4.1,8.04-8.86,15.8-11.29,24.51,2.75,5.58,6.97,2.12,10.53,2.21,2.16-2.46,6.25-8.56,10.38-14.99,1.54-1.54,3.2-2.21,4.87-2.87,1.09-.43,2.2-.71,3.28-1.39,2.2-1.4,4.44-2.42,6.71-3.12.56-.17,1.16-.17,1.67-.77.49-.57,1.02-.77,1.55-.88,1.08-.22,2.14-.65,3.2-1.11,1.66-.71,3.3-1.6,4.96-2.26-.27,11.33-.69,24.21-1.18,28.31.59.39.1,1.85,1.31,2.17.78.19,1.19-.42,1.71-.78.84.67-.05,1.96,1.06,2.67h4.75c1.09-.59,1.37-1.53,2.29-1.59.63.52,1.24,1.04,1.84,1.54,2.44-1.93,3.74-4.3,4.77-7.23,1.84-5.21,2.48-10.63,3.63-15.95.92-4.26,1.38-8.67,2.38-12.86.46-1.92.85-3.84,1.21-5.77.06-.03.13-.06.19-.07.39-.08.2-.42.2-.75,0-.4.22-.33.37-.32.33.03.28.74.42.88.26.24.25-.74.54-.74.09,0,.22.05.25.16.22.96.71.67,1.14.77.31.08.49,0,.58-.55.05-.26.04-.57.25-.74.06.18.14.35.18.54.1.48.22.95.57.91.38-.05.42-.63.52-1.12.05-.21.13-.4.25-.76.12.62.34.87.64.61.94-.8,1.87-.43,2.81-.37.63.05,1.25.12,1.89-.13.26-.1.49-.25.65-.69.22-.58.45-.75.86-1.1.49-.42.97-.62,1.48-.58.25.02.41-.15.55-.56.33-.93.7-1.84,1.11-2.91-1.54-.74-2.98-1.17-4.43-1.47Zm-42.94,5.47c-1.04.43-2.08.9-3.12,1.37,1.32-2.12,2.63-4.25,3.99-6.35.48-.74,3.39-6.01,4.88-7.84.82-1.01.78-2.59,2.64-3.29.26,3.4.07,6.74.1,10.07,0,.47,0,1.57-.02,3.12-2.83.78-5.65,1.74-8.46,2.91Zm45.9-2.93s-.03-.07-.05-.11c.05-.03.11-.07.16-.08.02,0,.03.07.05.11-.05.03-.11.07-.16.08Z"/><path class="cls-1" d="m200.11,195c-.72.24-.92,1.04-1.33,1.62-.42.59-.79,1.25-1.37,1.67-.22.17-.54.28-.59-.24-.03-.26.41-.6-.04-.75-.28-.1-.49.23-.67.49-.25.37-.31.81-.35,1.26-.04.47-.35.82-.65.52-.4-.41-1.16.09-1.28-.63-.11-.64.53-.89.87-1.29,5.02-5.95,11.36-9.79,17.38-14.12,6.05-4.36,12.36-8.22,18.73-11.93,18.69-10.89,38.14-19.73,57.79-28.01,2.83-1.19,5.63-2.51,8.52-3.47,4.56-1.52,9.07-3.17,13.42-5.36.26-.13.52-.22.78-.35.48-.24.25-.39-.06-.5-.98-.36-1.84-1.29-3-.88-.29.1-.53,0-.78-.2-.77-.61-1.67-.66-2.56-.72-.56-.04-1.15.03-1.67-.16-3.05-1.1-6.21-1.28-9.36-1.59-.11-.01-.25.04-.33-.02-2.2-1.66-4.75-.94-7.13-1.4-.44-.08-.88-.03-1.31-.27-2.19-1.24-4.6-1.54-6.96-1.98-1.66-.31-3.29-.69-4.84-1.46-.5-.25-1.01-.59-1.59-.2-.25.17-.54.09-.8-.06-1.82-1.08-3.83-1.32-5.79-1.85-1.63-.44-3.05-1.52-4.56-2.24-4.24-2.04-5.78-6.44-7.71-10.51-1.41-2.97-2.51-6.12-3.77-9.18-.23-.55-.38-1.05-.18-1.64.08-.24.17-.51.14-.74-.32-2.47,1.05-3.8,2.49-5.21,5.46-5.36,11.83-8.91,18.34-12.15,4.09-2.04,8.2-4.06,12.35-5.93,4.01-1.81,8.22-2.85,12.4-4,4.23-1.17,8.49-2.23,12.71-3.46,2.06-.6,4.24-.28,6.32-.82,2.36-.61,4.78-.61,7.16-.56,3.66.08,7.19,1.04,10.3,3.37,1.28.96,2.02,2.53,2.63,4.13.73,1.88,1.13,3.87,1.64,5.83.46,1.78,1.06,3.49,1.93,5.08.77,1.41.42,3.08.59,4.62.08.72-.57,1.13-1.2.69-1.61-1.12-3.48-1.47-5.18-2.36-3.71-1.94-7.75-2.05-11.7-1.46-13.21,2-26.21,5.03-38.59,10.91-4.23,2.01-8.38,4.21-12.41,6.71-.33.21-.93.35-.88.76.07.47.68.49,1.08.65,1.97.78,4.02,1.09,6.06,1.43,7.52,1.27,14.98,2.87,22.45,4.45,4.89,1.04,9.78,1.99,14.68,2.93,3.19.61,6.27,1.84,9.48,2.42,1.69.3,3.43.32,4.97,1.42.72.51,1.66.15,2.46.47,1.66.66,3.1,1.7,4.34,3.16,1.66,1.96,3.19,4.18,3.76,6.72.57,2.54,1.75,4.66,2.54,7.02.18.53.32,1.09.44,1.64.71,3.21.54,3.64-1.91,5.43-5.46,3.99-11.5,6.5-17.57,8.89-4.75,1.87-9.47,3.84-14.18,5.82-3.71,1.56-7.58,2.62-11.3,4.19-3.09,1.3-6.23,2.44-9.35,3.62-1.43.54-2.96,1.09-4.17,2.29-.16.16-.39.23-.59.31-5.03,2.03-9.87,4.64-14.89,6.71-.84.34-1.65.8-2.41,1.33-.8.56-1.48.97-2.45.35-.65-.42-.79-.18-.89.79-.06.58-.54.6-.67.25-.34-.9-.85-.65-1.35-.41-1.14.55-2.46.69-2.92,2.52-.16.63-1.36.97-2.13,1.33-.43.2-.84-.23-1.23-.47-.29-.17-.53-.45-.89-.45.03.65-.76.79-.69,1.54.06.59-.04.61-.62.26-.18-.11-.41-.12-.45.02-.32,1.08-1.1.79-1.8.91-.76.13-1.47.88-2.23.75-1.22-.21-1.06,1.12-1.63,1.6.51.96-.3,1.1-.72,1.3-1.63.77-3.11,1.85-4.67,2.76-.2.12-.39.32-.57.08-.04-.05.2-.4.34-.58.14-.19.42-.43.31-.6-.22-.32-.5-.05-.72.14-.79.68-1.44,1.64-2.56,1.7-.11,0-.3.09-.3.1.35,2.12-1.24.86-1.83,1.34-.4.33-1.02.17-.94,1.19.06.78-.8,1.02-1.21.55-.75-.86-1.36-.27-1.68.22-.7,1.08-1.95.45-2.65,1.32-.03.03-.18-.07-.27-.11.06-.17.1-.35.18-.5.23-.42,1.05-.76.86-.96-.47-.5-1.01.16-1.48.43-.4.23-.8.55-.44,1.2.05.09.02.23.03.35-1.48-.66-.76,1.85-1.91,1.73-.29-.03-.65.4-.9-.03-.66-1.15-1.48-.49-1.74.12-.97,2.19-2.76,1.77-4.33,1.98-.82.11-1.54.11-1.91,1.12-.08.21-.31.37-.49.52-.58.48-1.59.34-1.7,1.52-.79-.01-1.33.56-1.91,1.04-.5.41-.83.36-.76-.48.56.01,1.04-.15,1.35-.73l.02.05c-.61-.24-1.06.09-1.47.56-.19.03-.38.05-.57.08-.29,0-.3-.26-.36-.48l-.07-.04h.08c.22.08.32.28.39.5-.11.45.31.83.12,1.29-.17.41-.35.93-.8.84-.53-.11-.13-.62-.13-.93,0-.54-.25-.98-.38-1.46-.13-.47-.22-1.04-.85-.95-.52.08-.95.22-1.16.88-.53,1.64-2.28,1.66-3.11,2.96-.09.14-.37.03-.47-.3-.38-1.37-.93-1.57-1.91-.75-.36.3-.74.57-1.12.83-.23.16-.53.39-.77.14-.28-.31.24-.66.07-1.02.24.08.44-.03.59-.22.12-.15.45-.28.17-.57-.04-.04-.29.11-.4.23-.16.16-.36.3-.33.6-.21-.04-.44-.03-.64-.12-.28-.12-.43-1.83-.85-.06-.03.11-.49.09-.75.12-.22.02-.27-.26-.14-.74.21.07.41.06.54-.17,0-.01-.07-.12-.11-.12-.22-.03-.43-.03-.41.34-.07-.26-.42-.44-.13-.81,1.26-1.6,2.39-3.42,4.32-4.01.98-.3,1.06-1.37,1.65-1.97.26-.27.25-.77.74-.91,2.38-.67,3.73-3.09,5.71-4.46.09-.06.06-.35.09-.54.11,0,.22-.01.33,0,.32.04.73.26.86-.23.1-.38-.15-.74-.48-.91-.28-.14-.6-.53-.89-.19-.3.34.04.69.17,1.02.04.11.05.24.08.37-1.23.36-2.5.63-3.57,1.51-.08.07-.3.06-.31.1-.13,2.32-1.9,1.78-3.06,2.29-.26.11-.53.2-.79.29l.04.05c-.08-.23-.16-.46-.24-.7-.42.21-.8.45-.9,1.02l.03.04Zm69.76-23.73c.08-.02.26.29.25-.09-.09.05-.19.1-.28.14.19-.27.14-.59.14-.9.09-.08.18-.14.25-.23.11-.13.2-.27.3-.41-.09-.03-.18-.11-.26-.1-.19.04-.22.24-.24.42-.01.12,0,.25,0,.37-.21-.13-.52-.17-.59.06-.1.34.26.5.43.74Zm-66.53,32.04c.52-.05,1.26-.32,1.11-.84-.36-1.24.49-1.32,1-1.71.37-.29.72-.59,1.01-.97.14-.18.31-.4.1-.65-.28-.33-.51-.15-.67.15-.3.57-.73,1.12-1.27,1.13-1.21.01-1.31,1.59-2.28,1.91-.3.1-.07.43.08.58.25.26.54.44.9.41Zm9.86-3.78c.44-.02.93.03,1.09-.61.04-.16.02-.44-.08-.52-.43-.35-.84.03-1.25.13-.26.06-.59.3-.56.62.05.52.5.3.79.37Zm9.96-9.13c-.05-.11-.12-.28-.21-.43-.13-.21-.3-.11-.39.03-.38.57-1.42.97-1.11,1.6.3.61.65-.74,1.24-.65.26.04.57-.02.47-.55Zm56.52-24.56c.74-.03,1.31-.25,1.84-.61.18-.12.48-.27.39-.53-.15-.42-.47-.14-.69-.05-.53.19-1.04.44-1.54.69-.13.07-.22.24-.33.36.15.06.29.13.34.15Zm-67.13,22.39c-.19-.14-.38-.33-.59-.41-.34-.11-.8-.39-.97.17-.11.36-.08.95.38,1.05.46.11.81-.25,1.18-.81Zm4.63,7.49c-.04-.47-.27-.57-.48-.51-.65.21-.94.82-1.14,1.49-.05.17.15.45.2.33.3-.73,1.15-.71,1.42-1.31Zm-18.35,6.92c.46-.08.7-.48.75-.89.05-.44-.38-.56-.68-.57-.48-.02-.41.46-.43.81-.02.31,0,.63.36.65Zm74.99-34.16c.1-.27-.09-.37-.24-.36-.52.04-.94.34-1.28.79-.1.13-.05.19.09.28.36.21,1.3-.24,1.42-.71Zm-12.72,6.08s-.04-.13-.07-.13c-.47-.08-.84.23-1.23.41-.19.09-.48.13-.48.44,0,.22.19.22.36.15.41-.19.83-.36,1.24-.56.08-.04.13-.2.19-.3Zm-30.06,12.56c.01-.28-.14-.34-.3-.36-.42-.04-.87-.12-1.09.43-.06.14.06.37.26.4.46.07.83-.14,1.13-.48Zm14.81-4.57c.26-.16.66-.2.83-.66.09-.24-.08-.35-.23-.37-.42-.06-.73.17-.91.6-.08.19.05.33.3.43Zm-5.02,2.5c-.23-.15-.47-.26-.74-.14-.14.06-.32.12-.28.36.08.49.37.28.6.21.19-.06.4-.13.43-.44Zm-25.35,1.3c.21-.08.44-.15.48-.44,0-.03-.27-.16-.41-.17-.17-.02-.33.09-.36.3-.03.22.09.33.29.31Zm66.67-20.05c-.09-.13-.17-.31-.3-.39-.14-.1-.35-.07-.41.13-.05.19.09.35.25.42.16.07.32.05.45-.15Zm-49.94,23.39c-.23.05-.41.19-.4.46,0,.06.27.13.42.14.16,0,.32-.09.3-.31-.02-.2-.15-.29-.33-.29Zm20.44-10.68c-.01-.11,0-.3-.05-.31-.25-.08-.52-.07-.74.11-.16.13-.12.3.06.36.26.09.51.05.73-.17Zm8.92-5.22c-.07.24.07.34.23.38.24.06.41-.1.55-.29.11-.16.09-.35-.1-.38-.26-.04-.54-.07-.67.29Zm-32.38,17.92c-.06-.14-.17-.19-.27-.09-.15.14-.28.31-.42.47.1.04.2.12.29.1.21-.06.34-.24.41-.48Zm-25.38,5.16c-.18.02-.28.15-.31.33-.06.36.18.4.38.36.14-.03.28-.17.23-.39-.04-.17-.09-.34-.29-.3Zm80-31.25c-.04-.15-.07-.26-.1-.37-.14.05-.3.07-.41.16-.17.14-.1.3.08.32.14.01.28-.07.43-.12Zm-79.58,33.88c.15-.13.39-.24.46-.43.09-.23-.14-.24-.28-.21-.22.05-.39.2-.47.46,0,.02.15.1.28.18Zm7.55.24c-.08-.06-.16-.17-.25-.17-.18,0-.34.07-.27.33.02.09.14.22.19.21.16-.04.32-.12.33-.36Zm6.63-4.77c.33.11.42-.06.44-.25.01-.11-.07-.22-.11-.34-.14.08-.32.12-.4.24-.12.19.02.33.07.35Zm27.9-27.86c-.06-.1-.11-.21-.18-.3-.11-.13-.22-.11-.25.07-.01.1.05.26.13.3.07.04.2-.04.3-.06Zm-45.58,35.36c.09-.05.21-.08.25-.16.03-.07-.03-.2-.06-.3-.08.06-.18.1-.25.18-.1.11-.07.21.06.28Zm64.25-29.72c.03-.22-.05-.37-.24-.36-.09,0-.2.1-.25.2-.11.18-.06.35.12.41.18.06.3-.06.37-.25Zm-50.51,24.42c.07.11.16.25.25.38.09-.14.23-.28.24-.43.01-.15-.08-.43-.16-.45-.28-.06-.26.25-.33.5Zm41.45-23.77c.06-.14.15-.29.18-.45.04-.22-.09-.3-.26-.26-.15.04-.3.14-.24.36.02.08.12.14.32.35Zm-46.08,27.7l.25-.12c-.05-.07-.09-.19-.14-.2-.08,0-.17.07-.25.11.05.07.09.14.14.21Zm.95-1.72c-.04-.08-.06-.22-.12-.23-.08-.02-.19.02-.28.07-.14.08-.14.18,0,.27.15.09.29.08.4-.1Zm-8.03-.86c-.03-.1-.07-.2-.1-.3-.04.02-.1.04-.11.07,0,.1-.02.21.01.29.05.1.14.07.2-.06Zm14.78-.67s.07.12.1.11c.08-.02.16-.07.24-.11-.03-.04-.07-.12-.09-.12-.09.03-.17.08-.25.12Zm5.57-5.81c-.02.11-.06.21-.05.3.03.17.12.18.19.02.02-.04.03-.12.01-.15-.04-.06-.1-.11-.16-.17Zm5.4-3.37s-.07-.12-.1-.11c-.09.02-.17.07-.25.11.03.04.08.11.1.11.09-.02.17-.07.25-.1Zm7.69-1.18s.08.13.11.12c.1-.02.19-.07.28-.1-.04-.04-.08-.13-.11-.12-.1.02-.19.07-.28.1Zm2.07-1.2c-.05.09-.14.18-.15.28,0,.08.09.17.14.26.05-.09.15-.17.15-.26,0-.09-.09-.19-.14-.28Zm-4.38-.32s-.07-.13-.1-.12c-.09.02-.18.07-.27.1.03.04.07.13.1.12.09-.02.18-.07.27-.1Zm-7.72-7.65c.1.04.2.09.29.11.03,0,.07-.08.11-.13-.07-.06-.14-.17-.21-.16-.06,0-.13.12-.19.18Zm4.04-1.74c-.09.06-.18.12-.26.17.04.05.06.11.11.13.13.05.23,0,.25-.16,0-.04-.06-.1-.1-.15Zm39.04-4.44s-.07-.09-.1-.13c-.04.04-.08.08-.12.11.05.05.1.09.15.14.02-.04.04-.08.06-.12Zm-18.58,7.56l-.07.12h.12s-.05-.12-.05-.12Zm-30.52,3.84s-.07-.07-.09-.06c-.04.02-.1.08-.1.1.05.14.12.16.18.07.02-.02,0-.07,0-.11Zm11.13,7.01s-.06-.11-.1-.11c-.03,0-.07.06-.11.1.03.04.06.11.1.11.03,0,.07-.06.11-.1Z"/><path class="cls-3" d="m870.99,148.89c5.07,1.74,10.36,2.68,15.59,3.75,6.98,1.43,14.03-.04,20.96-.68,6.97-.64,13.89-2.93,20.72-5.05,2.36-.73,4.19-.84,6.17.62.25.18.75-.1,1.14-.17,1.86-.2,1.1-3.1,2.67-3.6,1.55-.57,2.55,1.05,3.99,1.3,5.51-3.14,11.25-5.53,17.89-4.67.82.95,1.81,2.09,2.2,2.54-.18,3.97-.31,6.85-.47,10.29-1.33,1.36-2.83,3.5-4.74,4.75-7.16,4.7-14.88,7.98-22.59,11.04-5.77,2.29-11.91,3.15-17.74,5.23-5.96,2.13-12.1,2.76-18.14,3.07-8.4.42-16.93.38-25.1-2.41-4.69-1.6-9.36-3.43-13.65-6.21-3.13-2.03-6.12-4.41-8.15-7.99-5.34-9.42-5.76-19.53-2.52-30.12,3.47-11.35,8.92-21.01,17.18-28.41,8.15-7.3,17.05-13.14,26.17-18.44,9.83-5.71,19.77-11.2,29.97-15.9,6.43-2.96,12.97-5.55,19.77-7.32,4.92-1.28,9.86-.48,14.73-1.8,2.57-.7,5.07.3,6.83,2.63,2.59,2.82.26,6.89,1.94,10.02-1.12,1.32-2.25,2.66-3.39,4.01.72.47,1.37.89,2.02,1.31-.93,1.68-1.67,3.13-3.23,4.14-7.22,4.65-14.85,7.91-22.84,9.76-11.11,2.57-21.96,6.14-32.33,11.58-11.68,6.13-23.47,12.06-33.76,21.35-5.16,4.66-9.47,10.16-12.81,16.86,3.3,4.25,7.2,7.03,11.51,8.51Zm69.87-.15c.14.15.35.46.42.42.58-.3.56-.62,0-.86-.14.15-.28.3-.42.44Zm8.97-4.15c-.31.23-.25.54.18.78.05.03.27-.24.34-.4.03-.08-.08-.25-.13-.37-.13,0-.29-.07-.38,0Zm5.84-.9c.14.15.28.41.41.41.15,0,.29-.27.43-.42l-.44-.43c-.14.14-.27.29-.41.44Z"/><path class="cls-3" d="m1096.38,56.95c1.1-1.28,1.32-2.35.4-3.52-4.03-1.51-8.75-1.9-13.63-2.18-6.45-.37-13.13.47-19.58.12-2.85-.15-10.38.81-11.26.93-9.59,1.28-19.18,2.63-28.77,3.98-3.82.54-7.53,1.5-11.25,3-3.56,1.43-7.37,2.08-10.88,3.83-.02-.33-.05-.66-.11-1-1.16.68-2.05,1.5-2.8,2.4-1.66.86-3.05,1.9-3.25,3.95-.07.71-1.18.89-1.79,1.34-1.31.96-1.85,2.2-2.16,3.4.26.4,1.18.21.75,1.04-.6.34-1.28.72-1.97,1.11-.28,1.38-.64,2.77-1.5,4.02.57.28.87.43,1.16.57,0,.86-1.82.98-1.64,1.41.38,1.19,1.42,1.33,2.29,1.56-.15.42-.31.84-.47,1.26-.51.04-1.02.05-1.52.2-.29.83.21,1.14,1,1.16-3.21,8.31-7.07,16.38-10.22,24.72-2.37,6.26-5.41,12.29-6.96,18.83-.38,1.58-1.27,3.05-1.73,4.62-1.12,3.83-3.11,7.45-3.37,11.4.59.91,1.1,1.63,2.24,1.25.02-.02.03-.05.04-.08.47.14.98.25,1.44.42,0,.2.03.41.12.62.29.14.54.22.76.24-1.05,1.11-2.6-.55-4.02.79,1.91,1.25,4.79,1.08,7.09.94,5.88-.35,11.84-1.21,17.77-1.95,8.48-1.06,16.94-2.95,25.4-4.08,11.87-1.59,23.75-3.58,35.62-4.67,2.63-.24,5.35-.96,8.08-1.21,4.23-.39,7.84-2.49,11.39-4.3,1.14-.58,2.04-1.44,3.53-1.89.85-.26,2.48-1,1.92-2.03-.68-1.26,1.16-1.72,1.86-2.36-.24-.89-.42-1.55-.63-2.35-2.4-1.2-5.19-2.02-8.44-2.32-11.81-1.08-23.94-.81-36.24-.06-12.41.76-24.85,1.86-37.3,3.37-2.77.34-5.56,1.05-8.35,1.87.39-.59.78-1.17,1.16-1.77,1.81-2.84,3.55-5.71,4.95-8.73,1.84-.08,3.7-.29,5.59-.71,8.68-1.93,17.47-3.02,26.08-5.19,9.92-2.49,19.91-3.8,29.87-5.63,1.13-.21,2.2.23,3.66-.54,1.16-1.52,3.41-2.14,5.63-3.17,1.3-1.42,1.71-3.31,2.8-5-1.3-2.28-3.82-2.99-6.36-3.46-2.99-.55-6.1-.89-9.21-1.04-13.39-.63-26.9.07-40.48,1.38-2.83.27-5.62.32-8.46.83.03-.3.04-.61,0-.93.65-.26.96-.83,1.17-1.4.96-2.51,1.86-5.04,2.82-7.55,3.17-.48,6.36-1.11,9.59-2,5.55-1.52,11.21-2.76,16.83-4.17,7.07-1.78,14.12-3.95,21.29-4.8,3.01-2.49,6.91-1.39,10.09-3.25.95-.56,1.85-.19,2.77-.26,4.1-.34,8.22-.65,12.31-1.41,1.75-.32,3.76-1.08,5.19-2.65,1.35-1.49,3.67-2.08,5.08-3.69.6-.69,1.83-.61,2.75-.42.62-.73,1.23-1.43,1.04-2.4-1.65-1.36-.9-3.2.83-2.38Zm-126.35,87.42c.03-.08.06-.16.09-.24,0,0,0,.01,0,.02-.02.09-.05.16-.09.22Zm33.91-51.47c.45-.16.54.11.61.39-.3.03-.58.03-.61-.39Z"/><path class="cls-3" d="m753.73,128.17c.68,2.04-.5,3.93-.45,5.51-.64,1.6-2.23,1.15-2.86,2.15.33.81,1.33-.25,1.74,1.09-.54,2.18-.13,5.05-1.56,7.64-.42.77-.35,1.52-.18,2.36.16.8-.22,1.59-.99,2.11-.15-.31-.28-.66-.77-.37.11.49.45.42.81.3-.67,5.53-2.66,10.71-4.82,15.85-1.22,2.89-2.71,5.76-3.33,8.77-.34,1.66-1.54,2.69-1.94,4.26-.5,1.93-1.19,3.84-1.35,5.81-.48.23-.86.41-1.24.59-.15-.29-.26-.64-.73-.4.08.51.43.4.77.3.48.98.25,1.85-.5,2.68-.4-.33-.79-.66-1.28-1.06-1.51.57-1.43,2.25-2.39,3.24-.35-.07-.74-.14-1.27-.24-1.33.58-1.12,3.39-3.57,2.64-.91-1.4.87-3.13-.44-4.71-1.57,1.09-.86,2.75-1.42,3.99-1.14.61-1.81-.06-2.6-.92-.43-4.22,1.02-8.41,1.52-12.66.2-1.74.89-3.46,1-5.2.47-7.2,2.6-14.13,3.98-21.18,2.28-11.7,5.83-23.16,7.63-34.96.63-4.13,1.35-8.29,2.67-12.33.91-2.77,1.87-5.45,4.45-7.63,1.06,2.91.93,7.5,1.9,3,.33-1.51,1.18-2.39,2.16-3.6,1.38,1.12,2.98.73,4.21.15,1.71.26,2.39,1.83,3.95,1.65.26.62.52,1.25.79,1.88-.35.15-.66.31-.36.75.51-.12.36-.47.29-.78,1.27-.17,1.46.87,1.37,1.56-.69,5.15-.96,10.35-2.09,15.47-.78,3.55-1.37,7.13-2.09,10.69-.13.66-.36,1.34-1.04,1.73-.14-.31-.27-.64-.75-.37.12.47.45.38.79.29Zm3.1-20.81c-.1-.06-.19-.12-.29-.17l-.14.31c.13.04.27.09.4.13,0-.09.02-.18.02-.26Zm-16.21,16.16c-.08.08-.19.27-.17.3.23.25.42.23.5-.01.02-.07-.29-.32-.33-.28Zm.07,1.92c-.1-.06-.2-.11-.3-.17-.05.1-.1.21-.15.31.14.04.28.09.42.13.01-.09.02-.18.03-.27Zm-3.17,9.77c-.01.09-.07.21-.03.25.07.08.26.18.29.16.24-.23.23-.41,0-.47-.07-.02-.17.04-.25.07Zm14.58-3.39l-.31-.16c-.06.1-.11.2-.17.31.14.04.29.08.43.12.01-.09.03-.18.04-.26Zm-3.77,4.79c-.09-.01-.21-.07-.25-.03-.08.07-.12.19-.18.29.17,0,.33-.01.5-.02-.02-.08-.04-.16-.06-.24Z"/><path class="cls-3" d="m742.09,77.43c.1-1.94,1.34-3.48,2.14-5.13.63-1.31,2.02-2.19,3.62-2.43l-.04-.04c.13.32-.2.82.52,1.02.02-.38.05-.7.07-1.02l-.04.04c.84.12,1.18-.51,1.38-1.06.93,0,1.15.79,1.91,1.03,1.22-.84,2.7-.97,4.25-.74.38.06,5,1.58,5.2,1.8.3.33.69.65.81,1.04.58,1.82,1.88,3.43,1.68,5.49-.02.18-.05.39.02.54.65,1.35.78,2.68.06,4.07-.87,1.68-1.9,3.13-3.64,4.07-1.98,1.08-4.03,1.73-6.29,1.66-.45-.01-.91-.04-1.35.05-3.12.61-5.51-1.08-7.87-2.63-1.73-1.14-2.14-3.16-2.64-5.03-.15-.56.5-2.47.2-2.73Zm21.17,2.88c-.03.05-.09.12-.07.16.02.07.08.12.13.18.03-.11.07-.21.1-.32-.05,0-.1-.01-.15-.02Z"/><path class="cls-3" d="m737.37,80.08c.04.7-.35,1.26-.63,1.86-2.42,5.12-6.11,9.2-10.48,12.73-3.81,3.08-7.95,5.68-12.02,8.38-1.04.69-2.05,1.39-2.91,2.31-.5.54-1.03,1.14-1.81,1.25-.9.13-1.45.61-1.97,1.33-.69.97-1.91,1.29-2.89,1.88-5.46,3.28-10.72,6.9-16.33,9.95-1.53.83-3.09,1.59-4.67,2.32-1.43.66-2.94,1.14-3.88,2.54-.17.26-.5.44-.79.58-3.28,1.54-6.23,3.67-9.49,5.28-8.08,3.99-16.05,8.21-24.15,12.17-8.55,4.17-17.17,8.18-26.03,11.67-2.12.83-3.58,2.12-4.66,4.13-3.22,5.97-6.63,11.83-9.67,17.89-.72,1.44-.97,3.2-2.66,4.05-.29.14-.43.7-.53,1.09-1.25,4.89-3.9,9.08-6.61,13.25-.58.89-1.05,1.88-1.45,2.87-1.42,3.54-3.66,6.68-4.99,10.26-.25.67-.81,1.02-1.52,1.14-.41.07-.82.12-1.21.25-2.31.77-2.95.66-3.71-1.53-.62-1.79-1.72-3.69-.6-5.68.82-1.46-.46-2.87.03-4.32.07-.21-.29-.6-.63-.15-.33.44-.85.5-.6-.11.46-1.11.15-2.03-.01-3.1-.35-2.34-.19-4.7.91-6.89.41-.81.78-1.64,1.16-2.47.14-.3.42-.67.34-.9-.63-1.73.49-2.99,1.1-4.39,1.02-2.33,2.38-4.55,2.03-7.3-.07-.59.32-1.27.61-1.86.88-1.78,1.82-3.53,2.73-5.3.83-1.62,1.61-3.27,2.03-5.05.2-.82.53-1.51,1.15-2.14,1.93-1.98,2.28-4.54.86-6.92-.48-.8-.96-1.48-.85-2.46.06-.6-.42-1.05-.72-1.55-.3-.49-.64-.97-.86-1.5-.8-1.92-.5-2.87,1.31-3.92,1.36-.79,2.82-1.38,4.33-1.85.55-.17,1.11-.34,1.67-.48,3.22-.85,5.39-2.62,6.87-5.81,3.88-8.33,8.87-16.07,13.35-24.09.89-1.59,1.63-3.27,2.64-4.77,1.02-1.52.92-2.89.14-4.41-1.44-2.8-2.66-5.69-3.46-8.75-.65-2.49-1.06-4.99-.5-7.58.7-3.27,2.54-5.51,5.73-6.56,7.23-2.38,14.5-4.66,21.71-7.11,10.58-3.6,21.26-6.87,32.18-9.27,5.09-1.12,10.23-1.98,15.41-2.66,8.39-1.1,16.79-1.95,25.25-1.48,4.76.27,8.75,2.36,11.88,5.96,2.7,3.11,4.35,6.82,5.84,10.6.61,1.53,1.08,3.12,1.61,4.68.21.63.47,1.24.42,1.93Zm-31.1-.82c-4.04-.09-7.71.73-11.37,1.28-4.56.69-9.11,1.59-13.63,2.64-7.51,1.74-14.79,4.1-22.03,6.73-3.44,1.25-5.24,3.09-4.98,6.78.06.86-.27,1.6-.97,2.18-2.19,1.85-3.55,4.63-6.4,5.77-.27.11-.49.44-.67.7-2.74,4.13-5.54,8.24-8.18,12.44-.79,1.25-1.87,2.45-1.87,4.1,1.49-.21,2.79-.93,4.1-1.57,8.02-3.92,16.01-7.91,23.84-12.21,14.67-8.06,28.95-16.73,42.49-26.57.84-.61,2.48-1.17,2.21-2.03-.38-1.21-1.86.05-2.55-.24Z"/><path class="cls-3" d="m473.82,114.2c-.77.12-1.41.78-2.26.59.01-1.21,1.75-1.4,1.59-3.24,0-.43-1.21.13-1.47-.59.15-.23.3-.47.59-.91-.91-.73-1.54-1.77-2.11-2.83-.56-.07-1.11-.14-1.6-.21-.51-.54.14-.72.19-1.15-.54-.9-1.24-1.75-2.37-2.07-.52-.15-1.3.11-1.54-.47-1.08-2.5-3.29-2.06-5.33-2.23-2.84-.23-5.56.68-8.34.78-2.84.11-5.52.67-8.16,1.62,18.63-6.78,11.92-4.57-19.82,7.27-.59.22-1.19.68-1.31,1.45-2.29.01-4.48.76-6.27,1.93-.79.52-1.62.98-2.44,1.44-.37-.25-.78-.48-1.3-.57-1.13.5-2.58.82-3.8-.21-.92,1.06-1.71,1.83-2.05,3.18-.14.55-.29,1.1-.43,1.65-.42.24-.83.5-1.25.74.43-1.64.63-3.33.04-5.1-2.38,1.9-3.33,4.28-4.22,6.73-.18.49-.32.98-.48,1.48-1.89,1.39-3.64,2.87-5.06,4.66-.26,1.33.18,2.15,1.26,2.82.56-.84,1.51-1.27,2.32-1.88-.19.9-.38,1.8-.55,2.7-.22.27-.42.56-.55.89.04.26.14.47.25.65-1.96,10.36-5.41,20.4-7.77,30.67-1.43,6.26-3.55,12.41-4.17,18.82-.15,1.55-.82,3.07-1.05,4.62-.19,1.29-.48,2.56-.77,3.83-.87.75-1.65,1.58-2.34,2.47v2.49c.37.27,1,.37,1.4.72-.03.58-.04,1.17,0,1.76.67.76,1.25,1.35,2.24.9.65.08,1.19.33,1.72.57.01.02.01.05.03.07.09.03.16.02.25.04.17.07.35.15.53.2,2.76.84,5.62,1.96,8.59,1.22,1.91-.47,3.91-.49,5.75-.95,8.34-2.08,16.83-3.28,25.26-4.85,6-1.12,12.14-1.51,18.14-2.71,4.2-.84,8.44-1.57,12.53-2.79,1.6-.48,3.6-1.07,4.68-2.82-1.28-1-2.05,1.32-3.04.15.39-1.43,2.36-1.71,2.29-3.3-.48-1.1-1.29.73-1.68-.33-.13-.67.36-1.04.65-1.48-.65-1.93-1.61-3.5-3.99-3.27.33-.75.55-1.25.72-1.64-1.41-2.64-3.99-1.01-5.82-1.87.24-.5.47-.97,1.14-2.33-1.59.47-2.08-.78-3.15-.78-3.98,0-8.1-.62-11.92.17-8.8,1.82-17.52,4.04-26.16,6.59-3.96,1.17-7.87,2.43-11.72,3.87.72-2.22,1.87-4.36,2.86-6.52,1.43-3.11,2.78-6.23,3.74-9.47,1.7-.26,3.38-.68,5.02-1.36,6.31-2.61,12.9-4.51,19.11-7.32,7.15-3.23,14.62-5.45,21.95-8.11.83-.3,1.76-.04,2.72-.86.56-1.44,2.16-2.22,3.66-3.35.68-1.36.57-3.04,1.03-4.61-1.53-1.82-3.66-2.16-5.74-2.28-2.46-.15-4.95-.1-7.4.11-10.56.92-20.92,3-31.18,5.61-1.2.31-2.41.55-3.61.83.07-.54.07-1.09-.1-1.66.58-.34.81-.92.94-1.49.74-3.16,1.38-6.34,2.18-9.49.05-.19.08-.37.12-.56.75-.33,1.5-.66,2.24-.99.62-.27,1.1-.92,1.87-.8,2.59.4,4.81-1.98,7.48-.99,4.9-1.93,10.09-2.7,15.19-3.81,4.05-.88,8.08-1.93,12.12-2.7,7.14-1.36,13.43-4.37,19.57-7.97.53-.31.79-.77.35-1.38Zm-58.17,4.32s.02.01.03.02c0,.08,0,.17-.01.25,0,0,0,0,0,0-.04-.11-.05-.2-.01-.27Zm-12.95,7.44c.11.01.22.01.32,0-.08.41-.25.65-.49.72.06-.24.11-.49.17-.73Zm-.64,8.24c-.22.74-.56,1.46-1.13,2.11-.08-.2-.21-.41-.18-.6.09-.59.2-1.18.3-1.77.33.12.67.2,1.01.26Zm-2.27,7.29c.09.05.18.11.26.16-.01.08-.03.16-.04.24-.12-.04-.25-.08-.37-.12.05-.09.1-.18.15-.27Zm.09-1.3s.08-.2.16-.26c.04-.03.16.02.24.03.02.08.08.16.05.23-.07.22-.25.23-.45,0Zm.37-1.39c-.54-1.06-.15-1.76.66-2.35.39.86.27,1.63-.66,2.35Zm4.33-15.25c-.21.79-.42,1.57-.63,2.35-.27,0-.54,0-.81-.02.5-1.71.7-2.31,1.44-2.33Zm6.46,20.51c.41-.21.53.03.64.28-.29.07-.56.11-.64-.28Zm6.99-14.02c-.47-.47-.53-.93.04-1.37.55.48.48.93-.04,1.37Zm3.77-12.24c-.84.91-1.44.02-2.12-.31-.23.48-.46.96-.7,1.44-.84-.44-.42-1.18-.52-1.92,1.08-.75,2.19-.63,3.33-.13v.92Zm.15-5.5c.84.14.73.74.77,1.49-1.04-.34-.72-.99-.77-1.49Zm1.84,1.34c.74-.83,1.19-.67,1.46.28-.49,0-1,.18-1.46-.28Zm1.57.36c.26,0,.51,0,.77,0v.78c-.5-.02-.74-.29-.77-.77Zm.85.86c.32.02.64.05.55.55-.5.09-.52-.23-.55-.55Zm0-.94c.03-.35.06-.69.6-.57.08.52-.25.56-.6.57Zm3.06.67c-.12-.09-.23-.18-.35-.27.08-.08.17-.16.25-.24.07.09.15.18.22.27-.04.08-.08.16-.12.24Zm.94-1.8c-.16.21-.35.16-.49-.14-.01-.03.16-.18.26-.21.06-.02.16.07.24.11,0,.08.03.2,0,.25Zm8.41-2.44l-.24-.12c.09-.12.17-.24.26-.35.08.08.16.16.24.25-.09.07-.18.15-.26.22Zm32.27,5c-.03-.45.27-.47.57-.5-.05.31-.1.62-.57.5Z"/><path class="cls-3" d="m189.09,71.74c.64-.99.88-2.15-.62-2.76-.83-1.63-1.66-3.26-2.46-4.82-.59-.06-3.04-2.17-4.22-3-.91.97-1.76,2.01-2.75,2.88-.9.78-1.44,2.35-3.16,1.75q3.22-4.2,3.27-6.59c-2.9-.69-5.01.66-6.9,2.61-1.6,1.66-2.72,3.65-3.85,5.64-3.86,6.82-8.26,13.26-13.16,19.38-5.93,7.4-11.45,15.12-17.3,22.58-5.53,7.05-11.22,13.96-16.65,21.17-.84-1.24-.62-2.5-.37-3.53.94-3.87.87-7.79.96-11.71,0-.33-.03-.68.08-.98,1.34-3.84.64-7.69.38-11.61-.29-4.43-2.14-8.64-1.58-12.92-.74-1.5-1.39-2.81-2.07-4.19.38-1.71,1.69-3.27.86-5.25-1.02-1.02-4.55-3.81-5.17-4.26-1.74.72-1.43,3.36-3.52,3.74-.4-1.84,1.61-2.97,1.55-4.78q-2.76,1.01-3.63,2.03c-2.33,2.75-4.28,5.74-6,8.92-1.35,2.5-31.58,69.2-38.03,86.58-3.89,10.48-8.47,20.32-11.54,31.57-.74,2.72-2.03,5.06-2.86,7.73-2.03,6.52-4.95,12.37-6.06,19.38.45,1.83.87,3.3,2.2,2.99.99-1.66.91-4.73,2.83-5.55.7,3.3-1.66,5.02-1.27,7.8,2.11,2.63,2.93-1.99,4.43-2.14.48.47.83.82,1.15,1.13,1.29-1.02,1.83-3.77,3.5-3.79.32.93.59,1.69.86,2.45,1.01-.86,1.54-2.1,1.46-3.88.41-.06.83-.12,1.34-.2.87-3.05,2.23-5.7,3.41-8.5.97-2.27,2.5-3.22,3.43-5.68,1.69-4.46,4.18-8.18,6.41-12.1,3.95-6.94,7.75-14.04,10.4-22.46.91-.39,1.56-1.42,1.69-2.78.14-1.44.34-2.68,1.03-3.67,2.32-3.32,2.96-8.14,4.28-11.32.04-.94-.15-1.33-.4-1.56.26-.58.52-1.16.78-1.73.62-.01,1.28-.14,1.88-1.24.51-2.44,2.19-4.7,2.4-8.09.23-.08.5-.11.83-.1-1.47,5.05-1.02,10.09-1.05,15.1.84.86,1.53,1.56,2.16,2.21.78-.3,1.35-.53,1.97-.77.93.68,1.82,1.35,2.63,1.94,1.12-.37,2.04-.65,2.95-.98,2.88-1.02,6.11-1.55,8.57-3.2,5.91-3.97,10.91-9.04,15.52-14.47,2.92-3.43,5.6-7.07,9-10.07.31,1.2-.72,2.03-.94,3.09-2.69,13.11-6.9,25.81-10.43,38.69-1.09,4-2.91,7.93-2.44,12.39.77.44,1.04,1.73,2.62,1.14.13-.96,3.02,1.38,4.13.96.04-.98.58-1.95,1.7-2.47.27.55.53,1.11.79,1.65.96-.32,1.24-1.55,2.35-1.47.38.5.23,1.36.79,1.45,1.08.21,1.47-.42,1.9-.88.55-.59,1.12-1.22,1.49-1.93,1.66-3.16,3.4-6.29,4.84-9.55,3.14-7.09,5.98-14.32,9.2-21.38,3.44-7.53,7.22-14.9,10.76-22.38,1.46-3.07,2.75-6.22,4.04-9.36,2.7-6.57,5.22-13.22,8.05-19.74,4.42-10.21,8.49-20.54,11.6-31.24.38-1.31.42-2.5-.18-3.76-.66-1.38-.76-2.76.16-4.18ZM58.77,229.31c.5-.11.53.41.56.92-.34-.04-.66-.12-.56-.92Zm52-149.33-27,100.42c.55-.17.58.39.61.94-.36-.03-.68-.14-.61-.94Zm54.97-39.83c.04-.34.09-.67.58-.65.11.54-.24.6-.58.65Z"/><path class="cls-3" d="m509.74,154.87c-1.55-.16-3.07-.59-4.66-.47-.5.04-1.06-.26-1.18.59-.04.29-.39.19-.56,0-.48-.5-.79-1.8-1.65-.3-.04.07-.26-.15-.29-.31-.07-.37-.23-.56-.49-.16-.3.44-.53.3-.83.02-.29-.27-.68-.78-1-.31-.45.65-1.64.26-1.71,1.29-.09,1.34-.53,2.45-1.51,3.45-.49.5-.6,1.38-.83,2.11-.49,1.58-.84,3.23-2.14,4.38-.46.41.35.61.02.85-.28.21-.63.3-.92.5-.39.26-.22.48-.01.84.67,1.14.5,1.87-.66,2.17-.87.22-1.11.7-1.32,1.41-.16.53-.29,1.13-.87,1.41-.39-.28-.03-.43.02-.61.04-.16.15-.31-.13-.4-.59.25-.41,1.08-.98,1.39-.49.04-1.01-1.02-1.56-.03q1.71.69,1.55,1.87c-.47.14-.36-.3-.5-.49-.18-.25-.38-.45-.88-.38.23.86,1.11,1.64.32,2.63.5.08.83.13,1.15.18,0,.23-.16.43-.3.4-1.59-.32-2.1,1.38-3.31,1.75-.07.02-.11.32-.08.48.03.15.15.3.38.2.19-.08.43-.35.61-.07.23.34-.13.51-.34.67-.34.24-.73.39-1.05.64-.83.65-.83-.13-1.05-.63-.55.44-.55,1-.46,1.58l.06-.06c-.49.14-.28.9-.92.93-.31-.6.41-1.27,0-1.91l.14-.03-.09.06c-1.03,1.87-1.49,3.97-2.36,5.91-.2.44-.22,1.26-.9,1.09-.65-.16-.38-.86-.28-1.37.06-.29.14-.58-.07-.89-.54.18-.9.69-1.46.77.07.49.55.52.68.84.11.28.22.66,0,.84-.39.3-.45-.46-.86-.36-.24.87-.21,1.88-1.11,2.49-.53-.14-.35-1-1.03-1.01-.44.35-.19.87-.31,1.3-.11.4-.17.83-.57,1.06-.13.07-.34.08-.49.04-.24-.06-.15-.27-.13-.44.06-.45.64-.66.61-1.26-.98.11-1.21,1.2-2.12,1.36-.32-.31.12-.55.17-.82.05-.3.11-.74-.16-.79-1.29-.24-.87-1.12-.81-1.9.61-7.76,2.68-15.2,5-22.58,1.49-4.73,2.95-9.46,4.48-14.17.34-1.06.17-1.87-.44-2.78-2.12-3.2-4.33-6.33-6.25-9.66-.59-1.02-1.15-2.06-1.69-3.11-.67-1.3-.67-1.32.43-2.37,1.77-1.7,3.85-2.92,6.07-3.91,2.32-1.03,4.64-2.06,6.98-3.03.76-.32,1.26-.78,1.61-1.52.9-1.92,1.86-3.81,2.81-5.75-.93-.65-1.53-1.45-2.08-2.29-.62-.93-1.19-1.91-2.31-2.37-.2-.08-.39-.29-.49-.49-1.01-1.93-2.31-3.71-3.13-5.75-.93-2.3-.94-4.57.11-6.86,1.69-3.7,4.2-6.84,6.89-9.83,2.29-2.54,4.65-5.03,6.99-7.53.28-.3.58-.61.93-.81,2.17-1.22,4.15-2.72,6.19-4.11.98-.67,2.03-1.2,3.09-1.72,1.59-.79,3.25-1.44,4.77-2.39,3.77-2.36,7.84-4.1,12.09-5.41.57-.17,1.15-.28,1.55-.77.28-.34.7-.42,1.1-.53,6.38-1.75,12.72-3.66,19.23-4.87,5.71-1.06,11.47-1.64,17.28-1,1.84.2,8.18,2.28,9.6,3.38,2,1.55,3.6,3.39,4.86,5.56,1.9,3.28,3.08,6.88,4.59,10.34.97,2.21,1.17,4.43.85,6.74-.25,1.8-.92,3.42-2.32,4.65-.45.4-.81.86-1.13,1.35-4.2,6.37-9.64,11.4-16.16,15.38-6.1,3.72-12.13,7.55-18.43,10.91-8.28,4.42-16.75,8.46-25.34,12.25-3.13,1.38-6.26,2.75-9.54,4.2.83.52,1.64.55,2.4.69,5.28,1,10.65,1.41,15.97,2.16,1.79.25,3.63.32,5.23,1.33.12.07.17.15.29.07,1.19-.77,2.3.03,3.39.27,6.4,1.37,12.85,2.54,19.19,4.23,6.13,1.63,12.08,3.68,17.54,6.98.3.18.58.49.96.39.84-.21,1.1.51,1.57.91-.02-.01-.03-.03-.05-.04.94-.19.32,1.01,1.08,1.18.53.12.94.78,1.43,1.22-.63.44-.94-.5-1.51-.18,0,.14-.08.35-.01.46.55.79.28,1.14-.6,1.21-.47.04-.55.34-.4.74l.05-.06c-.42.14-.26.6-.53,1.03-.16-.62-.15-1.22-.45-1.5-.24-.22-.81-.47-1.35-.13.22.67,1.39.87.9,1.97-.62-.03-1.03-1.04-1.91-.48.16.94.58,2.02.02,3.07-.42-.17-.15-.67-.44-.92-.46-.07-.32.31-.36.53-.11.63-.54.61-.9.35-.47-.33-.87-.78-1.29-1.18-.27.11.02,1.08-.6.49-.53-.5-.76-1.01-1.42-.12-.27.36-.82-.05-1.11-.44.01-.1.36.01.15-.23-.03.09-.06.19-.09.28-1.78-.31-3.44-1.09-5.26-1.31-.32.47-.15,1.19-.8,1.46l.04.04c-.06-.81-1-.82-1.29-1.41.17.01.34.07.5.03.19-.04.49,0,.46-.33,0-.09-.09-.21-.17-.27-.23-.14-.44-.07-.57.15-.08.14-.11.31-.16.47-.27.45-.6.66-1.16.49-1.01-.29-2.05-.52-2.98-1.01-.95,1.31-1.68,1.28-2.29-.06-.05-.1-.08-.21-.11-.32-1.12,1.11-.95-.97-1.77-.72-.3.09-.71-.16-.76.41-.01.18.38.47-.08.51-.19.02-.56-.19-.57-.32-.13-1.32-1.22-1.02-2-1.24-.21-.06-.51-.2-.54.14-.07.77-.57.62-1.03.54-.74-.14-.34-.74-.43-1.14-.02-.1-.11-.19-.16-.29-.77,1.34-1.01,1.42-2.49.85-.05-.02-.1-.09-.15-.09-2.54.11-4.92-1.24-7.49-.88-.49.07-.91-.02-1.35-.23-1.19-.56-2.46-.76-3.76-.91-.79-.09-1.56-.05-2.2.41-.55.39-1.07.42-1.66.2-.2-.07-.52-.02-.5-.35.02-.37.35-.42.63-.49l.07.08-.09-.05c-1-.82-2.15-.48-3.34-.57.33.85,1.08.23,1.43.67-1.19.92-3.07.58-4.92-.89.2-.07.4-.13.59-.2-.06-.06-.11-.18-.17-.18-.27,0-.35.2-.38.43-.37-.25-.78-.4-1.09.01-1.1,1.41-2.46,1.53-4.03.94-.3-.11-.75-.13-1.03.02-1.02.55-1.26-.21-1.5-.89-.56.14-.5.71-.89.9-.59.29-.72-.03-.73-.53.09-.06.18-.13.27-.19.13-.09.25-.19.19-.37-.01-.04-.09-.07-.14-.07-.23,0-.21.2-.23.35-.01.11-.02.22-.03.33Zm1.91-40.7c.5.23.71.1.91,0,9.31-4.46,18.7-8.76,27.74-13.77,7.55-4.19,14.83-8.78,21.42-14.4,1.27-1.08,2-2.61,3.25-3.69.04-.04.06-.1.09-.15.56-1.03.34-1.54-.81-1.69-.87-.11-1.77-.15-2.65-.11-2.12.08-4.24.43-6.33-.21-.36-.11-.69.03-1.02.19-1.82.9-3.72,1.1-5.68.62-.35-.09-.7-.26-.97.09-1.04,1.35-2.51,1.08-3.91,1.08-.39,0-.88-.31-1.14.14-.42.74-1.15.77-1.82.92-4.85,1.09-9.58,2.56-14.23,4.3-2.21.82-4.37,1.78-6.54,2.7-.4.17-1,.31-.72.98.46,1.07.12,2.1-.16,3.11-.96,3.47-2.2,6.84-3.55,10.18-1.31,3.22-2.59,6.45-3.89,9.7Zm-37.96,73.25c.68.35,1.3.36,1.85-.38-.78-.29-1.31.05-1.85.38Zm97.17-28.73c-.38-.21-.63-.79-1.47-.67.46.55.83.81,1.47.67Zm-77.35,4.56c-.06-.1-.1-.26-.18-.27-.39-.08-.46.25-.58.5-.06.12,0,.25.14.27.35.03.5-.22.63-.49Zm-7.03,11.51c.05-.27-.1-.43-.33-.52-.29-.12-.45.07-.47.31-.02.24.19.39.42.44.18.04.31-.06.38-.23Zm40.6-21.1c-.18.06-.3.19-.25.38.05.18.22.24.39.21.22-.05.46-.12.31-.43-.09-.18-.27-.18-.44-.16Zm-35.76,15.24c.2,0,.35-.08.35-.28,0-.19-.14-.35-.33-.25-.13.07-.2.25-.3.39.09.05.19.1.28.14Zm77.73-11.44c-.07-.13-.13-.29-.18-.29-.23.03-.39.18-.44.41-.04.16.05.39.19.33.18-.07.29-.3.43-.45Zm-20.14-1.12c-.06-.09-.09-.2-.17-.25-.17-.1-.29-.01-.32.16-.04.21.09.29.27.26.08-.01.15-.11.22-.18Zm6.12,1.69c.15.08.3.16.44.24.04-.11.12-.22.1-.31-.04-.19-.19-.29-.38-.21-.07.03-.1.16-.16.28Zm-26.18-3.99s-.08-.07-.13-.1c-.03.1-.07.19-.08.29,0,.03.08.07.12.1.03-.1.06-.19.09-.29Zm42.11,5.85c-.09.06-.18.12-.27.18.04.04.08.09.13.11.14.05.24,0,.25-.16,0-.04-.07-.09-.11-.13Zm-85.76,17.33c-.01.05-.05.11-.03.16.07.18.15.18.2,0,.01-.04-.02-.11-.05-.15-.02-.02-.08,0-.12,0Zm79.83-19.37s-.02.09-.02.14c0,.02.05.03.07.04,0-.05.02-.09.02-.14,0-.02-.05-.03-.07-.04Zm-22.16-1.28s-.09-.11-.12-.1c-.1.03-.19.08-.28.12.04.04.09.11.12.1.1-.03.19-.08.28-.12Zm10.16,2.5h.05s-.03-.12-.03-.12l-.03.12Zm-5.93-2.89s-.09-.11-.13-.11c-.1.02-.2.08-.3.12.04.04.09.11.13.11.1-.02.2-.08.3-.12Zm-55.97,8.37c0,.05-.04.11-.03.15.05.18.11.19.16,0,.01-.04-.01-.11-.04-.15,0-.01-.06,0-.1,0Zm79.76-10.07s-.07-.08-.11-.11c-.03.09-.08.18-.09.28,0,.03.07.07.11.11.03-.09.06-.18.09-.27Zm-14.15,3.88l-.14-.26c-.06.05-.18.11-.18.16.01.09.09.18.14.26.06-.06.12-.11.18-.17Zm-2.77-.58l.06-.1h-.12s.05.1.05.1Zm-3.14-.87s-.09-.11-.13-.1c-.04,0-.08.08-.12.12.04.04.09.11.13.1.04,0,.08-.08.12-.12Zm-4.84-.73s-.06.09-.04.11c.02.04.1.11.11.1.13-.07.15-.16.04-.22-.03-.02-.07,0-.11,0Zm11.8,2.96s-.07-.07-.11-.1c-.04.04-.1.08-.1.12,0,.04.07.07.11.11.03-.04.06-.09.1-.13Zm-16.26-2.78s-.07-.07-.1-.11c-.03.03-.07.07-.1.1.05.04.1.07.15.11.02-.03.03-.07.05-.1Zm30.16-3.78l.05-.09h-.09s.04.09.04.09Zm-36.4,2.57s-.07-.07-.11-.1c-.03.04-.07.07-.1.11.05.03.11.06.16.1.02-.04.03-.07.05-.11Zm34.3,4.33s-.09-.11-.13-.1c-.04,0-.08.08-.12.12.04.04.09.11.13.1.04,0,.08-.08.12-.12Zm-48.2-4.94s-.08-.06-.1-.05c-.04.02-.11.08-.11.1.06.13.14.15.21.06.02-.02,0-.07,0-.1Zm-6.85.22s-.1.07-.09.11c0,.04.06.07.1.11.03-.04.1-.07.1-.11,0-.04-.06-.07-.1-.11Zm10.6-1.31s-.07.07-.1.1c.04.03.07.09.1.09.03,0,.07-.06.1-.09-.04-.03-.07-.06-.11-.09Zm-13.18.68l.05-.09h-.09s.04.09.04.09Z"/><path class="cls-3" d="m529.69,156.05c-.08.16-.09.24-.13.26-.47.19-.95.49-1.43.03-.04-.04,0-.26.06-.3.46-.34.94-.44,1.51.01Z"/><path class="cls-3" d="m561.51,161.86c-.37-.42-.24-.98-.61-1.31.34-.39.69-.25.84-.09.44.51,0,.93-.24,1.39Z"/><path class="cls-3" d="m573.38,161.07c-.9.04-.91-.53-.78-1.16.05-.23.27-.18.43-.11.63.3.64.76.32,1.3l.04-.04Z"/><path class="cls-3" d="m559.79,160.92c.05.38-.13.57-.49.49-.61-.14-1.19-.37-2-.35.98-.74,1.74-.08,2.52-.1l-.04-.04Z"/><path class="cls-3" d="m575.19,158.11c.11,0,.22,0,.33.01.16.01.35.02.34.24,0,.09-.08.23-.16.25-.2.06-.3-.1-.37-.25-.05-.1-.06-.21-.09-.32l-.05.06Z"/><path class="cls-3" d="m526.51,156.76c-.05.08-.11.23-.15.23-.16-.02-.37-.05-.45-.16-.2-.25.09-.24.22-.27.16-.03.32,0,.38.19Z"/><path class="cls-3" d="m482.52,181.51c.33-.01.58.04.45.46-.03.09-.18.23-.19.22-.28-.19-.17-.49-.2-.75l-.06.06Z"/><path class="cls-3" d="m563.79,161.21c-.17.03-.34.08-.51.1-.17.02-.35-.02-.38-.23-.01-.1.03-.23.1-.3.16-.17.32-.05.44.07.12.12.2.28.29.42l.05-.06Z"/><path class="cls-3" d="m573.35,161.11c.09.05.21.08.28.16.11.12.23.26.13.44-.04.07-.14.1-.22.14-.06-.15-.13-.29-.16-.44-.02-.1,0-.22,0-.33,0,0-.04.04-.04.04Z"/><path class="cls-3" d="m532.14,156.34c.1.04.29.08.29.11,0,.19-.17.24-.33.23-.1,0-.29-.08-.29-.11.01-.19.18-.21.33-.23Z"/><path class="cls-3" d="m481.75,183.75c.08.12.05.23-.1.25-.09.02-.2-.04-.3-.07.03-.1.07-.2.1-.3.1.04.19.07.29.11Z"/><path class="cls-3" d="m490.89,171.69c-.09.04-.19.1-.28.1-.15,0-.21-.12-.12-.23.06-.08.18-.1.27-.15.05.1.09.19.14.29Z"/><path class="cls-3" d="m542.68,158.18c.14.04.35,0,.31.23,0,.05-.19.11-.28.1-.12,0-.34.05-.32-.18,0-.06.19-.1.29-.15Z"/><path class="cls-3" d="m547.27,158.6c-.05-.09-.09-.19-.14-.28.09-.04.18-.12.26-.12.14,0,.2.12.13.23-.05.08-.17.11-.25.17Z"/><path class="cls-3" d="m563.74,161.27c.18.02.35.05.31.29,0,.04-.11.11-.11.11-.16-.11-.19-.27-.15-.45l-.05.06Z"/><path class="cls-3" d="m530.7,156.29s-.08.07-.13.07c-.16,0-.2-.05-.11-.12.04-.03.1-.04.15-.03.03,0,.06.06.09.09Z"/><path class="cls-3" d="m490.43,173.5s-.08.08-.13.09c-.15.01-.19-.06-.11-.16.02-.03.1-.03.15-.02.04,0,.06.06.09.09Z"/><path class="cls-3" d="m535.77,157.12s.09.07.09.1c0,.03-.06.07-.09.1-.03-.03-.09-.07-.09-.1,0-.03.06-.07.09-.1Z"/><polygon class="cls-3" points="554.59 160.2 554.54 160.11 554.65 160.11 554.59 160.2"/><polygon class="cls-3" points="556.34 160.68 556.45 160.64 556.45 160.74 556.34 160.68"/><path class="cls-3" d="m357.98,184.87s0,0,0,0c.03.02.04.03.07.05l-.06-.06Z"/><path class="cls-3" d="m358.05,182.85s-.06.04-.09.06c0,.01,0,.03,0,.04l.09-.1Z"/><path class="cls-3" d="m360.05,178.87s-.06.02-.09.02c0,.03,0,.05,0,.08l.1-.1Z"/><path class="cls-3" d="m392.64,105.82s-.03-.06-.05-.1c-.09.15-.18.3-.27.45.11.03.22-.08.32-.35Z"/><path class="cls-3" d="m391.09,108.69c.13.11.25.22.38.33.05-.1.09-.2.14-.3-.08-.11-.16-.22-.24-.33-.09.1-.18.2-.27.3Z"/><path class="cls-3" d="m359.04,180.87s-.05.02-.07.02c0,.02,0,.04,0,.06l.08-.08Z"/><path class="cls-3" d="m302.26,107.21s.03-.02.05-.03c-.02-.01-.05-.02-.07-.04l.02.06Z"/><path class="cls-3" d="m496.69,65.86c-.32-1.56-1.14-2.88-1.84-4.26-.49-.96-1.5-1.83-.66-3.11.17-.25-.1-.51-.34-.65-.74-.43-1.23-1.33-2.24-1.23-.51.05-.7-.3-.95-.62-1.03-1.36-2.45-2.04-4.08-2.44-2.36-.59-4.83-.59-7.13-1.44-.26-.1-.62-.12-.64.22-.06,1.02-.88,1.08-1.55,1.32-3.62,1.31-7.26,2.59-10.87,3.92-3.62,1.33-7.27,2.56-11.05,3.34-.33.07-.76.06-.97.26-1.22,1.17-2.84,1.1-4.31,1.48-1.38.36-2.74.78-3.92,1.6-.52.36-1.01.61-1.68.5-1.71-.27-3.21.27-4.53,1.32-.57.45-1.09.75-1.8.31-.35-.22-.72-.21-1.13.03-.88.51-1.92.79-2.67,1.43-.98.82-1.84,1.28-3,.44-.29-.21-.66-.17-.91.14-.54.67-1.17.84-1.96.44-.54-.27-1.06-.02-1.54.23-2.25,1.15-4.68,1.74-7.13,2.26-2.12.46-4.24.91-6.19,1.88-.69.35-1.28.23-1.92-.07-.3-.14-.77-.21-.69.33.11.77-.38.92-.9,1.1-1.36.48-2.78.51-4.2.56-.47.02-.95.02-1.41.1-.2.03-.65.08-.43.48.77,1.41-.23.86-.81.74-.57-.11-1.09-.54-1.71,0-.39.34-.9.02-1.36-.05-.67-.1-1.52-.52-1.59.74,0,.1-.35.27-.52.25-1.01-.09-1.79.11-2.15,1.21-.12.36-.5.33-.83.06-.25-.21-.56-.4-.87-.48-.31-.08-.75-.14-.97.02-.34.25.03.57.17.84.25.52-.15.58-.46.57-.48-.01-.84-.24-1.17-.65-.46-.56-.84-.79-1.54.07-1,1.22-2.48,1.89-4.12,2.14-1.67.25-3.33.57-4.85,1.39-.34.18-.78.19-1.18.25-6.96,1.01-13.76,2.85-20.67,4.1-.48.09-1.1.17-.6.7-1.03.25-2.06.5-3.09.74-.25.06-.51.12-.76.18-.77-.02-1.55-.28-2.32-.05-1.09.33-2.22.58-3.35.76-.59.09-.82.54-1.12.92-.42.1-.84.2-1.27.3-.49-.69-.67-.64-.93.16,0,.02-.01.05-.02.07-.82.2-1.64.4-2.46.59-7.55,1.71-15.07,3.43-22.35,6.16-.18.03-.36.07-.54.1-2.69.46-5.28,1.14-7.57,2.7-.41.28-.82.43-1.33.32-.61-.13-1.21-.05-1.79.16-.78.29-1.67.01-2.37.29-.7.28-1.17,1.11-2.09,1.04-.17-.01-.26.08-.21.26.03.12.11.33.18.33.57,0,1.27.46,1.69-.17.51-.75,1.17-.48,1.82-.49.92-.01,1.87.33,2.72-.39.48-.41,1.02.15,1.56.06.56-.08,1.09-.41,1.66-.36-.29.32-.57.63-.85.99.01.02.02.03.03.05-.3.1-.62.18-.91.28-.89.31-1.84.47-2.79.32-1.16-.18-2.25-.11-3.26.57-.28.19-.91-.07-.88.46.01.31.54.31.87.35.61.08,1.21.15,1.77.67-2.33.41-4.53,1.01-6.53,2.19,1.08.62,2.16.06,3.23-.05.97-.1,1.93-.61,2.61.62.32.57,1.12.66,1.64.46,1.23-.48,2.04.27,2.95.77.4.22.72.61,1.13.81,1.09.55,2.48-.12,3.51,1.04.85.96,2.26.44,3.4.71.55-.5,1.18-.53,1.86-.36-.14.09-.3.17-.39.31-.17.26.09.34.26.37,1.21.22,2.41.09,3.61-.1,2.2-.34,4.39-.65,6.55.26.53.22,1.05,0,1.57-.15,3.18-.92,6.41-1.56,9.74-1.23.51.05.91-.1,1.33-.34.7-.39,1.37-.83,2.21-.83.8-.56,1.57-.6,2.24.21.46.55.9.42,1.41.08.88-.58,1.88-.87,2.9-.7,1.05.18.85-.09.5-.79-.23-.46.16-.7.67-.66.89.06,1.72.35,2.53.68.5.21.87.35.82-.47-.03-.39.4-.25.64-.25,2.63.04,5.21-.16,7.74-1.03.46-.16.95-.23,1.44-.28-.06.1-.11.2-.18.3-.89,1.35-1.65,2.79-2.43,4.21-.95,1.71-1.9,3.42-2.79,5.16-.89,1.73-1.71,3.5-2.55,5.26-.84,1.75-1.95,3.44-2.42,5.29-.45,1.79-1.6,3.2-2.09,4.93-.53,1.84-1.28,3.62-1.93,5.43-.66,1.82-1.34,3.63-1.95,5.46-.56,1.68-1.13,3.5-1.4,5.08-.32,1.83-1.15,3.35-1.59,5.05-2.6,10.12-6.7,19.8-8.55,30.33.61.75.55,2.36,2.02,2.89.82-.77.94-2.03,1.59-2.93-.26,1.77-.29,4.09.46,5.05,1.04.15,2,.31,2.94-.1,1.02-1.1.89-2.97,2.47-3.69.17,1.21-.4,2.49.17,3.36,2.64.41,2.63-2.63,4.44-3.29,1.06,1.47-1.46,2.39-.07,3.76.83-1.35,2.73-1.41,3.43-2.94-1.23-.87-1.24-1.19,0-1.97.14-.77-.18-1.79,1-2.02.1-.79-.22-1.79.99-2,.07-1.28.38-2.44.95-3.65,2.62-5.57,21.05-51.69,31.41-69.07-.09-.03-.17-.14-.23-.38-.02-.08.19-.22.29-.34.07.09.16.18.21.26,1.14-1.89,2.18-3.4,3.08-4.45,2.11-.44,4.21-.94,6.32-1.41,1.45-.32,2.91-.61,4.36-.95.69-.16,1.51-.07,1.75-1.06,0,0,0,0,0-.02.25-.06.5-.12.76-.18.03,0,.07.02.1.02,1.6.33,3.09.14,4.37-.98.14-.13.4-.3.52-.25,1.74.73,3.22-.83,4.91-.53.3.05.7-.06.97-.23,1.6-.98,3.44-1.16,5.21-1.56,3.82-.88,7.62-1.79,11.23-3.4,1.13-.5,2.5-.42,3.53-1.27.05-.04.14-.07.19-.05,1.57.48,2.81-.54,4.2-.89,1.37-.34,2.87-.35,4.15-.89,2.82-1.2,5.88-1.38,8.74-2.39,1.59-.56,3.19-1.09,4.88-1.34,1.24-.18,2.26-1.03,3.49-1.39,4.07-1.18,7.95-2.99,12.16-3.7.46-.08.96-.17,1.36-.4,2.73-1.55,5.76-2.31,8.7-3.3,2.84-.95,5.52-2.22,7.66-4.41,1.32-1.35,1.85-2.95,1.46-4.84Zm-186.47,41.3c-.7-.11-1.52.21-2.16-.63.77-.06,1.4-.48,2.14-.23.2.07.32.24.31.46,0,.2-.03.44-.29.4Zm39.9,76.63c.17-.69,1.08-.57,0,0h0Zm1.63-5.19c-.18.25-.39.18-.53-.2-.02-.05.17-.22.3-.27.06-.02.18.1.27.16,0,.11.02.24-.03.31Zm3.84,4.1c-.94-.88-.64-1.39.39-1.72.02.58.18,1.19-.39,1.72Zm.48-1.84c.05-.35.04-.74.6-.69.13.57-.19.68-.6.69Zm1.64-3.27c-.17.26-.38.19-.53-.19-.02-.05.17-.22.29-.28.05-.02.17.09.26.14,0,.11.03.24-.02.32Zm61.18-105.35c.19-.27.48-.39.82-.26.2.19.36.48.24.69-.17.32-.52.31-.84.17-.29-.12-.39-.36-.22-.6Zm-27.36,7.32c.03.09.05.18.08.27-.11,0-.24.02-.34-.03-.06-.03-.06-.16-.09-.25.12,0,.24,0,.36,0Zm-68.27,30.28c-.15.13-.24.1-.25-.1,0-.02.12-.08.17-.06.04.02.06.1.09.16Zm-8.84-.89c-.48.07-.91-.11-1.27-.4-.13-.1-.22-.32-.23-.49-.01-.34.26-.2.42-.17.25.06.5.17.91.31.02,0,.21.06.38.15.11.06.17.19.26.28-.15.11-.3.28-.47.31Zm1.46-3.18c.04-.28.26-.24.43-.16.1.04.23.21.21.26-.09.21-.3.2-.5.18-.05-.09-.16-.2-.15-.28Zm.6,2.96c-.17-.02-.4-.2-.26-.34.16-.16.46-.17.68-.24.11.13.27.27.25.29-.16.22-.41.32-.67.29Zm6.35,2.43c.82-.72,1.79-.51,2.73-.42-.78.98-1.77.63-2.73.42Zm4-.44c-.09.21-.29.26-.48.22-.23-.06-.45-.16-.67-.25.06-.25.13-.41.22-.53.01,0,.03.02.04.02.16-.03.3-.08.45-.12.08.04.16.08.26.16.14.12.26.28.17.49Zm2.96-.44c-.16-.08-.28-.23-.42-.35.12-.02.26-.09.36-.05.16.07.29.21.46.34-.18.03-.32.1-.4.05Zm1.98.83c-.18-.02-.36-.05-.53-.12-.04-.02-.03-.18-.04-.28.27-.11.5-.06.67.16.12.14.06.26-.11.24Zm3.23-.55c-.12.31-.39.3-.62.19-.15-.08-.38-.34-.36-.38.18-.29.48-.37.81-.27.21.1.23.28.16.46Zm9.46-2.32c.15.04.3.08.45.12-.18.15-.35.3-.45-.12Zm.56.08c.07-.25.23-.31.47-.19-.08.25-.27.24-.47.19Zm1.03-.07c-.17,0-.33-.08-.5-.14.1-.19.27-.22.45-.11.15.09.15.26.05.25Zm10.17-1.68l-.28-.14c.05-.01.11-.04.16-.03.05,0,.1.04.14.08.01.01-.01.06-.02.1Zm26.96-2.64c.15-.03.3-.08.46-.14,0,.07,0,.15-.04.2-.14.2-.3.17-.42-.06Z"/><path class="cls-3" d="m320.83,111.56s-.03,0-.04,0c-.01.01-.03.02-.04.03l.08-.02Z"/><path class="cls-3" d="m347.55,109.48s-.01,0-.02,0c-.02.01-.04.02-.06.03l.07-.03Z"/><path class="cls-3" d="m240.86,138.85c-3.14-.65-6.31-.87-9.5-.85.64-5.04,1.15-10.09,1.77-15.13.7-5.66.17-11.42.93-17.16.81-6.12.07-12.33-2.15-18.04-2.73-3.54-6.29-5.82-9.4-8.16-1.35.19-2.94,1.44-3.14,1.81,0,.04,0,.07.02.11-.06,0-.06-.04-.02-.11-.19-.91.27-1.94-.76-3.18-.32-.42-1.15-.87-2.68-.56-2.56,1.98-4.94,4.48-6.63,7.85-3.51,6.97-6.88,14-10.73,20.81-7.28,12.87-14.08,26.02-21.13,39.03-2.33,4.29-5.01,8.38-7.23,12.73-4.1,8.04-8.86,15.8-11.29,24.51,2.75,5.58,6.97,2.12,10.53,2.21,2.16-2.46,6.25-8.56,10.38-14.99,1.54-1.54,3.2-2.21,4.87-2.87,1.09-.43,2.2-.71,3.28-1.39,2.2-1.4,4.44-2.42,6.71-3.12.56-.17,1.16-.17,1.67-.77.49-.57,1.02-.77,1.55-.88,1.08-.22,2.14-.65,3.2-1.11,1.66-.71,3.3-1.6,4.96-2.26-.27,11.33-.69,24.21-1.18,28.31.59.39.1,1.85,1.31,2.17.78.19,1.19-.42,1.71-.78.84.67-.05,1.96,1.06,2.67h4.75c1.09-.59,1.37-1.53,2.29-1.59.63.52,1.24,1.04,1.84,1.54,2.44-1.93,3.74-4.3,4.77-7.23,1.84-5.21,2.48-10.63,3.63-15.95.92-4.26,1.38-8.67,2.38-12.86.46-1.92.85-3.84,1.21-5.77.06-.03.13-.06.19-.07.39-.08.2-.42.2-.75,0-.4.22-.33.37-.32.33.03.28.74.42.88.26.24.25-.74.54-.74.09,0,.22.05.25.16.22.96.71.67,1.14.77.31.08.49,0,.58-.55.05-.26.04-.57.25-.74.06.18.14.35.18.54.1.48.22.95.57.91.38-.05.42-.63.52-1.12.05-.21.13-.4.25-.76.12.62.34.87.64.61.94-.8,1.87-.43,2.81-.37.63.05,1.25.12,1.89-.13.26-.1.49-.25.65-.69.22-.58.45-.75.86-1.1.49-.42.97-.62,1.48-.58.25.02.41-.15.55-.56.33-.93.7-1.84,1.11-2.91-1.54-.74-2.98-1.17-4.43-1.47Zm-42.94,5.47c-1.04.43-2.08.9-3.12,1.37,1.32-2.12,2.63-4.25,3.99-6.35.48-.74,3.39-6.01,4.88-7.84.82-1.01.78-2.59,2.64-3.29.26,3.4.07,6.74.1,10.07,0,.47,0,1.57-.02,3.12-2.83.78-5.65,1.74-8.46,2.91Zm45.9-2.93s-.03-.07-.05-.11c.05-.03.11-.07.16-.08.02,0,.03.07.05.11-.05.03-.11.07-.16.08Z"/><path class="cls-3" d="m866.68,87.44c-.18-.95-.3-1.9-.45-2.85-.4-2.52-.75-5.06-1.64-7.47-.94-2.53-2.42-4.6-5-5.69-.22-.09-.55-.18-.61-.35-.33-.86-1.09-.8-1.78-.94-.85-.17-1.7-.36-2.55-.53-.95-.19-1.89-.37-2.87-.3-.56.04-1.16.25-1.59-.36-.12-.17-.41-.17-.52-.03-.55.68-1.17.34-1.82.23-.96-.16-1.92-.14-2.82.32-.29.15-.56.48-.91.2-.85-.67-1.78-.3-2.65-.16-5.76.96-11.45,2.26-17.05,3.9-9.7,2.84-19.03,6.6-28.09,11.05-7.49,3.68-14.73,7.82-21.82,12.22-.36.22-.89.36-1,.78-.36,1.4-1.24,2.49-1.95,3.69-.21.36-.31.66.11.99.54.42.63,1.06.57,1.71-.04.38-.11.74.09,1.12.98,1.85,1.35,3.91,1.89,5.9.28,1.03.68,1.86,1.78,2.21.29.09.64.22.78.64-.27.36-.56.74-.86,1.12-4.66,5.86-9.01,11.93-13.13,18.18-.84,1.27-1.47,2.56-1.74,4.06-.33,1.89-.98,3.78.36,5.56.03.04.05.09.05.14,0,1.29.69,2.4.94,3.61.29,1.44,1.17,2.27,2.28,2.99.73.47,1.54.88,2,1.63.44.73,1.09.67,1.63.44.83-.35,2.1,0,2.42-1.18.18-.68.51-.97,1.13-1.11.37-.08.74-.23,1.1-.36,4.54-1.57,8.85-3.57,12.63-6.59.51-.41,1.16-.74.62-1.58-.27-.41.33-.69.39-1.07-.4-.07-.62.33-.95.05.15-.58.36-1.17.43-1.77.09-.84.54-1.18,1.32-1.45,6.11-2.12,12.26-4.09,18.5-5.76,5.69-1.53,11.44-2.79,17.28-3.54,4.06-.52,8.13-.87,12.21-.93-.08.02-.17.04-.25.07-1.08.38-1.2.56-1.36.71-.84.26-1.63.55-1.99.59l.92-.47-.92.22c.64-.13-.72.32-.91.48-2,.65-1.41.47-2.71.76-1.25.56-2.91.9-2.89,1.16-2.36.77-4.87,1.66-7.04,2.58l-.91.53c-2.66.9-3.75,1.59-6.39,2.8l.18-.16-1.38.81c-2.07.74-2.69,1.43-5.08,2.3-2.53,1.04-3.53,1.82-4.19,2.49-1.13.71-2.72,1.24-3.8,1.74l.65-.44-.95.32c-1.5.82-1.63.77-3.56,1.9-2.79,1.26-2.14,1.51-3.2,2.27l-2.72,1.1.09.03c-1.36,1.12-1.1.75-4.67,2.75l.26.08c-1.31.48-1.68,1.02-3.21,1.91-.74.45-3.23,1.47-4.38,2.52-2.33,1.22-3.36,2.38-4.95,3.59-1.5.8-3,1.59-4.5,2.42-.26.15-.7.13-.51,1.08,0,.03,0,.06,0,.09-.47.4-.92.81-1.28,1.15-.06.13-.1.27-.14.41-.53.38-1.14.61-1.35,1.69-.18.93-.64,1.5-.75,2.6-.38,3.92-.01,7.53.56,11.12.1.6.31.8.61.7.44-.15.87-.12,1.3-.15.57-.04,1.19.28,1.76-.35,1.82-1.99,3.8-2.78,5.8-3.57,1.22-.48,2.46-.79,3.65-1.55,2.46-1.57,4.95-2.69,7.48-3.48.62-.19,1.29-.2,1.86-.86.55-.63,1.13-.86,1.73-.98,1.2-.25,2.38-.73,3.57-1.23,2.3-.98,4.56-2.3,6.88-3.02,1.51-.47,3-.88,4.44-2.13.75-.66,1.77-.74,2.53-.56.39.09.77-.1,1.15-.3.69-.35,1.36-.9,2.08-.71.14.04.31,0,.32-.33.05-1.37.68-1.19,1.11-1.35,1.65-.6,3.31-.69,4.96-1.06.7-.15,1.32-.25,1.46-1.95.07-.85.55-1.08.85-.44.38.81.41.62.48-.33.04-.58.29-.33.48-.15.15.14.25.85.44.39.32-.81.79-.82,1.12-.73.62.17.67-.49.7-1.32.11.22.18.29.2.4.09.52.18,1.06.28,1.69.29-.52.6-.9.93-1.24.25-.26.29-.78.57-.08.32.78.83.14,1.27.05.44-.09.22-.47.23-.84.01-.45.24-.37.41-.36.36.03.31.83.47.98.29.27.28-.82.6-.83.1,0,.25.06.27.18.24,1.07.8.74,1.28.86.35.08.54,0,.65-.62.05-.3.05-.63.28-.83.07.2.15.39.2.61.12.54.25,1.05.63,1.01.42-.05.46-.71.58-1.24.05-.23.15-.44.28-.85.14.69.37.97.72.68,1.05-.9,2.09-.49,3.13-.41.7.05,1.4.13,2.11-.14.29-.11.55-.28.73-.77.24-.65.51-.83.96-1.22.55-.47,1.08-.69,1.65-.65.28.02.45-.17.61-.62.37-1.04.78-2.05,1.24-3.24-1.72-.82-3.32-1.3-4.94-1.64-4.02-.84-8.07-1.05-12.16-.94-5.21.14-10.42.73-15.64,1.62-.7.12-1.48.55-2.1.24-.86-.43-1.63.12-2.43.37-.31.1-.62.27-.93.33-4.9.94-9.78,2.46-14.63,4.48-2.2.91-4.38,1.92-6.56,2.98,1.1-1.21,5.67-2.96,7.5-4.42,1.44-.86,2.11-1.53.92-1.04,2.03-1.11,1.65-.55,3.3-1.57l-.46.52c.59-.25,1.28-.45,2-.86l.73-.65c2.18-.79,3.11-1.83,5.44-2.75-1.54.54.61-.45.36-.55.38-.08,1.76-.69,1.33-.4,1.93-.86,3.52-2.06,4.76-2.24l.66-.42c1.14-.68,2.17-.98,3.31-1.41l.1-.19c.71-.39,2.07-.97,2.76-1.13,1.96-.8,4.29-2.07,6.26-3.05,2.07-.69,1.04-.72,2.84-1.5,1.2-.36,3.16-1.32,3.93-1.41-1.62.64-1.71,1.07-3.44,1.65.7-.13-2.83,1.24-1.25.82,1.58-.77,3.42-1.48,5.22-2.17,1.82-.65,3.61-1.27,5.08-1.94-.12.38,3.89-.96,5.23-1.43l.11.07c1.19-.28,2.05-.44,3.92-1.04.41-.14.89-.18,1.21-.42,1.01.06,1.05,0,1.45-1,.1-.25.24-.41.47-.5.2-.07.36-.21.29-.42-.25-.75-.64-1.47-.62-2.3-.97-.63-1.06-1.67-1.22-2.67-.09-.57-.34-.95-.94-1.12-.67-.19-1.28-.59-1.53-1.24-.27-.71-.78-.89-1.42-1-1.04-.19-2.08-.4-3.11-.65-.23-.06-.68-.1-.59-.45.18-.7-.28-.56-.64-.59-1.11-.11-2.22-.2-3.32-.06-.85.11-1.35-.12-1.36-1.21-.5.52-.78.87-1.45.68-2.83-.8-5.72-.71-8.62-.4-2.74.29-5.42.92-8.13,1.42-6.36,1.16-12.68,2.53-18.92,4.2-.61.16-1.21.24-1.54.91-.11.24-.45.36-.82.09.44-.85,1.12-1.53,1.71-2.26,3.29-3.98,6.58-7.96,9.91-11.9.59-.7.66-1.32.31-2.11-.35-.8-.89-1.49-1.35-2.22-.57-.91-.58-.96.33-1.6,1.59-1.11,3.35-1.91,5.13-2.64,1.42-.59,2.89-1.05,4.28-1.74,6.54-3.26,13.55-5.29,20.47-7.47,5.61-1.77,11.47-2.61,17.27-3.63,1.9-.33,3.81.19,5.71-.06.33-.04.74.08,1.05.41-1.06,1.91-2.12,3.74-3.36,5.47-1.16,1.62-2.5,3.08-4.12,4.24-.69.49-1.14,1.04-1.14,1.87,0,.68-.35,1.02-.87,1.35-.94.6-1.77,1.34-2.58,2.1-.21.2-.56.38-.52.66.1.81-.54,1.06-.99,1.44-.63.52-1.38.9-1.94,1.51-.33.36-.71.71-.7,1.34,1.3-.42,2.17-1.27,3.15-1.96.72-.51,1.36-1.17,2.32-1.22-.14.33-.63.37-.67.82.8.5,1.16-.66,1.85-.6q0,.88-1.16,1.89c1.22-.18,2.1-.85,3.03-1.43,1.02-.64,2.02-1.34,3.32-1.27.41.02.72-.25,1.05-.43,2.31-1.3,4.68-2.5,7.24-3.24.34-.1.62-.26.85-.52,1.56-1.71,3.69-2.75,5.21-4.57.83-.99,1.48-2.06,2.19-3.1.32-.47.29-1.09.18-1.69Zm-29.14,59.95s.04.08.06.13c-.06.03-.12.08-.18.09-.02,0-.04-.08-.06-.13.06-.03.12-.08.18-.09Zm-23.62,9.48s.04.1.06.14c-.03.04-.06.08-.08.12-.02-.05-.06-.1-.05-.14s.05-.08.08-.12Zm-48.99,5.84c-.07.12-.17.23-.25.3-.09.09-.19.16-.29.25.03-.04.05-.08.09-.12.14-.16.29-.3.44-.43Zm78.2-62.57c-.18.27-.41.35-.74.24.15-.32.34-.51.67-.46.13.02.14.11.07.22Zm2.48,1.74c-.17-.01-.15-.19-.09-.32.09-.21.12-.47.43-.44.14.01.26.09.22.3-.08.25-.24.48-.56.46Z"/><path class="cls-3" d="m842.51,104.62c-.43.09-.85.18-1.26.27l.04-.05s-.06,0-.09,0c.01.02.03.02.04.04-.91.89-2.01,1.54-3.01,2.32-.37.29-.81.6-1.26.67-1.36.22-2.01,1.38-3.04,2.03,2.28-.34,7.56-3.65,8.58-5.29Z"/><path class="cls-3" d="m837.11,104.89c-2.02,1.04-3.93,2.01-5.61,3.88,3.3-1.23,4.92-2.36,5.61-3.88Z"/><path class="cls-3" d="m839.48,101.84c-2.04,1.22-4.05,2.47-5.84,4.04,2.25-1.07,4.44-2.24,6.2-4.07-.13,0-.26-.02-.35.03Z"/><path class="cls-3" d="m842.36,102.94c-1.7.67-2.61,1.41-3.15,2.56.09,0,.19.02.28,0,.5-.1.67-.65,1.12-.83.32-.79,1.51-.74,1.75-1.73Z"/><path class="cls-3" d="m840.61,104.67s-.02.02-.02.04c.03-.01.04,0,.07-.01-.01-.01-.02-.02-.04-.03,0,0,0,0-.01,0Z"/><path class="cls-3" d="m832.2,106.69c-1.05.47-1.99.94-2.85,1.87,1.61-.54,2.12-.88,2.85-1.87Z"/><path class="cls-3" d="m833.02,110.66c-.74.25-1.4.41-1.81,1.14q1.25-.26,1.81-1.14Z"/><path class="cls-3" d="m845.28,96.79c-.05-.08-.12-.23-.15-.22-.3.06-.53.2-.59.53-.01.07.09.15.13.22.22-.16.56-.18.6-.53Z"/><path class="cls-3" d="m829.29,110.33s.14.09.19.08c.22-.07.43-.17.47-.44-.07-.03-.16-.12-.2-.09-.19.12-.43.2-.46.46Z"/><path class="cls-3" d="m830.85,109.03c-.12.08-.22.17-.33.26.09.02.19.03.31.05.1-.02.28.01.23-.22-.03-.12-.12-.15-.21-.09Z"/><path class="cls-3" d="m838.56,105.78c-.08-.04-.17-.12-.25-.12-.08,0-.22.08-.22.12,0,.17.16.19.29.16.07-.02.12-.11.18-.17Z"/><path class="cls-3" d="m840.66,104.69c.15.17.34.18.54.16-.14-.2-.32-.25-.54-.16Z"/><path class="cls-3" d="m843.88,97.84c-.09-.02-.18-.05-.26-.05-.04,0-.07.05-.11.08.07.04.14.11.21.11.05,0,.11-.09.16-.14Z"/><polygon class="cls-3" points="834.44 108.42 834.41 108.35 834.36 108.42 834.44 108.42"/><path class="cls-3" d="m837.01,106.63c-.84.1-1.46.55-1.95,1.19.72-.29,1.63-.29,1.95-1.19.07-.03.13-.06.2-.09-.04-.04-.08-.07-.13-.11l-.07.2Z"/><path class="cls-3" d="m839.91,101.76s-.03.02-.04.02c0,0-.02.02-.03.03.02,0,.05,0,.07,0,0-.02,0-.04,0-.05Z"/><path class="cls-3" d="m839.94,101.6c0,.05-.02.11-.03.16.06-.03.11-.06.17-.09-.05-.03-.1-.05-.14-.08Z"/><path class="cls-3" d="m197.18,193.28c-.72.24-.92,1.04-1.33,1.62-.42.59-.79,1.25-1.37,1.67-.22.17-.54.28-.59-.24-.03-.26.41-.6-.04-.75-.28-.1-.49.23-.67.49-.25.37-.31.81-.35,1.26-.04.47-.35.82-.65.52-.4-.41-1.16.09-1.28-.63-.11-.64.53-.89.87-1.29,5.02-5.95,11.36-9.79,17.38-14.12,6.05-4.36,12.36-8.22,18.73-11.93,18.69-10.89,38.14-19.73,57.79-28.01,2.83-1.19,5.63-2.51,8.52-3.47,4.56-1.52,9.07-3.17,13.42-5.36.26-.13.52-.22.78-.35.48-.24.25-.39-.06-.5-.98-.36-1.84-1.29-3-.88-.29.1-.53,0-.78-.2-.77-.61-1.67-.66-2.56-.72-.56-.04-1.15.03-1.67-.16-3.05-1.1-6.21-1.28-9.36-1.59-.11-.01-.25.04-.33-.02-2.2-1.66-4.75-.94-7.13-1.4-.44-.08-.88-.03-1.31-.27-2.19-1.24-4.6-1.54-6.96-1.98-1.66-.31-3.29-.69-4.84-1.46-.5-.25-1.01-.59-1.59-.2-.25.17-.54.09-.8-.06-1.82-1.08-3.83-1.32-5.79-1.85-1.63-.44-3.05-1.52-4.56-2.24-4.24-2.04-5.78-6.44-7.71-10.51-1.41-2.97-2.51-6.12-3.77-9.18-.23-.55-.38-1.05-.18-1.64.08-.24.17-.51.14-.74-.32-2.47,1.05-3.8,2.49-5.21,5.46-5.36,11.83-8.91,18.34-12.15,4.09-2.04,8.2-4.06,12.35-5.93,4.01-1.81,8.22-2.85,12.4-4,4.23-1.17,8.49-2.23,12.71-3.46,2.06-.6,4.24-.28,6.32-.82,2.36-.61,4.78-.61,7.16-.56,3.66.08,7.19,1.04,10.3,3.37,1.28.96,2.02,2.53,2.63,4.13.73,1.88,1.13,3.87,1.64,5.83.46,1.78,1.06,3.49,1.93,5.08.77,1.41.42,3.08.59,4.62.08.72-.57,1.13-1.2.69-1.61-1.12-3.48-1.47-5.18-2.36-3.71-1.94-7.75-2.05-11.7-1.46-13.21,2-26.21,5.03-38.59,10.91-4.23,2.01-8.38,4.21-12.41,6.71-.33.21-.93.35-.88.76.07.47.68.49,1.08.65,1.97.78,4.02,1.09,6.06,1.43,7.52,1.27,14.98,2.87,22.45,4.45,4.89,1.04,9.78,1.99,14.68,2.93,3.19.61,6.27,1.84,9.48,2.42,1.69.3,3.43.32,4.97,1.42.72.51,1.66.15,2.46.47,1.66.66,3.1,1.7,4.34,3.16,1.66,1.96,3.19,4.18,3.76,6.72.57,2.54,1.75,4.66,2.54,7.02.18.53.32,1.09.44,1.64.71,3.21.54,3.64-1.91,5.43-5.46,3.99-11.5,6.5-17.57,8.89-4.75,1.87-9.47,3.84-14.18,5.82-3.71,1.56-7.58,2.62-11.3,4.19-3.09,1.3-6.23,2.44-9.35,3.62-1.43.54-2.96,1.09-4.17,2.29-.16.16-.39.23-.59.31-5.03,2.03-9.87,4.64-14.89,6.71-.84.34-1.65.8-2.41,1.33-.8.56-1.48.97-2.45.35-.65-.42-.79-.18-.89.79-.06.58-.54.6-.67.25-.34-.9-.85-.65-1.35-.41-1.14.55-2.46.69-2.92,2.52-.16.63-1.36.97-2.13,1.33-.43.2-.84-.23-1.23-.47-.29-.17-.53-.45-.89-.45.03.65-.76.79-.69,1.54.06.59-.04.61-.62.26-.18-.11-.41-.12-.45.02-.32,1.08-1.1.79-1.8.91-.76.13-1.47.88-2.23.75-1.22-.21-1.06,1.12-1.63,1.6.51.96-.3,1.1-.72,1.3-1.63.77-3.11,1.85-4.67,2.76-.2.12-.39.32-.57.08-.04-.05.2-.4.34-.58.14-.19.42-.43.31-.6-.22-.32-.5-.05-.72.14-.79.68-1.44,1.64-2.56,1.7-.11,0-.3.09-.3.1.35,2.12-1.24.86-1.83,1.34-.4.33-1.02.17-.94,1.19.06.78-.8,1.02-1.21.55-.75-.86-1.36-.27-1.68.22-.7,1.08-1.95.45-2.65,1.32-.03.03-.18-.07-.27-.11.06-.17.1-.35.18-.5.23-.42,1.05-.76.86-.96-.47-.5-1.01.16-1.48.43-.4.23-.8.55-.44,1.2.05.09.02.23.03.35-1.48-.66-.76,1.85-1.91,1.73-.29-.03-.65.4-.9-.03-.66-1.15-1.48-.49-1.74.12-.97,2.19-2.76,1.77-4.33,1.98-.82.11-1.54.11-1.91,1.12-.08.21-.31.37-.49.52-.58.48-1.59.34-1.7,1.52-.79-.01-1.33.56-1.91,1.04-.5.41-.83.36-.76-.48.56.01,1.04-.15,1.35-.73l.02.05c-.61-.24-1.06.09-1.47.56-.19.03-.38.05-.57.08-.29,0-.3-.26-.36-.48l-.07-.04h.08c.22.08.32.28.39.5-.11.45.31.83.12,1.29-.17.41-.35.93-.8.84-.53-.11-.13-.62-.13-.93,0-.54-.25-.98-.38-1.46-.13-.47-.22-1.04-.85-.95-.52.08-.95.22-1.16.88-.53,1.64-2.28,1.66-3.11,2.96-.09.14-.37.03-.47-.3-.38-1.37-.93-1.57-1.91-.75-.36.3-.74.57-1.12.83-.23.16-.53.39-.77.14-.28-.31.24-.66.07-1.02.24.08.44-.03.59-.22.12-.15.45-.28.17-.57-.04-.04-.29.11-.4.23-.16.16-.36.3-.33.6-.21-.04-.44-.03-.64-.12-.28-.12-.43-1.83-.85-.06-.03.11-.49.09-.75.12-.22.02-.27-.26-.14-.74.21.07.41.06.54-.17,0-.01-.07-.12-.11-.12-.22-.03-.43-.03-.41.34-.07-.26-.42-.44-.13-.81,1.26-1.6,2.39-3.42,4.32-4.01.98-.3,1.06-1.37,1.65-1.97.26-.27.25-.77.74-.91,2.38-.67,3.73-3.09,5.71-4.46.09-.06.06-.35.09-.54.11,0,.22-.01.33,0,.32.04.73.26.86-.23.1-.38-.15-.74-.48-.91-.28-.14-.6-.53-.89-.19-.3.34.04.69.17,1.02.04.11.05.24.08.37-1.23.36-2.5.63-3.57,1.51-.08.07-.3.06-.31.1-.13,2.32-1.9,1.78-3.06,2.29-.26.11-.53.2-.79.29l.04.05c-.08-.23-.16-.46-.24-.7-.42.21-.8.45-.9,1.02l.03.04Zm69.76-23.73c.08-.02.26.29.25-.09-.09.05-.19.1-.28.14.19-.27.14-.59.14-.9.09-.08.18-.14.25-.23.11-.13.2-.27.3-.41-.09-.03-.18-.11-.26-.1-.19.04-.22.24-.24.42-.01.12,0,.25,0,.37-.21-.13-.52-.17-.59.06-.1.34.26.5.43.74Zm-66.53,32.04c.52-.05,1.26-.32,1.11-.84-.36-1.24.49-1.32,1-1.71.37-.29.72-.59,1.01-.97.14-.18.31-.4.1-.65-.28-.33-.51-.15-.67.15-.3.57-.73,1.12-1.27,1.13-1.21.01-1.31,1.59-2.28,1.91-.3.1-.07.43.08.58.25.26.54.44.9.41Zm9.86-3.78c.44-.02.93.03,1.09-.61.04-.16.02-.44-.08-.52-.43-.35-.84.03-1.25.13-.26.06-.59.3-.56.62.05.52.5.3.79.37Zm9.96-9.13c-.05-.11-.12-.28-.21-.43-.13-.21-.3-.11-.39.03-.38.57-1.42.97-1.11,1.6.3.61.65-.74,1.24-.65.26.04.57-.02.47-.55Zm56.52-24.56c.74-.03,1.31-.25,1.84-.61.18-.12.48-.27.39-.53-.15-.42-.47-.14-.69-.05-.53.19-1.04.44-1.54.69-.13.07-.22.24-.33.36.15.06.29.13.34.15Zm-67.13,22.39c-.19-.14-.38-.33-.59-.41-.34-.11-.8-.39-.97.17-.11.36-.08.95.38,1.05.46.11.81-.25,1.18-.81Zm4.63,7.49c-.04-.47-.27-.57-.48-.51-.65.21-.94.82-1.14,1.49-.05.17.15.45.2.33.3-.73,1.15-.71,1.42-1.31Zm-18.35,6.92c.46-.08.7-.48.75-.89.05-.44-.38-.56-.68-.57-.48-.02-.41.46-.43.81-.02.31,0,.63.36.65Zm74.99-34.16c.1-.27-.09-.37-.24-.36-.52.04-.94.34-1.28.79-.1.13-.05.19.09.28.36.21,1.3-.24,1.42-.71Zm-12.72,6.08s-.04-.13-.07-.13c-.47-.08-.84.23-1.23.41-.19.09-.48.13-.48.44,0,.22.19.22.36.15.41-.19.83-.36,1.24-.56.08-.04.13-.2.19-.3Zm-30.06,12.56c.01-.28-.14-.34-.3-.36-.42-.04-.87-.12-1.09.43-.06.14.06.37.26.4.46.07.83-.14,1.13-.48Zm14.81-4.57c.26-.16.66-.2.83-.66.09-.24-.08-.35-.23-.37-.42-.06-.73.17-.91.6-.08.19.05.33.3.43Zm-5.02,2.5c-.23-.15-.47-.26-.74-.14-.14.06-.32.12-.28.36.08.49.37.28.6.21.19-.06.4-.13.43-.44Zm-25.35,1.3c.21-.08.44-.15.48-.44,0-.03-.27-.16-.41-.17-.17-.02-.33.09-.36.3-.03.22.09.33.29.31Zm66.67-20.05c-.09-.13-.17-.31-.3-.39-.14-.1-.35-.07-.41.13-.05.19.09.35.25.42.16.07.32.05.45-.15Zm-49.94,23.39c-.23.05-.41.19-.4.46,0,.06.27.13.42.14.16,0,.32-.09.3-.31-.02-.2-.15-.29-.33-.29Zm20.44-10.68c-.01-.11,0-.3-.05-.31-.25-.08-.52-.07-.74.11-.16.13-.12.3.06.36.26.09.51.05.73-.17Zm8.92-5.22c-.07.24.07.34.23.38.24.06.41-.1.55-.29.11-.16.09-.35-.1-.38-.26-.04-.54-.07-.67.29Zm-32.38,17.92c-.06-.14-.17-.19-.27-.09-.15.14-.28.31-.42.47.1.04.2.12.29.1.21-.06.34-.24.41-.48Zm-25.38,5.16c-.18.02-.28.15-.31.33-.06.36.18.4.38.36.14-.03.28-.17.23-.39-.04-.17-.09-.34-.29-.3Zm80-31.25c-.04-.15-.07-.26-.1-.37-.14.05-.3.07-.41.16-.17.14-.1.3.08.32.14.01.28-.07.43-.12Zm-79.58,33.88c.15-.13.39-.24.46-.43.09-.23-.14-.24-.28-.21-.22.05-.39.2-.47.46,0,.02.15.1.28.18Zm7.55.24c-.08-.06-.16-.17-.25-.17-.18,0-.34.07-.27.33.02.09.14.22.19.21.16-.04.32-.12.33-.36Zm6.63-4.77c.33.11.42-.06.44-.25.01-.11-.07-.22-.11-.34-.14.08-.32.12-.4.24-.12.19.02.33.07.35Zm27.9-27.86c-.06-.1-.11-.21-.18-.3-.11-.13-.22-.11-.25.07-.01.1.05.26.13.3.07.04.2-.04.3-.06Zm-45.58,35.36c.09-.05.21-.08.25-.16.03-.07-.03-.2-.06-.3-.08.06-.18.1-.25.18-.1.11-.07.21.06.28Zm64.25-29.72c.03-.22-.05-.37-.24-.36-.09,0-.2.1-.25.2-.11.18-.06.35.12.41.18.06.3-.06.37-.25Zm-50.51,24.42c.07.11.16.25.25.38.09-.14.23-.28.24-.43.01-.15-.08-.43-.16-.45-.28-.06-.26.25-.33.5Zm41.45-23.77c.06-.14.15-.29.18-.45.04-.22-.09-.3-.26-.26-.15.04-.3.14-.24.36.02.08.12.14.32.35Zm-46.08,27.7l.25-.12c-.05-.07-.09-.19-.14-.2-.08,0-.17.07-.25.11.05.07.09.14.14.21Zm.95-1.72c-.04-.08-.06-.22-.12-.23-.08-.02-.19.02-.28.07-.14.08-.14.18,0,.27.15.09.29.08.4-.1Zm-8.03-.86c-.03-.1-.07-.2-.1-.3-.04.02-.1.04-.11.07,0,.1-.02.21.01.29.05.1.14.07.2-.06Zm14.78-.67s.07.12.1.11c.08-.02.16-.07.24-.11-.03-.04-.07-.12-.09-.12-.09.03-.17.08-.25.12Zm5.57-5.81c-.02.11-.06.21-.05.3.03.17.12.18.19.02.02-.04.03-.12.01-.15-.04-.06-.1-.11-.16-.17Zm5.4-3.37s-.07-.12-.1-.11c-.09.02-.17.07-.25.11.03.04.08.11.1.11.09-.02.17-.07.25-.1Zm7.69-1.18s.08.13.11.12c.1-.02.19-.07.28-.1-.04-.04-.08-.13-.11-.12-.1.02-.19.07-.28.1Zm2.07-1.2c-.05.09-.14.18-.15.28,0,.08.09.17.14.26.05-.09.15-.17.15-.26,0-.09-.09-.19-.14-.28Zm-4.38-.32s-.07-.13-.1-.12c-.09.02-.18.07-.27.1.03.04.07.13.1.12.09-.02.18-.07.27-.1Zm-7.72-7.65c.1.04.2.09.29.11.03,0,.07-.08.11-.13-.07-.06-.14-.17-.21-.16-.06,0-.13.12-.19.18Zm4.04-1.74c-.09.06-.18.12-.26.17.04.05.06.11.11.13.13.05.23,0,.25-.16,0-.04-.06-.1-.1-.15Zm39.04-4.44s-.07-.09-.1-.13c-.04.04-.08.08-.12.11.05.05.1.09.15.14.02-.04.04-.08.06-.12Zm-18.58,7.56l-.07.12h.12s-.05-.12-.05-.12Zm-30.52,3.84s-.07-.07-.09-.06c-.04.02-.1.08-.1.1.05.14.12.16.18.07.02-.02,0-.07,0-.11Zm11.13,7.01s-.06-.11-.1-.11c-.03,0-.07.06-.11.1.03.04.06.11.1.11.03,0,.07-.06.11-.1Z"/></svg>