<?xml version="1.0" encoding="UTF-8"?>
<svg id="Layer_1" data-name="Layer 1" xmlns="http://www.w3.org/2000/svg" viewBox="0 0 444.33 259.29">
  <defs>
    <style>
      .cls-1 {
        fill: #0066b3;
      }

      .cls-2 {
        fill: #ed1c24;
      }

      .cls-3 {
        fill: #fff;
      }

      .cls-4 {
        fill: #999899;
      }
    </style>
  </defs>
  <path class="cls-4" d="M211.01,82.31c7.68,0,15.13.7,22.25,2l16.94-17.64c-11.84-4.1-25.14-6.4-39.18-6.4-23.89,0-45.58,6.66-61.66,17.51l14.75,13.98c13.65-5.98,29.7-9.44,46.91-9.44"/>
  <path class="cls-3" d="M211.01,60.27c14.05,0,27.34,2.3,39.18,6.4l18.4-19.17c-17.17-6.77-36.77-10.62-57.59-10.62-31.04,0-59.36,8.54-80.97,22.59l19.31,18.3c16.08-10.84,37.77-17.5,61.66-17.5"/>
  <path class="cls-4" d="M122.61,135.26c1.55-6.32,4.41-12.33,8.35-17.87l-7.41-7.5c-1.48,4.61-2.29,9.42-2.29,14.35,0,3.76.48,7.44,1.35,11.02"/>
  <path class="cls-4" d="M67.81,176.73l-3.11,16.14,30.98-13.34c-1.96-4.11-2.34-9.47-3.47-13.84l-24.39,11.03h0Z"/>
  <polygon class="cls-4" points="46.01 1.19 1.17 246.72 22.38 248.45 66.77 -.66 46.01 1.19 46.01 1.19"/>
  <path class="cls-2" d="M196.78,142.48v-19.86l-32.56-30.87-14.75-13.99-19.31-18.29L66.7-.66,22.29,248.45l93.98-41.32c-9.36-8.26-16-17.07-20.91-27.45l-30.6,13.12,3.07-16.06,19.82-103.32,1.66-8.67,16.36,16.48,21.05,21.21,9.05,9.11,37.17,32.02-36.09,16.53c9.38,9.37,20.47,17.61,35.44,22.27l45.02-20.22-20.53-19.68h0Z"/>
  <path class="cls-4" d="M299.4,135.26c.87-3.58,1.36-7.26,1.36-11.02,0-11.09-4.06-21.55-11.04-30.65l-10.68,11.07c10.25,8.54,17.55,19.06,20.36,30.6"/>
  <path class="cls-4" d="M319.5,240.36l-25.33-24.34c-4.05,2.77-8.38,5.33-12.91,7.69l38.24,36.72,117.94-122.84-.13-19.89-117.81,122.66h0Z"/>
  <path class="cls-4" d="M233.55,157.85l-20.85-20.03-15.97-15.24-.06,19.91,22.45,21.56,21.46,20.6c5.44-1.36,10.66-3.07,15.57-5.11l-22.59-21.69h0Z"/>
  <polygon class="cls-4" points="315.56 46.76 298.77 64.24 280.25 83.54 267.63 96.68 243.7 121.6 253.72 131.22 279.18 104.71 289.83 93.63 309.32 73.32 315.56 66.82 380.42 128.99 390.45 118.58 315.56 46.76 315.56 46.76"/>
  <path class="cls-3" d="M309.32,73.32l-19.49,20.3c6.97,9.09,10.94,19.52,10.94,30.61,0,3.76-.49,7.44-1.36,11.02-2.28,9.34-7.39,17.98-14.68,25.45-7.48,7.66-17.23,14.1-28.57,18.82-4.91,2.03-10.13,3.75-15.57,5.11-9.26,2.29-19.21,3.56-29.57,3.56-12.76,0-24.89-1.9-35.87-5.32-14.97-4.67-27.8-12.15-37.18-21.52-3.42-3.41-6.38-7.08-8.82-10.96-3-4.77-5.23-9.84-6.53-15.15-.87-3.58-1.35-7.26-1.35-11.02,0-4.93.81-9.74,2.29-14.35l-22.4-22.67c-8.2,12.16-12.83,25.87-12.83,40.38,0,3.74.34,7.41.94,11.03,1.44,8.77,4.58,17.15,9.16,24.96,2.29,3.93,4.96,7.7,7.95,11.32,7.88,9.51,18.04,17.85,29.94,24.62,20.68,11.77,46.57,18.77,74.69,18.77,19.67,0,38.25-3.42,54.73-9.51,5-1.84,9.8-3.93,14.38-6.26,10.63-5.37,20.04-11.94,27.91-19.45,13.2-12.6,22.01-27.83,24.74-44.46.6-3.61.93-7.29.93-11.03,0-20.35-9.06-39.14-24.37-54.27"/>
  <path class="cls-1" d="M233.45,158l22.51,21.62c11.34-4.72,21.17-11.09,28.65-18.75l-30.86-29.64-10.02-9.62,23.79-24.78,12.62-13.14,18.52-19.3,16.79-17.48,74.71,71.73-10.03,10.44-61.21,63.73c-6.44,8.84-14.8,16.67-24.69,23.43l25.14,24.27,117.94-122.83L314.49-.26l-46,47.91-18.41,19.17-16.94,17.65-36.42,38.11,36.72,35.43h0Z"/>
  <path class="cls-4" d="M129.65,151.02s.58.97.65,1.08c1.8,2.86,4.28,5.49,6.62,8.1l36.69-16.95-84.32-78.53-2.31,12.15,66.16,65.5-23.51,8.66h0Z"/>
  <path class="cls-4" d="M333.69,127.6c0,3.74-.34,7.41-.93,11.03-2.73,16.63-11.54,31.87-24.74,44.47-7.87,7.51-17.28,14.08-27.91,19.45-4.58,2.32-9.38,4.41-14.38,6.26-16.47,6.08-35.05,9.51-54.73,9.51-28.12,0-54.01-7.01-74.69-18.78-11.9-6.77-22.07-15.11-29.94-24.62-3-3.62-5.67-7.4-7.96-11.33-4.58-7.81-7.72-16.19-9.16-24.96-.59-3.61-.94-7.29-.94-11.03,0-1.17.08-2.34.15-3.49-.01-.07-.03-.15-.04-.21-.6,3.62-.11,22.02-.11,25.75,0,5.92.79,11.69,2.26,17.3,1.13,4.36,2.7,8.62,4.66,12.73,4.92,10.38,12.31,19.9,21.68,28.17,22.51,19.87,56.3,32.51,94.1,32.51,26.23,0,50.5-6.1,70.44-16.46,4.53-2.36,8.84-4.93,12.89-7.7,9.88-6.76,18.26-14.71,24.7-23.54,9.34-12.79,14.65-27.44,14.65-43.01,0-3.29.28-18.85-.03-25.02-.05-.85.03,1.9.03,2.97"/>
</svg>