<?xml version="1.0" encoding="UTF-8"?>
<svg id="Layer_1" xmlns="http://www.w3.org/2000/svg" version="1.1" viewBox="0 0 322.7 87.9">
  <!-- Generator: Adobe Illustrator 29.2.1, SVG Export Plug-In . SVG Version: 2.1.0 Build 116)  -->
  <defs>
    <style>
      .st0 {
        fill: #a29e9e;
      }

      .st1 {
        fill: #fff;
      }

      .st2 {
        fill: #e30613;
      }

      .st3 {
        fill: #005ca9;
      }
    </style>
  </defs>
  <polygon class="st1" points="150.4 19.3 181.9 19.3 178.9 31.4 163.8 31.4 162.3 37.8 178.1 37.8 175.4 49 159.8 49 156 65 139.7 65 150.4 19.3 150.4 19.3"/>
  <polygon class="st1" points="186.2 19.3 202.5 19.3 191.9 65 175.6 65 186.2 19.3 186.2 19.3"/>
  <path class="st1" d="M218.8,41.1c5.2,0,8.9-3.1,8.9-7.5s-1.7-3.5-5.1-3.5-1.5,0-2.5.3l-2.5,10.6c.5,0,.6.1,1.2.1h0ZM206.8,19.5h1c5.2-.8,11.7-1.2,15.3-1.2,6,0,10.6.7,14.1,2.1,4.5,1.9,7.2,5.9,7.2,10.8s-1.4,8.2-4.1,11.3c-2.3,2.7-4.4,4-8.7,5.3l-1,.3c.4.3.6.5.8.7,1.3,1.4,5.1,8.9,8.3,16.2h-17.9c-2.3-6.5-3-8.2-6.1-15.7l-3.6,15.7h-15.9l10.5-45.5h0Z"/>
  <polygon class="st1" points="283.2 19.3 322.7 19.3 319.9 32.5 308.2 32.5 300.4 65 284.1 65 291.9 32.5 279.2 32.5 283.2 19.3 283.2 19.3"/>
  <path class="st1" d="M308,60.7c.4,0,.6-.2.6-.5s-.2-.5-.5-.5,0,0-.2,0v.9c0,0,0,0,.2,0h0ZM306.5,58.8c.2,0,.2,0,.6,0,.4,0,.6,0,.7,0,1.3,0,2,.5,2,1.5s-.2.9-.8,1.1h0s0,0,0,0c.1.1.6.8,1,1.4h-1.5c-.3-.6-.4-.7-.8-1.4v1.4h-1.3v-4h0ZM308.1,64.3c1.9,0,3.5-1.6,3.5-3.5s-1.6-3.5-3.5-3.5-3.5,1.6-3.5,3.5,1.5,3.5,3.5,3.5h0ZM308.1,56.9c2.2,0,4,1.8,4,4s-1.8,4-4,4-4-1.7-4-4,1.8-4,4-4h0Z"/>
  <path class="st1" d="M274.1,40.7c-1.9-1.5-3.8-2.7-7.8-4.5l-3.2-1.5c-1-.5-1.6-1.1-1.6-1.7,0-1.6,2.1-2.9,4.9-2.9s4.7.6,9.5,2.2l3.3-12.4c-3.6-1-7.1-1.5-10.7-1.5-13.3,0-23.6,7.3-23.6,16.7s3.3,8.4,11.5,12.3c3.9,1.8,4.6,2.3,4.6,3.5,0,1.9-2,3-5.3,3s-6.7-.9-11.7-2.7h0s-3.6,12.8-3.6,12.8c4.6,1.4,9.6,2.1,14.3,2.1s11.2-1.4,15.4-4.5c4.6-3.3,7.6-8.4,7.6-13s-1.3-5.9-3.7-7.9h0Z"/>
  <path class="st0" d="M67.8,26.8c2.5,0,4.9.2,7.2.6l5.5-5.7c-3.8-1.3-8.1-2.1-12.7-2.1-7.7,0-14.7,2.2-19.9,5.7l4.8,4.5c4.4-1.9,9.6-3.1,15.2-3.1h0Z"/>
  <path class="st1" d="M67.8,19.7c4.5,0,8.8.7,12.7,2.1l5.9-6.2c-5.6-2.2-11.9-3.4-18.6-3.4-10,0-19.2,2.8-26.2,7.3l6.2,5.9c5.2-3.5,12.2-5.7,19.9-5.7h0Z"/>
  <path class="st0" d="M39.2,43.9c.5-2,1.4-4,2.7-5.8l-2.4-2.4c-.5,1.5-.7,3-.7,4.6s.2,2.4.4,3.6h0Z"/>
  <path class="st0" d="M21.5,57.3l-1,5.2,10-4.3c-.6-1.3-.8-3.1-1.1-4.5l-7.9,3.6h0Z"/>
  <polygon class="st0" points="14.5 .6 0 79.9 6.9 80.5 21.2 0 14.5 .6 14.5 .6"/>
  <path class="st2" d="M63.2,46.3v-6.4l-10.5-10-4.8-4.5-6.2-5.9L21.2,0,6.8,80.5l30.4-13.4c-3-2.7-5.2-5.5-6.8-8.9l-9.9,4.2,1-5.2,6.4-33.4.5-2.8,5.3,5.3,6.8,6.9,2.9,2.9,12,10.3-11.7,5.3c3,3,6.6,5.7,11.5,7.2l14.5-6.5-6.6-6.4h0Z"/>
  <path class="st0" d="M96.4,43.9c.3-1.2.4-2.3.4-3.6,0-3.6-1.3-7-3.6-9.9l-3.5,3.6c3.3,2.8,5.7,6.2,6.6,9.9h0Z"/>
  <path class="st0" d="M102.9,77.9l-8.2-7.9c-1.3.9-2.7,1.7-4.2,2.5l12.4,11.9,38.1-39.7v-6.4s-38.1,39.6-38.1,39.6h0Z"/>
  <path class="st0" d="M75.1,51.2l-6.7-6.5-5.2-4.9v6.4s7.2,7,7.2,7l6.9,6.7c1.8-.4,3.4-1,5-1.7l-7.3-7h0Z"/>
  <polygon class="st0" points="101.6 15.3 96.2 21 90.2 27.2 86.1 31.5 78.4 39.5 81.6 42.6 89.8 34.1 93.3 30.5 99.6 23.9 101.6 21.8 122.6 41.9 125.8 38.5 101.6 15.3 101.6 15.3"/>
  <path class="st1" d="M99.6,23.9l-6.3,6.6c2.3,2.9,3.5,6.3,3.5,9.9s-.2,2.4-.4,3.6c-.7,3-2.4,5.8-4.7,8.2-2.4,2.5-5.6,4.6-9.2,6.1-1.6.7-3.3,1.2-5,1.7-3,.7-6.2,1.2-9.6,1.2s-8-.6-11.6-1.7c-4.8-1.5-9-3.9-12-7-1.1-1.1-2.1-2.3-2.8-3.5-1-1.5-1.7-3.2-2.1-4.9-.3-1.2-.4-2.3-.4-3.6s.3-3.1.7-4.6l-7.2-7.3c-2.6,3.9-4.1,8.4-4.1,13s.1,2.4.3,3.6c.5,2.8,1.5,5.5,3,8.1.7,1.3,1.6,2.5,2.6,3.7,2.5,3.1,5.8,5.8,9.7,8,6.7,3.8,15.1,6.1,24.1,6.1s12.4-1.1,17.7-3.1c1.6-.6,3.2-1.3,4.6-2,3.4-1.7,6.5-3.9,9-6.3,4.3-4.1,7.1-9,8-14.4.2-1.2.3-2.4.3-3.6,0-6.6-2.9-12.6-7.9-17.5h0Z"/>
  <path class="st3" d="M75.1,51.3l7.3,7c3.7-1.5,6.8-3.6,9.3-6.1l-10-9.6-3.2-3.1,7.7-8,4.1-4.2,6-6.2,5.4-5.6,24.1,23.2-3.2,3.4-19.8,20.6c-2.1,2.9-4.8,5.4-8,7.6l8.1,7.8,38.1-39.7L101.3.1l-14.9,15.5-5.9,6.2-5.5,5.7-11.8,12.3,11.9,11.4h0Z"/>
  <path class="st0" d="M41.5,49s.2.3.2.3c.6.9,1.4,1.8,2.1,2.6l11.9-5.5-27.2-25.4-.7,3.9,21.4,21.2-7.6,2.8h0Z"/>
  <path class="st0" d="M107.5,41.4c0,1.2-.1,2.4-.3,3.6-.9,5.4-3.7,10.3-8,14.4-2.5,2.4-5.6,4.6-9,6.3-1.5.8-3,1.4-4.6,2-5.3,2-11.3,3.1-17.7,3.1-9.1,0-17.5-2.3-24.1-6.1-3.8-2.2-7.1-4.9-9.7-8-1-1.2-1.8-2.4-2.6-3.7-1.5-2.5-2.5-5.2-3-8.1-.2-1.2-.3-2.4-.3-3.6s0-.8,0-1.1c0,0,0,0,0,0-.2,1.2,0,7.1,0,8.3,0,1.9.3,3.8.7,5.6.4,1.4.9,2.8,1.5,4.1,1.6,3.4,4,6.4,7,9.1,7.3,6.4,18.2,10.5,30.4,10.5s16.3-2,22.8-5.3c1.5-.8,2.9-1.6,4.2-2.5,3.2-2.2,5.9-4.8,8-7.6,3-4.1,4.7-8.9,4.7-13.9s0-6.1,0-8.1c0-.3,0,.6,0,1h0Z"/>
  <path class="st1" d="M168.5,87.6h1.7v-12.9h-1.7v12.9h0ZM183.1,78.5c-.1-2.8-2.1-4.1-4.7-4.1s-4.7,1.2-4.7,3.8,2.1,3,4.1,3.4c2.1.4,4.1.8,4.1,2.5s-1.7,2.3-3.3,2.3-3.7-.9-3.7-3.1h-1.6c0,3.1,2.4,4.5,5.3,4.5s5-1.1,5-3.8-2.1-3.2-4.1-3.7c-2.1-.5-4.1-.7-4.1-2.3s1.4-2.2,2.9-2.2,3,.8,3.2,2.6h1.6ZM188.3,80.6v-4.5h4.2c1.6,0,2.3.9,2.3,2.2,0,1.9-1.4,2.3-3,2.3h-3.6ZM186.6,87.6h1.7v-5.5h4.2c1.7,0,2,1.1,2.1,2.3.3,1.3,0,2.6.5,3.2h1.9c-.7-.9-.6-2.3-.8-3.5-.1-1.3-.4-2.4-1.9-2.6h0c1.5-.5,2.2-1.7,2.2-3.3s-1.5-3.4-3.9-3.4h-6v12.9h0ZM198.3,87.6h1.8l1.4-3.9h5.4l1.4,3.9h1.9l-5-12.9h-1.9l-5,12.9h0ZM204.2,76.3h0l2.1,6h-4.4l2.2-6h0ZM212.4,87.6h8.9v-1.4h-7.2v-4.4h6.7v-1.4h-6.7v-4.1h7.2v-1.4h-8.9v12.9h0ZM224.3,87.6h8.5v-1.4h-6.8v-11.4h-1.7v12.9h0ZM249.7,78.4c0-1.3-.7-1.9-2.1-1.9h-3.5c-.4,0-.5-.2-.5-.5v-1.7h-1.5v1.8c0,.9.1,1.4.4,1.7.3.3.8.4,1.5.4h3.5c.4,0,.6.2.6.6v1.2c0,.4-.1.9-.3,1.3-.2.4-.7.9-1.5,1.5-.8.6-1.3,1.1-1.6,1.5-.3.4-.4.9-.4,1.5s.2,1,.5,1.3c.3.3.7.5,1.2.5h.9v-1.7h-.8c-.2,0-.3,0-.3-.3,0-.3.1-.6.3-.8.2-.2.7-.7,1.4-1.3.7-.6,1.3-1.1,1.6-1.6s.5-1.1.5-1.9v-1.6h0ZM259.4,85.2l-1.4-2.3c1.7-1.1,2.5-2.6,2.5-4.4v-.7c0-.9-.4-1.4-1.2-1.4h-1.3v1.7h.8c.1,0,.2,0,.2.2h0c0,1.5-.6,2.6-1.7,3.4l-1.6-2.7-1.6-2.7h-2l1.2,2,1.2,2c-1.4,1-2.2,2.4-2.2,4.3v1.5c0,.9.4,1.4,1.2,1.4h1.3v-1.7h-.8c-.1,0-.2,0-.2-.2v-.9c0-1.4.4-2.4,1.3-3.1l1.8,3,1.8,3h2l-1.4-2.3h0ZM269.7,79.6c0-1.1-.3-1.9-.8-2.4-.5-.5-1.3-.8-2.5-.8h-4.1v1.7h3.9c.6,0,1.1.1,1.4.4.3.2.4.6.4,1.2v7.8h1.5v-8h0ZM281.8,78.5c0-.9-.1-1.4-.4-1.7-.3-.3-.8-.4-1.5-.4h-.3v1.7h.2c.4,0,.5.2.5.5v5.6c0,.6-.1,1-.4,1.2-.3.2-.8.4-1.4.4h-.6v-9.4h-1.5v9.4h-.6c-.6,0-1.1-.1-1.4-.4-.3-.2-.4-.6-.4-1.2v-5.6c0-.3.2-.5.5-.5h.2v-1.7h-.3c-.7,0-1.2.1-1.5.4-.3.3-.4.8-.4,1.7v5.9c0,1.1.3,1.9.8,2.4.5.5,1.3.8,2.5.8h2.8c1.1,0,2-.3,2.5-.8.5-.5.8-1.3.8-2.4v-5.9h0ZM287.7,79.4c0-1.1-.2-1.9-.7-2.3-.4-.5-1.2-.7-2.2-.7h-.9v1.7h.8c.5,0,.9,0,1.1.3.2.2.3.6.3,1.1v2.9h1.5v-3h0Z"/>
</svg>