<?xml version="1.0" encoding="UTF-8"?><svg id="Layer_1" xmlns="http://www.w3.org/2000/svg" viewBox="0 0 322.71 87.86"><defs><style>.cls-1{fill:#005ca9;}.cls-1,.cls-2,.cls-3,.cls-4,.cls-5,.cls-6{stroke-width:0px;}.cls-2{fill:#e30613;}.cls-3{fill:#fff;}.cls-4{fill:#a39f9e;}.cls-5{fill:#a29e9e;}.cls-6{fill:#1d1d1b;}</style></defs><polygon class="cls-6" points="150.37 19.25 181.92 19.25 178.95 31.4 163.82 31.4 162.33 37.79 178.11 37.79 175.36 49.04 159.79 49.04 156.05 65.04 139.75 65.04 150.37 19.25 150.37 19.25"/><polygon class="cls-6" points="186.21 19.25 202.51 19.25 191.89 65.04 175.59 65.04 186.21 19.25 186.21 19.25"/><path class="cls-6" d="m218.81,41.08c5.23,0,8.9-3.09,8.9-7.48,0-2.33-1.72-3.5-5.09-3.5-.97,0-1.5.07-2.54.27l-2.47,10.57c.52.07.6.14,1.2.14h0Zm-12.04-21.56l1.05-.14c5.23-.62,11.74-1.03,15.33-1.03,5.98,0,10.62.69,14.13,2.13,4.49,1.85,7.18,5.9,7.18,10.78,0,4.19-1.42,8.17-4.11,11.26-2.32,2.68-4.41,3.98-8.75,5.29l-1.05.34c.45.34.6.48.82.69,1.27,1.44,5.08,8.86,8.3,16.2h-17.95c-2.32-6.52-2.99-8.24-6.06-15.65l-3.59,15.65h-15.85l10.54-45.51h0Z"/><polygon class="cls-6" points="283.16 19.25 322.71 19.25 319.95 32.5 308.21 32.5 300.43 65.04 284.13 65.04 291.91 32.5 279.18 32.5 283.16 19.25 283.16 19.25"/><path class="cls-6" d="m307.95,60.7c.35,0,.55-.17.55-.49s-.19-.48-.54-.48c-.08,0-.09,0-.17.02v.94c.06.02.09.02.15.02h0Zm-1.43-1.91c.2-.02.23-.03.63-.06.4-.03.57-.05.74-.05,1.31,0,1.95.51,1.95,1.48,0,.58-.24.94-.77,1.14l-.06.02s.06.05.08.08c.14.12.6.82.98,1.45h-1.49c-.31-.57-.4-.72-.78-1.37v1.37h-1.28v-4.04h0Zm1.54,5.52c1.94,0,3.49-1.55,3.49-3.47s-1.55-3.49-3.49-3.49-3.47,1.55-3.47,3.47,1.54,3.49,3.47,3.49h0Zm0-7.45c2.2,0,3.98,1.77,3.98,3.97s-1.77,3.98-3.98,3.98-3.97-1.74-3.97-3.98,1.75-3.97,3.97-3.97h0Z"/><path class="cls-6" d="m274.05,40.67c-1.87-1.51-3.81-2.68-7.78-4.53l-3.21-1.51c-1.05-.55-1.57-1.1-1.57-1.72,0-1.65,2.09-2.88,4.94-2.88,2.13,0,4.66.62,9.5,2.2l3.34-12.39c-3.62-.98-7.15-1.48-10.67-1.48-13.31,0-23.55,7.28-23.55,16.68,0,4.94,3.29,8.44,11.51,12.29,3.89,1.78,4.56,2.27,4.56,3.5,0,1.85-2.02,3.02-5.31,3.02-2.92,0-6.65-.89-11.74-2.75h0s-3.58,12.77-3.58,12.77c4.58,1.36,9.59,2.12,14.28,2.12,6.36,0,11.22-1.44,15.4-4.46,4.64-3.3,7.63-8.37,7.63-12.97,0-3.09-1.35-5.9-3.74-7.9h0Z"/><path class="cls-5" d="m67.81,26.81c2.48,0,4.89.23,7.19.65l5.47-5.7c-3.83-1.32-8.12-2.07-12.66-2.07-7.72,0-14.73,2.15-19.93,5.66l4.77,4.52c4.41-1.93,9.6-3.05,15.16-3.05h0Z"/><path class="cls-3" d="m67.81,19.69c4.54,0,8.84.74,12.66,2.07l5.95-6.19c-5.55-2.19-11.88-3.43-18.61-3.43-10.03,0-19.18,2.76-26.17,7.3l6.24,5.91c5.2-3.5,12.21-5.66,19.93-5.66h0Z"/><path class="cls-5" d="m39.25,43.93c.5-2.04,1.43-3.98,2.7-5.78l-2.4-2.42c-.48,1.49-.74,3.04-.74,4.64,0,1.21.15,2.4.44,3.56h0Z"/><path class="cls-5" d="m21.54,57.33l-1.01,5.22,10.01-4.31c-.63-1.33-.76-3.06-1.12-4.47l-7.88,3.57h0Z"/><polygon class="cls-5" points="14.49 .6 0 79.95 6.85 80.51 21.2 0 14.49 .6 14.49 .6"/><path class="cls-2" d="m63.22,46.26v-6.42l-10.52-9.98-4.77-4.52-6.24-5.91L21.18,0,6.82,80.51l30.37-13.35c-3.02-2.67-5.17-5.52-6.76-8.87l-9.89,4.24.99-5.19,6.41-33.39.54-2.8,5.29,5.33,6.8,6.85,2.92,2.95,12.01,10.35-11.66,5.34c3.03,3.03,6.62,5.69,11.45,7.2l14.55-6.53-6.63-6.36h0Z"/><path class="cls-5" d="m96.38,43.93c.28-1.16.44-2.35.44-3.56,0-3.58-1.31-6.97-3.56-9.9l-3.45,3.58c3.31,2.76,5.67,6.16,6.58,9.89h0Z"/><path class="cls-5" d="m102.87,77.89l-8.19-7.87c-1.31.9-2.71,1.72-4.17,2.48l12.36,11.87,38.12-39.7-.04-6.43-38.07,39.64h0Z"/><path class="cls-5" d="m75.1,51.23l-6.74-6.47-5.16-4.93-.02,6.43,7.25,6.97,6.93,6.66c1.76-.44,3.45-.99,5.03-1.65l-7.3-7.01h0Z"/><polygon class="cls-5" points="101.6 15.32 96.18 20.97 90.19 27.21 86.11 31.46 78.38 39.51 81.62 42.62 89.85 34.05 93.29 30.47 99.59 23.91 101.6 21.81 122.56 41.9 125.81 38.53 101.6 15.32 101.6 15.32"/><path class="cls-3" d="m99.59,23.91l-6.3,6.56c2.25,2.94,3.53,6.31,3.53,9.89,0,1.21-.16,2.4-.44,3.56-.74,3.02-2.39,5.81-4.74,8.23-2.42,2.48-5.57,4.56-9.23,6.08-1.59.66-3.27,1.21-5.03,1.65-2.99.74-6.21,1.15-9.56,1.15-4.12,0-8.04-.61-11.59-1.72-4.84-1.51-8.98-3.92-12.02-6.95-1.11-1.1-2.06-2.29-2.85-3.54-.97-1.54-1.69-3.18-2.11-4.9-.28-1.16-.44-2.35-.44-3.56,0-1.6.26-3.15.74-4.64l-7.24-7.33c-2.65,3.93-4.15,8.36-4.15,13.05,0,1.21.11,2.4.3,3.56.46,2.84,1.48,5.54,2.96,8.07.74,1.27,1.6,2.49,2.57,3.66,2.55,3.07,5.83,5.77,9.68,7.96,6.68,3.8,15.05,6.07,24.14,6.07,6.36,0,12.36-1.11,17.69-3.07,1.61-.6,3.17-1.27,4.65-2.02,3.43-1.74,6.48-3.86,9.02-6.29,4.27-4.07,7.12-9,8-14.37.19-1.17.3-2.36.3-3.56,0-6.58-2.93-12.65-7.88-17.54h0Z"/><path class="cls-1" d="m75.07,51.27l7.27,6.98c3.66-1.53,6.84-3.58,9.26-6.06l-9.97-9.58-3.24-3.11,7.69-8.01,4.08-4.25,5.99-6.24,5.43-5.65,24.14,23.18-3.24,3.38-19.78,20.6c-2.08,2.86-4.78,5.39-7.98,7.57l8.12,7.84,38.12-39.69L101.26.13l-14.87,15.48-5.95,6.19-5.47,5.7-11.77,12.32,11.87,11.45h0Z"/><path class="cls-5" d="m41.52,49.02s.19.31.21.35c.58.93,1.38,1.77,2.14,2.62l11.86-5.48-27.25-25.38-.75,3.93,21.38,21.17-7.6,2.8h0Z"/><path class="cls-5" d="m107.46,41.45c0,1.21-.11,2.4-.3,3.56-.88,5.37-3.73,10.3-8,14.37-2.54,2.43-5.58,4.55-9.02,6.29-1.48.75-3.03,1.43-4.65,2.02-5.32,1.97-11.33,3.07-17.69,3.07-9.09,0-17.45-2.27-24.14-6.07-3.85-2.19-7.13-4.88-9.68-7.96-.97-1.17-1.83-2.39-2.57-3.66-1.48-2.53-2.5-5.23-2.96-8.07-.19-1.17-.3-2.36-.3-3.56,0-.38.03-.75.05-1.13,0-.02-.01-.05-.01-.07-.19,1.17-.03,7.12-.03,8.32,0,1.91.25,3.78.73,5.59.37,1.41.87,2.78,1.51,4.11,1.59,3.35,3.98,6.43,7.01,9.1,7.28,6.42,18.2,10.51,30.41,10.51,8.48,0,16.32-1.97,22.77-5.32,1.46-.76,2.86-1.59,4.16-2.49,3.19-2.19,5.9-4.75,7.98-7.61,3.02-4.13,4.74-8.87,4.74-13.9,0-1.06.09-6.09-.01-8.09-.02-.27.01.61.01.96h0Z"/><path class="cls-4" d="m168.53,87.56h1.71v-12.85h-1.71v12.85h0Zm14.54-9.09c-.11-2.83-2.11-4.07-4.73-4.07-2.34,0-4.66,1.15-4.66,3.76,0,2.36,2.07,2.95,4.12,3.4,2.05.45,4.1.76,4.1,2.52,0,1.85-1.71,2.34-3.26,2.34-1.94,0-3.74-.94-3.74-3.1h-1.62c0,3.13,2.43,4.54,5.31,4.54,2.34,0,5.02-1.1,5.02-3.83,0-2.52-2.05-3.24-4.1-3.71-2.07-.47-4.12-.7-4.12-2.29,0-1.67,1.44-2.2,2.88-2.2,1.76,0,2.99.79,3.19,2.63h1.62Zm5.22,2.16v-4.48h4.25c1.6,0,2.29.94,2.29,2.2,0,1.87-1.37,2.29-2.97,2.29h-3.56Zm-1.71,6.93h1.71v-5.49h4.18c1.66,0,1.96,1.06,2.14,2.32.25,1.26-.02,2.65.47,3.17h1.91c-.72-.88-.65-2.29-.76-3.55-.13-1.26-.43-2.36-1.93-2.65v-.04c1.55-.43,2.23-1.71,2.23-3.26,0-2.05-1.49-3.37-3.91-3.37h-6.05v12.85h0Zm11.7,0h1.76l1.44-3.87h5.44l1.4,3.87h1.89l-5.02-12.85h-1.89l-5.02,12.85h0Zm5.92-11.3h.04l2.14,5.99h-4.36l2.18-5.99h0Zm8.17,11.3h8.93v-1.44h-7.22v-4.45h6.68v-1.44h-6.68v-4.09h7.16v-1.44h-8.87v12.85h0Zm11.9,0h8.51v-1.44h-6.8v-11.41h-1.71v12.85h0Zm25.45-9.2c0-1.28-.7-1.93-2.11-1.93h-3.45c-.36,0-.54-.16-.54-.48v-1.67h-1.51v1.79c0,.86.15,1.42.44,1.69.29.27.79.4,1.5.4h3.54c.41,0,.61.18.61.55v1.23c0,.44-.11.87-.34,1.27-.23.4-.72.9-1.48,1.51-.76.61-1.29,1.11-1.59,1.5-.3.4-.44.91-.44,1.54,0,.55.16.98.47,1.3.32.32.73.48,1.23.48h.89v-1.73h-.76c-.22,0-.33-.09-.33-.28,0-.31.11-.59.32-.84.21-.25.68-.67,1.41-1.27.73-.6,1.26-1.14,1.6-1.62s.51-1.1.51-1.86v-1.59h0Zm9.66,6.89l-1.36-2.31c1.68-1.07,2.51-2.55,2.51-4.45v-.7c0-.9-.4-1.35-1.2-1.35h-1.29v1.73h.77c.14,0,.21.07.21.22v.11c0,1.41-.57,2.5-1.7,3.25l-1.57-2.65-1.57-2.65h-2.01l1.17,1.99,1.17,1.98c-1.43,1.02-2.15,2.45-2.15,4.28v1.53c0,.9.4,1.35,1.2,1.35h1.29v-1.73h-.77c-.14,0-.21-.07-.21-.21v-.94c0-1.38.45-2.42,1.34-3.11l1.77,3,1.77,3h2.01l-1.37-2.31h0Zm10.28-5.66c0-1.09-.25-1.89-.76-2.4-.5-.5-1.32-.76-2.46-.76h-4.05v1.73h3.95c.63,0,1.08.12,1.38.36.29.24.43.65.43,1.23v7.81h1.51v-7.97h0Zm12.13-1.06c0-.85-.15-1.41-.44-1.68-.29-.27-.79-.41-1.5-.41h-.29v1.73h.18c.36,0,.54.16.54.48v5.6c0,.58-.14.99-.43,1.23-.29.24-.75.36-1.38.36h-.55v-9.4h-1.51v9.4h-.56c-.63,0-1.09-.12-1.38-.36-.29-.24-.43-.65-.43-1.23v-5.6c0-.32.18-.48.54-.48h.18v-1.73h-.29c-.71,0-1.21.14-1.5.41-.29.27-.44.83-.44,1.68v5.89c0,1.09.25,1.89.76,2.39.5.5,1.32.76,2.46.76h2.85c1.14,0,1.96-.25,2.46-.76.5-.5.76-1.3.76-2.39v-5.89h0Zm5.95.91c0-1.1-.22-1.87-.67-2.33-.45-.45-1.17-.68-2.17-.68h-.91v1.73h.81c.53,0,.9.09,1.12.28.22.18.32.56.32,1.13v2.89h1.51v-3.02h0Z"/></svg>