<?xml version="1.0" encoding="UTF-8"?>
<svg id="Layer_1" xmlns="http://www.w3.org/2000/svg" viewBox="0 0 138.09 138.09">
  <defs>
    <style>
      .cls-1 {
        fill: #fff;
        stroke: #181716;
        stroke-width: 1.92px;
      }

      .cls-1, .cls-2 {
        stroke-linecap: round;
        stroke-linejoin: round;
      }

      .cls-2 {
        fill: none;
        stroke: #e3000b;
        stroke-width: 16px;
      }
    </style>
  </defs>
  <g>
    <polygon class="cls-1" points="70.78 107.66 70.78 74.37 23.41 52.35 23.41 85.86 70.78 107.66"/>
    <polygon class="cls-1" points="70.78 74.37 114.61 51.63 114.61 85.11 70.78 107.66 70.78 74.37"/>
    <polygon class="cls-1" points="23.41 52.35 67.52 29.8 114.61 51.63 70.78 74.37 23.41 52.35"/>
    <g>
      <path class="cls-1" d="M81.37,55.68c0,2.52-4.75,4.56-10.6,4.56s-10.58-2.03-10.58-4.56,4.73-4.55,10.58-4.55,10.6,2.04,10.6,4.55Z"/>
      <path class="cls-1" d="M81.37,55.68c0,2.52-4.75,4.56-10.6,4.56s-10.58-2.03-10.58-4.56v6.61c0,2.65,4.73,4.79,10.58,4.79s10.6-2.14,10.6-4.79v-6.61Z"/>
    </g>
    <g>
      <path class="cls-1" d="M103.47,45.06c0,2.52-4.75,4.56-10.6,4.56s-10.58-2.03-10.58-4.56,4.73-4.55,10.58-4.55,10.6,2.04,10.6,4.55Z"/>
      <path class="cls-1" d="M103.47,45.06c0,2.52-4.75,4.56-10.6,4.56s-10.58-2.03-10.58-4.56v6.61c0,2.65,4.73,4.79,10.58,4.79s10.6-2.14,10.6-4.79v-6.61Z"/>
    </g>
    <g>
      <path class="cls-1" d="M79.24,34.88c0,2.52-4.75,4.56-10.6,4.56s-10.58-2.03-10.58-4.56,4.73-4.55,10.58-4.55,10.6,2.04,10.6,4.55Z"/>
      <path class="cls-1" d="M79.24,34.88c0,2.52-4.75,4.56-10.6,4.56s-10.58-2.03-10.58-4.56v6.61c0,2.65,4.73,4.79,10.58,4.79s10.6-2.14,10.6-4.79v-6.61Z"/>
    </g>
    <g>
      <path class="cls-1" d="M56.43,45.2c0,2.52-4.75,4.56-10.6,4.56s-10.58-2.03-10.58-4.56,4.73-4.55,10.58-4.55,10.6,2.04,10.6,4.55Z"/>
      <path class="cls-1" d="M56.43,45.2c0,2.52-4.75,4.56-10.6,4.56s-10.58-2.03-10.58-4.56v6.61c0,2.65,4.73,4.79,10.58,4.79s10.6-2.14,10.6-4.79v-6.61Z"/>
    </g>
  </g>
  <circle class="cls-2" cx="69.04" cy="69.04" r="61.04"/>
  <line class="cls-2" x1="26.14" y1="25.62" x2="112.46" y2="111.95"/>
</svg>