<?xml version="1.0" encoding="UTF-8" standalone="no"?>
<!-- Created with Inkscape (http://www.inkscape.org/) -->

<svg
   version="1.1"
   id="svg2"
   width="480"
   height="336"
   viewBox="0 0 480 336"
   sodipodi:docname="Vertical.eps"
   xmlns:inkscape="http://www.inkscape.org/namespaces/inkscape"
   xmlns:sodipodi="http://sodipodi.sourceforge.net/DTD/sodipodi-0.dtd"
   xmlns="http://www.w3.org/2000/svg"
   xmlns:svg="http://www.w3.org/2000/svg">
  <defs
     id="defs6">
    <clipPath
       clipPathUnits="userSpaceOnUse"
       id="clipPath20">
      <path
         d="m 651.613,590.109 h 2296.77 v 1724.46 H 651.613 Z"
         id="path18" />
    </clipPath>
  </defs>
  <sodipodi:namedview
     id="namedview4"
     pagecolor="#ffffff"
     bordercolor="#000000"
     borderopacity="0.25"
     inkscape:showpageshadow="2"
     inkscape:pageopacity="0.0"
     inkscape:pagecheckerboard="0"
     inkscape:deskcolor="#d1d1d1" />
  <g
     id="g8"
     inkscape:groupmode="layer"
     inkscape:label="ink_ext_XXXXXX"
     transform="matrix(1.3333333,0,0,-1.3333333,0,336)">
    <g
       id="g10"
       transform="scale(0.1)">
      <path
         d="m 870.438,264.922 h 24.699 v 185.637 h -24.699 z m 210.072,131.297 c -1.56,40.82 -30.42,58.761 -68.38,58.761 -33.798,0 -67.337,-16.64 -67.337,-54.339 0,-34.059 29.898,-42.641 59.537,-49.141 29.64,-6.5 59.28,-10.918 59.28,-36.398 0,-26.782 -24.7,-33.801 -47.06,-33.801 -28.077,0 -54.077,13.519 -54.077,44.719 H 939.07 c 0,-45.239 35.102,-65.52 76.7,-65.52 33.8,0 72.54,15.859 72.54,55.379 0,36.402 -29.64,46.801 -59.28,53.562 -29.897,6.758 -59.538,10.137 -59.538,33.02 0,24.18 20.801,31.719 41.598,31.719 25.48,0 43.16,-11.442 46.02,-37.961 z m 75.4,-31.199 v 64.742 h 61.36 c 23.14,0 33.02,-13.524 33.02,-31.723 0,-27.039 -19.76,-33.019 -42.9,-33.019 z m -24.7,-100.098 h 24.7 v 79.297 h 60.32 c 23.92,0 28.34,-15.34 30.94,-33.539 3.64,-18.2 -0.26,-38.219 6.76,-45.758 h 27.56 c -10.4,12.738 -9.36,33.019 -10.92,51.219 -1.82,18.199 -6.24,34.058 -27.82,38.218 v 0.52 c 22.36,6.242 32.24,24.699 32.24,47.062 0,29.641 -21.58,48.618 -56.42,48.618 h -87.36 z m 169,0 h 25.48 l 20.8,55.898 h 78.52 l 20.28,-55.898 h 27.3 l -72.54,185.637 h -27.3 z m 85.54,163.277 h 0.52 l 30.94,-86.578 h -62.92 z m 118.04,-163.277 h 128.96 v 20.797 h -104.26 v 64.222 h 96.46 v 20.797 h -96.46 v 59.024 h 103.48 v 20.797 h -128.18 z m 171.86,0 h 122.98 v 20.797 h -98.28 v 164.84 h -24.7 z m 376.76,143.137 c 0,19.972 -10.94,29.953 -32.82,29.953 h -53.73 c -5.56,0 -8.34,2.5 -8.34,7.519 V 471.5 h -23.51 v -27.891 c 0,-13.308 2.27,-22.058 6.83,-26.25 4.56,-4.187 12.35,-6.289 23.38,-6.289 h 55.1 c 6.38,0 9.57,-2.871 9.57,-8.609 V 383.32 c 0,-6.929 -1.76,-13.519 -5.26,-19.761 -3.51,-6.239 -11.19,-14.079 -23.04,-23.508 -11.85,-9.442 -20.08,-17.231 -24.68,-23.379 -4.6,-6.152 -6.9,-14.152 -6.9,-24 0,-8.473 2.46,-15.223 7.38,-20.231 4.92,-5.011 11.3,-7.519 19.14,-7.519 h 13.81 v 26.93 h -11.76 c -3.37,0 -5.06,1.457 -5.06,4.378 0,4.829 1.66,9.18 4.99,13.051 3.33,3.879 10.64,10.489 21.95,19.828 11.3,9.34 19.62,17.75 24.95,25.223 5.33,7.477 8,17.137 8,28.988 z m 150.31,-107.18 -21.19,35.953 c 26.07,16.68 39.11,39.738 39.11,69.18 v 10.937 c 0,14.039 -6.25,21.063 -18.74,21.063 h -20.09 V 411.07 h 12.03 c 2.19,0 3.28,-1.14 3.28,-3.422 v -1.636 c 0,-21.961 -8.84,-38.821 -26.52,-50.582 l -24.48,41.289 -24.33,41.293 h -31.31 l 18.18,-30.903 18.19,-30.757 c -22.34,-15.864 -33.5,-38.063 -33.5,-66.59 v -23.793 c 0,-14.028 6.24,-21.047 18.73,-21.047 h 20.1 v 26.93 h -12.03 c -2.19,0 -3.28,1.097 -3.28,3.277 v 14.633 c 0,21.508 6.97,37.648 20.91,48.398 l 27.48,-46.621 27.48,-46.617 h 31.31 z m 159.89,88.043 c 0,17.047 -3.92,29.488 -11.75,37.328 -7.84,7.84 -20.6,11.762 -38.28,11.762 h -63.03 V 411.07 h 61.39 c 9.75,0 16.88,-1.84 21.39,-5.539 4.51,-3.691 6.77,-10.043 6.77,-19.07 V 264.922 h 23.51 z m 188.74,16.547 c 0,13.211 -2.28,21.941 -6.83,26.179 -4.56,4.243 -12.36,6.364 -23.38,6.364 h -4.51 V 411.07 h 2.87 c 5.56,0 8.34,-2.511 8.34,-7.519 v -87.09 c 0,-9.02 -2.26,-15.379 -6.77,-19.07 -4.51,-3.692 -11.69,-5.539 -21.53,-5.539 h -8.62 v 146.16 h -23.51 v -146.16 h -8.75 c -9.76,0 -16.89,1.847 -21.4,5.539 -4.51,3.691 -6.77,10.05 -6.77,19.07 v 87.09 c 0,5.008 2.78,7.519 8.34,7.519 h 2.87 v 26.942 h -4.51 c -11.03,0 -18.82,-2.121 -23.38,-6.364 -4.56,-4.238 -6.83,-12.968 -6.83,-26.179 v -91.598 c 0,-16.961 3.92,-29.351 11.76,-37.191 7.83,-7.84 20.59,-11.758 38.28,-11.758 h 44.29 c 17.68,0 30.44,3.918 38.28,11.758 7.84,7.84 11.76,20.23 11.76,37.191 z m 92.49,-14.219 c 0,17.039 -3.49,29.102 -10.46,36.16 -6.97,7.059 -18.25,10.602 -33.84,10.602 h -14.22 V 411.07 h 12.58 c 8.21,0 13.99,-1.429 17.37,-4.3 3.37,-2.879 5.05,-8.731 5.05,-17.571 v -44.98 h 23.52 v 47.031"
         style="fill:#969595;fill-opacity:1;fill-rule:nonzero;stroke:none"
         id="path12" />
      <g
         id="g14">
        <g
           id="g16"
           clip-path="url(#clipPath20)">
          <path
             d="m 1766.35,1977.98 c 31.15,0 61.39,-2.86 90.26,-8.13 l 68.71,71.58 c -48.05,16.64 -101.99,25.98 -158.97,25.98 -96.92,0 -184.92,-27.03 -250.14,-71.02 l 59.85,-56.73 c 55.36,24.26 120.5,38.32 190.29,38.32"
             style="fill:#959596;fill-opacity:1;fill-rule:nonzero;stroke:none"
             id="path22" />
          <path
             d="m 1766.35,2067.4 c 56.98,0 110.92,-9.33 158.97,-25.95 l 74.66,77.75 c -69.67,27.46 -149.16,43.07 -233.63,43.07 -125.92,0 -240.81,-34.65 -328.48,-91.65 l 78.34,-74.22 c 65.22,43.98 153.22,71 250.14,71"
             style="fill:#ffffff;fill-opacity:1;fill-rule:nonzero;stroke:none"
             id="path24" />
          <path
             d="m 1407.71,1763.17 c 6.29,25.65 17.9,50.02 33.9,72.52 l -30.07,30.42 c -6.01,-18.71 -9.31,-38.2 -9.31,-58.23 0,-15.26 1.94,-30.17 5.48,-44.71"
             style="fill:#959596;fill-opacity:1;fill-rule:nonzero;stroke:none"
             id="path26" />
          <path
             d="m 1185.41,1594.92 -12.63,-65.49 125.68,54.11 c -7.94,16.69 -9.49,38.42 -14.09,56.14 l -98.96,-44.76"
             style="fill:#959596;fill-opacity:1;fill-rule:nonzero;stroke:none"
             id="path28" />
          <path
             d="m 1096.96,2307.08 -181.909,-996.1 86.029,-7.02 180.12,1010.61 -84.24,-7.49"
             style="fill:#959596;fill-opacity:1;fill-rule:nonzero;stroke:none"
             id="path30" />
          <path
             d="m 1708.64,1733.87 v 80.56 l -132.11,125.23 -59.85,56.74 -78.34,74.21 -257.42,243.96 -180.21,-1010.61 381.28,167.63 c -37.98,33.52 -64.9,69.26 -84.85,111.37 l -124.14,-53.23 12.46,65.14 80.43,419.16 6.73,35.18 66.38,-66.87 85.41,-86.05 36.71,-36.97 150.81,-129.89 -146.43,-67.07 c 38.05,-38.01 83.06,-71.45 143.79,-90.35 l 182.65,82.02 -83.3,79.84"
             style="fill:#ed1c24;fill-opacity:1;fill-rule:nonzero;stroke:none"
             id="path32" />
          <path
             d="m 2124.96,1763.17 c 3.54,14.54 5.52,29.45 5.52,44.71 0,44.98 -16.48,87.44 -44.77,124.34 l -43.35,-44.92 c 41.6,-34.64 71.21,-77.33 82.6,-124.13"
             style="fill:#959596;fill-opacity:1;fill-rule:nonzero;stroke:none"
             id="path34" />
          <path
             d="m 2206.48,1336.81 -102.77,98.75 c -16.42,-11.23 -34.01,-21.63 -52.39,-31.18 l 155.16,-148.99 478.46,498.34 -0.53,80.71 -477.93,-497.63"
             style="fill:#959596;fill-opacity:1;fill-rule:nonzero;stroke:none"
             id="path36" />
          <path
             d="m 1857.81,1671.54 -84.6,81.27 -64.8,61.83 -0.23,-80.76 91.06,-87.47 87.06,-83.59 c 22.09,5.52 43.25,12.46 63.17,20.72 l -91.66,88"
             style="fill:#959596;fill-opacity:1;fill-rule:nonzero;stroke:none"
             id="path38" />
          <path
             d="m 2190.51,2122.22 -68.1,-70.92 -75.17,-78.3 -51.17,-53.32 -97.09,-101.08 40.67,-39.03 103.27,107.54 43.19,44.97 79.07,82.37 25.33,26.38 263.12,-252.22 40.7,42.24 -303.82,291.37"
             style="fill:#959596;fill-opacity:1;fill-rule:nonzero;stroke:none"
             id="path40" />
          <path
             d="m 2165.19,2014.45 -79.08,-82.37 c 28.28,-36.9 44.37,-79.2 44.37,-124.2 0,-15.25 -1.98,-30.17 -5.52,-44.71 -9.25,-37.88 -29.98,-72.94 -59.57,-103.26 -30.34,-31.08 -69.9,-57.21 -115.92,-76.37 -19.92,-8.25 -41.08,-15.21 -63.17,-20.72 -37.57,-9.3 -77.91,-14.46 -119.95,-14.46 -51.77,0 -100.96,7.71 -145.53,21.6 -60.73,18.93 -112.79,49.28 -150.84,87.29 -13.89,13.84 -25.87,28.73 -35.77,44.45 -12.19,19.34 -21.21,39.93 -26.5,61.47 -3.54,14.54 -5.47,29.46 -5.47,44.71 0,20.02 3.28,39.52 9.3,58.23 l -90.88,91.97 c -33.26,-49.34 -52.05,-104.94 -52.05,-163.82 0,-15.17 1.39,-30.08 3.8,-44.74 5.84,-35.58 18.58,-69.55 37.17,-101.26 9.29,-15.94 20.12,-31.25 32.27,-45.93 31.96,-38.58 73.19,-72.41 121.47,-99.9 83.91,-47.73 188.94,-76.16 303.03,-76.16 79.82,0 155.18,13.88 222.02,38.56 20.27,7.48 39.75,15.97 58.33,25.38 43.11,21.79 81.32,48.44 113.23,78.93 53.54,51.1 89.3,112.92 100.36,180.38 2.42,14.66 3.77,29.57 3.77,44.74 0,82.57 -36.75,158.78 -98.87,220.19"
             style="fill:#ffffff;fill-opacity:1;fill-rule:nonzero;stroke:none"
             id="path42" />
          <path
             d="m 1857.38,1670.92 91.33,-87.7 c 46,19.17 85.9,45 116.25,76.07 l -125.2,120.23 -40.65,39.03 96.51,100.52 51.2,53.32 75.13,78.3 68.12,70.91 303.11,-290.99 -40.7,-42.36 -248.31,-258.56 c -26.14,-35.85 -60.05,-67.63 -100.15,-95.06 l 102,-98.45 478.49,498.31 -498.33,478.46 -186.62,-194.37 -74.69,-77.75 -68.72,-71.59 -147.74,-154.6 148.97,-143.72"
             style="fill:#1c63b7;fill-opacity:1;fill-rule:nonzero;stroke:none"
             id="path44" />
          <path
             d="m 1436.27,1699.22 c 0,0 2.37,-3.93 2.66,-4.38 7.3,-11.62 17.34,-22.26 26.85,-32.86 l 148.86,68.76 -342.07,318.59 -9.35,-49.28 268.41,-265.71 -95.36,-35.12"
             style="fill:#959596;fill-opacity:1;fill-rule:nonzero;stroke:none"
             id="path46" />
          <path
             d="m 2264.06,1794.26 c 0,-15.17 -1.36,-30.08 -3.77,-44.74 -11.06,-67.46 -46.83,-129.28 -100.37,-180.39 -31.92,-30.48 -70.11,-57.13 -113.23,-78.92 -18.57,-9.41 -38.05,-17.9 -58.32,-25.38 -66.83,-24.68 -142.21,-38.56 -222.02,-38.56 -114.09,0 -219.13,28.43 -303.02,76.18 -48.28,27.47 -89.52,61.3 -121.48,99.87 -12.16,14.69 -22.98,30 -32.28,45.95 -18.57,31.7 -31.32,65.67 -37.15,101.25 -2.41,14.66 -3.81,29.57 -3.81,44.74 0,4.76 0.34,9.48 0.59,14.16 -0.06,0.27 -0.13,0.61 -0.15,0.85 -2.42,-14.67 -0.44,-89.33 -0.44,-104.47 0,-24 3.2,-47.44 9.16,-70.18 4.6,-17.71 10.96,-34.97 18.9,-51.65 19.96,-42.11 49.96,-80.74 87.94,-114.28 91.34,-80.59 228.42,-131.88 381.74,-131.88 106.39,0 204.86,24.74 285.78,66.78 18.38,9.56 35.86,19.98 52.27,31.21 40.1,27.44 74.08,59.67 100.22,95.51 37.9,51.89 59.44,111.33 59.44,174.49 0,13.33 1.15,76.46 -0.12,101.52 -0.23,3.45 0.12,-7.71 0.12,-12.06"
             style="fill:#959596;fill-opacity:1;fill-rule:nonzero;stroke:none"
             id="path48" />
          <path
             d="m 784.902,1176.97 h 396.108 l -37.3,-152.52 H 953.852 l -18.77,-80.153 H 1133.14 L 1098.65,802.961 H 903.168 L 856.234,602.188 H 651.613 l 133.289,574.782"
             style="fill:#231f20;fill-opacity:1;fill-rule:nonzero;stroke:none"
             id="path50" />
          <path
             d="m 1234.86,1176.97 h 204.63 L 1306.2,602.188 h -204.63 l 133.29,574.782"
             style="fill:#231f20;fill-opacity:1;fill-rule:nonzero;stroke:none"
             id="path52" />
          <path
             d="m 1644.14,902.93 c 65.72,0 111.7,38.789 111.7,93.933 0,29.297 -21.59,43.947 -63.83,43.947 -12.19,0 -18.76,-0.86 -31.9,-3.45 l -30.98,-132.712 c 6.57,-0.847 7.5,-1.718 15.01,-1.718 m -151.12,270.6 13.14,1.72 c 65.7,7.74 147.39,12.93 192.43,12.93 75.09,0 133.28,-8.62 177.4,-26.72 56.33,-23.27 90.12,-74.11 90.12,-135.3 0,-52.558 -17.84,-102.543 -51.64,-141.32 -29.1,-33.606 -55.36,-49.985 -109.82,-66.352 l -13.14,-4.312 c 5.64,-4.313 7.51,-6.043 10.33,-8.625 15.96,-18.098 63.83,-111.172 104.2,-203.363 h -225.29 c -29.1,81.855 -37.54,103.398 -76.03,196.48 l -45.06,-196.48 h -198.99 l 132.35,571.342"
             style="fill:#231f20;fill-opacity:1;fill-rule:nonzero;stroke:none"
             id="path54" />
          <path
             d="m 2451.88,1176.97 h 496.5 l -34.7,-166.4 h -147.34 l -97.63,-408.382 h -204.63 l 97.62,408.382 h -159.72 l 49.9,166.4"
             style="fill:#231f20;fill-opacity:1;fill-rule:nonzero;stroke:none"
             id="path56" />
          <path
             d="m 2763.13,656.633 c 4.42,0 6.95,2.121 6.95,6.18 0,3.855 -2.33,5.98 -6.76,5.98 -0.96,0 -1.16,0 -2.12,-0.191 v -11.77 c 0.76,-0.199 1.16,-0.199 1.93,-0.199 m -17.94,23.93 c 2.51,0.191 2.88,0.378 7.91,0.761 5,0.395 7.14,0.598 9.26,0.598 16.39,0 24.48,-6.375 24.48,-18.524 0,-7.351 -3.07,-11.781 -9.63,-14.289 l -0.78,-0.187 c 0.58,-0.395 0.78,-0.574 0.98,-0.969 1.72,-1.539 7.52,-10.219 12.34,-18.14 h -18.71 c -3.87,7.136 -5.02,9.07 -9.84,17.175 v -17.175 h -16.01 z m 19.29,-69.274 c 24.31,0 43.8,19.488 43.8,43.621 0,24.293 -19.49,43.781 -43.8,43.781 -24.12,0 -43.6,-19.488 -43.6,-43.601 0,-24.481 19.3,-43.801 43.6,-43.801 m 0,93.586 c 27.58,0 49.96,-22.211 49.96,-49.785 0,-27.785 -22.18,-49.973 -49.96,-49.973 -27.98,0 -49.78,21.817 -49.78,49.973 0,27.785 22,49.785 49.78,49.785"
             style="fill:#231f20;fill-opacity:1;fill-rule:nonzero;stroke:none"
             id="path58" />
          <path
             d="m 1926.17,616.789 c 57.53,-17.098 120.44,-26.68 179.22,-26.68 79.79,0 140.8,18.098 193.35,56.028 58.2,41.359 95.75,105.121 95.75,162.867 0,38.769 -16.88,74.094 -46.92,99.109 -23.48,18.946 -47.87,33.614 -97.62,56.864 l -40.36,18.949 c -13.15,6.914 -19.73,13.797 -19.73,21.564 0,20.67 26.29,36.17 61.96,36.17 26.69,0 58.49,-7.75 119.26,-27.62 l 41.95,155.6 c -45.45,12.35 -89.74,18.52 -133.99,18.52 -167.08,0 -295.68,-91.34 -295.68,-209.394 0,-62.039 41.3,-106 144.55,-154.266 48.81,-22.391 57.27,-28.434 57.27,-43.941 0,-23.258 -25.36,-37.926 -66.65,-37.926 -36.61,0 -83.54,11.215 -147.37,34.488 l -0.09,-0.023 -44.9,-160.309"
             style="fill:#231f20;fill-opacity:1;fill-rule:nonzero;stroke:none"
             id="path60" />
        </g>
      </g>
    </g>
  </g>
</svg>
