<svg preserveAspectRatio="none" overflow="visible" style="display: block;" width="221.051" height="60" viewBox="0 0 221.051 60" fill="none" xmlns="http://www.w3.org/2000/svg">
<g id="Group 5">
<path id="Vector" fill-rule="evenodd" clip-rule="evenodd" d="M70.6699 53.4514L65.0889 48.1029C67.2828 46.6046 69.1399 44.8462 70.5698 42.8886C70.589 42.8626 70.6068 42.8318 70.626 42.8051L84.2 28.7391L84.6033 28.3051L86.3747 26.4646L69.7983 10.5813L66.073 14.4513L59.1643 21.6363L53.8858 27.1224L53.8885 27.1258L53.4318 27.6001L54.9714 29.0718L62.1146 36.0233C60.5503 37.499 58.5649 38.7646 56.3224 39.6962C56.321 39.6969 56.3197 39.6969 56.3183 39.6976L51.6041 35.1814L46.977 30.7446L43.8279 27.7658L55.0681 16.079L69.358 1.2259L96.2248 26.8903L70.6699 53.4514ZM74.1325 30.9041C74.2539 30.1108 74.3225 29.325 74.3225 28.5707C74.3225 24.1244 72.3056 19.4371 68.9157 15.9415L69.7983 15.0236L83.53 28.1826L72.1602 39.9987C73.3679 37.1972 74.1483 33.7406 74.1483 31.2621C74.1483 31.1567 74.1421 31.0348 74.1325 30.9041ZM62.7174 35.4216L56.2367 29.1204L61.7265 23.4139C63.6789 25.0388 65.1239 26.98 65.8879 29.1135C65.8406 29.4619 65.7809 29.8124 65.6952 30.1635C65.2329 32.0533 64.2283 33.8193 62.7174 35.4216ZM61.6414 44.84C60.6395 45.3479 59.5779 45.8093 58.4827 46.2124C54.7217 47.5985 50.6659 48.3014 46.4298 48.3014C40.4229 48.3014 34.7383 46.8764 29.9892 44.1795C27.3653 42.6874 25.1605 40.8797 23.4378 38.805C22.778 38.0096 22.1958 37.1821 21.7061 36.3443C20.6939 34.6215 20.0266 32.8063 19.7221 30.9493C19.5843 30.1211 19.5178 29.3428 19.5178 28.5707C19.5178 25.7 20.3428 22.9354 21.9722 20.3461L26.3401 24.7596C26.0424 25.7712 25.8929 26.8007 25.8929 27.8233C25.8929 28.6734 25.9992 29.5393 26.2084 30.3955C26.5053 31.6064 27.0176 32.7912 27.7288 33.9185C28.2912 34.8104 28.977 35.6612 29.7649 36.4456C31.9327 38.6065 34.8741 40.3067 38.2715 41.3636C40.8495 42.1658 43.5947 42.5724 46.4298 42.5724C48.7183 42.5724 50.98 42.3013 53.1526 41.7633C54.3905 41.4553 55.5838 41.0638 56.6996 40.6018C59.2706 39.5333 61.5331 38.0452 63.2448 36.2964C64.9819 34.5168 66.1265 32.5318 66.6491 30.3948C66.8597 29.5331 66.9666 28.6679 66.9666 27.8233C66.9666 25.3948 66.0504 22.6466 64.5561 20.5452L68.2731 16.6814C71.4545 19.9908 73.3397 24.3995 73.3397 28.5707C73.3397 29.3373 73.2712 30.1382 73.1374 30.9493C72.5627 34.4483 70.7029 37.781 67.7574 40.5874C66.0312 42.2336 63.9731 43.6641 61.6414 44.84ZM18.7524 31.1088C18.7572 31.1402 18.7668 31.1697 18.7723 31.2025C18.7606 31.3257 18.7517 31.4421 18.7517 31.5345C18.7517 32.8446 19.5569 35.9548 19.8812 37.1958C19.8819 37.1972 19.8826 37.1985 19.8833 37.1999L15.6149 39.0206L19.6851 17.8505L21.3564 19.5007C19.4896 22.3406 18.5364 25.3893 18.5364 28.5707C18.5364 29.3955 18.6063 30.2265 18.7524 31.1088ZM28.7129 33.6098C28.6649 33.538 28.6059 33.4695 28.56 33.3963C27.9044 32.3586 27.4346 31.2689 27.1623 30.1635C27.1342 30.0465 27.1226 29.9301 27.0986 29.813C27.4147 28.6987 27.916 27.633 28.5764 26.6295L33.7652 31.7522L28.7129 33.6098ZM48.4001 36.5517L52.8591 40.8249C50.7805 41.3328 48.6182 41.5922 46.4298 41.5922C43.6935 41.5922 41.047 41.2 38.5637 40.4272C38.2318 40.3245 37.9094 40.2109 37.5871 40.0952L47.4688 35.6598L48.4001 36.5517ZM4.83829 54.1859L14.4175 0.926781L35.6491 21.0093L43.4205 28.4051V31.7782L46.724 34.9459L36.4048 39.6339C34.0731 38.6483 32.0431 37.33 30.4596 35.7509C30.4233 35.7153 30.3938 35.6749 30.3588 35.6393L38.277 31.9479L19.6536 14.6396L19.2866 14.2706L18.8423 16.6677L14.4442 39.5463L13.7632 43.1015L14.9291 42.6032L14.9339 42.5751L20.9161 40.0165C21.8508 41.9837 23.1916 43.8126 24.8622 45.4472L4.83829 54.1859ZM51.2646 18.8539L43.2744 27.1614L36.2546 20.5213C39.2701 19.2132 42.8102 18.4548 46.6012 18.4548C48.2087 18.4548 49.7689 18.5965 51.2646 18.8539ZM45.5094 8.03164C49.8444 8.03164 55.6393 9.14255 59.3186 10.4821L59.1534 10.6539L55.0681 14.8983L55.0544 14.9127C52.486 14.0557 49.6235 13.5732 46.6012 13.5732C41.3268 13.5732 36.5365 15.0359 32.9745 17.4172L32.9217 17.3672L28.6375 13.3151L28.2548 12.9537C32.9381 10.1316 39.0136 8.03164 45.5094 8.03164ZM14.5588 0L14.5677 0.00821371L14.5828 0.00684476L14.5807 0.0198498L27.4668 12.209C32.2468 9.25617 39.0911 6.99329 45.7303 6.99329C50.2942 6.99329 56.2977 8.17881 60.1162 9.65317L69.358 0.0458599L96.8331 26.2586L96.8386 26.2517V26.2627L96.8413 26.2661L96.8386 26.2688V30.6933L70.6699 57.8944L62.2305 49.8052C57.8065 52.1003 52.4202 53.4514 46.6012 53.4514C38.2167 53.4514 30.7202 50.6512 25.7256 46.2535C25.6913 46.2227 25.6598 46.1912 25.6255 46.1618L4.63324 55.3262L4.6305 55.342L0 54.8608L9.94816 0.491454L14.5574 0.00958267L14.5588 0Z" fill="white" style="fill:white;fill-opacity:1;"/>
<path id="Vector_2" d="M115.262 59.7861H116.44V50.8251H115.262V59.7861ZM125.279 53.4477C125.204 51.4777 123.828 50.6117 122.018 50.6117C120.407 50.6117 118.808 51.415 118.808 53.2349C118.808 54.8786 120.233 55.2932 121.646 55.6071C123.06 55.9209 124.473 56.1336 124.473 57.3642C124.473 58.6565 123.295 58.996 122.229 58.996C120.89 58.996 119.651 58.3427 119.651 56.8371H118.535C118.535 59.0211 120.208 60 122.192 60C123.803 60 125.65 59.2343 125.65 57.3266C125.65 55.5695 124.237 55.0674 122.824 54.741C121.398 54.4142 119.985 54.2511 119.985 53.147C119.985 51.9798 120.977 51.6157 121.969 51.6157C123.183 51.6157 124.027 52.1681 124.163 53.4482L125.279 53.4477ZM128.874 54.9539V51.8291H131.799C132.902 51.8291 133.374 52.4818 133.374 53.3604C133.374 54.6657 132.431 54.9544 131.328 54.9544L128.874 54.9539ZM127.696 59.7861H128.874V55.958H131.75C132.89 55.958 133.101 56.6989 133.225 57.5776C133.398 58.4563 133.212 59.4226 133.547 59.7866H134.861C134.365 59.1716 134.415 58.1921 134.341 57.314C134.254 56.4355 134.043 55.6693 133.014 55.469V55.4439C134.08 55.1427 134.551 54.2516 134.551 53.1722C134.551 51.7408 133.522 50.8251 131.861 50.8251H127.696V59.7861ZM135.754 59.7861H136.969L137.96 57.0876H141.704L142.671 59.7861H143.973L140.514 50.8251H139.212L135.754 59.7861ZM139.832 51.904H139.857L141.332 56.0841H138.332L139.832 51.904ZM145.46 59.7866H151.609V58.7826H146.638V55.6824H151.237V54.6783H146.638V51.8291H151.572V50.8251H145.46V59.7866ZM153.654 59.7866H159.518V58.7826H154.832V50.8251H153.654V59.7866ZM171.182 53.3699C171.182 52.4755 170.697 52.0279 169.728 52.0279H167.349C167.103 52.0279 166.98 51.9154 166.98 51.6911V50.5264H165.939V51.7764C165.939 52.3725 166.041 52.7653 166.242 52.953C166.444 53.1413 166.788 53.2349 167.276 53.2349H169.717C170 53.2349 170.14 53.3635 170.14 53.6208V54.4796C170.14 54.7896 170.063 55.0845 169.908 55.3648C169.752 55.6446 169.412 55.9961 168.888 56.4186C168.363 56.8424 167.999 57.1911 167.794 57.4667C167.591 57.7428 167.489 58.1011 167.489 58.5426C167.489 58.9226 167.597 59.2245 167.816 59.4499C168.034 59.6742 168.317 59.7866 168.663 59.7866H169.274V58.5786H168.754C168.605 58.5786 168.53 58.5137 168.53 58.3824C168.53 58.1665 168.603 57.9713 168.751 57.7977C168.898 57.6241 169.222 57.3276 169.723 56.9088C170.223 56.4903 170.591 56.1132 170.827 55.7786C171.064 55.4439 171.182 55.0099 171.182 54.4796V53.3699ZM177.836 58.1743L176.898 56.5631C178.052 55.8152 178.63 54.7813 178.63 53.4619V52.9712C178.63 52.3422 178.353 52.0279 177.801 52.0279H176.91V53.2349H177.443C177.539 53.2349 177.588 53.2861 177.588 53.3881V53.4619C177.588 54.4466 177.196 55.2022 176.414 55.7299L175.33 53.8787L174.253 52.0274H172.866L173.672 53.4127L174.476 54.7918C173.489 55.5024 172.995 56.4972 172.995 57.7763V58.8421C172.995 59.4718 173.269 59.7866 173.824 59.7866H174.713V58.5786H174.18C174.083 58.5786 174.035 58.5299 174.035 58.4322V57.7763C174.035 56.812 174.345 56.0888 174.962 55.6071L176.178 57.6968L177.395 59.7866H178.78L177.836 58.1743ZM184.916 54.2275C184.916 53.4639 184.741 52.9065 184.395 52.5551C184.047 52.2037 183.483 52.0279 182.7 52.0279H179.908V53.2349H182.627C183.06 53.2349 183.374 53.318 183.574 53.4828C183.774 53.649 183.874 53.9335 183.874 54.3379V59.7866H184.916V54.2275ZM193.271 53.4863C193.271 52.8939 193.171 52.5027 192.968 52.3129C192.767 52.1226 192.422 52.0279 191.935 52.0279H191.735V53.2349H191.861C192.108 53.2349 192.231 53.3478 192.231 53.5721V57.4756C192.231 57.881 192.129 58.1653 191.931 58.3312C191.731 58.4965 191.413 58.5786 190.977 58.5786H190.596V52.0279H189.556V58.5786H189.168C188.735 58.5786 188.42 58.4965 188.22 58.3312C188.021 58.1653 187.921 57.881 187.921 57.4756V53.5721C187.921 53.3473 188.044 53.2349 188.29 53.2349H188.417V52.0279H188.217C187.729 52.0279 187.383 52.1226 187.182 52.3129C186.98 52.5027 186.88 52.8934 186.88 53.4863V57.5918C186.88 58.3521 187.053 58.908 187.4 59.2594C187.748 59.6108 188.312 59.7866 189.094 59.7866H191.056C191.838 59.7866 192.404 59.6108 192.75 59.2594C193.098 58.908 193.271 58.3521 193.271 57.5923V53.4863ZM197.367 54.124C197.367 53.3594 197.212 52.819 196.902 52.5027C196.594 52.1858 196.095 52.0279 195.406 52.0279H194.776V53.2349H195.332C195.695 53.2349 195.952 53.2997 196.101 53.4278C196.251 53.557 196.325 53.8191 196.325 54.216V56.2315H197.367V54.124Z" fill="white" style="fill:white;fill-opacity:1;"/>
<path id="Vector_3" d="M103.058 12.7164H124.662L122.627 21.0391H112.272L111.249 25.4119H122.05L120.17 33.123H109.508L106.949 44.0787H95.7889L103.058 12.7164ZM127.599 12.7164H138.758L131.488 44.0787H120.328L127.599 12.7164ZM149.92 27.6694C153.503 27.6694 156.012 25.5529 156.012 22.544C156.012 20.9453 154.834 20.1461 152.53 20.1461C151.866 20.1461 151.507 20.1926 150.791 20.3336L149.1 27.5742C149.46 27.6223 149.51 27.6694 149.92 27.6694ZM141.678 12.9048L142.394 12.8103C145.978 12.387 150.433 12.1055 152.888 12.1055C156.985 12.1055 160.159 12.5753 162.565 13.5623C165.636 14.8322 167.48 17.6062 167.48 20.9453C167.48 23.8131 166.506 26.5406 164.664 28.6564C163.076 30.4901 161.643 31.3832 158.673 32.2763L157.957 32.5112C158.264 32.7468 158.367 32.8414 158.52 32.9818C159.391 33.9696 162.002 39.0477 164.204 44.0787H151.916C150.329 39.6114 149.869 38.4367 147.769 33.358L145.312 44.0787H134.46L141.678 12.9048ZM193.972 12.7164H221.051L219.159 21.7953H211.123L205.799 44.0787H194.638L199.963 21.7953H191.252L193.972 12.7164ZM210.947 41.1074C211.189 41.1074 211.326 40.9916 211.326 40.7704C211.326 40.5601 211.199 40.4442 210.957 40.4442C210.906 40.4442 210.894 40.4442 210.843 40.4545V41.0971C210.885 41.1074 210.906 41.1074 210.947 41.1074ZM209.969 39.8018C210.105 39.7916 210.127 39.7813 210.4 39.7601C210.673 39.7387 210.79 39.7278 210.906 39.7278C211.8 39.7278 212.242 40.0758 212.242 40.7388C212.242 41.1388 212.074 41.3806 211.715 41.5176L211.674 41.5286C211.705 41.5498 211.715 41.56 211.727 41.5806C211.821 41.6655 212.136 42.1395 212.399 42.571H211.379C211.169 42.1812 211.105 42.0758 210.843 41.634V42.571H209.969V39.8018ZM211.022 43.5813C212.348 43.5813 213.41 42.5177 213.41 41.2026C213.412 40.8883 213.35 40.577 213.23 40.2865C213.11 39.996 212.935 39.7321 212.713 39.5099C212.491 39.2877 212.227 39.1116 211.937 38.9919C211.646 38.8721 211.335 38.8111 211.022 38.812C209.706 38.812 208.644 39.8758 208.644 41.1916C208.644 42.5286 209.696 43.5813 211.022 43.5813ZM211.022 38.4751C212.526 38.4751 213.746 39.6868 213.746 41.1916C213.746 42.7074 212.536 43.9184 211.022 43.9184C209.494 43.9184 208.306 42.7286 208.306 41.1916C208.306 39.6758 209.506 38.4751 211.022 38.4751ZM187.74 27.3865C186.459 26.3523 185.128 25.5529 182.416 24.2837L180.215 23.2495C179.496 22.8728 179.139 22.4967 179.139 22.0735C179.139 20.9453 180.572 20.0987 182.518 20.0987C183.973 20.0987 185.707 20.5221 189.022 21.6064L191.309 13.1171C188.83 12.4431 186.416 12.1055 184.001 12.1055C174.889 12.1055 167.877 17.0891 167.877 23.531C167.877 26.9168 170.129 29.3147 175.759 31.9483C178.422 33.1702 178.882 33.4997 178.882 34.3456C178.882 35.6147 177.5 36.4147 175.248 36.4147C173.252 36.4147 170.692 35.8031 167.21 34.534L167.206 34.5353L164.757 43.2813C167.895 44.2143 171.326 44.7368 174.531 44.7368C178.882 44.7368 182.21 43.7499 185.077 41.6806C188.251 39.4238 190.298 35.9442 190.298 32.7942C190.298 30.6777 189.376 28.7503 187.74 27.3865Z" fill="white" style="fill:white;fill-opacity:1;"/>
</g>
</svg>
